<mxfile host="app.diagrams.net" agent="Mozilla/5.0 (Windows NT 10.0; Win64; x64) AppleWebKit/537.36 (KHTML, like Gecko) Chrome/131.0.0.0 Safari/537.36" version="26.0.8">
  <diagram name="第 1 页" id="IZeQTa4BWUoq457Wxl4f">
    <mxGraphModel dx="1151" dy="753" grid="1" gridSize="10" guides="1" tooltips="1" connect="1" arrows="1" fold="1" page="1" pageScale="1" pageWidth="827" pageHeight="1169" math="0" shadow="0">
      <root>
        <mxCell id="0" />
        <mxCell id="1" parent="0" />
        <mxCell id="3Dfbh3uyOyyrv-4ScR3l-1" value="" style="rounded=1;whiteSpace=wrap;html=1;dashed=1;" vertex="1" parent="1">
          <mxGeometry x="140" y="81" width="890" height="560" as="geometry" />
        </mxCell>
        <mxCell id="3Dfbh3uyOyyrv-4ScR3l-2" value="" style="shape=image;verticalLabelPosition=bottom;labelBackgroundColor=default;verticalAlign=top;aspect=fixed;imageAspect=0;image=data:image/jpeg,/9j/4AAQSkZJRgABAQEAZABkAAD/2wBDAAgGBgcGBQgHBwcJCQgKDBQNDAsLDBkSEw8UHRofHh0aHBwgJC4nICIsIxwcKDcpLDAxNDQ0Hyc5PTgyPC4zNDL/2wBDAQkJCQwLDBgNDRgyIRwhMjIyMjIyMjIyMjIyMjIyMjIyMjIyMjIyMjIyMjIyMjIyMjIyMjIyMjIyMjIyMjIyMjL/wAARCAH5BKADASIAAhEBAxEB/8QAHwAAAQUBAQEBAQEAAAAAAAAAAAECAwQFBgcICQoL/8QAtRAAAgEDAwIEAwUFBAQAAAF9AQIDAAQRBRIhMUEGE1FhByJxFDKBkaEII0KxwRVS0fAkM2JyggkKFhcYGRolJicoKSo0NTY3ODk6Q0RFRkdISUpTVFVWV1hZWmNkZWZnaGlqc3R1dnd4eXqDhIWGh4iJipKTlJWWl5iZmqKjpKWmp6ipqrKztLW2t7i5usLDxMXGx8jJytLT1NXW19jZ2uHi4+Tl5ufo6erx8vP09fb3+Pn6/8QAHwEAAwEBAQEBAQEBAQAAAAAAAAECAwQFBgcICQoL/8QAtREAAgECBAQDBAcFBAQAAQJ3AAECAxEEBSExBhJBUQdhcRMiMoEIFEKRobHBCSMzUvAVYnLRChYkNOEl8RcYGRomJygpKjU2Nzg5OkNERUZHSElKU1RVVldYWVpjZGVmZ2hpanN0dXZ3eHl6goOEhYaHiImKkpOUlZaXmJmaoqOkpaanqKmqsrO0tba3uLm6wsPExcbHyMnK0tPU1dbX2Nna4uPk5ebn6Onq8vP09fb3+Pn6/9oADAMBAAIRAxEAPwD3+iiigAooooAKKKKACiiigApsieZGybmXcCNynBHuKdSMCylQxUkYyOooA5LwdHNaa54p05769u4bS9hWE3lw0zKGtonIBY8DcxOBxzSavHNrfjlNEe/vbSxg037WRZ3DQPLI0hQZZSDhQp46EtzmptN8FnTb6/u18Sa3PJfg/aPNaAbm8sRq42xKQyqq4wcccg1avvCkN4bGZNT1K1vrS3NsL2CVfOljOMhyykNkqDnGQeRigBvgfULrUvCVrNezGe5jknt3mIAMvlSvGHOO5CAn610NU9K0u10XS7fTrJCltbpsQFiSfUknqScknuTVygAooooAKKKKACiiigAooooAKKKKACiiigAooooAKKKKACiiigAooooAKKKKACvL7281E6FrXi5dVvku7HVZYobVZ2EHkxT+UY2i+6SwBJJG7LcHivUK5mfwPp1xqEs7XV8tpPdLeTacsq/Z5ZgQQ7Dbu6qCQGCkjJBoAb49urq18PxfZLiaOSW8giMdsxWedS3zRxMOjkA88YAPI6ip4Gubl9Q12zmfUIooJYjDY6nMZrmBWTli+WyrEHGGbG08joNe98L2+oWUlvc32oMxvPtsE/nDzLaTPAjOMBRyACCMEg5qXRvD8Ojz3d0bu7vb282efdXbKXYICFXCqqgDLcADqaANeiiigAooooAKKKKACiiigAooooAKKKKACiiigAooooAKKKKACiiigAooooAKKKKAPPdUF9q9/wCL7hdXv7JtFVY7FLacxoriBZi7qOJMl8YbIwtaXiHxPeWPwsfxFbptvJLKGRQq7tjy7BkA9cb84PpVzV/Bdjq97dXDXuoWq3saxX0FrKFS6RRgB8qSODtypUkcZq7P4csru11Kzunnnsb+JYmtXf8Adwqq7cRgAFfXr154oAwfCkk9hr0mlalBqMN9Nafaozc6q94kiKwVjzgI4LLkKMc8E4rtaxNI8Mw6XqD6hLqF/qN4YRbrPeyKzRxZztXaqjkgEkgk4GTxW3QAUUUUAFFFFABRRRQAUUUUAFFFFABRRRQAUUUUAFFFFABRRRQAUUUUAFFFFABXHanDPr3jqbRpNRv7Oys9NjuQtlcNAzyySSLuLLyQoj4HTLHINdjWJrHhmDVr+O/jv7/Tr1ITAZ7KRVZ4ic7G3KwxnkHGRk4IzQBR8NeISfh5Brms3AP2eCRrmfb94RMyl8D1C5wPWua8K+KY9U+Ie6bxFaz/AG/TTJHp8N8kkcDiQbYwqsQZAgJYjnJb+ECu507w/aaSYI7OS4S0gtFtI7MyZhCg534IyXPQknmnLoNkniEa0qstyLX7KFAATbu3ZxjOc+/SgDTooooAKKKKACiiigAooooAKKKKACiiigAooooAKKKKACiiigAooooAKKKKACiiigDlPEjT3/inQ9BF5dWtpcw3N1cNazNFJJ5XlhUDrhgMyZOCPuipvBd3dTWGpWd1cyXR07UZrOOeU5d41wV3HuQGCk99tX9a0CDWmtZjc3Vnd2js1vdWrKJI9www+YMpBHUEHoPSo9M8M22kizW1u70LbvNJIGmz9qklOWeXj5mzkjpjPpxQBgNayaf4z0qx0nVtVu7oO0uqJc3bTRJblGwWU/Kjl9u0KBnDdhXc1y+ieCzoV081v4i1iVZZ2uJ4p/s7Cdz13sIQ57D73AAA4FdRQAUUUUAFFFFABRRRQAUUUUAFFFFABRRRQAUUUUAFFFFABRRRQAUUUUAFFFFABXMeMri5A0XTbe6mtV1PUltppoW2usYjkkIVuqk+WFyOeTiunrO1rRbbXbJLa4eaJo5VmhngbbJDIp4ZTgjPXqCCCQRQBjeFpLi017xBob3dxdW1i8Elu9zKZZEWVCShc8tgqSCcnDYzXM6jeai2ieIvFi6rfR3emalNHb2yTsIPKhlCFGi+628BiSRn5hgjFdjZeFILFd0epak9zJdrd3N00y+Zcsq7QkmFA2YwNoAHAqC68D6ddX887XV8lpcXC3Vxp6SqLeaVcEMw27uqqSAwBI5BoA6aiiigAooooAKKKKACiiigAooooAK47SPH+h/Z7qPWfEGk2t7BfXcDQy3UcbKiTyImVJz9xV+vWuxr5L10D/hKdd4/5il3/wCj3rKtV9nHmtc6MNQ9tPlvY+kv+E+8Hf8AQ1aJ/wCB8X/xVH/CfeDv+hq0T/wPi/8Aiq+YMD0FLgelcv13+7+J2/2Z/f8Aw/4J9Pf8J94O/wChq0T/AMD4v/iqP+E+8Hf9DVon/gfF/wDFV8xAD0pwA9BR9e/u/iP+y/7/AOH/AAT6b/4T7wd/0NWif+B8X/xVH/CfeDv+hq0T/wAD4v8A4qvmUAelKAPSl9f/ALv4j/sr+/8Ah/wT6Z/4T7wd/wBDVon/AIHxf/FUf8J94O/6GrRP/A+L/wCKr5oAHoKXA9KX1/8Au/j/AMAP7K/v/h/wT6W/4T7wd/0NWif+B8X/AMVR/wAJ94O/6GrRP/A+L/4qvmnA9KcAPSj+0P7v4/8AAH/ZP9/8P+CfSn/CfeDv+hq0T/wPi/8AiqP+E+8Hf9DVon/gfF/8VXzZgegpcD0FL+0P7v4/8Af9kf3/AMP+CfSX/CfeDv8AoatE/wDA+L/4qj/hPvB3/Q1aJ/4Hxf8AxVfN4A9BSgD0FL+0f7v4/wDAD+yP7/4f8E+j/wDhPvB3/Q1aJ/4Hxf8AxVH/AAn3g7/oatE/8D4v/iq+cQB6ClAHpR/aP938f+AP+x/7/wCH/BPo3/hPvB3/AENWif8AgfF/8VR/wn3g7/oatE/8D4v/AIqvnTA9BSgD0FL+0v7v4/8AAH/Y/wDf/D/gn0V/wn3g7/oatE/8D4v/AIqj/hPvB3/Q1aJ/4Hxf/FV87AD0FOwPQUv7T/u/j/wB/wBjf3/w/wCCfQ//AAn3g7/oatE/8D4v/iqP+E+8Hf8AQ1aJ/wCB8X/xVfPIA9BTgB6Cl/an9z8f+AP+xf7/AOH/AAT6E/4T7wd/0NWif+B8X/xVH/CfeDv+hq0T/wAD4v8A4qvnwAegpwA9BR/an9z8f+AP+xP+nn4f8E+gf+E+8Hf9DVon/gfF/wDFUf8ACfeDv+hq0T/wPi/+KrwAAegpcD0FL+1f7n4/8Af9h/8ATz8P+Ce16X8R/Ds+o61Hd+JdGSCC8WO0Y3ka74vIiYkHPzfO0gz7Y7Vp/wDCfeDv+hq0T/wPi/8Aiq8DAHoKXA9BS/tb+5+P/AH/AGF/08/D/gnvf/CfeDv+hq0T/wAD4v8A4qj/AIT7wd/0NWif+B8X/wAVXgoA9BTgB6Cl/a/9z8f+AP8AsH/p5+H/AAT3j/hPvB3/AENWif8AgfF/8VR/wn3g7/oatE/8D4v/AIqvCMD0FOAHoKX9r/3Px/4A/wCwP+nn4f8ABPdf+E+8Hf8AQ1aJ/wCB8X/xVH/CfeDv+hq0T/wPi/8Aiq8MAHoKUAego/tj+5+P/AD+wP8Ap5+H/BPcv+E+8Hf9DVon/gfF/wDFUf8ACfeDv+hq0T/wPi/+Krw4KPQU4KPQUv7Y/ufj/wAAP7A/6efh/wAE9v8A+E+8Hf8AQ1aJ/wCB8X/xVH/CfeDv+hq0T/wPi/8Aiq8SCj0FOCj0FH9s/wBz8f8AgB/YH/Tz8P8Agntf/CfeDv8AoatE/wDA+L/4qj/hPvB3/Q1aJ/4Hxf8AxVeLbR6ClCj0FH9s/wBz8f8AgB/YH/Tz8P8AgntH/CfeDv8AoatE/wDA+L/4qj/hPvB3/Q1aJ/4Hxf8AxVeMhR6CnBR6Cl/bP9z8f+AH9gf9PPw/4J7J/wAJ94O/6GrRP/A+L/4qj/hPvB3/AENWif8AgfF/8VXjoUegoCj0FH9tf3Px/wCAH9gf9PPw/wCCexf8J94O/wChq0T/AMD4v/iqP+E+8Hf9DVon/gfF/wDFV4+FHoKcFHoKP7a/ufj/AMAP7A/6efh/wT17/hPvB3/Q1aJ/4Hxf/FUf8J94O/6GrRP/AAPi/wDiq8jCr6D8qdtHoPypf21/c/H/AIAf2B/08/D/AIJ61/wn3g7/AKGrRP8AwPi/+Ko/4T7wd/0NWif+B8X/AMVXkwUegpwVfQflR/bX9z8f+AL+wf8Ap5+H/BPV/wDhPvB3/Q1aJ/4Hxf8AxVH/AAn3g7/oatE/8D4v/iq8qCr6D8qcFX0H5Uf21/c/H/gB/YP/AE8/D/gnqf8Awn3g7/oatE/8D4v/AIqsyD4j+HW8UX9rJ4l0YafHZ28kMn2yMBpWeYSDdnnAWPjtn3rgAq+g/KlCr6D8qP7a/ufj/wAAX9hf9PPw/wCCeo/8J94O/wChq0T/AMD4v/iqP+E+8Hf9DVon/gfF/wDFV5gFX0H5U/avoPyp/wBtf3Px/wCAL+wv+nn4f8E9M/4T7wd/0NWif+B8X/xVH/CfeDv+hq0T/wAD4v8A4qvNAq+g/KnBV9B+VH9s/wBz8f8AgB/Yf/Tz8P8AgnpP/CfeDv8AoatE/wDA+L/4qj/hPvB3/Q1aJ/4Hxf8AxVecBV/uj8qUKvoPyo/tn+5+P/AF/Yf/AE8/D/gno3/CfeDv+hq0T/wPi/8AiqP+E+8Hf9DVon/gfF/8VXnYVf7o/KlCr/dH5U/7Z/ufj/wBf2J/f/D/AIJ6H/wn3g7/AKGrRP8AwPi/+Ko/4T7wd/0NWif+B8X/AMVXnwVf7o/Kn7V/uj8qP7Z/ufj/AMAP7F/v/h/wTvv+E+8Hf9DVon/gfF/8VR/wn3g7/oatE/8AA+L/AOKrggq/3R+VOCr/AHR+VH9sf3Px/wCAL+xf7/4f8E7v/hPvB3/Q1aJ/4Hxf/FUf8J94O/6GrRP/AAPi/wDiq4YKv90flS7V/uj8qf8AbH9z8f8AgB/Y39/8P+Cdx/wn3g7/AKGrRP8AwPi/+Ko/4T7wd/0NWif+B8X/AMVXEBV/uj8qcFX+6Pyp/wBr/wBz8f8AgC/sf+/+H/BO1/4T7wd/0NWif+B8X/xVH/CfeDv+hq0T/wAD4v8A4quM2r/dH5UoVf7o/Kj+1/7n4/8AAF/ZH9/8P+Cdl/wn3g7/AKGrRP8AwPi/+Ko/4T7wd/0NWif+B8X/AMVXHbV/uj8qcFX+6Pyp/wBrf3Px/wCAL+yP7/4f8E6//hPvB3/Q1aJ/4Hxf/FUf8J94O/6GrRP/AAPi/wDiq5Hav90flTgq/wB0flR/av8Ac/H/AIAv7J/v/h/wTrP+E+8Hf9DVon/gfF/8VR/wn3g7/oatE/8AA+L/AOKrlNq/3R+VKFX+6Pyp/wBq/wBz8f8AgC/sr+/+H/BOq/4T7wd/0NWif+B8X/xVH/CfeDv+hq0T/wAD4v8A4quXCr/dH5UoVf7o/Kn/AGp/c/H/AIAv7L/v/h/wTUn+I/h1fFFhax+JdGOnyWdxJNJ9sjIWVXhEY3Z4yGk4749q0/8AhPvB3/Q1aJ/4Hxf/ABVc0EX+6PypQq5+6Pyo/tT+5+P/AABf2Z/f/D/gnSf8J94O/wChq0T/AMD4v/iqP+E+8Hf9DVon/gfF/wDFVzu1f7o/KlCL/dH5U/7T/u/j/wAAX9m/3vw/4J0P/CfeDv8AoatE/wDA+L/4qj/hPvB3/Q1aJ/4Hxf8AxVYG1f7o/KlCL/dH5U/7S/u/j/wBf2d/e/D/AIJvf8J94O/6GrRP/A+L/wCKo/4T7wd/0NWif+B8X/xVYYRf7o/KlCL/AHR+VP8AtL+7+P8AwBf2d/e/D/gm3/wn3g7/AKGrRP8AwPi/+Ko/4T7wd/0NWif+B8X/AMVWMEX+6PypQi/3R+VP+0f7v4/8AX9n/wB78P8Agmx/wn3g7/oatE/8D4v/AIqj/hPvB3/Q1aJ/4Hxf/FVkhF/uj8qdsX+6Pyo/tD+7+P8AwBfUP734f8E1P+E+8Hf9DVon/gfF/wDFUf8ACfeDv+hq0T/wPi/+KrMCL/dH5U7Yv90flT+v/wB38f8AgC+o/wB78DR/4T7wd/0NWif+B8X/AMVR/wAJ94O/6GrRP/A+L/4qs8Iv90flTgi/3R+VP69/d/EX1L+9+Be/4T7wd/0NWif+B8X/AMVR/wAJ94O/6GrRP/A+L/4qqWxf7o/KnBF/uj8qf17+7+Ivqf8Ae/At/wDCfeDv+hq0T/wPi/8AiqP+E+8Hf9DVon/gfF/8VVUIufuj8qdsX+6Pyp/Xf7v4i+qeZY/4T7wd/wBDVon/AIHxf/FUf8J94O/6GrRP/A+L/wCKqEIv90flS7F/uj8qf1z+7+IfVPMl/wCE+8Hf9DVon/gfF/8AFUf8J94O/wChq0T/AMD4v/iqjCL/AHR+VGxf7o/Kj635C+q+ZJ/wn3g7/oatE/8AA+L/AOKo/wCE+8Hf9DVon/gfF/8AFU3Yv90flS7F/uj8qf1vyF9W8xf+E+8Hf9DVon/gfF/8VWZqnxH8Owajosdp4l0Z4J7xo7theRtsi8iVgSc/L86xjPvjvWmEX+6Pypdi/wB0flT+teQfVvMT/hPvB3/Q1aJ/4Hxf/FUf8J94O/6GrRP/AAPi/wDiqdsX+6Pypdi/3R+VP6z5C+r+Yz/hPvB3/Q1aJ/4Hxf8AxVH/AAn3g7/oatE/8D4v/iqkCL/dH5U7Yv8AdH5UfWfIX1fzIf8AhPvB3/Q1aJ/4Hxf/ABVH/CfeDv8AoatE/wDA+L/4qpti/wB0flS7F/uj8qf1jyD2HmQf8J94O/6GrRP/AAPi/wDiqP8AhPvB3/Q1aJ/4Hxf/ABVWNi/3R+VOCL/dH5U/b+QvY+ZV/wCE+8Hf9DVon/gfF/8AFUf8J94O/wChq0T/AMD4v/iqt7E/ur+VLsT+6v5U/b+QvY+ZT/4T7wd/0NWif+B8X/xVH/CfeDv+hq0T/wAD4v8A4qrmxf7o/KlCL/dH5Ue28g9l5lL/AIT7wd/0NWif+B8X/wAVR/wn3g7/AKGrRP8AwPi/+Kq8EX+6PypQif3V/Kn7byF7LzKH/CfeDv8AoatE/wDA+L/4qj/hPvB3/Q1aJ/4Hxf8AxVX9i/3R+VLsT+6v5Ue18g9l5mf/AMJ94O/6GrRP/A+L/wCKo/4T7wd/0NWif+B8X/xVaOxP7o/KjYn91fyp+18hez8zO/4T7wd/0NWif+B8X/xVH/CfeDv+hq0T/wAD4v8A4qtLYn91fypdif3V/Kj2nkHs/MzP+E+8Hf8AQ1aJ/wCB8X/xVH/CfeDv+hq0T/wPi/8Aiq1Aif3V/KlCJ/dX8qftPIPZmV/wn3g7/oatE/8AA+L/AOKo/wCE+8Hf9DVon/gfF/8AFVq7E/ur+VLsT+6v5Ue0FyGT/wAJ94O/6GrRP/A+L/4qj/hPvB3/AENWif8AgfF/8VWuET+6v5UoRP7q/lT5w5DmNX8f6H9ntY9G8QaTdXs19aQLDFdRyMyPOiPhQc/cZj7da7GuU8Zqo0W1IUA/2rp3b/p8hrq6pO5LVgooopiCiiigAooooAKKKKACiiigAr5M13/kadd/7Cl3/wCj3r6zr5M13/kadd/7Cl3/AOj3rkxn8Nep6GXfxX6f5FKlpKWvMPbQopwpopwpDQooFAoFIocKUUgpRUsaFpRSUopFDqWkpaQxR0pwpo6U4UmMBSikFKKkpDhSikFKKTGhwpaQUtSykOFOFNFOFSUhRSikFKKRQ4U6minVJSFFOpop1IpCinCminCpZSFpwptOFSykKKUUgpRSGOFOFNFOFIBwpwpopwoAdSikpRSEOFKKQUopAOFKKQUooAcKcKaKcKQDhTqaKdSAUU4U0U4UCHCnCminCgTFFKKQUooJHCn0wU+mJiinCminCmIcKcKaKcKYhwoFAoFBI8U6minUxCinCminCmIcKcKaKcKBCinCminCqJYtKKSlFMli04U2nCmiWLThTacKpEi04U2nCmSxwoFAoFMljhTh1popw61SELThTacKZItOFNpwqkSOFAoFApkjhSikFKKpEscKdTRTqZLHClpBS1SJY4U4U0U4VSJAU4U0U4VSJY4dadTR1p1MliilpBS1SJHCigUVQhaUUlKKZIop1NFOqhBTqbTqaEKKWkFLVCFpaSlpoQtKKSlFUiR1FFFMQtKKSlFUIUUopBSigQUtJS0xAKWkFLVIQtLSUtACilFIKUUxBS0lLTEApRSClFNCOf8AGn/IEtf+wrp3/pZDXU1y3jT/AJAlr/2FdO/9LIa6mtYbGctwoooqiQooooAKKKKACiiigAooooAK+TNd/wCRp13/ALCl3/6PevrOvkzXf+Rp13/sKXf/AKPeuTGfw16noZd/Ffp/kUqWkpa8w9tCinCminCkNCigUCgUihwpRSClFSxoWlFJSikUOpaSlpDFHSnCmjpThSYwFKKQUoqSkOFKKQUopMaHClpBS1LKQ4U4U0U4VJSFFKKQUopFDhTqaKdUlIUU6minUikKKcKaKcKllIWnCm04VLKQopRSClFIY4U4U0U4UgHCnCminCgB1KKSlFIQ4UopBSikA4UopBSigBwpwpopwpAOFOpop1IBRThTRThQIcKcKaKcKBMUUopBSigkcKfTBT6YmKKcKaKcKYhwpwpopwpiHCgUCgUEjxTqaKdTEKKcKaKcKYhwpwpopwoEKKcKaKcKoli0opKUUyWLThTacKaJYtOFNpwqkSLThTacKZLHCgUCgUyWOFOHWminDrVIQtOFNpwpki04U2nCqRI4UCgUCmSOFKKQUoqkSxwp1NFOpkscKWkFLVIljhThTRThVIkBThTRThVIljh1p1NHWnUyWKKWkFLVIkcKKBRVCFpRSUopkiinU0U6qEFOptOpoQopaQUtUIWlpKWmhC0opKUVSJHUUUUxC0opKUVQhRSikFKKBBS0lLTEApaQUtUhC0tJS0AKKUUgpRTEFLSUtMQClFIKUU0I5/xp/wAgS1/7Cunf+lkNdTXLeNP+QJa/9hXTv/SyGuprWGxnLcKKKKokKKKKACiiigAooooAKKKKACvkzXf+Rp13/sKXf/o96+s6+cda+HXjKXxHq89v4fmmgnv7iaKRbmABkeVmU4MgI4I6iubFQlKForqduBqRp1G5O2hxtLXS/wDCuPG//Qs3H/gVb/8Axyj/AIVz43/6Fm4/8Crf/wCOVwewqdj1li6P8xzYpwrox8OfG/8A0LNx/wCBVv8A/HKX/hXXjf8A6Fm4/wDAq3/+OUvq9X+Uf1uh/Mc4KBXSf8K78bf9Cxc/+BVv/wDHKP8AhXfjb/oWLn/wKt//AI5S+r1f5R/W6H8xzopRXRf8K88bf9Cxc/8AgVb/APxyl/4V742/6Fi5/wDAq2/+OUvq9X+Uf1yh/MjnaUV0P/CvfG3/AELFz/4FW3/xyl/4V941/wChYuf/AAKtv/jlL6tV/lH9cofzI5+lroP+Ff8AjX/oWLn/AMCrb/47S/8ACv8Axr/0LFz/AOBVt/8AHaX1ar/KP65Q/mRz46U4VvjwB41H/MsXX/gVbf8Ax2l/4QHxp/0LF1/4FW3/AMdpfVq38o/ruH/mRz4pRW//AMID40/6Fi6/8Cbb/wCO0v8AwgXjT/oWLr/wJtv/AI7S+q1v5SljcP8AzowRSit7/hA/Gn/Qr3X/AIE23/x2j/hBPGn/AEK91/4E23/x2l9Vrfyj+vYf+dGGKWtz/hBfGf8A0K91/wCBNt/8dpf+EF8Z/wDQr3f/AIE23/x2p+q1v5Svr2H/AJ0YgpwraHgbxn/0K93/AOBNt/8AHaX/AIQfxn/0K93/AOBNt/8AHaX1Sv8AyjWPw386MUUora/4Qjxl/wBCvd/+BNt/8dpf+EJ8Zf8AQr3f/gTbf/HaX1Sv/KV9fw386MYU6tj/AIQrxl/0K13/AOBNt/8AHaX/AIQvxj/0K15/4E23/wAdqfqdf+Uax+G/nRjinVr/APCF+Mf+hWvP/Am2/wDjtL/whnjH/oVrz/wJtv8A47S+p1/5WV/aGF/nRkCnCtYeDfGP/QrXn/gTbf8Ax2l/4Q7xh/0K15/4E23/AMdpPBV/5WP+0ML/ADoyacK1f+EP8Yf9Ctef+BNt/wDHaUeEPGH/AEK17/4E23/x2p+pYj+Vlf2jhf50ZQpRWr/wiPi//oVr3/wJtv8A47R/wiPi/wD6FW9/8Cbb/wCO0vqWI/kY/wC0cL/OjMFOFaX/AAiXi/8A6FW9/wDAm2/+O04eE/F//Qq3v/gTbf8Ax2l9RxH8jD+0cL/OjNFOFaP/AAini7/oVb3/AMCbb/47Sjwr4u/6FW+/8Cbb/wCO0fUcR/Iw/tHC/wA6M+lFaH/CLeLv+hVvv/Am2/8AjtKPC/i7/oVb7/wJtv8A47S+o4j+Ri/tHC/zooClFX/+EY8W/wDQq33/AIE2v/x2l/4Rnxb/ANCpff8AgTa//HaPqOI/kYf2jhf50URSir3/AAjXiz/oVL//AMCbX/47S/8ACN+LP+hUv/8AwItf/jtL6jiP5GH9o4X+dFIU4VcHhzxZ/wBCpf8A/gRa/wDx2l/4R3xZ/wBCpf8A/gRa/wDx2j6jif5GH9o4X+dFQU6rQ8PeK/8AoVL/AP8AAi1/+O0v/CP+K/8AoVL/AP8AAi1/+O0vqOJ/kYf2jhf50VRThVn/AIR/xX/0Kmof+BFr/wDHaX+wPFf/AEKeof8AgRa//HaPqGJ/kYv7Rwv86K4pwqwNC8VD/mU9Q/8AAi1/+PUv9heKv+hT1D/wItf/AI9R9QxP8jF/aOF/nRXFKKsf2H4q/wChT1D/AMCLX/49R/Ynin/oU9Q/8CLX/wCPUfUMT/Ixf2hhf50Qin1KNF8Uj/mU9R/8CLX/AOPUv9j+Kf8AoU9R/wDAi1/+PU/qOI/kYv7Qw386IhThUn9j+KP+hT1H/wACLX/49S/2R4o/6FLUf/Ai1/8Aj1P6jiP5GL+0MN/Ohgpwp39k+KP+hS1H/wACLX/49S/2V4n/AOhS1L/wItf/AI9R9RxH8jF9fw386EFAp39l+J/+hS1L/wACLX/49S/2Z4n/AOhS1L/wItf/AI9T+o4j+Ri+v4b+dAKdSDTfE4/5lLUv/Ai1/wDj1O/s7xN/0KOpf+BFr/8AHqPqOI/kYvr+G/nQCnCkGn+Jv+hR1L/wItf/AI9S/YPE3/Qo6n/4EWv/AMep/UsR/IxfXsN/OhwpwpgsfEv/AEKOp/8AgRa//HqX7F4l/wChR1P/AMCLX/49R9SxH8jF9ew/86HinCo/sfiX/oUdT/8AAi0/+PUv2TxJ/wBCjqf/AIEWn/x6n9SxH8rJeNw/86JKUVH9l8Sf9Cjqf/gRaf8Ax6gWviT/AKFHVP8Av/af/Hqf1LEfysX13D/zIlpwqH7N4k/6FDVP+/8Aaf8Ax6lFv4j/AOhQ1T/v/af/AB6n9Tr/AMrJ+u0P5kTU4VB5HiP/AKFDVP8Av/af/HqUQeI/+hQ1T/v/AGn/AMeqvqdf+Vi+uUP5kT04VX8nxH/0KGqf9/7T/wCPUvleIv8AoUNV/wC/9p/8ep/U6/8AKT9cofzFkUCq/l+Iv+hQ1X/v/af/AB6jZ4i/6FDVf+/9p/8AHqf1Sv8Ayi+t0P5i0KcOtVAviL/oUNV/7/2n/wAepQviH/oT9V/7/wBp/wDHqf1St/KL63R/mLdOFU8eIf8AoT9V/wC/9p/8epR/wkP/AEJ+q/8Af+0/+PU/qlb+Un61R/mLlOFUs+If+hP1b/v/AGn/AMepd3iD/oT9W/7/ANp/8ep/Va38pP1qj/MXhQKpb/EH/Qn6t/3/ALT/AOPUu/xB/wBCfq3/AH/tP/j1P6rW/lF9Zo/zF4Uoqj5niD/oT9W/7/2n/wAfpfN1/wD6E/Vv+/8Aaf8Ax+q+rVv5SfrNL+YvinVnibXx/wAydq//AH/tP/j9L5+v/wDQnav/AN/7T/4/T+rVf5RPEUv5jRFLWcLjXv8AoTtX/wC/9p/8fpftOvf9Cdq//f8AtP8A4/VfV6v8pP1il/MaQpwrM+1a9/0J2r/9/wC0/wDj9L9r17/oTtX/AO/9p/8AH6f1er/KT7en3NIU4Vl/a9d/6E7WP+/9p/8AH6X7Zrv/AEJ2sf8Af+0/+P0/q9XsJ16fc1R1p1ZIvdd/6E7WP+/9p/8AH6d9u1z/AKE3WP8Av/af/H6r2FTsS61Puaopayhf65/0Jusf9/rT/wCP0f2hrn/Qm6x/3+s//j9P2FTsL20O5riisn+0Nc/6E3WP+/8AZ/8Ax+j+0dc/6E3Wf+/1n/8AH6r2NTsL2sO5r0orI/tHW/8AoTdZ/wC/1n/8fpf7S1v/AKE3Wf8Av9Z//H6fsanYn2sO5rinVjf2nrf/AEJus/8Af6z/APj9L/aet/8AQm6z/wB/rP8A+P0/Yz7C9rDubFOrG/tTW/8AoTdZ/wC/1n/8fo/tTW/+hM1n/v8AWf8A8fp+yn2F7SHc2hS1ijVda/6EzWf+/wBZ/wDx+l/tbWv+hM1n/v8AWf8A8fp+yn2D2kO5tUtYv9ra1/0Jmtf9/rP/AOP0f2vrX/Qma1/3+s//AI/TVKfYXtI9zbpRWJ/a+tf9CZrX/f6z/wDj9KNY1n/oTNa/7/Wf/wAfqvZy7E88e5uUVh/2zrP/AEJmtf8Af6z/APj9L/bOs/8AQma1/wB/rP8A+P0/Zy7Bzx7m5SisL+2tZ/6EzWv+/wBZ/wDx+l/trWf+hM1r/v8AWf8A8fp8kuxPPHubopRWD/bWsf8AQma1/wB/rP8A+P0v9t6x/wBCZrX/AH+s/wD4/T5Jdg549zdpawf7b1j/AKEzW/8Av9Z//H6X+3NY/wChL1v/AL/Wf/x+nyS7C54m6KWsH+3NY/6EvW/+/wBZ/wDx+j+3NY/6EvW/+/1n/wDH6fJLsLmRv0tYH9u6x/0Jet/9/rP/AOP0f27rH/Ql63/3+s//AI/RysOZHQClFc//AG9rH/Ql63/3+s//AI/S/wBvav8A9CXrf/f6z/8Aj9PlYuZG/S1z/wDb+r/9CXrf/f6z/wDj9H9v6v8A9CXrf/f6z/8Aj9PlYuZHQClFc/8A2/q//Ql63/3+s/8A4/R/wkGr/wDQl63/AN/rP/4/RysLoPGn/IEtf+wrp3/pZDXU1w+r3Ota7BaWSeFNUtf+JhaTPNcTWuxEjuI5GJ2zM33VPQGu4rSKsiJPUKKKKokKKKKACiiigAooooAKKKKACiiigAooooAKKKKACiiigAooooAKKKKACiiigAooooAKKKKACiiigAooooAKKKKACiiigAooooAKKKKACiiigAooooAKKKKACiiigAooooAKKKKACiiigAooooAKKKKACiiigAooooAKKKKACiiigAooooAKKKKACiiigAooooAKKKKACiiigAooooAKKKKACiiigAooooAKKKKACiiigAooooAKKKKACiiigAooooAKKKKACiiigAooooAKKKKACiiigAooooAKKKKACiiigAooooAKKKKACiiigAooooAKKKKACiiigAooooAKKKKACiiigAooooAKKKKACiiigAooooAKKKKACiiigAooooAKKKKACiiigAooooAKKKKACiiigAooooAKKKKACiiigAooooAKKKKACiiigAooooAKKKKACiiigAooooAKKKKACiiigAooooAKKKKACiiigAooooAKKKKACiiigAooooAKKKKACiiigAooooAKKKKACiiigAooooAKKKKACiiigAooooAKKKKACiiigAooooAKKKKACiiigAooooAKKKKACiiigAooooAKKKKACiiigAooooAKKKKACiiigAooooAKKKKACiiigAooooAKKKKACiiigAooooAKKKKACiiigAooooAKKKKACiiigAooooAKKKKACiiigAooooAKKKKACiiigAooooAKKKKACiiigAooooAKKKKACiiigAooooAKKKKACiiigAooooAKKKKACiiigAooooAKKKKACiiigAooooA85u/EGurpuqeKYtRCWOn6i9uum+QhSWGObynJfG8OcMwwcDgYNejVx9z4HmnlurVdXKaHeXv224sfs4Ls5cOyiXdwjOMkbSeSARmuwoAKKKKACiiigAooooAKKKKACiiigAooooAKKKKACiiigArK122nltftEeu3ekxW6PJM9vHCwZQM5bzI3xgA9Mda1ayvEmjN4h0K40r7UbaK5KpM4TcWi3Aug5GNygrntnoaAKPgWfVbzwjZ3usXUtxc3e6dDLGiMsTEmNSEVRnZtzx1Jro6RVVEVEUKqjAAGABS0AFFFFABRRRQAUUUUAFFFFABRRRQAUUUUAFFFFABRRRQBynjm51bTdNg1PTtVe1SK6topIFgjcTCS4jjOWYEj5WPTH1qPxxr2oWemX9poUwi1C3spL2e4KBxbRIrFeDkFnK7QD2DH+HBueL/AA/qfiOwjsrPVrexgEkcsnm2RnZmjkWRMESLgZQZ4Oc9qr6v4E03xFpNwms2um3OsTWrQf2kLEAoxBCsqliRtzkDd260AdDpk0lxpNnPK26SSBHdsYySoJq1VHR9KttE0e1020ijjgt4wirGgRc9ScDpk5P41eoAKKKKACiiigAooooAKKKKACiiigAooooAKKKKACqOq2l7e2yRWOpvp77wXmjhSRiuDwN4Kg5xyQenTmr1YnirRr/X9FOn2GqjTjJIPOkMJk8yLndHw6EBuMkHOMjvmgDN8OXmq6zpWrwLq3mCC8a3stWFumZkAUs20DYxDF0yBg7c4q14Gv77UfC6Tajdtd3SXd1A07IqFxHPIikhQB91R0FWdP03WLLRJLL+0NNWZFCWr2+nNHFCoGADH5p3fgy1W8I+H9U8OWktpeatbX0DSyTIIrIwMrySNI2SZGyMscDAx70AdHRRRQAUUUUAFFFFABRRRQAUUUUAFFFFABRRRQAUUUUAFcYZ9a0jxXo2nya8+qvemQ3Vq9rHGIYVQnzVKAFQHCrhi2d3HIrs65Dw94X17RtSnu7rXrC+e6l8y7lbTHSaUc7VD+cQqr0AC4HPGSTQBzt14u1eLXrmIarIl1HrC2cVh9kQ2bQF1GXuNvyyFCTjeDuwuw9/Ua4yXwNdSQ3GmDW9uh3F615Ja/ZAZstL5rIJd3Cl8/wk4OM12dABRRRQAUUUUAFFFFABRRRQAUUUUAFFFFABRRRQAUUUUAcz4vuZtPtlvv7c1LToFUrssdPW63NgnLDy3IGB/sj3rmJtZ8V3MGlahLJqkNhJpEdxcvocNrOonJJY/vAxI24OEz+NdtqtlrtxcBtL1m2soTHtZJrHzzuyfmU71weRwQRxWXB4W1fTNJttJ0bxAlrZRQeUTNZCaXdklnV96gE56FSB6UAdDpt1BfaXaXdtc/aoJoUkjnIA8xSAQ3AA569B9KtVS0fS7fRNGstLtN32e0hSGPcckhRjJPrV2gAooooAKKKKACiiigAooooAKKKKACiiigAooooAKiurqCytJrq6lWK3hQySSOcBVAySfwqWobu0t7+0ltLuCOe3mUpJFIoZXU9QQeooA4vStX8Q6p4rvbWW5+w211pYurK3e3UtbZkKKz55LEDcVJwM47Em7o13qlv4zudFm1eTV7WKyE88ssMaNbTFgEQmNVHzLubBGRtBzzUI+HOl2OuTavocNhpd19ha2tmisVPkSkt++HIycNjHGR3q74T8O6p4ch+zXGqWN3bEM7mOxeKaWUkEyPI0z7iec8enQDFAHTUUUUAFFFFABRRRQAUUUUAFFFFABRRRQAUUUUAFFFFABRRRQAUUUUAFFIzBVLHOAM8DJrmR8QfDh+2kXF6UsZDFdONMudkDDqHby8DHuaAOnoqCzvLbULOG8s5457aZQ8csbBlYHuDS3Vwtpay3DpI6xqWKxoWY49AOtAE1FZ2g61a+ItDtNXslkW2uk8yMSgBsZxyAT6Vo0AFFFN8xPM8vevmY3bc849cUAOoqK5t0urd4JGkVHGCYpWjYfRlII/A1WhtktYlgjknKJwDJO8jfizEk/iaTdhpXEm1VIdftNJMbGS5tprkSZ4URtGpH4+aPyNX6zms4HvIrxkJuIo2iSQsdyqxUsBz0JRfyFNviyafcuskissTEEOcg4NRKokrlxpttI06K83/tG/8A+f66/wC/zf40f2jff8/11/3+b/GvO/tWH8rPS/smp/Mj0iivMp9T1BUBF/dDntM3+NV/7V1L/oIXf/f9v8al5vTX2WUsnqP7SPVaK8q/tXUv+ghd/wDf9v8AGus8MXFxc6bI89xNIwmIBeRicYX3rahmMK0+RRZjiMtnRhzuSZ1NFUOf78n/AH2aPm/vyf8AfZrt9ojh9my/RXC6xe3cOqzJHd3CINuFWVgB8o96o/2jf/8AP9df9/m/xrgnmcIyceV6HfDLJzipcy1PSKK83/tG/wD+f66/7/N/jXJ/2/rP/QWv/wDwJf8AxqJZvTX2WbQyapPaSPdKK8L/ALf1n/oLX/8A4Ev/AI0ja/rO0/8AE3v/APwJf/Gp/tin/KzT+wqv86PdaK8G/wCEg1r/AKC9/wD+BL/40f8ACQa1/wBBe/8A/Al/8aP7Yp/ysP7Bq/zo95qhreqJomg6hqskbSpZW0lwyKcFgiliB+Veb+F9W1K5+1+fqN5Jt2Y3zscdfety6Z720mtLqWWa3mQxyxvIxV1IwQRnoQa2jmcJK/KzlqZXOnJxckd0DlQfUUtcT9ruh/y9XH/f1v8AGuQ1vWtVh1eeOLU71EG3CrcOAPlHvSnmkIK/KyqOVTqy5VJHstFeFf2/rP8A0Fr/AP8AAl/8aP7f1n/oLX//AIEv/jWX9sU/5WdH9g1f50e60V87/wDCS67/ANBrUf8AwKf/ABo/4SXXf+g1qP8A4FP/AI1f9qw/lYv7Dq/zI+iKK+dm8S69j/kNaj/4FP8A403/AISbXv8AoN6j/wCBT/40/wC1YfysX9iVP5kfRdFfOf8Awk2vf9BvUf8AwKf/ABqa28Sa60hB1rUTx3un/wAaTzWC+ywWR1H9pH0NRXgf/CQ63/0GNQ/8CX/xo/4SHW/+gxqH/gS/+NT/AGxT/lZf9g1f50e+UV8+TeI9cDjGs6gOP+fl/wDGo/8AhJdd/wCg1qP/AIFP/jT/ALWp/wArJ/sKr/Oj6Hor54/4SXXf+g1qP/gU/wDjULeJtf3H/id6j1/5+n/xprNYP7LE8kqL7SPo2ivnH/hJ9f8A+g3qX/gU/wDjSp4m14uv/E71Hr/z9P8A40/7Uh/Kxf2LU/mR9G1Q0/VU1C91S2SNkbT7kWzkn75MUcmR+EgH4V4Z/wAJHrn/AEGdQ/8AAl/8aii1rVYJJ5IdTvUed/MlZbhwXbaFyeeTtVR9AKn+16f8rNP7Bq/zr8T6Hor57fxJroHGs6h/4FP/AI0z/hJdd/6DWo/+BT/40f2tT/lYnkVX+dH0PRXzx/wkuu/9BrUf/Ap/8ami8R64VOdZ1A8/8/L/AONDzamvssFkVX+dH0DRXgP/AAkWt/8AQY1D/wACX/xo/wCEi1v/AKDGof8AgS/+NL+2Kf8AKx/2DV/nR79RXmllqV+9hbM19dFmiUkmZsk4+tWP7Qvv+f25/wC/zf41f9qQ/lZyvKpp25keh0V55/aF9/z+3P8A3+b/ABrE/tjVP+glef8Af9v8amWbU4/ZZcMnqT+0j16ivIf7Y1T/AKCV5/3/AH/xqOfWdVWFiNTvQeOlw/8AjU/2xT/lZp/YlT+ZHsVFeIf27rH/AEFb7/wIf/Gj+3dY/wCgrff+BD/40f2zT/lZX9hVf50e30V5ToOralP9o83Ubt8bcbp2OOvvWz9uvP8An8uf+/zf41pHNISV+VnPPKpwlyuSO9orgft15/z+XP8A3+b/ABro9Lkkl06J3llZjnJMhJ6n3rejjY1ZcqRz1sFKlHmbLmoaqmn3ul2zxs7ahcm2Qg/cIikkyfwjI/Gr9ZM9pDcy28syl5LaQywsWOUbaVyOeu1mH4mp+f78n/fZrp9ojm9my/RXlX9q6l/0ELv/AL/t/jR/auo/9BC7/wC/7f415n9r0/5Wer/Y1T+ZHqtFeQajrGqR2EjJqV4rDGCJ39R71hf8JDrf/QY1D/wJf/Gj+2Kf8rLjkdWSvzo98orwP/hIdb/6DGof+BL/AONb3hrWNUuPtXnaleSbdmN87HHX3prNqbduVinklSEeZyR69RXAfb73/n8uf+/zf40fb73/AJ/Ln/v83+NX/acP5Wc/9mT/AJkd/RXE295dNGSbu4Jz3lb/ABqX7Vc/8/U//f1v8atZhBq9jN4CSdrnY0Vx32q5/wCfqf8A7+t/jXk+r+Jdei1q/jj1rUURLiRVVbpwAAxwBzQ8wguhdPLZzdlJH0TRXzT/AMJT4h/6Dupf+Bb/AONTWnifX2vIFbXNSKmRQQbp+efrUvMoL7LNv7HqfzI+kKK8X/tvVv8AoKXv/gQ/+NH9t6t/0FL3/wACH/xrD+2af8rNP7Cq/wA6PaKQnCk+grynR9W1KW8dZNRu3AjJw07HuPets3t2Rg3dx/39b/GtYZrCSvyswqZVOErOSOt0TVE1vQdP1WONokvbaO4VGOSodQwB/Or9efWsktjaQ2lrNNDbwII4o0lYBFAwAOegFPa/vAf+Py5/7/N/jTeZw/lZCy2f8yO+orz/AO33v/P5c/8Af5v8aPt97/z+XP8A3+b/ABo/tSH8rH/Zk/5kegUV4DqHiLW49SukTWNQVVmcAC5fAGT71W/4SXXf+g1qP/gU/wDjU/2rT/lZ0LI6jV+ZH0PRXzufEuu4P/E61H/wKf8Axpn/AAk2vf8AQb1H/wACn/xo/tWH8rD+w6v8yPouivnT/hJte/6Deo/+BT/41LB4k11plB1rUSOf+Xp/T60PNYfysP7DqfzI+hqK8G/4SDWv+gvf/wDgS/8AjR/wkGtf9Be//wDAl/8AGo/tin/Kyv7Bq/zo95orxjSdb1aXzvM1S9bG3G64c46+9aX9q6l/0ELv/v8At/jT/tin/KyHktRO3Mj1WivKv7V1L/oIXf8A3/b/ABrB1HXtZjv5FTVr9VGMAXL+g96P7Yp/yscckqSduZHudFeBf8JDrf8A0GNQ/wDAl/8AGj/hIdb/AOgxqH/gS/8AjR/bFP8AlZf9g1f50e+1Qh1VJtfu9JEbCS2tobkyZ4YSNIoH4eUfzFeB/wDCTa9/0G9R/wDAp/8AGol1zV0upLpdVvhcSIsbyi4fcyqSVBOegLNj6n1q/wC1Yfysj+xKv8yPpCivnuz8R6490itrOoEHPBun9D71rf27q/8A0Fb7/wACH/xqJZvTX2WNZFVf20e3UV4j/bur/wDQVvv/AAIf/GrFrrWqtv3apenp1uH/AMan+2af8rB5FVX20ezUV5F/bGqf9BK8/wC/7f40f2xqn/QSvP8Av+3+NP8Atin/ACsn+xKn8yPXaK8dfWdVDHGp3v8A4EP/AI03+2tV/wCgne/+BD/40v7Zp/ysf9h1P5keyUV43/bWq/8AQTvf/Ah/8aqPrusB2A1W+6n/AJeH/wAaP7Zp/wArGsiqv7aPb6K8O/t7WP8AoLX3/gQ/+NTWeuau97ArapfFTIoINw/Iz9aazin/ACsbyKqlfnR7XRXBfbrz/n8uf+/rf40fbrz/AJ/Ln/v63+Na/wBpw/lZyf2bP+ZHe0V57PqF6qDF7cjn/ns3+NV/7Sv/APn+uv8Av83+NS81gvsstZVNq/Mj0qivNf7Sv/8An+uv+/zf41o2F7dyQMXu7hju6mVvT61UMzhJ25WTPK5wV+ZHVaxqqaPZR3MkbSK9zBbAKcYMsqRg/gXB/Cr9cVcg3kSxXMkkqLIkgV5GIDIwZT16hlBH0qb7Vc/8/M//AH9b/Gtfr8exl9Rl3OvormFnnKg/aJun/PRv8ad58/8Az3m/7+N/jVfXI9iPqku50tFc2k0xdQZ5uv8Az0b/ABq3vk/56yf99n/Gqjioy6ESw7j1NmisbfJ/z1l/7+H/ABpGkkx/rZf++z/jVfWF2F7B9zaorD8yX/ntL/38P+NHmSf89pf+/h/xpfWV2H9Xfc3KKxVkkOcyy/8AfZ/xp29/+esv/fZ/xprELsJ0H3Niisfe/wDz1l/77P8AjT1Z8f6yT/vs0/brsL2L7mrRWXuf/npJ/wB9n/Gjc/8Az0k/77NP2y7C9kzUoqjz/ff/AL7NHP8Afk/77P8AjVe0RPIy9RVSHPnDLOevViat1cXclqwUUUUxBXiI8Rap4dXx9dWdhBNZnXGjubp3Zjaq6qpkMQX51Hf5h19K9scOY2EbKr4O0sMgHtkZGfzrkPDfgu80e916TUdUtNStdamee4txYGIBmGCATI3y44wQfrQBmweV4C8G+FvDmjXouG1C6S1hvXAYBZC0jygdDwTtHI5Gc4Obv9r6ppHjlPDt9ePqFlqNjJcWs8saLLFJH99G2KqlSCCDjPbmqNt8MbmHR00d/ELSWFldC70hja/v7GRWyg8wuQ6gEggqM56jArp7Xw9I2sDV9Vu4ru+S2NrEYYDDHGjEFiFLMdzEDJz0AAA5yAeV6RqXi3wv8K9A8T2upWsmj2kMQuNK+yjc8TPtLeaTnfk5wAAPfHPaahrniDWLnXoNAjvkk02Y2tu1utqY5JRGrnzfNbdjLgfKBwM5JOBa0/wHJbaDZ+HbvVFutDtJEZIPs2yWRUbeiSPuIZQwBOFXOB75bqHgW/Pia61rQPE9zoxv9v26BLZJkmKjAZQ/CNjvg0AU7nU/Fdx4m0DSnvU0qXUNKmmuokhjm8iZNgypOQeWPfGPWmeH7LUI/iprEd3rl5cvBptmZCUjVJSTJkbdvyLkE4Ug5JyTWvL4Rvh4s0jV7XVoY7XTbdrZbaW0aR5EfbvLSeYPmO0EHb165rQTw9JD4yuNfgvQiXVtHb3Fu0O4ny2YqVbPy/eIIwfbFAF7VZtWhijOk2VndSE/Ot1dNAFHqCsb5/IUWzXT2yNewxQ3JH7yOGQyIp9AxVSfyFWrm5gs7d7i6njggjGXllcKqj1JPAqnDqFpdxrPbXEc0MnKSRNuVhnqCODUTKiT1W1D/kGXX/XF/wCRqT7RF/e/Q1DeyJJYXCIcs0TADHfBrGa91m1N++jg6Ktf2bd/88v/AB4f40f2ddf88v8Ax4f41837Gp/K/uPpvb0v5l95n3H+rH1qtWnc6ddiMZi7/wB4e/vVX+z7r/nl/wCPD/Gs5Uql/hf3GsK1O3xL7ytXZ+Ev+QVL/wBdz/6Ctcr/AGfdf88v/Hh/jXUeHHWy0+SK4OxzMSB14wB2+ldeAhKNa8lY5MwqQlRtF3Ogoqv9utv+en/jpo+3W3/PT/x017fMu54Nmctrn/IYn/4D/wCgis6tjU7G4vNRlnt498b42tuAzgAd/eqn9k33/PD/AMfX/GvDrUajqSai930Peo16SpxTktl1KVcXXoP9kX2ceR/4+v8AjXMf8Inrf/Pl/wCRU/x96wnh638r+5nZQxNFXvNfejFpG+6a2v8AhFNb/wCfL/yKn+PtSN4T1vB/0L/yKn+NZ/V638j+5nR9aofzr70YVFbP/CK61/z5f+RU/wAaP+EU1r/ny/8AIqf4+1HsKv8AK/uY/rVD+dfei94Q/wCXz/gH/s1dPXP6LZz6J5/9ox+T523ZyGzjOfu59RWr/aVp/wA9v/HT/hXRBOMbS0Z59dqdRyhqi3XEeIP+Q3cf8B/9BFdZ/aVp/wA9f/HT/hXG67dQyazOyvlTtwcH+6KitrHQ0wa5ZtvsUqKj8+P+9+lHnx/3v0rm5Zdj0uZdzNopu9fWjevrW/LLsZ88e4rfdplO3BuAeaNjelFmJyT6jantf9af92otjelT2qN5p4/hpSTsOLVyzRTvLf0o8tvSsrM15l3Ks/3x9Kiq49lcTHdHHkdPvCk/s27/AOeP/jw/xq1sZuSvuVKgb7x+taX9m3f/ADx/8eH+NVHtJw7ApyD6iqiS2mV6cn+sX6ipPss39z9RTorSdpUATksB1FUJE1FW/wCy7z/nj/48P8aX+y7z/nj/AOPD/GsbM2549yi/3fxqOr8mmXgUfue/94f41H/Zt3/zx/8AHh/jVJEuce5UqeH7h+tSf2bd/wDPH/x4f40hie2+SYbWPIGc8fhSabQKUb7i0U3evrRvX1qeV9i+aPc77T/+Qba/9cU/kKsVi2evabFZQRvc4dI1Vh5bcEAe1Tf8JFpX/P1/5Db/AArdJnlyTuzUrAq3/wAJDpX/AD9f+Q2/wrL/ALQtf+ev/jp/wrOonobUNLlmorn/AFDfh/Oo/wC0LX/nr/46f8KiuL+2MDDzfT+E+v0rLlfY6E1choqv9tt/+en/AI6aPttv/wA9P/HTRyS7GnPHudL4c/5ef+A/1rdrmPD2o2qfad0uM7f4T7+1bf8Aall/z2/8dP8AhXRDSNmefXTdRtFyup0j/kFw/wDAv/QjXFf2pZf89v8Ax0/4V1Wj6laHS4f3397+E/3j7V34GSVR69DzcdGXs1p1/wAzYoqr/aVp/wA9f/HT/hSf2laf89f/AB0/4V6nPHueVyy7HnNFaH9h6jnH2f8A8fX/ABo/sTUf+ff/AMfX/Gvmvq9b+R/cz6n6zR/nX3oxNU/5B0v4fzFc5XY6vo1/HpkzNBgDb/Gv9761zH9nXX/PL/x4f41Mqc4u0lY6aNWnKN1JP5lWuk8Kf8vf/AP/AGasX+zrr/nl/wCPD/GtbRJo9K8/7a3leZt2cbs4znpn1FEE0x15KVNpM6eis7+3dN/5+f8Axxv8KP7d03/n5/8AHG/wrY87kl2Ny1/1Z+tTVmWWrWMsJZJ8jdj7je3tVn+0rT/nr/46f8K3i1Y55wlzPQtV4xrf/If1H/r6l/8AQjXrv9pWn/PX/wAdP+FeVatY3M2s30sceUe4kZTuHILHFKUl3NsNFpu6Mip7L/j+t/8Arqv86k/sy8/54/8Ajw/xqaz027F7ATFwJF/iHr9azbVjsW50tFT/AGSf+5+oo+yT/wBz9RXDyS7HR7SHcuaH/wAfr/8AXM/zFdBWFpETwXbNIu0FCOuecitrzk/vfpXVRT5TgxEk56MfTH60ean979KP9ZyvI6VrZsxuluNop2xvSjy29KXJLsHPHueaan/yFrz/AK7v/wChGqtauo6bdvqd26xZVpnIO4ep96rf2Xef88f/AB4f41jY9SMo2WpSPQ0yrz6bdpGzNFhVBJO4f41T8tvSmkxuS7jaltv9ev4/ypmxvSnxfu5Qz8KOpoadgTRfoqL7TF/f/Q0faYf7/wChrLkl2L549zb0X/lv/wAB/rWrWBpeo2sHm+bLtzjHyk+vtWh/bOn/APPx/wCON/hRyS7GM2nLQv1zmqf8hGX8P5CtT+2dP/5+P/HG/wAKxb+5hnvZJI33KcYOCOwo5Zdh02k9SGimeYnr+lHmJ6/pRyy7G/PHuUqKm+yzf3P1FH2Wb+5+orUyuh1j/wAfkf4/yNbNZun2c7X0YEeTz3Hoa3P7Nu/+eX/jw/xrKcW3ohqcVo2VatWf8f4Uf2bd/wDPL/x4f41YtbG5TfujxnH8QqVCXYUqsLbodRU/2Sf+5+oo+yT/ANz9RT5JdjL2kO6KT/fNNqxJaT7z8n6im/ZJ/wC5+oqeSXYtVIdyGqT/AOsb6mtP7JP/AHP1FVX0+6LsRFxk/wAQ/wAaOSXYqNSHdFSrFj/yELb/AK6r/MU7+zrv/nl/48P8ams7C5S9gZo8ASKT8w9apQlfYcqkLPVHWUUu1vSjafSuzll2PI549yC4/wBWPrVarskEkq4Rckc9aj+wXOceX/48KiVObeiZpCrBLVorVqab/wAe7f75/kKp/Ybn/nn/AOPCrlr/AKLEUm+Vi2cdePw+hq6UJRldomtUhKNk0y5RUX2mL+/+ho+0w/3/ANDXQchfT7i/SlpsZBjQjoQMU7/P+fzrdRl2OdyV9xyf6xfqKu1RUgMGPQHJ/wA/hVn7TDnG/wDQ1rTTS1MptPYlpG6VF9qh/v8A6Gl8+N+FbJ+laEC0Um4etJvXHWlysd0Sp3p1RLIqkgmnecn979P8+tUk7Etq4+nr92ofOT+9+lPWVMY3fpVJMlskoqPzo/736UvnJ/e/T/PpTsK5aoqPzo/736f59aPPj/vfoa1MyxD/AK1atVSglRp1UHnnt9au1tT2Mp7hRRRVkBRRRQBz1x4maXX5tD0azF/fWyK92zzeVDbBvuqz7WO4jkKFPHXFT2usagddi0vUNKFuZLeSdLmG482I7WQbMlVbd8+eQBgcZ5xx3wykay8VeONIv/l1M6s94A/WSB/uMPVePw3CneIdY1Sx+Iz6ZN4jurTRP7Gm1GbZBCWi2EqdrbN2AOe5460Aek1R03V7LVxdNYzCVLa4a2d15UuoG4A98E4+oNeaaPaR2Pi7wM1pZC1tr+wuUkkdgZ75BEjB7gAYLE/N1b7x6dKoW7QeHvA3i7UbCC3s5F8Rz2sl1HDhobY3SKw+XDbQpPAIx2xQB7RRXn9v4ZWw1dtTtfEGnWKXunyxeVp1n5MUg25Fwf3jDKZHz+hAzyKqeD4U0XxZaaZrPh+DT9d+wSQw6jZYMGoxqULsxwGDgqpw3PJ55FAHpdVm++frUOq6fc6hFGltq95prKcl7VYmL+x8xHH5YotoJLa2SGW6lupEGGnmCh39ztAX8gKiZUSWmv8A6tvoadTX/wBW30NZvY0W5SooorlOgr3n+pH+9VKrt5/qR/vVSrlq/EdNL4QqxB9w/Wq9WIPuH61MNyp7ElFFFbGRo2v/AB7J+P8AOpqhtf8Aj2T8f51NXdD4UccviYUyn0ymxIKbJ9w06myfcNS9iluQUUUVkaHNeLf+XP8A4H/7LXM103i3/lz/AOB/+y1zNeFjf48vl+R9FgP93j8/zYVy2sf8hSb/AID/AOgiuprltY/5Ck3/AAH/ANBFc0TuhuUaKKKo1M+iiiuk5R8X+sFWKrxf6wVYrOe5rDYKs2P+vb/d/qKrVZsf9e3+7/UVnLY0W5oUUUViWX7L/Un/AHv6CrNVrL/Un/e/oKs0jN7hWJP/AMfEv++f51t1iT/8fEv++f500OJHUtr/AMfcP/XRf51FUtr/AMfcP/XRf51Rb2OlooooOYjm+4PrUFTzfcH1qCpZcdgrC1r/AI/E/wCuY/ma3awta/4/E/65j+Zpw3KRnUUUVqMjPU0UHqaKokKu1Sq7USLgFRz/AOpb8P51JUc/+pb8P50luVLYpUUUVuc5saD/AMvH/Af61s1jaD/y8f8AAf61s1y1PiZotgrtdB/5Atv/AMC/9CNcVXa6D/yBbf8A4F/6Ea6MH8b9DizD+EvX/M0aKKK9E8c3aKKK9Q80yvEf/IAuf+Af+hCuBrvvEf8AyALn/gH/AKEK4GvDzP8Air0/Vnv5V/Bfr+iCsrWv+WH/AAL+latZWtf8sP8AgX9K889WHxGTRRRSOg6DQ/8Ajyf/AK6H+QrTrM0P/jyf/rof5CtOqRyz+JhXPXP/AB9Tf75/nXQ1z1z/AMfU3++f50pFUtyKpbX/AI+4f+ui/wA6iqW1/wCPuH/rov8AOpRs9jpqKKK1OAlt/wDWH6VZqtb/AOsP0qzWsdjGe4Vbtf8AVH/eqpVu1/1R/wB6tae5jU+EnooorY5zkrz/AI/bj/ro386hqa8/4/bj/ro386hrzJbs9uHwohvP+PK4/wCubfyrkq628/48rj/rm38q5KqiaxCmSf6s0+mSf6s1a3G9iCiiitTEfH3p9Mj70+oe5a2ClpKWkMKKKKBmtRRRWBoX9G/5C0H/AAL/ANBNdZXJ6N/yFoP+Bf8AoJrrK1hsceJ+MKfH3plPj71ojmew+iiiqIK8v+sNMp8v+sNMrN7my2CkpaSkMKkg/wCPiP8A3x/Oo6kg/wCPiP8A3x/OmtxS2ZtUUUV2nmk1r/rD9Kt1Utf9YfpVutobGFT4grOv/wDXr/u/1NaNZ1//AK9f93+ppVfhKofGVaKKK5TsOhtv+PWH/cH8qlqK2/49Yf8AcH8qlr1o7I8iXxMRvun6VXqw33T9Kr1MyoBUtv8A6w/Soqlt/wDWH6Uo7jlsWaKKK6DAQ0lKaSpYBT1+7TKev3aaBi0UUVQiWiiirMx8P+tFWqqw/wCtFWq2p7Gc9woooqyAooooAy9T8O6Vq9zDdXloDdQDEVzE7RTIO4EiEMB7ZxUMXhPRIpbiZrI3E1xA1vLLdzPcO0R6pukZiFPoDitqqOo6vZaX5Qunk8yYkRxQwvNI+Bk4RAWIHc44yPWgDJtPAPhmyksJINMxJYEm2dp5HMYIxtyzHK4/hOQPSr0XhnRoTqG2xUpqLO91E7M8chfG87CSo3YGcAZxzTB4r0ZtNs79bp2hvXMdsot5DLKwzkCLbvyNrZ+XjFVbvx54bsdETWbi/cWDTGAyrayvskBwVdVUshzxhgOaAE0jwD4X0G2vbfTNIjt472MxXGJHZmQ5yoYkkDk8AirumeGdK0iWOW1hmMkURhie4upZzGhxlVMjNtBwM4xnA9BUs+vWFtd6dazNcLPqOfsyfZJTnAyd2F+TA5O7GOfSoLTxVpF9qEFlbzzPLcB2gc2sqxShepSQrsb8DQBqXMrwW7yx28lw6jIiiKhn9huIH5kVThnnniWSSzkgZuTFK6Fl56HaSPyJrQJA6kD61CTliR61EyokG6X/AJ4/+PChjKVI8rqMfeHvU1FQWUvIlz939RR5EuPufqKu0VHJHsVzyM6azllULjGDnPHvUH9ly+v6D/H/ADitiipdGm3dotVprRMx/wCy5fX+X+NSJYSoMdeevH+NalFJUKa6A61R9TN+xy+n8qX7FL6fy/z/APrrRoqvZQ7C9rPuVolljjCeXnHfI9afulx/qf8Ax4VNRVpJaENt6kOZc/6r/wAeFN/e/wDPL/x4f5//AFVYooC5X/e/88v/AB4UMsrDHl/juHrViiiyC7Kfky/3P1FHky/3P1FXKKXJEfMzA1bQpdV8n955Xl7v4Q2c49x6Vmf8IZLj/j6/8hj/AOKrsqK554OhOXNKOvqzpp42vTjyxlp6L/I47/hDJc/8ff8A5DH/AMVWVefDOW7unn/tLZux8vkA44A/v16NRU/UMP8Ay/i/8y1mWKX2vwX+R5l/wquX/oK/+S4/+Lo/4VVLn/kK/wDkuP8A4uvTaKf1HD/y/i/8x/2ni/5/wX+R5V/wqGX/AKC//ksP/i6P+FQy/wDQY/8AJYf/ABdeq0VX1Sj/AC/mT/aGJ/m/Bf5HlifCKVWB/tf/AMlh/wDF0/8A4VRL/wBBX/yXH/xdeoUUngqD+z+LGsyxS2l+C/yPMP8AhU8uf+Qt/wCSw/8Ai6kg+FssLlv7UzkYx9nHt/t16XRSeBw7+z+L/wAx/wBp4r+f8F/keef8K3l/6CP/AJAH/wAVR/wreXP/ACEf/IA/+Kr0Oip/s/Dfy/i/8x/2pi/5/wAF/kcHB4AlhjK/bs5Of9UPT/eqX/hBZf8An9/8hD/4qu3oo/s/Dfy/i/8AMX9p4r+f8F/kcR/wgsv/AD+/+Qh/8VVGT4ayvIz/ANo43EnHkD/4qvRaKf8AZ+G/l/F/5gszxS+3+C/yPOf+FZS5/wCQn/5AH/xdOi+G0scqSf2jnawbHkD2/wBqvRKKPqGH/l/F/wCY/wC1MX/P+C/yON/4QyX/AJ+//IY/+Kpf+EMlz/x9/wDkMf8AxVdjRR9Qw/8AL+L/AMyf7RxP834L/I4t/BUrrj7Xjv8A6sf/ABVM/wCEFl/5/f8AyEP/AIqu3opf2fhv5fxf+Yf2liv5vwX+RxH/AAgsv/P7/wCQh/8AFVQvfhpLeTCT+0tmFxjyAfU/3q9GoprAYdfZ/F/5j/tPFfz/AIL/ACPMf+FUy5/5Cv8A5Lj/AOLo/wCFVS/9BX/yXH/xdenUU/qOH/l/F/5h/aeK/n/Bf5Hl5+E8vP8AxNv/ACXH/wAXR/wqeXP/ACFv/JYf/F16hRR9Sofy/i/8w/tLFfzfgv8AI8v/AOFTy4/5Cv8A5Lj/AOLqf/hV8uf+Qp/5Lj/4uvSaKHgcO/s/i/8AMFmeLX2/wX+R5t/wq+X/AKCn/kuP/i/84pknwsleMr/amM/9O4/+Lr0yil9Qw/8AL+L/AMx/2pi/5/wX+R5b/wAKklz/AMhf/wAlh/8AF0f8Kll/6C3/AJLD/wCLr1Kiq+p0P5fxZP8AaWK/m/Bf5HnNh8M5bHzP+Jlv34/5YAYxn/bq7/wgUuf+P7/yEP8A4qu5oqXgMO3dx/F/5j/tPFfz/gv8jhf+EClx/wAfv/kIf/FVt2GhS2NnHbeZv2Z+baBnJJ6ZrfoqoYKhB3jH8X/mRUx2IqK05fgv8jI/syX1/l/j/nFH9my+v8v8a16K0+r0+xj7ep3K+Jc/6v8A8eFGJf8Anl/48KsUVrZGV2ZupWMuoWEtrjy9+Pm4OMHPT8P1rA/4QyXP/H3/AOQx/wDFV2NFYVcLRqvmmrv5nRSxdalHlhKy+Rxv/CGS4/4+v/IY/wDiqq3vw/lvCn+n7Nmf+WIOc/8AAvau8orP6hh/5fxf+ZqsyxS1UvwX+R5x/wAKyl/6Cf8A5AH/AMX/AJxR/wAKyl/6CX/kAf8Axdej0Uf2fhv5fxf+ZX9qYv8An/Bf5HEWPgWWyhMX23fl92fKA9B/eqz/AMIjL/z8/wDkMf8AxVddRR9Qw/8AL+L/AMyXmOJerl+C/wAjkv8AhEZf+fn/AMhj/wCKrOk+Hkskrv8A2hjcxOPJHGT/AL1d9RR9Qw7+z+L/AMwWZYpbS/Bf5Hn3/Cupcf8AIQ/8gj/4qnxfD2WKZH+352sDjyRzg/71d9RS/s/Dfy/i/wDMr+1MX/P+C/yOU/4RSX/n4/8AHB/jR/wikv8Az8f+OD/GuroqvqOH/l/F/wCZn9fxH834L/I5ePwvKj5+0Z7fcH+NSf8ACOS/89f/AB0f410lFNYKgvs/iyXja73l+COb/wCEcl/57f8Ajo/xqaLQ5Y12+ZnnP3R7e9b1FNYSito/mJ4us9HL8jE/seX+9+g/xo/seXP3/wBB/jW3RVfVqXb8yfrFXucdN4MllmeT7XjexbHljjP/AAL/ADio/wDhCJf+fz/yEP8A4qu1orL6hh/5fxf+ZusxxK05vwX+Rw83gSWWGSL7bjepXPlDjPH96sn/AIVVL/0Ff/Jcf/F16dRQsBh19n8X/mP+08Uvt/gv8jzH/hVMv/QV/wDJcf8AxdI3wolZcf2tj/t3Ht/t16fRT+o0P5fxf+Yf2niv5/wX+R5Z/wAKkl/6C/8A5LD/AOLo/wCFRy5/5C//AJLD/wCLr1Oin9Tofy/ixf2jif5vwX+R5avwllX/AJi3/ksP/i6d/wAKnl/6C3/kuP8A4uvUKKPqVD+X8X/mH9pYr+b8F/keX/8ACp5c/wDIW/8AJYf/ABdH/CqJcf8AIV/8lx/8XXqFFL6lQ/l/F/5j/tPFfz/gv8jzD/hU8v8A0Fv/ACWH/wAXR/wqiX/oLf8AkuP/AIuvT6KPqVD+X8X/AJh/aeK/n/Bf5HnX/CtZf+gj/wCQB/8AFUv/AArWXP8AyEv/ACAP/iq9Eopf2fhv5fxf+Y/7Uxf8/wCC/wAjgrL4fS2l3HP9v37c/L5IHUY/ve/6Vrf8IzL/AM9//HB/j/nNdPRTWBw62j+L/wAyJZhiZO7l+C/yOY/4RiXP+v8A/HB/jSr4blUH99/46P8AGumop/UqH8v4sn67X/m/BHN/8I5Ln/Xf+Oj/ABo/4RyX/nt/46P8f84rpKKPqdD+X8WL65X/AJvwRy7eF5WYnz8e2wf40n/CKy5/4+P/ABwf411NFL6lQ/l/F/5j+vYj+b8F/kcr/wAItL/z8f8Ajg/xo/4RWX/n4/8AHB/j/nNdVRR9Rofy/i/8x/X8R/N+C/yOV/4RWXP/AB8f+OD/ABpyeF5UdX8/O0g42D/Guooo+pUP5fxf+Yvr2I/m/Bf5GJ/Y8ufv/oP8aP7Hl/v/AKD/AB/zituitPq1Lt+Zn9Yq9zHi0uWNi2c8dOP8am+wy5//AFVpUU1QprZEutN7szPsMvp/Kq9xo8s7ht+MDGMD39626KHh6bVmhxr1Iu6Zz/8AYMuf9b/46P8AGj+wZcf6z/x0f410FFR9Uo/y/mX9brd/yKEdrLHGiYztAGcjmneRL/c/Uf5//VV2itlTiuhi5yZRNvKVI2dvUUz7FLnp/KtGik6cH0BVJLqZv2OX0/lT47aWNidue3Uf5/8A11fooVKC6DdST6lXy5f7n6ik8uXH+r/8eFW6KrlRPMyoYpc/c/UUnlS/3P1FXKKOSIczKflS/wBz9RThHKONn6irVFHKg5mVdkv/ADz/APHhS7Jf+ef6irNFHKg5mQfvf+eX/jwo/e/88v8Ax4VPRTshXGQ7/OGUwOec1bqFPvipq0hsZy3CiiirJCiiigArifHY0xtS0YTeIm0DWFWd9PvWZfLONgkjcP8AKwOUO0/3evHPbUUAeU/8JRN9m8Iza3aWen3Fxc3i/wBrpDmOIjI3xAjCmYHILZGCTg5qbwbp1j4k8NeNNAuXmdbnV7wOZoyrqH2lHIIGGz8wGByOleoVieJbvVLe2tYtGvNIgv5rhUVdTZgsi4O5UCkEv0x+NAHO+ArrUtaT7ZrcDpdaPC2lvu/5aTq376QeoYLFg+u6sbwffR2ms6HZeG9ai1vw3drIyWk217jSgIyQdw5C87MNyMgAmvSNI07+y9NjtjL50uWkmlIx5kjsWdsdssScdulXqAKGqaJpWtxxx6rplnfJGdyLdQLIFPqAwOKdbWltYW6WtnbxW9vENscUSBVQegA4FWLlZ2t3W1ljinI+R5Yy6g+6hlJ/MVUhiu1iUXNzHJMPvtFDsUnPZSzEfmaiZUSxRUWyX/nt/wCOijZL/wA9v/HR/n/9VQWS0VHslz/rf/HRSbJcf67/AMdFAEtFR7Jc/wCt/wDHRSbJf+e3/jo/z/8AroAloqLZL/z2/wDHRS7Jc/63/wAdFAElFRbJf+e3/jopdkv/AD2/8dH+f/1UASUVHslz/rf/AB0UmyXH+u/8dFAEtFR7Jc/63/x0UmyX/nt/46P8/wD66AJaKi2S/wDPb/x0UuyXP+t/8dFAElFRbJf+e3/jopdkv/Pb/wAdFAElFR7Jf+ev/jopNkuP9d/46KAJaKj2S5/1v/jopNkv/Pb/AMdFAEtFRbJf+e3/AI6KXZLn/W/+OigCSiotkv8Az2/8dFLsl/57f+OigCSio9kv/PX/AMdFJsl/57f+OigCWio9kuf9b/46KTZL/wA9v/HRQBLRUWyX/nt/46KXZLn/AFv/AI6KAJKKi2S/89v/AB0UuyX/AJ6/+OigCSio9kv/AD2/8dFJsl/57f8AjooAloqPZLn/AFv/AI6KTZL/AM9v/HRQBLRUWyX/AJ7f+Oil2S5/1v8A46KAJKKi2S4/13/jopdkv/PX/wAdFAElFR7Jf+e3/jopNkv/AD2/8dFAEtFR7Jc/63/x0UmyX/nt/wCOigCWiotkv/Pb/wAdH+f/ANVLslz/AK3/AMdFAElFRbJcf67/AMdFLslz/rf/AB0UASUVHsl/57f+Oj/P/wCuk2S/89v/AB0UAS0VHslz/rf/AB0UmyX/AJ7f+OigCWiotkv/AD2/8dH+f/1UuyXP+t/8dFAElFRbJcf67/x0UuyXP+t/8dFAElFRbJf+e3/jo/z/APro2S/89v8Ax0UAS0VHslz/AK3/AMdFJsl/57f+OigCWio9kv8Az2/8dH+f/wBVGyXP+t/8dFAElFRbJcf67/x0UuyXP+t/8dFAElFRbJf+e3/jo/z/APro2S/89v8Ax0UAS0VHslz/AK3/AMdFJsl/57f+OigCWio9kv8Az2/8dFGyX/nr/wCOigCSiotkuP8AXf8Ajopdkuf9b/46KAJKKi2S/wDPb/x0UbJf+e3/AI6KAJaKj2S5/wBb/wCOik2S/wDPb/x0UAS0VHsl/wCe3/joo2S/89f/AB0UASUVFsl/57f+Oil2S5/1v/jooAkoqLZL/wA9v/HRRsl/57f+OigCWio9kuf9b/46KTZL/wA9v/HRQBLRUeyX/nr/AOOijZL/AM9v/HRQBJRUWyX/AJ7f+Oil2S5/1v8A46KAJKKi2S/89v8Ax0UbJf8Ant/46KAJaKj2S5/1v/jopNkuP9d/46KAJaKj2S/89f8Ax0UbJf8Ant/46KAJKKi2S/8APb/x0UuyXP8Arf8Ax0UASUVFsl/57f8Ajoo2S/8APb/x0f5//VQBLRUeyXP+t/8AHRSbJcf67/x0UAS0VHslz/rf/HRRsl/57f8Ajo/z/wDroAkoqLZL/wA9v/HRS7Jc/wCt/wDHRQBJRUWyX/nt/wCOijZL/wA9v/HR/n/9VAEtFR7Jc/63/wAdFJslx/rv/HRQBLRUeyXP+t/8dFJsl/57f+Oj/P8A+ugCWiotkv8Az2/8dFLslz/rf/HRQBJRUWyX/nt/46KXZL/z2/8AHR/n/wDVQBJRUeyXP+t/8dFJslx/rv8Ax0UAS0VHslz/AK3/AMdFJsl/57f+Oj/P/wCugCWiotkv/Pb/AMdFLslz/rf/AB0UASUVFsl/57f+Oil2S/8APb/x0UASUVHsl/56/wDjopNkuP8AXf8AjooAloqPZLn/AFv/AI6KTZL/AM9v/HRQBLRUWyX/AJ7f+Oil2S5/1v8A46KAJKKi2S/89v8Ax0UuyX/nt/46KAJKKj2S/wDPX/x0UmyX/nt/46KAJ0++KmqtEriUEyZHPG2rNaQ2IluFFFFUSFFFFABRRRQAVwPxDRU8QeCrmO3WS4GsBFIwGI8t+Mntnmu+rivHFlq15rXhibTtHuL6HT9QF3cPFLCm1drLgB3Uk/Nn096AJD4+gs59atNVtYrS70ye3h2rcho5fPGYyHZV29DuyONpPNTaB43t9Z8SXWhOlp9qitxdRy2V2LmGSPdtPz7VwwOMqR0INchrHhfxPqXivxJqNjpr2kjz2F3plxcTRGOSS2DAq4VywDBzjj64rufDl94n1J2m13RoNHjRNgt1uluGlckfPlRhVABwMkndzjHIBparrFto8UclzFeSLIdoFrZy3BH1EasR9TS2t1He2yXMSyrHINyiaJonH1VgGH0Iq9UDfeP1qJlREoooqCwooooAKKKKACiiigAooooAKKKKACiiigAooooAKKKKACiiigAooooAKKKKACiiigAooooAKKKKACiiigAooooAKKKKACiiigAooooAKKKKACiiigAooooAKKKKACiiigAooooAKKKKACiiigAooooAKKKKACiiigAooooAKKKKACiiigAooooAKKKKACiiigAooooAKKKKACiiigAooooAKKKKACiiigAooooAKKKKACiiigAooooAKKKKACiiigAooooAKKKKACiiigAooooAKKKKACiiigAooooAKKKKACiiigAooooAKKKKACiiigAooooAKKKKACiiigAooooAKKKKACiiigByffFTVCn3xU1aQ2IluFFcpDqd74h8Ua1pdnqEun22keVEzwRxtJLK6byTvVgFAIGAMk55rk/DPinxFfap4Ke81ZpY9WfU47u3EESxnyGcIVIXcOg/i7D3zRJ6vRXm6+LNV0iHxaLi7k1GSx1S3srHzY41K+cIwM7QgODITyRnHUda07W58ZW+tXGLK7udNaydkOoNarJHcryqjyW5RunIyD3xQB2tZ+qatHpmkT6ittdXywnBhsY/NlY7tpCqDyQc59MH0rjvCWtzeI7p7d/Et9HeLZMl9pdzbRQXFrOSmHjHlg7R845LDle9c3puq63oX7Ptvrthq8puxGjj7RFHIF3T7W2/KDk7s5bdyKAPZRyKK5S81i61Hxy/hmzvJLFLawF5PPEiNIzM+1VXerKAACScHqOnNcrqPjHxBa+D/FEZvFj1nQL+K3F2kK7Z45HTazIQQGKscgd/yoA9Vorj/wC09U0/4kWejTXzXdnf6dLcbHiRfKljZR8pUA7SG6MWPHWszwj4kvNX1m2tr/Wri11eJX/tHQru2jjxwcNCQm5lBxg7myOT7gHfXNul1bvBI0io4wTFK0bD6MpBH4GqkNjBbRLDGJGVOAZZXkY855ZiSfxNLqs2rQxRnSbKzupCfnW6umgCj1BWN8/kKW1a6e2Rr2GKG5I/eRwyGRFPoGKqT+QqJlRF+zxf3f1NH2eL+7+p/wA96loqCyPyIs52/qaT7PFjGz9TUtFAEfkRZzt/U0n2eL+7+p/z2qWigCL7PF/d/U0vkRZzt9+pqSigCL7PF/d/U0v2eL+7+p/z3qSigCPyIs/d/U/57Un2eLGNn6mpaKAI/Iiznb+ppPs8X939T/ntUtFAEX2eL+7+p/z3pfIiznb+pqSigCL7PF/d/U0v2eL+7+p/z3qSigCPyIv7v6n/AD2pPs8WMbP1NS0UAR+RFnO39TSfZ4v7v6n/AD2qWigCL7PF/d/U/wCe9L5EWc7f1NSUUARfZ4v7v6ml+zxf3f1P+e9SUUAR+RF/d/U/57Un2eL+5+pqWigCPyIs52/qaT7PF/d/U/57VLRQBF9ni/u/qf8APel8iLOdv6mpKKAIvs8X9z9TS+RF/d/U/wCe9SUUAR/Z4v7v6n/Pak+zxf3f1NS0UAR+RFnO39TSfZ4v7v6n/PapaKAIvs8X939T/nvS+RFnO39TUlFAEX2eLGNn6ml8iL+7+p/z3qSigCP7PF/d/U/57Un2eL+7+pqWigCPyIs52/qaT7PF/d/U/wCe1S0UARfZ4v7v6n/Pel8iLOdv6mpKKAIvs8WMbP1NL5EWfu/qf896kooAj+zxf3f1P+e1J9ni/u/qalooAj8iLOdvv1NJ9ni/u/qalooAi+zxf3f1P+e9L5EWc7f1NSUUARfZ4sY2fqaXyIs52/qakooAi+zxf3f1P+e1H2eL+7+pqWigCPyIs52+/U0n2eL+7+pqWigCP7PF/d/U/wCe9HkRZ+7+p/z2qSigCL7PFjGz9TS+RFnO39TUlFAEX2eL+7+p/wA9qPs8X939T/nvUtFAEfkRZzt/U0n2eL+7+pqWigCP7PF/d/U/570eRF/d/U/57VJRQBF9nixjZ+ppfIiznb+pqSigCL7PF/d/U/57UfZ4v7v6n/PepaKAI/Iiznb+ppPs8X939TUtFAEf2eL+7+p/z3o8iL+7+p/z2qSigCL7PF/c/U0vkRZzt/U1JRQBF9ni/u/qf89qPs8X939T/nvUtFAEfkRZzt/U0n2eL+5+pqWigCPyIv7v6n/Pej7PF/d/U/57VJRQBF9ni/u/qaXyIs52/qakooAi+zxf3f1P+e1H2eL+7+p/z3qWigCPyIs52/qaT7PFjGz9TUtFAEfkRf3f1P8AnvR9ni/u/qf89qkooAi+zxf3f1NL5EWc7f1NSUUARfZ4v7v6n/Paj7PF/d/U/wCe9S0UAR+RFnO39TSfZ4sY2fqalooAj8iLP3f1P+e9H2eL+7+p/wA9qkooAi+zxf3f1NL5EWc7ffqakooAi+zxf3f1NH2eL+7+p/z3qWigCPyIs52/qaT7PFjGz9TUtFAEfkRZzt/U0n2eL+7+p/z2qWigCL7PF/d/U0vkRZzt9+pqSigCL7PF/d/U0v2eL+7+p/z3qSigCPyIs/d/U/57Un2eLGNn6mpaKAI/Iiznb+ppPs8X939T/ntUtFAEX2eL+7+p/wA96XyIs52/qakooAi+zxf3f1NL9ni/u/qf896kooAj8iL+7+p/z2pPs8WMbP1NS0UAR+RFnO39TSfZ4v7v6n/PapaKAIvs8X939T/nvS+RFnO39TUlFAEX2eL+7+ppfs8X939T/nvUlFAEfkRf3f1P+e1J9ni/ufqalooASKFFlDBcHnvVmoU++KmrSGxEtzjL3wLdHxlN4h0bxFdaSb1UTULeKBJFuAgwpBbIRscZwf1Nc14I8NSaz4J8L6np+pCyv9JvL9oZXi89GWSeVXVl3AnIxzmvVJ4IbmCSC4iSWGRSrxyKGVgeoIPBFVtN0fS9GieLS9Ns7GNzuZLWBYgx9SFAzVEnLH4dQ3Vr4ktdS1Se7g1yRJXxEsbwyKqgMpHcFARwB9asaV4T1y1tLiPVPF93qU4t3hs5Wtli+zllx5hCnLuP7xPr6k1c8a+I7vwn4audat9Oivo7Ubpo3uTC23IGV+RsnnocVDrPiTVtH8EyeIJNItJJoITcT2q37AKgGflfyvmbHbaB70APsvDF2desda1nULa8vrK2e3iktrP7PvD43F8u277vAGAMtxzxi3Pw5vJfhyfBkOvRR2oZVSdrHcyxrJ5gGPMGWzgFumB0BOa39L1DX9Vt9FvzZada2dzG0t5Ebh5ZERkBj2NsUZyfmyMY6E1R0/xNqt5rXi7TntbMPo3k/Z8M2H8yIyfOfpjoB3oAnu/Ct1Lr1l4httSht9ahtjaXEn2UtBcxE7sGPeCMNyCH475qhrPgCXUvDOo6Vb6rHb3WqXa3V9ePa+YXYMpAVQ67QNigZJ4HcnNbPgzW7jxJ4O0vWLqOKOe7h8x0iBCg5PAySa3aAOTn8Latc+MtN8Qy6zZg2ds1s0CWDDzA+C5DGU7TkccHHvRZeEr97/Rb3XdXg1G40gP5E0VkYJJGZChMjGRs8EnAAycHtXWUUARXNzBZ273F1PHBBGMvLK4VVHqSeBVSHULS7iWe2uY5oZOUkibcrDOMgjg1oVA33j9aiZUSH7RF/e/Q0faIv736H/PapaKgsj8+LON36Gk+0RYzv/Q1LRQBH58Wcbv0NJ9oi/vfof8APepaKAIvtEX979DS+fFnG726GpKKAIvtEX979DS/aIv736H/AD2qSigCPz4s/e/Q/wCe9J9oixnf+hqWigCPz4s43foaT7RF/e/Q/wCe9S0UARfaIv736H/Pal8+LON36GpKKAIvtEX979DS/aIv736H/PapKKAI/Pi/vfof896T7RFjO/8AQ1LRQBH58Wcbv0NJ9oi/vfof896looAi+0Rf3v0P+e1L58Wcbv0NSUUARfaIv736Gl+0Rf3v0P8AntUlFAEfnxf3v0P+e9J9oi/v/oalooAj8+LON36Gk+0Rf3v0P+e9S0UARfaIv736H/Pal8+LON36GpKKAIvtEX9/9DS+fF/e/Q/57VJRQBH9oi/vfof896T7RF/e/Q1LRQBH58Wcbv0NJ9oi/vfof896looAi+0Rf3v0P+e1L58Wcbv0NSUUARfaIsZ3/oaXz4v736H/AD2qSigCP7RF/e/Q/wCe9J9oi/vfoalooAj8+LON36Gk+0Rf3v0P+e9S0UARfaIv736H/Pal8+LON36GpKKAIvtEWM7/ANDS+fFn736H/PapKKAI/tEX979D/nvSfaIv736GpaKAI/Pizjd7dDSfaIv736GpaKAIvtEX979D/ntS+fFnG79DUlFAEX2iLGd/6Gl8+LON36GpKKAIvtEX979D/nvR9oi/vfoalooAj8+LON3t0NJ9oi/vfoalooAj+0Rf3v0P+e1HnxZ+9+h/z3qSigCL7RFjO/8AQ0vnxZxu/Q1JRQBF9oi/vfof896PtEX979D/AJ7VLRQBH58Wcbv0NJ9oi/vfoalooAj+0Rf3v0P+e1Hnxf3v0P8AnvUlFAEX2iLGd/6Gl8+LON36GpKKAIvtEX979D/nvR9oi/vfof8APapaKAI/Pizjd+hpPtEX979DUtFAEf2iL+9+h/z2o8+L+9+h/wA96kooAi+0Rf3/ANDS+fFnG79DUlFAEX2iL+9+h/z3o+0Rf3v0P+e1S0UAR+fFnG79DSfaIv7/AOhqWigCPz4v736H/Paj7RF/e/Q/571JRQBF9oi/vfoaXz4s43foakooAi+0Rf3v0P8AnvR9oi/vfof89qlooAj8+LON36Gk+0RYzv8A0NS0UAR+fF/e/Q/57UfaIv736H/PepKKAIvtEX979DS+fFnG79DUlFAEX2iL+9+h/wA96PtEX979D/ntUtFAEfnxZxu/Q0n2iLGd/wChqWigCPz4s/e/Q/57UfaIv736H/PepKKAIvtEX979DS+fFnG726GpKKAIvtEX979DR9oi/vfof89qlooAj8+LON36Gk+0RYzv/Q1LRQBH58Wcbv0NJ9oi/vfof896looAi+0Rf3v0NL58WcbvboakooAi+0Rf3v0NL9oi/vfof89qkooAj8+LP3v0P+e9J9oixnf+hqWigCPz4s43foaT7RF/e/Q/571LRQBF9oi/vfof89qXz4s43foakooAi+0Rf3v0NL9oi/vfof8APapKKAI/Pi/vfof896T7RFjO/wDQ1LRQBH58Wcbv0NJ9oi/vfof896looAi+0Rf3v0P+e1L58Wcbv0NSUUARfaIv736Gl+0Rf3v0P+e1SUUAR+fF/e/Q/wCe9J9oi/v/AKGpaKAEimRpQobJ57VZqFPvipq0hsRLcKKKKok4v4tf8kr8Qf8AXuP/AENaz/Gel3kfws1eV9f1GVBpbkxPHbhWGzocRA4+hz712GveHdM8TaebDVoZZrRjlokuJIlfv82xhuGQODmq934S0e+8ProVzHdy6co2+U19Pll/us2/cy+xJFAHGeWF8W/C2RWcGSwuAw3nacWq446dz+dX9E/5H34k/wDbn/6SituPwF4ejudMuFgvfN0tStkzalcnyFPBC5k6EcEdwAOnFSxeCtDhvNTu44bxZ9TXbeONQuMyjoP4+MDgYxgcDAoA4Lw99iuPh98P9PufNuJ59zQacCBFdFEcnzSeNi5Dd+QMAms3UYWX4SfEG1lRY0sdXmS3hic7IFxC2xOnygu3GAOelekp8P8AwzHpdlpy2Ev2axlM1qDdzFoGIwdj79yg/wB0HHtST/DzwtcWd7ZtpZS2vpRLcxRXMsayMAByFYccDIHBIBIyBQBz/jv4d6TN4cutR0zSoZdWtJk1FPNzJ9oePBZGznO9VwR3OCc1qeHZdK8XeIE8WWtvC8VtZx21rOUG8M6+ZIM+wZF9iZB3Nampal/wi1lYWllo2r6oshMMYtszGPAyDI8jZAPTcScVZ8M6LH4f8PWmnJHEjRqWlEQwnmMSz4HpuJx7YoAn1XT7nUIo0ttXvNNZTkvarExf2PmI4/LFLawSW1skMt1LdSIMNPMFDv7naAv5AVZubhLW3eeRZGRBkiKJpGP0VQSfwFVIb1LmJZo4rgI/IEkLRt17qwBH4iomVEsUVF53/TOT/vmjzv8ApnJ/3z/n0qCyWio/O5/1cn/fNJ53H+qk/wC+aAJaKj87n/Vyf980nnf9M5P++f8APrQBLRUXnf8ATOT/AL5pfO5x5cn/AHzQBJRUXnf9MpP++aXzv+mcn/fP+fSgCSio/O5/1cn/AHzSedx/qpP++aAJaKj87n/Vyf8AfNJ53/TOT/vn/PrQBLRUXnf9M5P++aXzuceXJ/3zQBJRUXnf9MpP++aXzv8ApnJ/3zQBJRUfnf8ATOT/AL5pPO4/1Un/AHzQBLRUfnc/6uT/AL5pPO/6Zyf980AS0VF53/TOT/vml87n/Vyf980ASUVF53/TKT/vml87/pnJ/wB80ASUVH53/TOT/vmk87/plJ/3zQBLRUfnc/6uT/vmk87/AKZyf980AS0VF53/AEzk/wC+aXzuf9XJ/wB80ASUVF53/TKT/vml87/pnJ/3zQBJRUfnf9M5P++aTzv+mUn/AHzQBLRUfnc/6uT/AL5pPO/6Zyf980AS0VF53/TOT/vml87n/Vyf980ASUVF53H+qk/75pfO/wCmcn/fNAElFR+d/wBM5P8Avmk87/plJ/3zQBLRUfnc48uT/vmk87/pnJ/3zQBLRUXnf9M5P++f8+lL53P+rk/75oAkoqLzuP8AVSf980vnc/6uT/vmgCSio/O/6Zyf98/59aTzv+mUn/fNAEtFR+dzjy5P++aTzv8ApnJ/3zQBLRUXnf8ATOT/AL5/z6Uvnc/6uT/vmgCSiovO4/1Un/fNL53P+rk/75oAkoqLzv8ApnJ/3z/n1o87/pnJ/wB80AS0VH53OPLk/wC+aTzv+mUn/fNAEtFR+d/0zk/75/z6Uedz/q5P++aAJKKi87j/AFUn/fNL53P+rk/75oAkoqLzv+mcn/fP+fWjzv8ApnJ/3zQBLRUfnc48uT/vmk87/plJ/wB80AS0VH53/TOT/vmjzv8ApnJ/3zQBJRUXncf6qT/vml87n/Vyf980ASUVF53/AEzk/wC+aPO/6Zyf980AS0VH53P+rk/75pPO/wCmUn/fNAEtFR+d/wBM5P8Avmjzv+mcn/fNAElFRed/0yk/75pfO5/1cn/fNAElFRed/wBM5P8Avmjzv+mcn/fNAEtFR+dz/q5P++aTzv8AplJ/3zQBLRUfnf8ATOT/AL5o87/pnJ/3zQBJRUXnf9MpP++aXzuf9XJ/3zQBJRUXnf8ATOT/AL5o87/pnJ/3zQBLRUfnc/6uT/vmk87j/VSf980AS0VH53/TOT/vmjzv+mcn/fNAElFRed/0yk/75pfO5x5cn/fNAElFRed/0zk/75o87/pnJ/3z/n0oAloqPzuf9XJ/3zSedx/qpP8AvmgCWio/O5/1cn/fNHnf9M5P++f8+tAElFRed/0yk/75pfO5x5cn/fNAElFRed/0zk/75o87/pnJ/wB8/wCfSgCWio/O5/1cn/fNJ53H+qk/75oAloqPzuf9XJ/3zSed/wBM5P8Avn/PrQBLRUXnf9M5P++aXzuceXJ/3zQBJRUXnf8ATKT/AL5pfO/6Zyf98/59KAJKKj87n/Vyf980nncf6qT/AL5oAloqPzuf9XJ/3zSed/0zk/75/wA+tAEtFRed/wBM5P8Avml87nHlyf8AfNAElFRed/0yk/75pfO/6Zyf980ASUVH53/TOT/vmk87j/VSf980AS0VH53P+rk/75pPO/6Zyf8AfNAEtFRed/0zk/75pfO5/wBXJ/3zQBJRUXnf9MpP++aXzv8ApnJ/3zQBJRUfnf8ATOT/AL5pPO/6ZSf980ATp98VNVaKTdKBscdeSOKs1pDYiW4UUUVRJy+oeJriXxWvhjRIoZL+OAXN3cXGTFaxk4XKggu57Lkcc5qaebxPb6jZWjHT5ra5MiyXsUDoYGCMVBjLtkEj7272xyDXL6V/xTvxs8Qf2kwii1+3gksJ5DhZGiXa0YPTd3x6AV6HJdwxXEcDOPNcFgo6hR1Y+g7Z9SKAOJ8Na7qevfCzSdWu9et9N1C6YM95LDHtOJiNgU4XlRtHfv1rsJ9Z0u1nkguNSs4Zoo/NkjknVWRMgbiCeBkgZ968YhSBv2dPDkrrGWjvINjkDKn7Xzg9uM13jpE/xyhLKjSJ4dZlyBlf9IAyPwJ/M0AbGueMtF0PSLXUpr23lgu5UitmjlBWUswGQw42jOSegArSn1vSbayjvbjU7KK0l/1c8lwio/0YnBryCFlHw4dFI8qHxgFUDoi/bAcew5/Wuytrw/8AC6Ly3viNkmkoNNLH5SA584L/ALWduR1wo9KAOvl1XToLWK6m1C1jt5sCOV5lCPnpgk4OaW11TT76eaC0vrW4mgIEscUyu0eem4A5H4143qFr9l8AeKYAF/sj/hJoxYofuBPtEW8J22bt4wOOGrtZdkPxwskTam7w9IpUcZAnXA/Dn9aAO6qBvvH61X1XR7bWIo47mW8jWM7gbW8ltyfqY2Un6GltbWOytktomlaOMbVM0rSufqzEsfqTUTKiTUUUVBYUUUUAFFFFABRRRQAUUUUAFFFFABRRRQAUUUUAFFFFABRRRQAUUUUAFFFFABRRRQAUUUUAFFFFABRRRQAUUUUAFFFFABRRRQAUUUUAFFFFABRRRQAUUUUAFFFFABRRRQAUUUUAFFFFABRRRQAUUUUAFFFFABRRRQAUUUUAFFFFABRRRQAUUUUAFFFFABRRRQAUUUUAFFFFABRRRQAUUUUAFFFFABRRRQAUUUUAFFFFABRRRQAUUUUAFFFFABRRRQAUUUUAFFFFABRRRQAUUUUAFFFFABRRRQAUUUUAFFFFABRRRQAUUUUAFFFFABRRRQAUUUUAFFFFABRRRQAUUUUAFFFFABRRRQA5PvipqhT74qatIbES3CiiiqJK97YWepWxt760guoCcmKeMOp/A8VDFoulQ2UtlFpllHaTDbJAkChHHoVxg1eooAxT4P8ADBsxZnw5pBtVcyCH7DHsDEY3bduM471J/wAIt4e+1C6/sHS/tAQRiX7HHvChdoXOM428Y9OK1qKAMqDwx4ftbO4s7fQ9MhtbnHnwx2kapLjpuUDDY96sXWj6XfW8Vvd6bZ3EEOPKimgV1THA2gjA/CrtFAGfe6Do+pWkNrf6TY3VtD/qoZ7ZHSPjHygjA49KjTw1oMV9FfR6JpqXkQVY7hbSMSIFGAA2MjA4HtVLxTbalPJoTaddTwJDqkct2YmIDQBH3K3+yTt68UumeK4tVubFYdM1BLS/iaW1vXWPyZFAyOjllJHIDKO/pQBt3LTrbu1rFHLOB8iSyFFJ92CsR+RqpC160Stcx28cx++kcjOoOezELn8hS6prelaJHHJqup2dikh2o11OsYY+gLEZp1td21/bpdWdxFcW8o3RyxOGVx6gjg1Eyoh+/wD+mf6/59aP3/8A0z/X/PpUtFQWR/vs/wDLP9aT9/j/AJZ/rUtFAEf77P8Ayz/Wk/f/APTP9f8APrUtFAEX7/8A6Z/r/n0pf32f+WePxqSigCL9/wD9M/1pf3//AEz/AF/z6VJRQBH++z/yz/X/AD60n7/H/LP9alooAj/fZ/5Z4/Gk/f8A/TP9f8+tS0UARfv/APpn+v8An0pf32f+WePxqSigCL9//wBM/wBaX9//ANM/1/z6VJRQBH++/wCmf6/59aT9/j/ln+tS0UAR/vs/8s8fjSfv/wDpn+v+fWpaKAIv3/8A0z/X/PpS/vs/8s8fjUlFAEX7/wD6Z/rS/v8A/pn+v+fSpKKAI/3/AP0z/X/PrSfv/wDpn+tS0UAR/vs/8s8fjSfv/wDpn+v+fWpaKAIv3/8A0z/X/PpS/vs/8s8fjUlFAEX7/wD6Z/rS/v8A/pn+v+fSpKKAI/3/AP0z/X/PrSfv/wDpn+tS0UAR/vs/8s8fjSfv/wDpn+v+fWpaKAIv3/8A0z/X/PpS/vs/8s8fjUlFAEX7/H/LP9aX99/0z/X/AD6VJRQBH+//AOmf6/59aT9//wBM/wBalooAj/fZ/wCWePxpP3//AEz/AF/z61LRQBF+/wD+mf6/59KX99n/AJZ4/GpKKAIv3+P+Wf60v77P/LP9f8+lSUUAR/v/APpn+v8An1pP3/8A0z/WpaKAI/32f+WePxpP3/8A0z/X/PrUtFAEX7//AKZ/r/n0pf32f+Wf61JRQBF+/wAf8s/1pf32f+Wf61JRQBF+/wD+mf6/59aP3/8A0z/X/PpUtFAEf77P/LPH40n7/wD6Z/rUtFAEf7//AKZ/r/n0o/fZ/wCWf6/59akooAi/f4/5Z/rS/vs/8s8fjUlFAEX7/wD6Z/r/AJ9aP3//AEz/AF/z6VLRQBH++z/yzx+NJ+//AOmf61LRQBH+/wD+mf6/59KP33/TP9f8+tSUUARfv8f8s/1pf32f+WePxqSigCL9/wD9M/1/z60fv/8Apn+v+fSpaKAI/wB9n/lnj8aT9/8A9M/1qWigCP8Af/8ATP8AX/PpR+//AOmf6/59akooAi/f/wDTP9aX99n/AJZ4/GpKKAIv3/8A0z/X/PrR+/8A+mf6/wCfSpaKAI/32f8Alnj8aT9//wBM/wBalooAj/f/APTP9f8APpR+/wD+mf6/59akooAi/f8A/TP9aX99n/lnj8akooAi/f8A/TP9f8+tH7//AKZ/r/n0qWigCP8AfZ/5Z4/Gk/f4/wCWf61LRQBH++/6Z/r/AJ9KP3//AEz/AF/z61JRQBF+/wD+mf60v77P/LPH41JRQBF+/wD+mf6/59aP3/8A0z/X/PpUtFAEf77P/LPH40n7/H/LP9alooAj/fZ/5Z/r/n0o/f8A/TP9f8+tSUUARfv/APpn+tL++z/yzx+NSUUARfv/APpn+v8An1o/f/8ATP8AX/PpUtFAEf77P/LP9aT9/j/ln+tS0UAR/vs/8s/1pP3/AP0z/X/PrUtFAEX7/wD6Z/r/AJ9KX99n/lnj8akooAi/f/8ATP8AWl/f/wDTP9f8+lSUUAR/vs/8s/1/z60n7/H/ACz/AFqWigCP99n/AJZ4/Gk/f/8ATP8AX/PrUtFAEX7/AP6Z/r/n0pf32f8Alnj8akooAi/f/wDTP9aX9/8A9M/1/wA+lSUUAR/vv+mf6/59aT9/j/ln+tS0UAR/vs/8s8fjSfv/APpn+v8An1qWigCL9/8A9M/1/wA+lL++z/yzx+NSUUARfv8A/pn+tL+//wCmf6/59KkooAj/AH//AEz/AF/z60n7/wD6Z/rUtFACReb5o3bNvPTOas1Cn3xU1aQ2IluFFUTq9gNcGi/aB/aJtvtQh2n/AFW7buzjHXjGc1eqiQoqG6uoLG1lurqVYoIlLO7HhRUem6laavptvqFhMJrS4QPFIFI3Ke+Dg0AWqKKKACiiigBkrFYXYJvIUnb/AHvavNfCllPZeIdMl8OQazY6LdJI+paTqNtLHFaHblTEZFGDvOCqkgjJ4xXptFACEA9QD9ahIwxA9adcxPPbvFHcSW7sMCWIKWT3G4EfmDVSG1eGJY5Lu4uHXrLIVDNz1IUAfkBUTKiWKKi8n/ppJ/31R5P/AE0k/wC+v8+tQWS0VH5PP+sk/wC+qTyeP9bJ/wB9UAS0VH5PP+sk/wC+qTyf+mkn/fX+fSgCWiovJ/6aSf8AfVL5POfMk/76oAkoqLyf+msn/fVL5P8A00k/76/z60ASUVH5PP8ArJP++qTyeP8AWyf99UAS0VH5PP8ArJP++qTyf+mkn/fX+fSgCWiovJ/6aSf99Uvk858yT/vqgCSiovJ/6ayf99Uvk/8ATST/AL6oAkoqPyf+mkn/AH1SeTx/rZP++qAJaKj8nn/WSf8AfVJ5P/TST/vqgCWiovJ/6aSf99Uvk8/6yT/vqgCSiovJ/wCmsn/fVL5P/TST/vqgCSio/J/6aSf99Unk/wDTWT/vqgCWio/J5/1kn/fVJ5P/AE0k/wC+qAJaKi8n/ppJ/wB9Uvk8/wCsk/76oAkoqLyf+msn/fVL5P8A00k/76oAkoqPyf8AppJ/31SeT/01k/76oAloqPyef9ZJ/wB9Unk/9NJP++qAJaKi8n/ppJ/31S+Tz/rJP++qAJKKi8nj/Wyf99Uvk/8ATST/AL6oAkoqPyf+mkn/AH1SeT/01k/76oAloqPyec+ZJ/31SeT/ANNJP++qAJaKi8n/AKaSf99f59aXyef9ZJ/31QBJRUXk8f62T/vql8nn/WSf99UASUVH5P8A00k/76/z6Unk/wDTWT/vqgCWio/J5z5kn/fVJ5P/AE0k/wC+qAJaKi8n/ppJ/wB9f59aXyef9ZJ/31QBJRUXk8f62T/vql8nn/WSf99UASUVF5P/AE0k/wC+v8+lHk/9NJP++qAJaKj8nnPmSf8AfVJ5P/TWT/vqgCWio/J/6aSf99f59aPJ5/1kn/fVAElFReTx/rZP++qXyef9ZJ/31QBJRUXk/wDTST/vr/PpR5P/AE0k/wC+qAJaKj8nnPmSf99Unk/9NZP++qAJaKj8n/ppJ/31R5P/AE0k/wC+qAJKKi8nj/Wyf99Uvk8/6yT/AL6oAkoqLyf+mkn/AH1R5P8A00k/76oAloqPyef9ZJ/31SeT/wBNZP8AvqgCWio/J/6aSf8AfVHk/wDTST/vqgCSiovJ/wCmsn/fVL5PP+sk/wC+qAJKKi8n/ppJ/wB9UeT/ANNJP++qAJaKj8nn/WSf99Unk/8ATWT/AL6oAloqPyf+mkn/AH1R5P8A00k/76oAkoqLyf8AprJ/31S+Tz/rJP8AvqgCSiovJ/6aSf8AfVHk/wDTST/vqgCWio/J5/1kn/fVJ5PH+tk/76oAloqPyf8AppJ/31R5P/TST/vqgCSiovJ/6ayf99Uvk858yT/vqgCSiovJ/wCmkn/fVHk/9NJP++v8+tAEtFR+Tz/rJP8Avqk8nj/Wyf8AfVAEtFR+Tz/rJP8Avqjyf+mkn/fX+fSgCSiovJ/6ayf99Uvk858yT/vqgCSiovJ/6aSf99UeT/00k/76/wA+tAEtFR+Tz/rJP++qTyeP9bJ/31QBLRUfk8/6yT/vqk8n/ppJ/wB9f59KAJaKi8n/AKaSf99Uvk858yT/AL6oAkoqLyf+msn/AH1S+T/00k/76/z60ASUVH5PP+sk/wC+qTyeP9bJ/wB9UAS0VH5PP+sk/wC+qTyf+mkn/fX+fSgCWiovJ/6aSf8AfVL5POfMk/76oAkoqLyf+msn/fVL5P8A00k/76oAkoqPyf8AppJ/31SeTx/rZP8AvqgCWio/J5/1kn/fVJ5P/TST/vqgCWiovJ/6aSf99Uvk8/6yT/vqgCSiovJ/6ayf99Uvk/8ATST/AL6oAkoqPyf+mkn/AH1SeT/01k/76oAnT74qaq0Ue2UHe568E8VZrSGxEtzi9a8S61a+K9Q0e0j0+NYdFfUoJpkeUsyyBdrAMuBjPQ9we2DUHjLWm8PeCdXC2AXW7m2t7yIwvlfNUsWjbfxjbjBDdevHM97Z/bfi3NC2RFJ4ZeF2HbdPj+h/Ks238FeKV8P+GtJmudIC6FfwTo6GQmeOMMATx8rYIGOR3zxg0SbE+vaprj+IYdFFktrpTNayNcozm4nCBnRSGGwDcBuIbknjjnD8K6/caZ4F8BaTZJCLvVofKSedS0cSpGXYkAgsSBgDI69eK2rPwxrOh6vr7aW9jPp2syNdMlxI8b287LhyMKwdTgHGVIxj3rnLrw/rdv4d8KeD7eTSJtXsla5ZJmlEZjiG0SCRNsiENIuNvJPsCKANpvGWtppfi7daaeLvw5G7NMGcpcER+auI/wCEFevzkg+tSTeKNftpPC0jx6bJDrhWJo1R1aCRoi4YNuO5eDxtB9+9ZkWleKjoGueFp9L0GK61OzmZLq1u5yhZx5btKzqzl8MCCc52kZGKvXnhzxRPB4QVLfRw+iSJLPm9lxIVjMeF/c9wc5Pfj3oAnXxvc6ZN4tg1eKCZ9BWCVJLWNoxOsykou0liG3DbnJ6g4qSx8S65J4ms9PlsXuLK7ikJu00u5t1tJFGQHMvDq3IBG3kdOaoXHgfVdW1rxidS+wxabr9vDDG9vcO80JhUhGKmMA5J3Y3cYxz1rT8P2HjmDauv6jpN0loh8j7IJI3un2kKZmIIUc5IVTzg9sEAxF8ea9H4DXxXcQ6b5MF8be4t0jfdJH9p8ncrF/lbkHBDA47ZwNGGfWJPjDeWh1CE2UWlxTJA1uTtVpWDAEOPmOwfMQewxxWLJ4H8Vy/DC48KlNGFzLeGcT/bJdgU3Hn9PJznPy/Tn2rq4tE1VPHI8QYs1juNNjtLmLzWYxOkjPlDtG8EMRzt6Zx2oA2dV1C50+KN7bSLzUmY4KWrRKU9z5joPyzS2s8lzbJNLay2sjjLQTFS6ex2kr+RNXqrNIm8jeuc+tRMqItFN8yP++v50eYn99fzqCx1FN8xP76/nR5sf99fzoAdRTfMT++v50eYn99fzoAdRTfMj/vr+dHmJ/fX86AHUU3zI/76/nR5if31/OgB1FN8xP76/nR5sf8AfX86AHUU3zE/vr+dHmJ/fX86AHUU3zI/76/nR5if31/OgB1FN8yP++v50eYn99fzoAdRTfMT++v50ebH/fX86AHUU3zE/vr+dHmJ/fX86AHUU3zE/vr+dHmJ/fX86AHUU3zI/wC+v50eYn99fzoAdRTfMT++v50eZH/fX86AHUU3zE/vr+dHmJ/fX86AHUU3zE/vr+dHmJ/fX86AHUU3zI/76/nR5if31/OgB1FN8xP76/nR5kf99fzoAdRTfMT++v50eYn99fzoAdRTfMT++v50eYn99fzoAdRTfNj/AL6/nR5if31/OgB1FN8xP76/nR5kf99fzoAdRTfMT++v50eZH/fX86AHUU3zE/vr+dHmJ/fX86AHUU3zY/76/nR5if31/OgB1FN8xP76/nR5kf8AfX86AHUU3zE/vr+dHmR/31/OgB1FN8xP76/nR5if31/OgB1FN82P++v50eYn99fzoAdRTfMT++v50eZH/fX86AHUU3zE/vr+dHmR/wB9fzoAdRTfMT++v50eYn99fzoAdRTfNj/vr+dHmJ/fX86AHUU3zE/vr+dHmR/31/OgB1FN8xP76/nR5kf99fzoAdRTfMT++v50eYn99fzoAdRTfNj/AL6/nR5if31/OgB1FN8xP76/nR5if31/OgB1FN8xP76/nR5kf99fzoAdRTfMT++v50eYn99fzoAdRTfMj/vr+dHmJ/fX86AHUU3zE/vr+dHmJ/fX86AHUU3zE/vr+dHmR/31/OgB1FN8xP76/nR5if31/OgB1FN8yP8Avr+dHmJ/fX86AHUU3zE/vr+dHmJ/fX86AHUU3zE/vr+dHmx/31/OgB1FN8xP76/nR5if31/OgB1FN8yP++v50eYn99fzoAdRTfMj/vr+dHmJ/fX86AHUU3zE/vr+dHmx/wB9fzoAdRTfMT++v50eYn99fzoAdRTfMj/vr+dHmJ/fX86AHUU3zI/76/nR5if31/OgB1FN8xP76/nR5sf99fzoAdRTfMT++v50eYn99fzoAdRTfMj/AL6/nR5if31/OgB1FN8yP++v50eYn99fzoAdRTfMT++v50ebH/fX86AHUU3zE/vr+dHmJ/fX86AHUU3zI/76/nR5if31/OgB1FN8yP8Avr+dHmJ/fX86AHUU3zE/vr+dHmx/31/OgB1FN8xP76/nR5if31/OgB1FN8xP76/nR5if31/OgB1FN8yP++v50eYn99fzoAdRTfMT++v50eZH/fX86AJE++KmqvG6mQAMCfTNWK0hsRLczNG8PaX4fg8nTbdok2hAXleVggyVUM5JCjccLnAycda06KKokKzdU0HTdYlgmvIGM9uT5M8Urwyx56hXQhgD3GcGtKigCvaWUFlGVhDkn7zySNI7emWYkn8TViiigAoopCMgjOPcUAUtNu766N4L3TjZCK5eKAmZZPPiGNsnH3c8/KeRir1eNyalq3/COau39taj59v4yFlHP55DCHzY12emME8YxyeOTXX2M9xYfFq40eO7upLCfRVvTFPO8oWUTFMruJ2gg8gccdKAOwubaC8t3t7qCOeCQYeKVAysPQg8Gq0Nla2kS29tbQwwx8JHHGFVR6ADgUmqw6tNFGNJvbO1kB+drq1acMPQBZEx+ZpbVbpLZFvZoprkD95JDGY0Y+oUsxH5momVEk8uP+4v5UeWn9xfyp1FQWN8tP7i/lR5Uf8AcX8qdRQA3y0/uL+VHlp/cX8qdRQA3y4/7i/lR5af3F/KnUUAN8uP+4v5UeWn9xfyp1FADfLT+4v5UeVH/cX8qdRQA3y0/uL+VHlp/cX8qdRQA3y4/wC4v5UeWn9xfyp1FADfLj/uL+VHlp/cX8qdRQA3y0/uL+VHlR/3F/KnUUAN8tP7i/lR5af3F/KnUUAN8tP7i/lR5af3F/KnUUAN8uP+4v5UeWn9xfyp1FADfLT+4v5UeXH/AHF/KnUUAN8tP7i/lR5af3F/KnUUAN8tP7i/lR5af3F/KnUUAN8uP+4v5UeWn9xfyp1FADfLT+4v5UeXH/cX8qdRQA3y0/uL+VHlp/cX8qdRQA3y0/uL+VHlp/cX8qdRQA3yo/7i/lR5af3F/KnUUAN8tP7i/lR5cf8AcX8qdRQA3y0/uL+VHlx/3F/KnUUAN8tP7i/lR5af3F/KnUUAN8qP+4v5UeWn9xfyp1FADfLT+4v5UeXH/cX8qdRQA3y0/uL+VHlx/wBxfyp1FADfLT+4v5UeWn9xfyp1FADfKj/uL+VHlp/cX8qdRQA3y0/uL+VHlx/3F/KnUUAN8tP7i/lR5cf9xfyp1FADfLT+4v5UeWn9xfyp1FADfKj/ALi/lR5af3F/KnUUAN8tP7i/lR5cf9xfyp1FADfLT+4v5UeXH/cX8qdRQA3y0/uL+VHlp/cX8qdRQA3yo/7i/lR5af3F/KnUUAN8tP7i/lR5af3F/KnUUAN8tP7i/lR5cf8AcX8qdRQA3y0/uL+VHlp/cX8qdRQA3y4/7i/lR5af3F/KnUUAN8tP7i/lR5af3F/KnUUAN8tP7i/lR5cf9xfyp1FADfLT+4v5UeWn9xfyp1FADfLj/uL+VHlp/cX8qdRQA3y0/uL+VHlp/cX8qdRQA3y0/uL+VHlR/wBxfyp1FADfLT+4v5UeWn9xfyp1FADfLj/uL+VHlp/cX8qdRQA3y4/7i/lR5af3F/KnUUAN8tP7i/lR5Uf9xfyp1FADfLT+4v5UeWn9xfyp1FADfLj/ALi/lR5af3F/KnUUAN8uP+4v5UeWn9xfyp1FADfLT+4v5UeVH/cX8qdRQA3y0/uL+VHlp/cX8qdRQA3y4/7i/lR5af3F/KnUUAN8uP8AuL+VHlp/cX8qdRQA3y0/uL+VHlR/3F/KnUUAN8tP7i/lR5af3F/KnUUAN8uP+4v5UeWn9xfyp1FADfLj/uL+VHlp/cX8qdRQA3y0/uL+VHlR/wBxfyp1FADfLT+4v5UeWn9xfyp1FADfLT+4v5UeWn9xfyp1FADfLj/uL+VHlp/cX8qdRQA3y0/uL+VHlx/3F/KnUUAEaKJAQoB9cVYqFPvipq0hsRLcKKKKokKKKKACiqX9saX/AGm+mf2lZ/b0TzHtfPXzVXGdxTOQMEc4qKPxFoc2nvqEWs6e9kknlNcLdIY1f+6WzgHkce9AGlSEZBAJBPcdqw9T1ODUNAW70jxLYWcckyBL8GOaJsONyDJ2knBXrkH3rQn1nS7WeSC41Kzhmij82SOSdVZEyBuIJ4GSBn3oA5FvhdaNbXFufEeu+Vcaj/acoDW/NxkHfnyeOQDjpx0rZi8IpH4vTxK2salJeLaizMb+T5TRZ3YIEYP3vmyCDn24rZj1CylsBfx3lu9mU8wXCygxlfXdnGPeix1Gx1OAz2F5b3cIYqZIJVkXPpkHrQBJc3CWtu88iyMiDJEUTSMfoqgk/gKqQ3qXMSzRxXAR+QJIWjbr3VgCPxFaFQN94/WomVEh87/pnJ/3zR53/TOT/vn/AD6VLRUFkfnc/wCrk/75pPO4/wBVJ/3zUtFAEfnc/wCrk/75pPO/6Zyf98/59alooAi87/pnJ/3zS+dzjy5P++akooAi87/plJ/3zS+d/wBM5P8Avn/PpUlFAEfnc/6uT/vmk87j/VSf981LRQBH53P+rk/75pPO/wCmcn/fP+fWpaKAIvO/6Zyf980vnc48uT/vmpKKAIvO/wCmUn/fNL53/TOT/vmpKKAI/O/6Zyf980nncf6qT/vmpaKAI/O5/wBXJ/3zSed/0zk/75qWigCLzv8ApnJ/3zS+dz/q5P8AvmpKKAIvO/6ZSf8AfNL53/TOT/vmpKKAI/O/6Zyf980nnf8ATKT/AL5qWigCPzuf9XJ/3zSed/0zk/75qWigCLzv+mcn/fNL53P+rk/75qSigCLzv+mUn/fNL53/AEzk/wC+akooAj87/pnJ/wB80nnf9MpP++alooAj87n/AFcn/fNJ53/TOT/vmpaKAIvO/wCmcn/fNL53P+rk/wC+akooAi87j/VSf980vnf9M5P++akooAj87/pnJ/3zSed/0yk/75qWigCPzuceXJ/3zSed/wBM5P8AvmpaKAIvO/6Zyf8AfP8An0pfO5/1cn/fNSUUARedx/qpP++aXzuf9XJ/3zUlFAEfnf8ATOT/AL5/z60nnf8ATKT/AL5qWigCPzuceXJ/3zSed/0zk/75qWigCLzv+mcn/fP+fSl87n/Vyf8AfNSUUARedx/qpP8Avml87n/Vyf8AfNSUUARed/0zk/75/wA+tHnf9M5P++alooAj87nHlyf980nnf9MpP++alooAj87/AKZyf98/59KPO5/1cn/fNSUUARedx/qpP++aXzuf9XJ/3zUlFAEXnf8ATOT/AL5/z60ed/0zk/75qWigCPzuceXJ/wB80nnf9MpP++alooAj87/pnJ/3zR53/TOT/vmpKKAIvO4/1Un/AHzS+dz/AKuT/vmpKKAIvO/6Zyf980ed/wBM5P8AvmpaKAI/O5/1cn/fNJ53/TKT/vmpaKAI/O/6Zyf980ed/wBM5P8AvmpKKAIvO/6ZSf8AfNL53P8Aq5P++akooAi87/pnJ/3zR53/AEzk/wC+alooAj87n/Vyf980nnf9MpP++alooAj87/pnJ/3zR53/AEzk/wC+akooAi87/plJ/wB80vnc/wCrk/75qSigCLzv+mcn/fNHnf8ATOT/AL5qWigCPzuf9XJ/3zSedx/qpP8AvmpaKAI/O/6Zyf8AfNHnf9M5P++akooAi87/AKZSf980vnc48uT/AL5qSigCLzv+mcn/AHzR53/TOT/vn/PpUtFAEfnc/wCrk/75pPO4/wBVJ/3zUtFAEfnc/wCrk/75o87/AKZyf98/59akooAi87/plJ/3zS+dzjy5P++akooAi87/AKZyf980ed/0zk/75/z6VLRQBH53P+rk/wC+aTzuP9VJ/wB81LRQBH53P+rk/wC+aTzv+mcn/fP+fWpaKAIvO/6Zyf8AfNL53OPLk/75qSigCLzv+mUn/fNL53/TOT/vn/PpUlFAEfnc/wCrk/75pPO4/wBVJ/3zUtFAEfnc/wCrk/75pPO/6Zyf98/59alooAi87/pnJ/3zS+dzjy5P++akooAi87/plJ/3zS+d/wBM5P8AvmpKKAI/O/6Zyf8AfNJ53H+qk/75qWigCPzuf9XJ/wB80nnf9M5P++alooAi87/pnJ/3zS+dz/q5P++akooAi87/AKZSf980vnf9M5P++akooAj87/pnJ/3zSed/0yk/75qWigBIpN0oGxx15I4qzUKffFTVpDYiW4UUUVRIUUUUAcJrUsVt8Y/Dks7pEsmmXcau5ADMGQ4z9Oa5jRYDq0+rSaLrVpaavB4ovbmxEy+ZDcZiUMrAdirHBHPUjvXq9/pWnaosa6hYWt2sTb4xcQrIEb1GQcH3qtceGtBvM/adE02fMpmPm2kbZkPV+R97360AeY+I79NU+GUs13pUGn31pr0cM6Rtvj84XC+Y8bejEk/mO1dU6RP8coSyo0ieHWZcgZX/AEgDI/An8zXS3Xh3Q72yhsrvRtOuLWDmKCW1R0j/AN1SMD8KZ/wi3h77ULr+wdL+0BBGJfsce8KF2hc4zjbxj04oA8pj8v8A4VXqJ+128EVp4mkZIp3CRShboEQseiqSep4HU4GTXWeG47DXviHf+J4W08f6DHbpAlxDPNvBbdKTGzBflYIMHJHXHFX9d8KQW1jbRaD4e0w2Zu0l1Gwhhjh+1xqG2joFJDFWw2AcYyM8y6X4W0pNVs9Us/DFvoUtsXJKQwxyS7kK7T5RIK/Nnk9VFAG7quj22sRRx3Mt5GsZ3A2t5Lbk/UxspP0NLa2sdlbJbRNK0cY2qZpWlc/VmJY/UmrNy0627taxRyzgfIkshRSfdgrEfkaqQtetErXMdvHMfvpHIzqDnsxC5/IVEyoliiov3/8A0z/X/PrR+/8A+mf6/wCfSoLJaKj/AH2f+Wf60n7/AB/yz/WgCWio/wB9n/ln+tJ+/wD+mf6/59aAJaKi/f8A/TP9f8+lL++z/wAs8fjQBJRUX7//AKZ/rS/v/wDpn+v+fSgCSio/32f+Wf6/59aT9/j/AJZ/rQBLRUf77P8Ayzx+NJ+//wCmf6/59aAJaKi/f/8ATP8AX/PpS/vs/wDLPH40ASUVF+//AOmf60v7/wD6Z/r/AJ9KAJKKj/ff9M/1/wA+tJ+/x/yz/WgCWio/32f+WePxpP3/AP0z/X/PrQBLRUX7/wD6Z/r/AJ9KX99n/lnj8aAJKKi/f/8ATP8AWl/f/wDTP9f8+lAElFR/v/8Apn+v+fWk/f8A/TP9aAJaKj/fZ/5Z4/Gk/f8A/TP9f8+tAEtFRfv/APpn+v8An0pf32f+WePxoAkoqL9//wBM/wBaX9//ANM/1/z6UASUVH+//wCmf6/59aT9/wD9M/1oAloqP99n/lnj8aT9/wD9M/1/z60AS0VF+/8A+mf6/wCfSl/fZ/5Z4/GgCSiov3+P+Wf60v77/pn+v+fSgCSio/3/AP0z/X/PrSfv/wDpn+tAEtFR/vs/8s8fjSfv/wDpn+v+fWgCWiov3/8A0z/X/PpS/vs/8s8fjQBJRUX7/H/LP9aX99n/AJZ/r/n0oAkoqP8Af/8ATP8AX/PrSfv/APpn+tAEtFR/vs/8s8fjSfv/APpn+v8An1oAloqL9/8A9M/1/wA+lL++z/yz/WgCSiov3+P+Wf60v77P/LP9aAJKKi/f/wDTP9f8+tH7/wD6Z/r/AJ9KAJaKj/fZ/wCWePxpP3//AEz/AFoAloqP9/8A9M/1/wA+lH77P/LP9f8APrQBJRUX7/H/ACz/AFpf32f+WePxoAkoqL9//wBM/wBf8+tH7/8A6Z/r/n0oAloqP99n/lnj8aT9/wD9M/1oAloqP9//ANM/1/z6Ufvv+mf6/wCfWgCSiov3+P8Aln+tL++z/wAs8fjQBJRUX7//AKZ/r/n1o/f/APTP9f8APpQBLRUf77P/ACzx+NJ+/wD+mf60AS0VH+//AOmf6/59KP3/AP0z/X/PrQBJRUX7/wD6Z/rS/vs/8s8fjQBJRUX7/wD6Z/r/AJ9aP3//AEz/AF/z6UAS0VH++z/yzx+NJ+//AOmf60AS0VH+/wD+mf6/59KP3/8A0z/X/PrQBJRUX7//AKZ/rS/vs/8ALPH40ASUVF+//wCmf6/59aP3/wD0z/X/AD6UAS0VH++z/wAs8fjSfv8AH/LP9aAJaKj/AH3/AEz/AF/z6Ufv/wDpn+v+fWgCSiov3/8A0z/Wl/fZ/wCWePxoAkoqL9//ANM/1/z60fv/APpn+v8An0oAloqP99n/AJZ4/Gk/f4/5Z/rQBLRUf77P/LP9f8+lH7//AKZ/r/n1oAkoqL9//wBM/wBaX99n/lnj8aAJKKi/f/8ATP8AX/PrR+//AOmf6/59KAJaKj/fZ/5Z/rSfv8f8s/1oAloqP99n/ln+tJ+//wCmf6/59aAJaKi/f/8ATP8AX/PpS/vs/wDLPH40ASUVF+//AOmf60v7/wD6Z/r/AJ9KAJKKj/fZ/wCWf6/59aT9/j/ln+tAEtFR/vs/8s8fjSfv/wDpn+v+fWgCWiov3/8A0z/X/PpS/vs/8s8fjQBJRUX7/wD6Z/rS/v8A/pn+v+fSgCSio/33/TP9f8+tJ+/x/wAs/wBaAJaKj/fZ/wCWePxpP3//AEz/AF/z60AS0VF+/wD+mf6/59KX99n/AJZ4/GgCSiov3/8A0z/Wl/f/APTP9f8APpQBJRUf7/8A6Z/r/n1pP3//AEz/AFoAnT74qaq0Xm+aN2zbz0zmrNaQ2IluFFFFUSFFFFABRRRQAUUUUARXVzDZWk11cSCOCCNpJHPRVUZJ/IVg6X4zstT1CwszZ3tq2o2xu7KS4RAtxGMEldrEg4ZThgDg1p67Jew+H9Rl022S5vktpDbwPysj7TtU+uTXnOnC+uPFngvVG0nXmMdtcxXs11bsgjldI8DYcCNQQ3QKp7ZOaAPR9U1vStEjjk1XU7OxSQ7Ua6nWMMfQFiM062u7a/t0urO4iuLeUbo5YnDK49QRwauEA9QD9ahIwxA9aiZURKKKKgsKKKKACiiigAooooAKKKKACiiigAooooAKKKKACiiigAooooAKKKKACiiigAooooAKKKKACiiigAooooAKKKKACiiigAooooAKKKKACiiigAooooAKKKKACiiigAooooAKKKKACiiigAooooAKKKKACiiigAooooAKKKKACiiigAooooAKKKKACiiigAooooAKKKKACiiigAooooAKKKKACiiigAooooAKKKKACiiigAooooAKKKKACiiigAooooAKKKKACiiigAooooAKKKKACiiigAooooAKKKKACiiigAooooAKKKKACiiigAooooAKKKKACiiigAooooAKKKKACiiigAooooAcn3xU1Qp98VNWkNiJbhRRRVEhRVLV7mey0a9urZY2mgheRFkztJAzzjntXAnx34jtPC2g+Kr2z0xtJvfIW7hiDiWESYAkVicYyR8uM9OfQA9Lqjper2GtW0lxp9wJ4o5ngZgpXDocMOQOhFcv4f17xTrt7qISHSI7fTtVmspt3mBpERQQVOSAckZyCCD0GOc1vGXii6+G2o+ItOtdMF/YXNwsts8Mjo8cTkNtIcHdgFs98dBQB6RRXOw6tf399oa6fd2M1pc2n2u7kNs+WTC7Sn7z5NxY4B3cA8nHOFH401i31XQodTgsIW1S7a3k05c/abMEOY2Zg5DZC8/KvXjpQB39FebaXr2o6TqfjvVNWv4rmz0ucZiW3KuVEKsqId+FGWxgg5JzkZrWsvE+tt4k06zm06S5sLxXEs0WmXNv9icDI3NIMOp5GQF55xzQB11zE89u8UdxJbuwwJYgpZPcbgR+YNVIbV4Yljku7i4desshUM3PUhQB+QFLquoXOnxRvbaReakzHBS1aJSnufMdB+WaW1nkubZJpbWW1kcZaCYqXT2O0lfyJqJlRF8n/ppJ/wB9UeT/ANNJP++v8+tS0VBZH5PP+sk/76pPJ4/1sn/fVS0UAR+Tz/rJP++qTyf+mkn/AH1/n0qWigCLyf8AppJ/31S+TznzJP8AvqpKKAIvJ/6ayf8AfVL5P/TST/vr/PrUlFAEfk8/6yT/AL6pPJ4/1sn/AH1UtFAEfk8/6yT/AL6pPJ/6aSf99f59KlooAi8n/ppJ/wB9Uvk858yT/vqpKKAIvJ/6ayf99Uvk/wDTST/vqpKKAI/J/wCmkn/fVJ5PH+tk/wC+qlooAj8nn/WSf99Unk/9NJP++qlooAi8n/ppJ/31S+Tz/rJP++qkooAi8n/prJ/31S+T/wBNJP8AvqpKKAI/J/6aSf8AfVJ5P/TWT/vqpaKAI/J5/wBZJ/31SeT/ANNJP++qlooAi8n/AKaSf99Uvk8/6yT/AL6qSigCLyf+msn/AH1S+T/00k/76qSigCPyf+mkn/fVJ5P/AE1k/wC+qlooAj8nn/WSf99Unk/9NJP++qlooAi8n/ppJ/31S+Tz/rJP++qkooAi8nj/AFsn/fVL5P8A00k/76qSigCPyf8AppJ/31SeT/01k/76qWigCPyec+ZJ/wB9Unk/9NJP++qlooAi8n/ppJ/31/n1pfJ5/wBZJ/31UlFAEXk8f62T/vql8nn/AFkn/fVSUUAR+T/00k/76/z6Unk/9NZP++qlooAj8nnPmSf99Unk/wDTST/vqpaKAIvJ/wCmkn/fX+fWl8nn/WSf99VJRQBF5PH+tk/76pfJ5/1kn/fVSUUAReT/ANNJP++v8+lHk/8ATST/AL6qWigCPyec+ZJ/31SeT/01k/76qWigCPyf+mkn/fX+fWjyef8AWSf99VJRQBF5PH+tk/76pfJ5/wBZJ/31UlFAEXk/9NJP++v8+lHk/wDTST/vqpaKAI/J5z5kn/fVJ5P/AE1k/wC+qlooAj8n/ppJ/wB9UeT/ANNJP++qkooAi8nj/Wyf99Uvk8/6yT/vqpKKAIvJ/wCmkn/fVHk/9NJP++qlooAj8nn/AFkn/fVJ5P8A01k/76qWigCPyf8AppJ/31R5P/TST/vqpKKAIvJ/6ayf99Uvk8/6yT/vqpKKAIvJ/wCmkn/fVHk/9NJP++qlooAj8nn/AFkn/fVJ5P8A01k/76qWigCPyf8AppJ/31R5P/TST/vqpKKAIvJ/6ayf99Uvk8/6yT/vqpKKAIvJ/wCmkn/fVHk/9NJP++qlooAj8nn/AFkn/fVJ5PH+tk/76qWigCPyf+mkn/fVHk/9NJP++qkooAi8n/prJ/31S+TznzJP++qkooAi8n/ppJ/31R5P/TST/vr/AD61LRQBH5PP+sk/76pPJ4/1sn/fVS0UAR+Tz/rJP++qPJ/6aSf99f59KkooAi8n/prJ/wB9Uvk858yT/vqpKKAIvJ/6aSf99UeT/wBNJP8Avr/PrUtFAEfk8/6yT/vqk8nj/Wyf99VLRQBH5PP+sk/76pPJ/wCmkn/fX+fSpaKAIvJ/6aSf99Uvk858yT/vqpKKAIvJ/wCmsn/fVL5P/TST/vr/AD61JRQBH5PP+sk/76pPJ4/1sn/fVS0UAR+Tz/rJP++qTyf+mkn/AH1/n0qWigCLyf8AppJ/31S+TznzJP8AvqpKKAIvJ/6ayf8AfVL5P/TST/vqpKKAI/J/6aSf99Unk8f62T/vqpaKAI/J5/1kn/fVJ5P/AE0k/wC+qlooAi8n/ppJ/wB9Uvk8/wCsk/76qSigCLyf+msn/fVL5P8A00k/76qSigCPyf8AppJ/31SeT/01k/76qWigBIo9soO9z14J4qzUKffFTVpDYiW4UUUVRJn69/yLup/9ekv/AKAa898M6Dqvib4Z+F9MvBZR6SkVvcSOkrGWdEw6xlNuF5C5bceAcDnj0jUtOttW0+axuxKbeZdsgimeIkdxuQggfjzUOi6JYeHtMj03TY5IrSL/AFcbzvLsHoC5JA9ulAGB4P0bX9EbXzqMOmn7ffy38At7qRsFwBsbMYwBtHzDPXpTvAfh/VdB0O80/Wo7BvNupp1NrM0isJGLFWDIuMZx3z7V1tFAHLeDvCL+FtIurE3rTM0jpbSdTDbhmMUfPXbuJ+rHtXN2fgfxTBpXh60kuNGMmkal9rabMpa6yHBkc4+/8/I5yf4hXptFAHFSeCri7ufFtpdSwHS9fw/mIzedE3lCMjbjHBUMDn2x3qXwzpfja2kgt/EWraZcWVoMRyWkbie5wMDzS3A9SF6kDnGc9FqOpjTpLJDZ3lx9quFtwbaLeIsgne/91Bjk+4qrbeJLK78T3nh+OO4W8tIFnkZ49qFWJA2k8nkHtj3oA2KrNIm8jeuc+tSXNtBeW7291BHPBIMPFKgZWHoQeDVaGytbSJbe2toYYY+EjjjCqo9ABwKiZUSTzI/76/nR5if31/Ojy4/7i/lR5af3F/KoLDzE/vr+dHmx/wB9fzo8tP7i/lR5Uf8AcX8qADzE/vr+dHmJ/fX86PLT+4v5UeWn9xfyoAPMj/vr+dHmJ/fX86PLj/uL+VHlp/cX8qADzI/76/nR5if31/Ojy4/7i/lR5af3F/KgA8xP76/nR5sf99fzo8tP7i/lR5Uf9xfyoAPMT++v50eYn99fzo8tP7i/lR5af3F/KgA8yP8Avr+dHmJ/fX86PLj/ALi/lR5af3F/KgA8yP8Avr+dHmJ/fX86PLj/ALi/lR5af3F/KgA8xP76/nR5sf8AfX86PLT+4v5UeVH/AHF/KgA8xP76/nR5if31/Ojy0/uL+VHlp/cX8qADzE/vr+dHmJ/fX86PLT+4v5UeWn9xfyoAPMj/AL6/nR5if31/Ojy4/wC4v5UeWn9xfyoAPMT++v50eZH/AH1/Ojy0/uL+VHlx/wBxfyoAPMT++v50eYn99fzo8tP7i/lR5af3F/KgA8xP76/nR5if31/Ojy0/uL+VHlp/cX8qADzI/wC+v50eYn99fzo8uP8AuL+VHlp/cX8qADzE/vr+dHmR/wB9fzo8tP7i/lR5cf8AcX8qADzE/vr+dHmJ/fX86PLT+4v5UeWn9xfyoAPMT++v50eYn99fzo8tP7i/lR5af3F/KgA82P8Avr+dHmJ/fX86PKj/ALi/lR5af3F/KgA8xP76/nR5kf8AfX86PLT+4v5UeXH/AHF/KgA8xP76/nR5kf8AfX86PLT+4v5UeXH/AHF/KgA8xP76/nR5if31/Ojy0/uL+VHlp/cX8qADzY/76/nR5if31/Ojyo/7i/lR5af3F/KgA8xP76/nR5kf99fzo8tP7i/lR5cf9xfyoAPMT++v50eZH/fX86PLT+4v5UeXH/cX8qADzE/vr+dHmJ/fX86PLT+4v5UeWn9xfyoAPNj/AL6/nR5if31/Ojyo/wC4v5UeWn9xfyoAPMT++v50eZH/AH1/Ojy0/uL+VHlx/wBxfyoAPMT++v50eZH/AH1/Ojy0/uL+VHlx/wBxfyoAPMT++v50eYn99fzo8tP7i/lR5af3F/KgA82P++v50eYn99fzo8qP+4v5UeWn9xfyoAPMT++v50eZH/fX86PLT+4v5UeXH/cX8qADzE/vr+dHmR/31/Ojy0/uL+VHlx/3F/KgA8xP76/nR5if31/Ojy0/uL+VHlp/cX8qADzY/wC+v50eYn99fzo8qP8AuL+VHlp/cX8qADzE/vr+dHmJ/fX86PLT+4v5UeWn9xfyoAPMT++v50eZH/fX86PLT+4v5UeXH/cX8qADzE/vr+dHmJ/fX86PLT+4v5UeWn9xfyoAPMj/AL6/nR5if31/Ojy4/wC4v5UeWn9xfyoAPMT++v50eYn99fzo8tP7i/lR5af3F/KgA8xP76/nR5kf99fzo8tP7i/lR5cf9xfyoAPMT++v50eYn99fzo8tP7i/lR5af3F/KgA8yP8Avr+dHmJ/fX86PLj/ALi/lR5af3F/KgA8xP76/nR5if31/Ojy0/uL+VHlp/cX8qADzE/vr+dHmx/31/Ojy0/uL+VHlR/3F/KgA8xP76/nR5if31/Ojy0/uL+VHlp/cX8qADzI/wC+v50eYn99fzo8uP8AuL+VHlp/cX8qADzI/wC+v50eYn99fzo8uP8AuL+VHlp/cX8qADzE/vr+dHmx/wB9fzo8tP7i/lR5Uf8AcX8qADzE/vr+dHmJ/fX86PLT+4v5UeWn9xfyoAPMj/vr+dHmJ/fX86PLj/uL+VHlp/cX8qADzI/76/nR5if31/Ojy4/7i/lR5af3F/KgA8xP76/nR5sf99fzo8tP7i/lR5Uf9xfyoAPMT++v50eYn99fzo8tP7i/lR5af3F/KgA8yP8Avr+dHmJ/fX86PLj/ALi/lR5af3F/KgA8yP8Avr+dHmJ/fX86PLj/ALi/lR5af3F/KgA8xP76/nR5sf8AfX86PLT+4v5UeVH/AHF/KgA8xP76/nR5if31/Ojy0/uL+VHlp/cX8qADzI/76/nR5if31/Ojy4/7i/lR5af3F/KgA8yP++v50eYn99fzo8uP+4v5UeWn9xfyoAPMT++v50ebH/fX86PLT+4v5UeVH/cX8qADzE/vr+dHmJ/fX86PLT+4v5UeWn9xfyoAPMT++v50eYn99fzo8tP7i/lR5af3F/KgA8yP++v50eYn99fzo8uP+4v5UeWn9xfyoAPMT++v50eZH/fX86PLT+4v5UeXH/cX8qAHRupkADAn0zViq8aKJAQoB9cVYrSGxEtwoooqiQooooA4XUtb1zVdT12x0RL+N9MZYIntVtSrzGNZP3nnNnb8yjCgdDzzxBpGp+KL/wAYro+qXjaezaHFeTwQpE5hnMrI2xyGGPlzg7utXtV8D38viefXfD/iW40We8REvo1tknSfaMKwD8KwHGef55ks/B+o6f4tbW7fWYGj/s8WCwTWbO+0Mzh2k80bmLsSTgZzjjrQBy8/irxJbfDPUfEj6tvvNJvZICi28YS6SOfyz5gwSCR/cK44rovFep6taahepDqv2KGPTjNaRWsSzTyzAtkyIyNiMYUZGB8x+b0z5fhvqk/gfVPDEniK18vULprh7gaawZd8nmMoHnY+9jB7DPXqNOXwXqMutX+pDxAI21Oyjtb5I7MfMUDANGWY+X948Hd1P4AGdc+KtZl0jwBqMVxFCNauLaO9iWIHd5kRdsE5wMj689at2P8AyWvWP+wJb/8Ao16ik+H+qf2P4Y0+LxDABoM0c0byaeW80xqUUYEowu0nPJJJzkdK1rXwxqEHj668Svqtu8NxarataCzIIRSSpEnmHnJOfl5HGB1oA2NVm1aGKM6TZWd1IT863V00AUeoKxvn8hS2rXT2yNewxQ3JH7yOGQyIp9AxVSfyFWbm5gs7d7i6njggjGXllcKqj1JPAqpDqFpdxLPbXMc0MnKSRNuVhnGQRwaiZUSxRUX2iL+9+ho+0Rf3v0P+e1QWS0VH58Wcbv0NJ9oixnf+hoAloqPz4s43foaT7RF/e/Q/570AS0VF9oi/vfoaXz4s43e3Q0ASUVF9oi/vfoaX7RF/e/Q/57UASUVH58Wfvfof896T7RFjO/8AQ0AS0VH58Wcbv0NJ9oi/vfof896AJaKi+0Rf3v0P+e1L58Wcbv0NAElFRfaIv736Gl+0Rf3v0P8AntQBJRUfnxf3v0P+e9J9oixnf+hoAloqPz4s43foaT7RF/e/Q/570AS0VF9oi/vfof8APal8+LON36GgCSiovtEX979DS/aIv736H/PagCSio/Pi/vfof896T7RF/f8A0NAEtFR+fFnG79DSfaIv736H/PegCWiovtEX979D/ntS+fFnG79DQBJRUX2iL+/+hpfPi/vfof8APagCSio/tEX979D/AJ70n2iL+9+hoAloqPz4s43foaT7RF/e/Q/570AS0VF9oi/vfof89qXz4s43foaAJKKi+0RYzv8A0NL58X979D/ntQBJRUf2iL+9+h/z3pPtEX979DQBLRUfnxZxu/Q0n2iL+9+h/wA96AJaKi+0Rf3v0P8AntS+fFnG79DQBJRUX2iLGd/6Gl8+LP3v0P8AntQBJRUf2iL+9+h/z3pPtEX979DQBLRUfnxZxu9uhpPtEX979DQBLRUX2iL+9+h/z2pfPizjd+hoAkoqL7RFjO/9DS+fFnG79DQBJRUX2iL+9+h/z3o+0Rf3v0NAEtFR+fFnG726Gk+0Rf3v0NAEtFR/aIv736H/AD2o8+LP3v0P+e9AElFRfaIsZ3/oaXz4s43foaAJKKi+0Rf3v0P+e9H2iL+9+h/z2oAloqPz4s43foaT7RF/e/Q0AS0VH9oi/vfof89qPPi/vfof896AJKKi+0RYzv8A0NL58Wcbv0NAElFRfaIv736H/Pej7RF/e/Q/57UAS0VH58Wcbv0NJ9oi/vfoaAJaKj+0Rf3v0P8AntR58X979D/nvQBJRUX2iL+/+hpfPizjd+hoAkoqL7RF/e/Q/wCe9H2iL+9+h/z2oAloqPz4s43foaT7RF/f/Q0AS0VH58X979D/AJ7UfaIv736H/PegCSiovtEX979DS+fFnG79DQBJRUX2iL+9+h/z3o+0Rf3v0P8AntQBLRUfnxZxu/Q0n2iLGd/6GgCWio/Pi/vfof8APaj7RF/e/Q/570ASUVF9oi/vfoaXz4s43foaAJKKi+0Rf3v0P+e9H2iL+9+h/wA9qAJaKj8+LON36Gk+0RYzv/Q0AS0VH58Wfvfof89qPtEX979D/nvQBJRUX2iL+9+hpfPizjd7dDQBJRUX2iL+9+ho+0Rf3v0P+e1AEtFR+fFnG79DSfaIsZ3/AKGgCWio/Pizjd+hpPtEX979D/nvQBLRUX2iL+9+hpfPizjd7dDQBJRUX2iL+9+hpftEX979D/ntQBJRUfnxZ+9+h/z3pPtEWM7/ANDQBLRUfnxZxu/Q0n2iL+9+h/z3oAloqL7RF/e/Q/57UvnxZxu/Q0ASUVF9oi/vfoaX7RF/e/Q/57UASUVH58X979D/AJ70n2iLGd/6GgCWio/Pizjd+hpPtEX979D/AJ70AS0VF9oi/vfof89qXz4s43foaAJKKi+0Rf3v0NL9oi/vfof89qAJKKj8+L+9+h/z3pPtEX9/9DQBOn3xU1VopkaUKGyee1Wa0hsRLcKKKKokKKK5rxvp1/qWk2semmzkuI7tJvsd42Ir1VViYm+v3hwRlBnigDpaK8fl1yytPD8FrZaePDiTeIUtdXtLmMNDbM0W7HyFQYmKx8ggEMexxWlqnhhdG0jxc/8AadqY7vSJZxptlamCKJ0Q4mUeY20n8MkZ5xQB6dRXmL/DnR/EPwwjSOzT+1L3SrdluXYsxlSPMZ5OBySOP4SR04q34au7HxhbaVrcel23maNYlFi8kDybsjDRLx8uwJ09JFPagD0OivI/D+mHxL4Y0HxP/b+n217FLFNPeQ2LfaXlzh4JH835gzHbt24+7gAYFanh7w7peo+O/F5vLczCz1K1ntw0jYikEKtuGD1yaAPSKgb7x+tV9V0+51CKNLbV7zTWU5L2qxMX9j5iOPyxS2sEltbJDLdS3UiDDTzBQ7+52gL+QFRMqJNRRRUFhRRRQAUUUUAFFFFABRRRQAUUUUAFFFFABRRRQAUUUUAFFFFABRRRQAUUUUAFFFFABRRRQAUUUUAFFFFABRRRQAUUUUAFFFFABRRRQAUUUUAFFFFABRRRQAUUUUAFFFFABRRRQAUUUUAFFFFABRRRQAUUUUAFFFFABRRRQAUUUUAFFFFABRRRQAUUUUAFFFFABRRRQAUUUUAFFFFABRRRQAUUUUAFFFFABRRRQAUUUUAFFFFABRRRQAUUUUAFFFFABRRRQAUUUUAFFFFABRRRQAUUUUAFFFFABRRRQAUUUUAFFFFABRRRQAUUUUAFFFFABRRRQAUUUUAFFFFABRRRQAUUUUAFFFFADk++KmqFPvipq0hsRLcKKKKokKz9X0Sw1yG3jv0lYW8wuIWhuJIWSQAqGDIwPRmHXvWhRQBkP4X0WXSLrSprBJ7O7YvcJOzSNKxx8zMxLFuBgk5GBjoKo2fgDwxp+hXei2emm3sLvi4SK4lVpRjGGcNvIxkYzjBPrXS0UAUtJ0q00TTYdOsFkS1gXbGkkzylV7AFyTgdhnin2Om2emRzR2VukKzTPPIF/ikc5Zj7kmrVFAHN23gHwrZ+IW1630W3j1JmL+aC2Ax6sEztDcnkDPNW9L8K6Ro2q3mp2MVyl3enNy8l5NIJD2JV3IyOgOOBwOK2aKAIrmV4Ld5Y7eS4dRkRRFQz+w3ED8yKhgae4hSWS2a3Z+TFK6lk9jtJGfoTVuik1cadiDy5f7qf99H/AAo8uX0T/vo/4VPRS5UPmZB5cvon/fR/wo8uX+6n/fR/wqeijlQczIPLl9E/76P+FHly+if99H/Cp6KOVBzMg8uX+6n/AH0f8KPLl9E/76P+FT0UcqDmZB5cv91P++j/AIUeXL6J/wB9H/Cp6KOVBzMg8uX0T/vo/wCFHly/3U/76P8AhU9FHKg5mQeXL6J/30f8KPLl/up/30f8Knoo5UHMyDy5f7qf99H/AAo8uX0T/vo/4VPRRyoOZkHly/3U/wC+j/hR5cvon/fR/wAKnoo5UHMyDy5fRP8Avo/4UeXL/dT/AL6P+FT0UcqDmZB5cvon/fR/wo8uX+6n/fR/wqeijlQczIPLl/up/wB9H/Cjy5fRP++j/hU9FHKg5mQeXL/dT/vo/wCFHly+if8AfR/wqeijlQczIPLl9E/76P8AhR5cv91P++j/AIVPRRyoOZkHly+if99H/Cjy5f7qf99H/Cp6KOVBzMg8uX+6n/fR/wAKPLl9E/76P+FT0UcqDmZB5cv91P8Avo/4UeXL6J/30f8ACp6KOVBzMg8uX0T/AL6P+FHly/3U/wC+j/hU9FHKg5mQeXL6J/30f8KPLl/up/30f8Knoo5UHMyDy5f7qf8AfR/wo8uX0T/vo/4VPRRyoOZkHly/3U/76P8AhR5cvon/AH0f8Knoo5UHMyDy5fRP++j/AIUeXL/dT/vo/wCFT0UcqDmZB5cvon/fR/wo8uX+6n/fR/wqeijlQczIPLl/up/30f8ACjy5fRP++j/hU9FHKg5mQeXL/dT/AL6P+FHly+if99H/AAqeijlQczIPLl9E/wC+j/hR5cv91P8Avo/4VPRRyoOZkHly+if99H/Cjy5f7qf99H/Cp6KOVBzMg8uX0T/vo/4UeXL6J/30f8Knoo5UHMyDy5f7qf8AfR/wo8uX0T/vo/4VPRRyoOZkHly+if8AfR/wo8uX+6n/AH0f8Knoo5UHMyDy5fRP++j/AIUeXL/dT/vo/wCFT0UcqDmZB5cvon/fR/wo8uX0T/vo/wCFT0UcqDmZB5cv91P++j/hR5cvon/fR/wqeijlQczIPLl/up/30f8ACjy5f7qf99H/AAqeijlQczIPLl9E/wC+j/hR5cv91P8Avo/4VPRRyoOZkHly+if99H/Cjy5fRP8Avo/4VPRRyoOZkHly/wB1P++j/hR5cvon/fR/wqeijlQczIPLl/up/wB9H/Cjy5f7qf8AfR/wqeijlQczIPLl9E/76P8AhR5cv91P++j/AIVPRRyoOZkHly+if99H/Cjy5fRP++j/AIVPRRyoOZkHly/3U/76P+FHly+if99H/Cp6KOVBzMg8uX+6n/fR/wAKPLl/up/30f8ACp6KOVBzMg8uX0T/AL6P+FHly/3U/wC+j/hU9FHKg5mQeXL6J/30f8KPLl9E/wC+j/hU9FHKg5mQeXL/AHU/76P+FHly+if99H/Cp6KOVBzMg8uX+6n/AH0f8KPLl/up/wB9H/Cp6KOVBzMg8uX0T/vo/wCFHly/3U/76P8AhU9FHKg5mQeXL6J/30f8KPLl9E/76P8AhU9FHKg5mQeXL/dT/vo/4UeXL6J/30f8Knoo5UHMyDy5f7qf99H/AAo8uX+6n/fR/wAKnoo5UHMyDy5fRP8Avo/4UeXL/dT/AL6P+FT0UcqDmZB5cvon/fR/wo8uX0T/AL6P+FT0UcqDmZB5cv8AdT/vo/4UeXL6J/30f8Knoo5UHMyDy5f7qf8AfR/wo8uX0T/vo/4VPRRyoOZkHly+if8AfR/wo8uX+6n/AH0f8Knoo5UHMyDy5fRP++j/AIUeXL6J/wB9H/Cp6KOVBzMg8uX+6n/fR/wo8uX0T/vo/wCFT0UcqDmZB5cv91P++j/hR5cvon/fR/wqeijlQczIPLl9E/76P+FHly/3U/76P+FT0UcqDmZB5cvon/fR/wAKPLl/up/30f8ACp6KOVBzMg8uX+6n/fR/wo8uX0T/AL6P+FT0UcqDmZB5cv8AdT/vo/4UeXL6J/30f8Knoo5UHMyDy5fRP++j/hR5cv8AdT/vo/4VPRRyoOZkHly+if8AfR/wo8uX+6n/AH0f8Knoo5UHMyDy5f7qf99H/Cjy5fRP++j/AIVPRRyoOZkHly/3U/76P+FHly+if99H/Cp6KOVBzMg8uX0T/vo/4UeXL/dT/vo/4VPRRyoOZkSJIHBIXHsf/rVLRRTSsJu4UUUUxBRRRQAUUUUAFFFFABRRRQAUUUUAFFFFABRRRQAUUUUAFFFFABRRRQAUUUUAFFFFABRRRQAUUUUAFFFFABRRRQAUUUUAFFFFABRRRQAUUUUAFFFFABRRRQAUUUUAFFFFABRRRQAUUUUAFFFFABRRRQAUUUUAFFFFABRRRQAUUUUAFFFFABRRRQAUUUUAFFFFABRXnvjrVbbRfH3gy+u/MMaLfKqRIXeRmjQKqqOSxJAA961Lb4i6LJp+q3V5FfabJpbIt1a3kG2YF/8AV4VSd27oMGgDrqK5vQ/GdnrWqvpcmn6npl+IfPS31G3ETSx5wWXBIIBIyM5GelUV+JejvdDbZ6odONz9kGq/Zv8ARPM3bMb85xu+XdjGe9AHZUV59408b6noniXRrCz0fWHha9CTSQ28TJeIYmbZGWbO4HGfu/dPPrraj48tNKi0j7Xo+sLc6qZRBZrbq0wZBkqyhuCe2CR6kCgDq6K4zQviboniC/sLW1ttShF/HI0E9xb7ImaMZkTdn7yjrjjg80tj8SdIv7u0WOy1WOxvZxbWupS2u22mkJIUK2c8kYBIANAHZUVxmofEjTrLWtT0mLSNavrrTSv2kWVqJAisgYNncOMHGOuQcA4rp9J1Wy1vSrbU9PmE1pcoJIpAMZH07HtigC5RRRQAUUUUAFFFFABRRRQAUUUUAFFFFABRRRQAUUUUAFFFFABRRRQAUUUUAFFFFABRRRQAUUUUAFFFFABRRRQAUUUUAFFFFABRRRQAUUUUAFFFFABRRRQAUUUUAFFFFABRRRQAUUUUAFFFFABRRRQAUUUUAFFFFABRRRQAUUUUAFFFFABRRRQAUUUUAFFFFABRRRQAUUUUAFFFFABRRRQAUUUUAFFFFABRRRQAUUUUAFFFFABRRRQAUUUUAFFFFABRRRQAUUUUAFFFFABRRRQAUUUUAFFFFABRRRQAUUUUAFFFFABRRRQAUUUUAFFFFABRRRQAUUUUAFFFFABRRRQAUUUUAFFFFABRRRQAUUUUAFFFFAHH+ItOmu/iN4MultJZbe1F60kojLJEWiULuPQZOcZrkPGvhTU9c8R+JJoNOuLiKP8Asy5SMFohdiIyeZGknHzYbscg46cV6/RQB5j4S0jTm8WRX+j+ENW0+O3tZA97rE9wrh2wBGiO7ZHUlsY44rjtZt/EOr+GSuqaP4uvfECXMclyGVlsoAswJMUaHbL8vAwGPJORivf6KAOO8d2935nh7VrWyub2PTNSW4uIbZN8vlmN0JVerYLDgc1Turi51/xj4K1WDSdTt7aGS+Ev2q1aNogYdqlx/CGPTOM13tFAHjmg6Rrlpp/gMw6XcpdWf9rMyzQsqxO4k8vzMj5QxIxnGc1kz2+tanBoE17pPjC81e21K1n1Ca8V1toNsg3mKJflYehVTheSa95ooA8qsfEVx4f+IXjll0HU9SiluLbY+nweaRILdfkcDlQcjDdOtdZ8OdEvPD3gPTNO1BFju1EkssanIjLyM+38N2Pwqp4R/wCR68df9ftt/wCkyV2lABRRRQAUUUUAFFFFABRRRQAUUUUAFFFFABRRRQAUUUUAFFFFABRRRQAUUUUAFFFFABRRRQAUUUUAFFFFABRRRQAUUUUAFFFFABRRRQAUUUUAFFFFABRRRQAUUUUAFFFFABRRRQAUUUUAFFFFABRRRQAUUUUAFFFFABRRRQAUUUUAf//Z;" vertex="1" parent="1">
          <mxGeometry x="470" y="129.78" width="527.52" height="225" as="geometry" />
        </mxCell>
        <mxCell id="3Dfbh3uyOyyrv-4ScR3l-3" value="" style="shape=image;verticalLabelPosition=bottom;labelBackgroundColor=default;verticalAlign=top;aspect=fixed;imageAspect=0;image=data:image/jpeg,/9j/4AAQSkZJRgABAQEAZABkAAD/2wBDAAgGBgcGBQgHBwcJCQgKDBQNDAsLDBkSEw8UHRofHh0aHBwgJC4nICIsIxwcKDcpLDAxNDQ0Hyc5PTgyPC4zNDL/2wBDAQkJCQwLDBgNDRgyIRwhMjIyMjIyMjIyMjIyMjIyMjIyMjIyMjIyMjIyMjIyMjIyMjIyMjIyMjIyMjIyMjIyMjL/wAARCAH5BKADASIAAhEBAxEB/8QAHwAAAQUBAQEBAQEAAAAAAAAAAAECAwQFBgcICQoL/8QAtRAAAgEDAwIEAwUFBAQAAAF9AQIDAAQRBRIhMUEGE1FhByJxFDKBkaEII0KxwRVS0fAkM2JyggkKFhcYGRolJicoKSo0NTY3ODk6Q0RFRkdISUpTVFVWV1hZWmNkZWZnaGlqc3R1dnd4eXqDhIWGh4iJipKTlJWWl5iZmqKjpKWmp6ipqrKztLW2t7i5usLDxMXGx8jJytLT1NXW19jZ2uHi4+Tl5ufo6erx8vP09fb3+Pn6/8QAHwEAAwEBAQEBAQEBAQAAAAAAAAECAwQFBgcICQoL/8QAtREAAgECBAQDBAcFBAQAAQJ3AAECAxEEBSExBhJBUQdhcRMiMoEIFEKRobHBCSMzUvAVYnLRChYkNOEl8RcYGRomJygpKjU2Nzg5OkNERUZHSElKU1RVVldYWVpjZGVmZ2hpanN0dXZ3eHl6goOEhYaHiImKkpOUlZaXmJmaoqOkpaanqKmqsrO0tba3uLm6wsPExcbHyMnK0tPU1dbX2Nna4uPk5ebn6Onq8vP09fb3+Pn6/9oADAMBAAIRAxEAPwD3+iiigAooooAKKKKACiiigApsieZGybmXcCNynBHuKdSMCylQxUkYyOooA5LwdHNaa54p05769u4bS9hWE3lw0zKGtonIBY8DcxOBxzSavHNrfjlNEe/vbSxg037WRZ3DQPLI0hQZZSDhQp46EtzmptN8FnTb6/u18Sa3PJfg/aPNaAbm8sRq42xKQyqq4wcccg1avvCkN4bGZNT1K1vrS3NsL2CVfOljOMhyykNkqDnGQeRigBvgfULrUvCVrNezGe5jknt3mIAMvlSvGHOO5CAn610NU9K0u10XS7fTrJCltbpsQFiSfUknqScknuTVygAooooAKKKKACiiigAooooAKKKKACiiigAooooAKKKKACiiigAooooAKKKKACvL7281E6FrXi5dVvku7HVZYobVZ2EHkxT+UY2i+6SwBJJG7LcHivUK5mfwPp1xqEs7XV8tpPdLeTacsq/Z5ZgQQ7Dbu6qCQGCkjJBoAb49urq18PxfZLiaOSW8giMdsxWedS3zRxMOjkA88YAPI6ip4Gubl9Q12zmfUIooJYjDY6nMZrmBWTli+WyrEHGGbG08joNe98L2+oWUlvc32oMxvPtsE/nDzLaTPAjOMBRyACCMEg5qXRvD8Ojz3d0bu7vb282efdXbKXYICFXCqqgDLcADqaANeiiigAooooAKKKKACiiigAooooAKKKKACiiigAooooAKKKKACiiigAooooAKKKKAPPdUF9q9/wCL7hdXv7JtFVY7FLacxoriBZi7qOJMl8YbIwtaXiHxPeWPwsfxFbptvJLKGRQq7tjy7BkA9cb84PpVzV/Bdjq97dXDXuoWq3saxX0FrKFS6RRgB8qSODtypUkcZq7P4csru11Kzunnnsb+JYmtXf8Adwqq7cRgAFfXr154oAwfCkk9hr0mlalBqMN9Nafaozc6q94kiKwVjzgI4LLkKMc8E4rtaxNI8Mw6XqD6hLqF/qN4YRbrPeyKzRxZztXaqjkgEkgk4GTxW3QAUUUUAFFFFABRRRQAUUUUAFFFFABRRRQAUUUUAFFFFABRRRQAUUUUAFFFFABXHanDPr3jqbRpNRv7Oys9NjuQtlcNAzyySSLuLLyQoj4HTLHINdjWJrHhmDVr+O/jv7/Tr1ITAZ7KRVZ4ic7G3KwxnkHGRk4IzQBR8NeISfh5Brms3AP2eCRrmfb94RMyl8D1C5wPWua8K+KY9U+Ie6bxFaz/AG/TTJHp8N8kkcDiQbYwqsQZAgJYjnJb+ECu507w/aaSYI7OS4S0gtFtI7MyZhCg534IyXPQknmnLoNkniEa0qstyLX7KFAATbu3ZxjOc+/SgDTooooAKKKKACiiigAooooAKKKKACiiigAooooAKKKKACiiigAooooAKKKKACiiigDlPEjT3/inQ9BF5dWtpcw3N1cNazNFJJ5XlhUDrhgMyZOCPuipvBd3dTWGpWd1cyXR07UZrOOeU5d41wV3HuQGCk99tX9a0CDWmtZjc3Vnd2js1vdWrKJI9www+YMpBHUEHoPSo9M8M22kizW1u70LbvNJIGmz9qklOWeXj5mzkjpjPpxQBgNayaf4z0qx0nVtVu7oO0uqJc3bTRJblGwWU/Kjl9u0KBnDdhXc1y+ieCzoV081v4i1iVZZ2uJ4p/s7Cdz13sIQ57D73AAA4FdRQAUUUUAFFFFABRRRQAUUUUAFFFFABRRRQAUUUUAFFFFABRRRQAUUUUAFFFFABXMeMri5A0XTbe6mtV1PUltppoW2usYjkkIVuqk+WFyOeTiunrO1rRbbXbJLa4eaJo5VmhngbbJDIp4ZTgjPXqCCCQRQBjeFpLi017xBob3dxdW1i8Elu9zKZZEWVCShc8tgqSCcnDYzXM6jeai2ieIvFi6rfR3emalNHb2yTsIPKhlCFGi+628BiSRn5hgjFdjZeFILFd0epak9zJdrd3N00y+Zcsq7QkmFA2YwNoAHAqC68D6ddX887XV8lpcXC3Vxp6SqLeaVcEMw27uqqSAwBI5BoA6aiiigAooooAKKKKACiiigAooooAK47SPH+h/Z7qPWfEGk2t7BfXcDQy3UcbKiTyImVJz9xV+vWuxr5L10D/hKdd4/5il3/wCj3rKtV9nHmtc6MNQ9tPlvY+kv+E+8Hf8AQ1aJ/wCB8X/xVH/CfeDv+hq0T/wPi/8Aiq+YMD0FLgelcv13+7+J2/2Z/f8Aw/4J9Pf8J94O/wChq0T/AMD4v/iqP+E+8Hf9DVon/gfF/wDFV8xAD0pwA9BR9e/u/iP+y/7/AOH/AAT6b/4T7wd/0NWif+B8X/xVH/CfeDv+hq0T/wAD4v8A4qvmUAelKAPSl9f/ALv4j/sr+/8Ah/wT6Z/4T7wd/wBDVon/AIHxf/FUf8J94O/6GrRP/A+L/wCKr5oAHoKXA9KX1/8Au/j/AMAP7K/v/h/wT6W/4T7wd/0NWif+B8X/AMVR/wAJ94O/6GrRP/A+L/4qvmnA9KcAPSj+0P7v4/8AAH/ZP9/8P+CfSn/CfeDv+hq0T/wPi/8AiqP+E+8Hf9DVon/gfF/8VXzZgegpcD0FL+0P7v4/8Af9kf3/AMP+CfSX/CfeDv8AoatE/wDA+L/4qj/hPvB3/Q1aJ/4Hxf8AxVfN4A9BSgD0FL+0f7v4/wDAD+yP7/4f8E+j/wDhPvB3/Q1aJ/4Hxf8AxVH/AAn3g7/oatE/8D4v/iq+cQB6ClAHpR/aP938f+AP+x/7/wCH/BPo3/hPvB3/AENWif8AgfF/8VR/wn3g7/oatE/8D4v/AIqvnTA9BSgD0FL+0v7v4/8AAH/Y/wDf/D/gn0V/wn3g7/oatE/8D4v/AIqj/hPvB3/Q1aJ/4Hxf/FV87AD0FOwPQUv7T/u/j/wB/wBjf3/w/wCCfQ//AAn3g7/oatE/8D4v/iqP+E+8Hf8AQ1aJ/wCB8X/xVfPIA9BTgB6Cl/an9z8f+AP+xf7/AOH/AAT6E/4T7wd/0NWif+B8X/xVH/CfeDv+hq0T/wAD4v8A4qvnwAegpwA9BR/an9z8f+AP+xP+nn4f8E+gf+E+8Hf9DVon/gfF/wDFUf8ACfeDv+hq0T/wPi/+KrwAAegpcD0FL+1f7n4/8Af9h/8ATz8P+Ce16X8R/Ds+o61Hd+JdGSCC8WO0Y3ka74vIiYkHPzfO0gz7Y7Vp/wDCfeDv+hq0T/wPi/8Aiq8DAHoKXA9BS/tb+5+P/AH/AGF/08/D/gnvf/CfeDv+hq0T/wAD4v8A4qj/AIT7wd/0NWif+B8X/wAVXgoA9BTgB6Cl/a/9z8f+AP8AsH/p5+H/AAT3j/hPvB3/AENWif8AgfF/8VR/wn3g7/oatE/8D4v/AIqvCMD0FOAHoKX9r/3Px/4A/wCwP+nn4f8ABPdf+E+8Hf8AQ1aJ/wCB8X/xVH/CfeDv+hq0T/wPi/8Aiq8MAHoKUAego/tj+5+P/AD+wP8Ap5+H/BPcv+E+8Hf9DVon/gfF/wDFUf8ACfeDv+hq0T/wPi/+Krw4KPQU4KPQUv7Y/ufj/wAAP7A/6efh/wAE9v8A+E+8Hf8AQ1aJ/wCB8X/xVH/CfeDv+hq0T/wPi/8Aiq8SCj0FOCj0FH9s/wBz8f8AgB/YH/Tz8P8Agntf/CfeDv8AoatE/wDA+L/4qj/hPvB3/Q1aJ/4Hxf8AxVeLbR6ClCj0FH9s/wBz8f8AgB/YH/Tz8P8AgntH/CfeDv8AoatE/wDA+L/4qj/hPvB3/Q1aJ/4Hxf8AxVeMhR6CnBR6Cl/bP9z8f+AH9gf9PPw/4J7J/wAJ94O/6GrRP/A+L/4qj/hPvB3/AENWif8AgfF/8VXjoUegoCj0FH9tf3Px/wCAH9gf9PPw/wCCexf8J94O/wChq0T/AMD4v/iqP+E+8Hf9DVon/gfF/wDFV4+FHoKcFHoKP7a/ufj/AMAP7A/6efh/wT17/hPvB3/Q1aJ/4Hxf/FUf8J94O/6GrRP/AAPi/wDiq8jCr6D8qdtHoPypf21/c/H/AIAf2B/08/D/AIJ61/wn3g7/AKGrRP8AwPi/+Ko/4T7wd/0NWif+B8X/AMVXkwUegpwVfQflR/bX9z8f+AL+wf8Ap5+H/BPV/wDhPvB3/Q1aJ/4Hxf8AxVH/AAn3g7/oatE/8D4v/iq8qCr6D8qcFX0H5Uf21/c/H/gB/YP/AE8/D/gnqf8Awn3g7/oatE/8D4v/AIqsyD4j+HW8UX9rJ4l0YafHZ28kMn2yMBpWeYSDdnnAWPjtn3rgAq+g/KlCr6D8qP7a/ufj/wAAX9hf9PPw/wCCeo/8J94O/wChq0T/AMD4v/iqP+E+8Hf9DVon/gfF/wDFV5gFX0H5U/avoPyp/wBtf3Px/wCAL+wv+nn4f8E9M/4T7wd/0NWif+B8X/xVH/CfeDv+hq0T/wAD4v8A4qvNAq+g/KnBV9B+VH9s/wBz8f8AgB/Yf/Tz8P8AgnpP/CfeDv8AoatE/wDA+L/4qj/hPvB3/Q1aJ/4Hxf8AxVecBV/uj8qUKvoPyo/tn+5+P/AF/Yf/AE8/D/gno3/CfeDv+hq0T/wPi/8AiqP+E+8Hf9DVon/gfF/8VXnYVf7o/KlCr/dH5U/7Z/ufj/wBf2J/f/D/AIJ6H/wn3g7/AKGrRP8AwPi/+Ko/4T7wd/0NWif+B8X/AMVXnwVf7o/Kn7V/uj8qP7Z/ufj/AMAP7F/v/h/wTvv+E+8Hf9DVon/gfF/8VR/wn3g7/oatE/8AA+L/AOKrggq/3R+VOCr/AHR+VH9sf3Px/wCAL+xf7/4f8E7v/hPvB3/Q1aJ/4Hxf/FUf8J94O/6GrRP/AAPi/wDiq4YKv90flS7V/uj8qf8AbH9z8f8AgB/Y39/8P+Cdx/wn3g7/AKGrRP8AwPi/+Ko/4T7wd/0NWif+B8X/AMVXEBV/uj8qcFX+6Pyp/wBr/wBz8f8AgC/sf+/+H/BO1/4T7wd/0NWif+B8X/xVH/CfeDv+hq0T/wAD4v8A4quM2r/dH5UoVf7o/Kj+1/7n4/8AAF/ZH9/8P+Cdl/wn3g7/AKGrRP8AwPi/+Ko/4T7wd/0NWif+B8X/AMVXHbV/uj8qcFX+6Pyp/wBrf3Px/wCAL+yP7/4f8E6//hPvB3/Q1aJ/4Hxf/FUf8J94O/6GrRP/AAPi/wDiq5Hav90flTgq/wB0flR/av8Ac/H/AIAv7J/v/h/wTrP+E+8Hf9DVon/gfF/8VR/wn3g7/oatE/8AA+L/AOKrlNq/3R+VKFX+6Pyp/wBq/wBz8f8AgC/sr+/+H/BOq/4T7wd/0NWif+B8X/xVH/CfeDv+hq0T/wAD4v8A4quXCr/dH5UoVf7o/Kn/AGp/c/H/AIAv7L/v/h/wTUn+I/h1fFFhax+JdGOnyWdxJNJ9sjIWVXhEY3Z4yGk4749q0/8AhPvB3/Q1aJ/4Hxf/ABVc0EX+6PypQq5+6Pyo/tT+5+P/AABf2Z/f/D/gnSf8J94O/wChq0T/AMD4v/iqP+E+8Hf9DVon/gfF/wDFVzu1f7o/KlCL/dH5U/7T/u/j/wAAX9m/3vw/4J0P/CfeDv8AoatE/wDA+L/4qj/hPvB3/Q1aJ/4Hxf8AxVYG1f7o/KlCL/dH5U/7S/u/j/wBf2d/e/D/AIJvf8J94O/6GrRP/A+L/wCKo/4T7wd/0NWif+B8X/xVYYRf7o/KlCL/AHR+VP8AtL+7+P8AwBf2d/e/D/gm3/wn3g7/AKGrRP8AwPi/+Ko/4T7wd/0NWif+B8X/AMVWMEX+6PypQi/3R+VP+0f7v4/8AX9n/wB78P8Agmx/wn3g7/oatE/8D4v/AIqj/hPvB3/Q1aJ/4Hxf/FVkhF/uj8qdsX+6Pyo/tD+7+P8AwBfUP734f8E1P+E+8Hf9DVon/gfF/wDFUf8ACfeDv+hq0T/wPi/+KrMCL/dH5U7Yv90flT+v/wB38f8AgC+o/wB78DR/4T7wd/0NWif+B8X/AMVR/wAJ94O/6GrRP/A+L/4qs8Iv90flTgi/3R+VP69/d/EX1L+9+Be/4T7wd/0NWif+B8X/AMVR/wAJ94O/6GrRP/A+L/4qqWxf7o/KnBF/uj8qf17+7+Ivqf8Ae/At/wDCfeDv+hq0T/wPi/8AiqP+E+8Hf9DVon/gfF/8VVUIufuj8qdsX+6Pyp/Xf7v4i+qeZY/4T7wd/wBDVon/AIHxf/FUf8J94O/6GrRP/A+L/wCKqEIv90flS7F/uj8qf1z+7+IfVPMl/wCE+8Hf9DVon/gfF/8AFUf8J94O/wChq0T/AMD4v/iqjCL/AHR+VGxf7o/Kj635C+q+ZJ/wn3g7/oatE/8AA+L/AOKo/wCE+8Hf9DVon/gfF/8AFU3Yv90flS7F/uj8qf1vyF9W8xf+E+8Hf9DVon/gfF/8VWZqnxH8Owajosdp4l0Z4J7xo7theRtsi8iVgSc/L86xjPvjvWmEX+6Pypdi/wB0flT+teQfVvMT/hPvB3/Q1aJ/4Hxf/FUf8J94O/6GrRP/AAPi/wDiqdsX+6Pypdi/3R+VP6z5C+r+Yz/hPvB3/Q1aJ/4Hxf8AxVH/AAn3g7/oatE/8D4v/iqkCL/dH5U7Yv8AdH5UfWfIX1fzIf8AhPvB3/Q1aJ/4Hxf/ABVH/CfeDv8AoatE/wDA+L/4qpti/wB0flS7F/uj8qf1jyD2HmQf8J94O/6GrRP/AAPi/wDiqP8AhPvB3/Q1aJ/4Hxf/ABVWNi/3R+VOCL/dH5U/b+QvY+ZV/wCE+8Hf9DVon/gfF/8AFUf8J94O/wChq0T/AMD4v/iqt7E/ur+VLsT+6v5U/b+QvY+ZT/4T7wd/0NWif+B8X/xVH/CfeDv+hq0T/wAD4v8A4qrmxf7o/KlCL/dH5Ue28g9l5lL/AIT7wd/0NWif+B8X/wAVR/wn3g7/AKGrRP8AwPi/+Kq8EX+6PypQif3V/Kn7byF7LzKH/CfeDv8AoatE/wDA+L/4qj/hPvB3/Q1aJ/4Hxf8AxVX9i/3R+VLsT+6v5Ue18g9l5mf/AMJ94O/6GrRP/A+L/wCKo/4T7wd/0NWif+B8X/xVaOxP7o/KjYn91fyp+18hez8zO/4T7wd/0NWif+B8X/xVH/CfeDv+hq0T/wAD4v8A4qtLYn91fypdif3V/Kj2nkHs/MzP+E+8Hf8AQ1aJ/wCB8X/xVH/CfeDv+hq0T/wPi/8Aiq1Aif3V/KlCJ/dX8qftPIPZmV/wn3g7/oatE/8AA+L/AOKo/wCE+8Hf9DVon/gfF/8AFVq7E/ur+VLsT+6v5Ue0FyGT/wAJ94O/6GrRP/A+L/4qj/hPvB3/AENWif8AgfF/8VWuET+6v5UoRP7q/lT5w5DmNX8f6H9ntY9G8QaTdXs19aQLDFdRyMyPOiPhQc/cZj7da7GuU8Zqo0W1IUA/2rp3b/p8hrq6pO5LVgooopiCiiigAooooAKKKKACiiigAr5M13/kadd/7Cl3/wCj3r6zr5M13/kadd/7Cl3/AOj3rkxn8Nep6GXfxX6f5FKlpKWvMPbQopwpopwpDQooFAoFIocKUUgpRUsaFpRSUopFDqWkpaQxR0pwpo6U4UmMBSikFKKkpDhSikFKKTGhwpaQUtSykOFOFNFOFSUhRSikFKKRQ4U6minVJSFFOpop1IpCinCminCpZSFpwptOFSykKKUUgpRSGOFOFNFOFIBwpwpopwoAdSikpRSEOFKKQUopAOFKKQUooAcKcKaKcKQDhTqaKdSAUU4U0U4UCHCnCminCgTFFKKQUooJHCn0wU+mJiinCminCmIcKcKaKcKYhwoFAoFBI8U6minUxCinCminCmIcKcKaKcKBCinCminCqJYtKKSlFMli04U2nCmiWLThTacKpEi04U2nCmSxwoFAoFMljhTh1popw61SELThTacKZItOFNpwqkSOFAoFApkjhSikFKKpEscKdTRTqZLHClpBS1SJY4U4U0U4VSJAU4U0U4VSJY4dadTR1p1MliilpBS1SJHCigUVQhaUUlKKZIop1NFOqhBTqbTqaEKKWkFLVCFpaSlpoQtKKSlFUiR1FFFMQtKKSlFUIUUopBSigQUtJS0xAKWkFLVIQtLSUtACilFIKUUxBS0lLTEApRSClFNCOf8AGn/IEtf+wrp3/pZDXU1y3jT/AJAlr/2FdO/9LIa6mtYbGctwoooqiQooooAKKKKACiiigAooooAK+TNd/wCRp13/ALCl3/6PevrOvkzXf+Rp13/sKXf/AKPeuTGfw16noZd/Ffp/kUqWkpa8w9tCinCminCkNCigUCgUihwpRSClFSxoWlFJSikUOpaSlpDFHSnCmjpThSYwFKKQUoqSkOFKKQUopMaHClpBS1LKQ4U4U0U4VJSFFKKQUopFDhTqaKdUlIUU6minUikKKcKaKcKllIWnCm04VLKQopRSClFIY4U4U0U4UgHCnCminCgB1KKSlFIQ4UopBSikA4UopBSigBwpwpopwpAOFOpop1IBRThTRThQIcKcKaKcKBMUUopBSigkcKfTBT6YmKKcKaKcKYhwpwpopwpiHCgUCgUEjxTqaKdTEKKcKaKcKYhwpwpopwoEKKcKaKcKoli0opKUUyWLThTacKaJYtOFNpwqkSLThTacKZLHCgUCgUyWOFOHWminDrVIQtOFNpwpki04U2nCqRI4UCgUCmSOFKKQUoqkSxwp1NFOpkscKWkFLVIljhThTRThVIkBThTRThVIljh1p1NHWnUyWKKWkFLVIkcKKBRVCFpRSUopkiinU0U6qEFOptOpoQopaQUtUIWlpKWmhC0opKUVSJHUUUUxC0opKUVQhRSikFKKBBS0lLTEApaQUtUhC0tJS0AKKUUgpRTEFLSUtMQClFIKUU0I5/xp/wAgS1/7Cunf+lkNdTXLeNP+QJa/9hXTv/SyGuprWGxnLcKKKKokKKKKACiiigAooooAKKKKACvkzXf+Rp13/sKXf/o96+s6+cda+HXjKXxHq89v4fmmgnv7iaKRbmABkeVmU4MgI4I6iubFQlKForqduBqRp1G5O2hxtLXS/wDCuPG//Qs3H/gVb/8Axyj/AIVz43/6Fm4/8Crf/wCOVwewqdj1li6P8xzYpwrox8OfG/8A0LNx/wCBVv8A/HKX/hXXjf8A6Fm4/wDAq3/+OUvq9X+Uf1uh/Mc4KBXSf8K78bf9Cxc/+BVv/wDHKP8AhXfjb/oWLn/wKt//AI5S+r1f5R/W6H8xzopRXRf8K88bf9Cxc/8AgVb/APxyl/4V742/6Fi5/wDAq2/+OUvq9X+Uf1yh/MjnaUV0P/CvfG3/AELFz/4FW3/xyl/4V941/wChYuf/AAKtv/jlL6tV/lH9cofzI5+lroP+Ff8AjX/oWLn/AMCrb/47S/8ACv8Axr/0LFz/AOBVt/8AHaX1ar/KP65Q/mRz46U4VvjwB41H/MsXX/gVbf8Ax2l/4QHxp/0LF1/4FW3/AMdpfVq38o/ruH/mRz4pRW//AMID40/6Fi6/8Cbb/wCO0v8AwgXjT/oWLr/wJtv/AI7S+q1v5SljcP8AzowRSit7/hA/Gn/Qr3X/AIE23/x2j/hBPGn/AEK91/4E23/x2l9Vrfyj+vYf+dGGKWtz/hBfGf8A0K91/wCBNt/8dpf+EF8Z/wDQr3f/AIE23/x2p+q1v5Svr2H/AJ0YgpwraHgbxn/0K93/AOBNt/8AHaX/AIQfxn/0K93/AOBNt/8AHaX1Sv8AyjWPw386MUUora/4Qjxl/wBCvd/+BNt/8dpf+EJ8Zf8AQr3f/gTbf/HaX1Sv/KV9fw386MYU6tj/AIQrxl/0K13/AOBNt/8AHaX/AIQvxj/0K15/4E23/wAdqfqdf+Uax+G/nRjinVr/APCF+Mf+hWvP/Am2/wDjtL/whnjH/oVrz/wJtv8A47S+p1/5WV/aGF/nRkCnCtYeDfGP/QrXn/gTbf8Ax2l/4Q7xh/0K15/4E23/AMdpPBV/5WP+0ML/ADoyacK1f+EP8Yf9Ctef+BNt/wDHaUeEPGH/AEK17/4E23/x2p+pYj+Vlf2jhf50ZQpRWr/wiPi//oVr3/wJtv8A47R/wiPi/wD6FW9/8Cbb/wCO0vqWI/kY/wC0cL/OjMFOFaX/AAiXi/8A6FW9/wDAm2/+O04eE/F//Qq3v/gTbf8Ax2l9RxH8jD+0cL/OjNFOFaP/AAini7/oVb3/AMCbb/47Sjwr4u/6FW+/8Cbb/wCO0fUcR/Iw/tHC/wA6M+lFaH/CLeLv+hVvv/Am2/8AjtKPC/i7/oVb7/wJtv8A47S+o4j+Ri/tHC/zooClFX/+EY8W/wDQq33/AIE2v/x2l/4Rnxb/ANCpff8AgTa//HaPqOI/kYf2jhf50URSir3/AAjXiz/oVL//AMCbX/47S/8ACN+LP+hUv/8AwItf/jtL6jiP5GH9o4X+dFIU4VcHhzxZ/wBCpf8A/gRa/wDx2l/4R3xZ/wBCpf8A/gRa/wDx2j6jif5GH9o4X+dFQU6rQ8PeK/8AoVL/AP8AAi1/+O0v/CP+K/8AoVL/AP8AAi1/+O0vqOJ/kYf2jhf50VRThVn/AIR/xX/0Kmof+BFr/wDHaX+wPFf/AEKeof8AgRa//HaPqGJ/kYv7Rwv86K4pwqwNC8VD/mU9Q/8AAi1/+PUv9heKv+hT1D/wItf/AI9R9QxP8jF/aOF/nRXFKKsf2H4q/wChT1D/AMCLX/49R/Ynin/oU9Q/8CLX/wCPUfUMT/Ixf2hhf50Qin1KNF8Uj/mU9R/8CLX/AOPUv9j+Kf8AoU9R/wDAi1/+PU/qOI/kYv7Qw386IhThUn9j+KP+hT1H/wACLX/49S/2R4o/6FLUf/Ai1/8Aj1P6jiP5GL+0MN/Ohgpwp39k+KP+hS1H/wACLX/49S/2V4n/AOhS1L/wItf/AI9R9RxH8jF9fw386EFAp39l+J/+hS1L/wACLX/49S/2Z4n/AOhS1L/wItf/AI9T+o4j+Ri+v4b+dAKdSDTfE4/5lLUv/Ai1/wDj1O/s7xN/0KOpf+BFr/8AHqPqOI/kYvr+G/nQCnCkGn+Jv+hR1L/wItf/AI9S/YPE3/Qo6n/4EWv/AMep/UsR/IxfXsN/OhwpwpgsfEv/AEKOp/8AgRa//HqX7F4l/wChR1P/AMCLX/49R9SxH8jF9ew/86HinCo/sfiX/oUdT/8AAi0/+PUv2TxJ/wBCjqf/AIEWn/x6n9SxH8rJeNw/86JKUVH9l8Sf9Cjqf/gRaf8Ax6gWviT/AKFHVP8Av/af/Hqf1LEfysX13D/zIlpwqH7N4k/6FDVP+/8Aaf8Ax6lFv4j/AOhQ1T/v/af/AB6n9Tr/AMrJ+u0P5kTU4VB5HiP/AKFDVP8Av/af/HqUQeI/+hQ1T/v/AGn/AMeqvqdf+Vi+uUP5kT04VX8nxH/0KGqf9/7T/wCPUvleIv8AoUNV/wC/9p/8ep/U6/8AKT9cofzFkUCq/l+Iv+hQ1X/v/af/AB6jZ4i/6FDVf+/9p/8AHqf1Sv8Ayi+t0P5i0KcOtVAviL/oUNV/7/2n/wAepQviH/oT9V/7/wBp/wDHqf1St/KL63R/mLdOFU8eIf8AoT9V/wC/9p/8epR/wkP/AEJ+q/8Af+0/+PU/qlb+Un61R/mLlOFUs+If+hP1b/v/AGn/AMepd3iD/oT9W/7/ANp/8ep/Va38pP1qj/MXhQKpb/EH/Qn6t/3/ALT/AOPUu/xB/wBCfq3/AH/tP/j1P6rW/lF9Zo/zF4Uoqj5niD/oT9W/7/2n/wAfpfN1/wD6E/Vv+/8Aaf8Ax+q+rVv5SfrNL+YvinVnibXx/wAydq//AH/tP/j9L5+v/wDQnav/AN/7T/4/T+rVf5RPEUv5jRFLWcLjXv8AoTtX/wC/9p/8fpftOvf9Cdq//f8AtP8A4/VfV6v8pP1il/MaQpwrM+1a9/0J2r/9/wC0/wDj9L9r17/oTtX/AO/9p/8AH6f1er/KT7en3NIU4Vl/a9d/6E7WP+/9p/8AH6X7Zrv/AEJ2sf8Af+0/+P0/q9XsJ16fc1R1p1ZIvdd/6E7WP+/9p/8AH6d9u1z/AKE3WP8Av/af/H6r2FTsS61Puaopayhf65/0Jusf9/rT/wCP0f2hrn/Qm6x/3+s//j9P2FTsL20O5riisn+0Nc/6E3WP+/8AZ/8Ax+j+0dc/6E3Wf+/1n/8AH6r2NTsL2sO5r0orI/tHW/8AoTdZ/wC/1n/8fpf7S1v/AKE3Wf8Av9Z//H6fsanYn2sO5rinVjf2nrf/AEJus/8Af6z/APj9L/aet/8AQm6z/wB/rP8A+P0/Yz7C9rDubFOrG/tTW/8AoTdZ/wC/1n/8fo/tTW/+hM1n/v8AWf8A8fp+yn2F7SHc2hS1ijVda/6EzWf+/wBZ/wDx+l/tbWv+hM1n/v8AWf8A8fp+yn2D2kO5tUtYv9ra1/0Jmtf9/rP/AOP0f2vrX/Qma1/3+s//AI/TVKfYXtI9zbpRWJ/a+tf9CZrX/f6z/wDj9KNY1n/oTNa/7/Wf/wAfqvZy7E88e5uUVh/2zrP/AEJmtf8Af6z/APj9L/bOs/8AQma1/wB/rP8A+P0/Zy7Bzx7m5SisL+2tZ/6EzWv+/wBZ/wDx+l/trWf+hM1r/v8AWf8A8fp8kuxPPHubopRWD/bWsf8AQma1/wB/rP8A+P0v9t6x/wBCZrX/AH+s/wD4/T5Jdg549zdpawf7b1j/AKEzW/8Av9Z//H6X+3NY/wChL1v/AL/Wf/x+nyS7C54m6KWsH+3NY/6EvW/+/wBZ/wDx+j+3NY/6EvW/+/1n/wDH6fJLsLmRv0tYH9u6x/0Jet/9/rP/AOP0f27rH/Ql63/3+s//AI/RysOZHQClFc//AG9rH/Ql63/3+s//AI/S/wBvav8A9CXrf/f6z/8Aj9PlYuZG/S1z/wDb+r/9CXrf/f6z/wDj9H9v6v8A9CXrf/f6z/8Aj9PlYuZHQClFc/8A2/q//Ql63/3+s/8A4/R/wkGr/wDQl63/AN/rP/4/RysLoPGn/IEtf+wrp3/pZDXU1w+r3Ota7BaWSeFNUtf+JhaTPNcTWuxEjuI5GJ2zM33VPQGu4rSKsiJPUKKKKokKKKKACiiigAooooAKKKKACiiigAooooAKKKKACiiigAooooAKKKKACiiigAooooAKKKKACiiigAooooAKKKKACiiigAooooAKKKKACiiigAooooAKKKKACiiigAooooAKKKKACiiigAooooAKKKKACiiigAooooAKKKKACiiigAooooAKKKKACiiigAooooAKKKKACiiigAooooAKKKKACiiigAooooAKKKKACiiigAooooAKKKKACiiigAooooAKKKKACiiigAooooAKKKKACiiigAooooAKKKKACiiigAooooAKKKKACiiigAooooAKKKKACiiigAooooAKKKKACiiigAooooAKKKKACiiigAooooAKKKKACiiigAooooAKKKKACiiigAooooAKKKKACiiigAooooAKKKKACiiigAooooAKKKKACiiigAooooAKKKKACiiigAooooAKKKKACiiigAooooAKKKKACiiigAooooAKKKKACiiigAooooAKKKKACiiigAooooAKKKKACiiigAooooAKKKKACiiigAooooAKKKKACiiigAooooAKKKKACiiigAooooAKKKKACiiigAooooAKKKKACiiigAooooAKKKKACiiigAooooAKKKKACiiigAooooAKKKKACiiigAooooAKKKKACiiigAooooAKKKKACiiigAooooAKKKKACiiigAooooAKKKKACiiigAooooAKKKKACiiigAooooAKKKKACiiigAooooAKKKKACiiigAooooAKKKKACiiigAooooAKKKKACiiigAooooA85u/EGurpuqeKYtRCWOn6i9uum+QhSWGObynJfG8OcMwwcDgYNejVx9z4HmnlurVdXKaHeXv224sfs4Ls5cOyiXdwjOMkbSeSARmuwoAKKKKACiiigAooooAKKKKACiiigAooooAKKKKACiiigArK122nltftEeu3ekxW6PJM9vHCwZQM5bzI3xgA9Mda1ayvEmjN4h0K40r7UbaK5KpM4TcWi3Aug5GNygrntnoaAKPgWfVbzwjZ3usXUtxc3e6dDLGiMsTEmNSEVRnZtzx1Jro6RVVEVEUKqjAAGABS0AFFFFABRRRQAUUUUAFFFFABRRRQAUUUUAFFFFABRRRQBynjm51bTdNg1PTtVe1SK6topIFgjcTCS4jjOWYEj5WPTH1qPxxr2oWemX9poUwi1C3spL2e4KBxbRIrFeDkFnK7QD2DH+HBueL/AA/qfiOwjsrPVrexgEkcsnm2RnZmjkWRMESLgZQZ4Oc9qr6v4E03xFpNwms2um3OsTWrQf2kLEAoxBCsqliRtzkDd260AdDpk0lxpNnPK26SSBHdsYySoJq1VHR9KttE0e1020ijjgt4wirGgRc9ScDpk5P41eoAKKKKACiiigAooooAKKKKACiiigAooooAKKKKACqOq2l7e2yRWOpvp77wXmjhSRiuDwN4Kg5xyQenTmr1YnirRr/X9FOn2GqjTjJIPOkMJk8yLndHw6EBuMkHOMjvmgDN8OXmq6zpWrwLq3mCC8a3stWFumZkAUs20DYxDF0yBg7c4q14Gv77UfC6Tajdtd3SXd1A07IqFxHPIikhQB91R0FWdP03WLLRJLL+0NNWZFCWr2+nNHFCoGADH5p3fgy1W8I+H9U8OWktpeatbX0DSyTIIrIwMrySNI2SZGyMscDAx70AdHRRRQAUUUUAFFFFABRRRQAUUUUAFFFFABRRRQAUUUUAFcYZ9a0jxXo2nya8+qvemQ3Vq9rHGIYVQnzVKAFQHCrhi2d3HIrs65Dw94X17RtSnu7rXrC+e6l8y7lbTHSaUc7VD+cQqr0AC4HPGSTQBzt14u1eLXrmIarIl1HrC2cVh9kQ2bQF1GXuNvyyFCTjeDuwuw9/Ua4yXwNdSQ3GmDW9uh3F615Ja/ZAZstL5rIJd3Cl8/wk4OM12dABRRRQAUUUUAFFFFABRRRQAUUUUAFFFFABRRRQAUUUUAcz4vuZtPtlvv7c1LToFUrssdPW63NgnLDy3IGB/sj3rmJtZ8V3MGlahLJqkNhJpEdxcvocNrOonJJY/vAxI24OEz+NdtqtlrtxcBtL1m2soTHtZJrHzzuyfmU71weRwQRxWXB4W1fTNJttJ0bxAlrZRQeUTNZCaXdklnV96gE56FSB6UAdDpt1BfaXaXdtc/aoJoUkjnIA8xSAQ3AA569B9KtVS0fS7fRNGstLtN32e0hSGPcckhRjJPrV2gAooooAKKKKACiiigAooooAKKKKACiiigAooooAKiurqCytJrq6lWK3hQySSOcBVAySfwqWobu0t7+0ltLuCOe3mUpJFIoZXU9QQeooA4vStX8Q6p4rvbWW5+w211pYurK3e3UtbZkKKz55LEDcVJwM47Em7o13qlv4zudFm1eTV7WKyE88ssMaNbTFgEQmNVHzLubBGRtBzzUI+HOl2OuTavocNhpd19ha2tmisVPkSkt++HIycNjHGR3q74T8O6p4ch+zXGqWN3bEM7mOxeKaWUkEyPI0z7iec8enQDFAHTUUUUAFFFFABRRRQAUUUUAFFFFABRRRQAUUUUAFFFFABRRRQAUUUUAFFIzBVLHOAM8DJrmR8QfDh+2kXF6UsZDFdONMudkDDqHby8DHuaAOnoqCzvLbULOG8s5457aZQ8csbBlYHuDS3Vwtpay3DpI6xqWKxoWY49AOtAE1FZ2g61a+ItDtNXslkW2uk8yMSgBsZxyAT6Vo0AFFFN8xPM8vevmY3bc849cUAOoqK5t0urd4JGkVHGCYpWjYfRlII/A1XgtktYVgjeconAMk7yN+LMST+JpN2GlcbNqqQ6/aaSY2MlzbTXIkzwojaNSPx80fkav1Qayt3vIrxkJuIo2iSQsdyqxUsBz0JRfyqbb/ALT/APfZqecfKWaKrbf9p/8Avs0bf9p/++zRzhylmiq23/af/vs0bf8Aaf8A77NHOHKWaKrbf9p/++zRt/2n/wC+zRzhylmiq23/AGn/AO+zRt/2n/77NHOHKWaKrbf9p/8Avs0bf9p/++zRzhylmiq23/af/vs0bf8Aaf8A77NHOHKWaKrbf9p/++zRt/2n/wC+zRzhylmiq23/AGn/AO+zRt/2n/77NHOHKWaoa3qiaJoOoarJG0qWVtJcMinBYIpYgflU23/af/vs1Dd2cF9ZzWl0hmt542jljdiQ6kYIPPcGjnDlLwOVB9RS1W24/if/AL7NG3/af/vs0c4cpZoqtt/2n/77NG3/AGn/AO+zRzhylmiq23/af/vs0bf9p/8Avs0c4cpZoqtt/wBp/wDvs0bf9p/++zRzhylmiq23/af/AL7NG3/af/vs0c4cpZoqtt/2n/77NG3/AGn/AO+zRzhylmiq23/af/vs0bf9p/8Avs0c4cpZoqtt/wBp/wDvs0bf9p/++zRzhylmiq23/af/AL7NG3/af/vs0c4cpZqhp+qpqF7qlskbI2n3ItnJP3yYo5Mj8JAPwqbb/tP/AN9moYLK3tpriWFCklzIJZmDH52CquT77VUfQUc4cpfoqtt/2n/77NG3/af/AL7NHOHKWaKrbf8Aaf8A77NG3/af/vs0c4cpZoqtt/2n/wC+zRt/2n/77NHOHKWaKrbf9p/++zRt/wBp/wDvs0c4cpZoqtt/2n/77NG3/af/AL7NHOHKWaKrbf8Aaf8A77NG3/af/vs0c4cpZoqtt/2n/wC+zRt/2n/77NHOHKWaKrbf9p/++zRt/wBp/wDvs0c4cpZoqtt/2n/77NG3/af/AL7NHOHKQ6hqqafe6XbPGztqFybZCD9wiKSTJ/CMj8av1nz2Vvcy28syF5LaQywsWOUbaVyOeu1mH4mp9v8AtP8A99mjnDlLNFVtv+0//fZo2/7T/wDfZo5w5SzRVbb/ALT/APfZo2/7T/8AfZo5w5SzRVbb/tP/AN9mjb/tP/32aOcOUs0VW2/7T/8AfZo2/wC0/wD32aOcOUs0VW2/7T/99mjb/tP/AN9mjnDlLNFVtv8AtP8A99mjb/tP/wB9mjnDlLNFVtv+0/8A32aNv+0//fZo5w5SzRVbb/tP/wB9mjb/ALT/APfZo5w5SzSE4Un0FV9v+0//AH2aQrkYLPj/AHzRzhykWiaomt6Dp+qxxtEl7bR3CoxyVDqGAP51fqhaWcFjZwWdqhit4I1jijViAigYAHPQCptv+0//AH2aOcOUs0VW2/7T/wDfZo2/7T/99mjnDlLNFVtv+0//AH2aNv8AtP8A99mjnDlLNFVtv+0//fZo2/7T/wDfZo5w5SzRVbb/ALT/APfZo2/7T/8AfZo5w5SzRVbb/tP/AN9mjb/tP/32aOcOUs0VW2/7T/8AfZo2/wC0/wD32aOcOUs0VW2/7T/99mjb/tP/AN9mjnDlLNFVtv8AtP8A99mjb/tP/wB9mjnDlLNUIdVSbX7vSRGwktraG5MmeGEjSKB+HlH8xU23/af/AL7NQrZW6Xst4qYuZY0jeQMcsqlioPsC7fmaOcOUv0VW2/7T/wDfZo2/7T/99mjnDlLNFVtv+0//AH2aNv8AtP8A99mjnDlLNFVtv+0//fZo2/7T/wDfZo5w5SzRVbb/ALT/APfZo2/7T/8AfZo5w5SzRVbb/tP/AN9mjb/tP/32aOcOUs0VW2/7T/8AfZo2/wC0/wD32aOcOUs0VW2/7T/99mjb/tP/AN9mjnDlLNFVtv8AtP8A99mjb/tP/wB9mjnDlLNFVtv+0/8A32aNv+0//fZo5w5SHWNVTR7KO5kjaRXuYLYBTjBllSMH8C4P4Vfqhc2dveRLFcp5qLIkoVmJAZGDKfqGUH8Km2/7T/8AfZo5w5SzRVbb/tP/AN9mjb/tP/32aOcOUs0VW2/7T/8AfZo2/wC0/wD32aOcOUs0VW2/7T/99mjb/tP/AN9mjnDlLNFVtv8AtP8A99mjb/tP/wB9mjnDlLNFVtv+0/8A32aNv+0//fZo5w5SzRVbb/tP/wB9mjb/ALT/APfZo5w5SzRVbb/tP/32aNv+0/8A32aOcOUs0VW2/wC0/wD32aNv+0//AH2aOcOUs0VBGP3gO5vxY1PVJ3E1YKKKKYgrxEeItU8Or4+urOwgmszrjR3N07sxtVdVUyGIL86jv8w6+le2OHMbCNlV8HaWGQD2yMjP51yHhvwXeaPe69JqOqWmpWutTPPcW4sDEAzDBAJkb5ccYIP1oAzYPK8BeDfC3hzRr0XDahdJaw3rgMAshaR5QOh4J2jkcjOcHN3+19U0jxynh2+vH1Cy1GxkuLWeWNFlikj++jbFVSpBBBxntzVG2+GNzDo6aO/iFpLCyuhd6Qxtf39jIrZQeYXIdQCQQVGc9RgV09r4ekbWBq+q3cV3fJbG1iMMBhjjRiCxClmO5iBk56AAAc5APK9I1Lxb4X+FegeJ7XUrWTR7SGIXGlfZRueJn2lvNJzvyc4AAHvjntNQ1zxBrFzr0GgR3ySabMbW3a3W1MckojVz5vmtuxlwPlA4GcknAtaf4DkttBs/Dt3qi3Wh2kiMkH2bZLIqNvRJH3EMoYAnCrnA98t1DwLfnxNda1oHie50Y3+37dAlskyTFRgMofhGx3waAKdzqfiu48TaBpT3qaVLqGlTTXUSQxzeRMmwZUnIPLHvjHrTPD9lqEfxU1iO71y8uXg02zMhKRqkpJkyNu35FyCcKQck5JrXl8I3w8WaRq9rq0Mdrptu1sttLaNI8iPt3lpPMHzHaCDt69c1oJ4ekh8ZXGvwXoRLq2jt7i3aHcT5bMVKtn5fvEEYPtigC9qs2rQxRnSbKzupCfnW6umgCj1BWN8/kKW1a6e2Rr2GKG5I/eRwyGRFPoGKqT+Qqzc3MFnbvcXU8cEEYy8srhVUepJ4FVIdQtLuJZ7a5jmhk5SSJtysM4yCODUTKiWKKi+0Rf3v0NH2iL+9+h/z2qCyWio/Pizjd+hpPtEWM7/0NAEtFR+fFnG79DSfaIv736H/AD3oAloqL7RF/e/Q0vnxZxu9uhoAkoqL7RF/e/Q0v2iL+9+h/wA9qAJKKj8+LP3v0P8AnvSfaIsZ3/oaAJaKj8+LON36Gk+0Rf3v0P8AnvQBLRUX2iL+9+h/z2pfPizjd+hoAkoqL7RF/e/Q0v2iL+9+h/z2oAkoqPz4v736H/Pek+0RYzv/AENAEtFR+fFnG79DSfaIv736H/PegCWiovtEX979D/ntS+fFnG79DQBJRUX2iL+9+hpftEX979D/AJ7UASUVH58X979D/nvSfaIv7/6GgCWio/Pizjd+hpPtEX979D/nvQBLRUX2iL+9+h/z2pfPizjd+hoAkoqL7RF/f/Q0vnxf3v0P+e1AElFR/aIv736H/Pek+0Rf3v0NAEtFR+fFnG79DSfaIv736H/PegCWiovtEX979D/ntS+fFnG79DQBJRUX2iLGd/6Gl8+L+9+h/wA9qAJKKj+0Rf3v0P8AnvSfaIv736GgCWio/Pizjd+hpPtEX979D/nvQBLRUX2iL+9+h/z2pfPizjd+hoAkoqL7RFjO/wDQ0vnxZ+9+h/z2oAkoqP7RF/e/Q/570n2iL+9+hoAloqPz4s43e3Q0n2iL+9+hoAloqL7RF/e/Q/57UvnxZxu/Q0ASUVF9oixnf+hpfPizjd+hoAkoqL7RF/e/Q/570faIv736GgCWio/Pizjd7dDSfaIv736GgCWio/tEX979D/ntR58Wfvfof896AJKKi+0RYzv/AENL58Wcbv0NAElFRfaIv736H/Pej7RF/e/Q/wCe1AEtFR+fFnG79DSfaIv736GgCWio/tEX979D/ntR58X979D/AJ70ASUVF9oixnf+hpfPizjd+hoAkoqL7RF/e/Q/570faIv736H/AD2oAloqPz4s43foaT7RF/e/Q0AS0VH9oi/vfof89qPPi/vfof8APegCSiovtEX9/wDQ0vnxZxu/Q0ASUVF9oi/vfof896PtEX979D/ntQBLRUfnxZxu/Q0n2iL+/wDoaAJaKj8+L+9+h/z2o+0Rf3v0P+e9AElFRfaIv736Gl8+LON36GgCSiovtEX979D/AJ70faIv736H/PagCWio/Pizjd+hpPtEWM7/ANDQBLRUfnxf3v0P+e1H2iL+9+h/z3oAkoqL7RF/e/Q0vnxZxu/Q0ASUVF9oi/vfof8APej7RF/e/Q/57UAS0VH58Wcbv0NJ9oixnf8AoaAJaKj8+LP3v0P+e1H2iL+9+h/z3oAkoqL7RF/e/Q0vnxZxu9uhoAkoqL7RF/e/Q0faIv736H/PagCWio/Pizjd+hpPtEWM7/0NAEtFR+fFnG79DSfaIv736H/PegCWiovtEX979DS+fFnG726GgCSiovtEX979DS/aIv736H/PagCSio/Piz979D/nvSfaIsZ3/oaAJaKj8+LON36Gk+0Rf3v0P+e9AEtFRfaIv736H/Pal8+LON36GgCSiovtEX979DS/aIv736H/AD2oAkoqPz4v736H/Pek+0RYzv8A0NAEtFR+fFnG79DSfaIv736H/PegCWiovtEX979D/ntS+fFnG79DQBJRUX2iL+9+hpftEX979D/ntQBJRUfnxf3v0P8AnvSfaIv7/wChoAnT74qaq0UyNKFDZPParNaQ2IluFFFFUSFFFFAHPXHiZpdfm0PRrMX99bIr3bPN5UNsG+6rPtY7iOQoU8dcVPa6xqB12LS9Q0oW5kt5J0uYbjzYjtZBsyVVt3z55AGBxnnHHfDKRrLxV440i/8Al1M6s94A/WSB/uMPVePw3CneIdY1Sx+Iz6ZN4jurTRP7Gm1GbZBCWi2EqdrbN2AOe5460Aek1R03V7LVxdNYzCVLa4a2d15UuoG4A98E4+oNeaaPaR2Pi7wM1pZC1tr+wuUkkdgZ75BEjB7gAYLE/N1b7x6dKoW7QeHvA3i7UbCC3s5F8Rz2sl1HDhobY3SKw+XDbQpPAIx2xQB7RRXn9v4ZWw1dtTtfEGnWKXunyxeVp1n5MUg25Fwf3jDKZHz+hAzyKqeD4U0XxZaaZrPh+DT9d+wSQw6jZYMGoxqULsxwGDgqpw3PJ55FAHpdQN94/Wq+q6fc6hFGltq95prKcl7VYmL+x8xHH5YpbWCS2tkhlupbqRBhp5god/c7QF/IComVEmoooqCwooooAKKKKACiiigAooooAKKKKACiiigAooooAKKKKACiiigAooooAKKKKACiiigAooooAKKKKACiiigAooooAKKKKACiiigAooooAKKKKACiiigAooooAKKKKACiiigAooooAKKKKACiiigAooooAKKKKACiiigAooooAKKKKACiiigAooooAKKKKACiiigAooooAKKKKACiiigAooooAKKKKACiiigAooooAKKKKACiiigAooooAKKKKACiiigAooooAKKKKACiiigAooooAKKKKACiiigAooooAKKKKACiiigAooooAKKKKACiiigAooooAKKKKACiiigAooooAKKKKACiiigByffFTVCn3xU1aQ2IluFFFFUSFFFFAGXqfh3StXuYbq8tAbqAYiuYnaKZB3AkQhgPbOKhi8J6JFLcTNZG4muIGt5ZbuZ7h2iPVN0jMQp9AcVtVR1HV7LS/KF08nmTEiOKGF5pHwMnCICxA7nHGR60AZNp4B8M2UlhJBpmJLAk2ztPI5jBGNuWY5XH8JyB6Vei8M6NCdQ22KlNRZ3uonZnjkL43nYSVG7AzgDOOaYPFejNptnfrdO0N65jtlFvIZZWGcgRbd+RtbPy8Yqrd+PPDdjoiazcX7iwaYwGVbWV9kgOCrqqlkOeMMBzQAmkeAfC+g217b6ZpEdvHexmK4xI7MyHOVDEkgcngEVd0zwzpWkSxy2sMxkiiMMT3F1LOY0OMqpkZtoOBnGM4HoKln16wtrvTrWZrhZ9Rz9mT7JKc4GTuwvyYHJ3Yxz6VBaeKtIvtQgsreeZ5bgO0Dm1lWKUL1KSFdjfgaANS5leC3eWO3kuHUZEURUM/sNxA/MiqkNxPNEskllJAzcmKV0LLz32kj8iavkgdSB9ahJyxI9aiZUSHfL/AM8f/HhRvl/54/8Ajw/z/wDrqWioLI98uf8AVf8AjwpN8uP9T/48KlooAj3y5/1X/jwpN8v/ADx/8eH+f/1VLRQBFvl/54/+PCl3y5/1X/jwqSigCLfL/wA8f/HhS75f+eP/AI8P8/8A66kooAj3y5/1X/jwpN8uP9T/AOPCpaKAI98uf9V/48KTfL/zx/8AHh/n/wDVUtFAEW+X/nj/AOPCl3y5/wBV/wCPCpKKAIt8v/PH/wAeFLvl/wCeP/jwqSigCPfL/wA8v/HhSb5cf6n/AMeFS0UAR75c/wCq/wDHhSb5f+eP/jwqWigCLfL/AM8f/HhS75c/6r/x4VJRQBFvl/54/wDjwpd8v/PH/wAeFSUUAR75f+eX/jwpN8v/ADx/8eFS0UAR75c/6r/x4Um+X/nj/wCPCpaKAIt8v/PH/wAeFLvlz/qv/HhUlFAEW+X/AJ4/+PCl3y/88v8Ax4VJRQBHvl/54/8AjwpN8v8Azx/8eFS0UAR75c/6r/x4Um+X/nj/AOPCpaKAIt8v/PH/AMeFLvlz/qv/AB4VJRQBFvlx/qf/AB4Uu+X/AJ5f+PCpKKAI98v/ADx/8eFJvl/54/8AjwqWigCPfLn/AFX/AI8KTfL/AM8f/HhUtFAEW+X/AJ4/+PD/AD/+ul3y5/1X/jwqSigCLfLj/U/+PCl3y5/1X/jwqSigCPfL/wA8f/Hh/n/9VJvl/wCeP/jwqWigCPfLn/Vf+PCk3y/88f8Ax4VLRQBFvl/54/8Ajw/z/wDrpd8uf9V/48KkooAi3y4/1P8A48KXfLn/AFX/AI8KkooAi3y/88f/AB4f5/8A1Ub5f+eP/jwqWigCPfLn/Vf+PCk3y/8APH/x4VLRQBHvl/54/wDjw/z/APro3y5/1X/jwqSigCLfLj/U/wDjwpd8uf8AVf8AjwqSigCLfL/zx/8AHh/n/wDVRvl/54/+PCpaKAI98uf9V/48KTfL/wA8f/HhUtFAEe+X/nj/AOPCjfL/AM8v/HhUlFAEW+XH+p/8eFLvlz/qv/HhUlFAEW+X/nj/AOPCjfL/AM8f/HhUtFAEe+XP+q/8eFJvl/54/wDjwqWigCPfL/zx/wDHhRvl/wCeX/jwqSigCLfL/wA8f/HhS75c/wCq/wDHhUlFAEW+X/nj/wCPCjfL/wA8f/HhUtFAEe+XP+q/8eFJvl/54/8AjwqWigCPfL/zy/8AHhRvl/54/wDjwqSigCLfL/zx/wDHhS75c/6r/wAeFSUUARb5f+eP/jwo3y/88f8Ax4VLRQBHvlz/AKr/AMeFJvlx/qf/AB4VLRQBHvl/55f+PCjfL/zx/wDHhUlFAEW+X/nj/wCPCl3y5/1X/jwqSigCLfL/AM8f/HhRvl/54/8Ajw/z/wDrqWigCPfLn/Vf+PCk3y4/1P8A48KlooAj3y5/1X/jwo3y/wDPH/x4f5//AFVJRQBFvl/54/8Ajwpd8uf9V/48KkooAi3y/wDPH/x4Ub5f+eP/AI8P8/8A66looAj3y5/1X/jwpN8uP9T/AOPCpaKAI98uf9V/48KTfL/zx/8AHh/n/wDVUtFAEW+X/nj/AOPCl3y5/wBV/wCPCpKKAIt8v/PH/wAeFLvl/wCeP/jw/wA//rqSigCPfLn/AFX/AI8KTfLj/U/+PCpaKAI98uf9V/48KTfL/wA8f/Hh/n/9VS0UARb5f+eP/jwpd8uf9V/48KkooAi3y/8APH/x4Uu+X/nj/wCPCpKKAI98v/PL/wAeFJvlx/qf/HhUtFAEe+XP+q/8eFJvl/54/wDjwqWigCLfL/zx/wDHhS75c/6r/wAeFSUUARb5f+eP/jwpd8v/ADx/8eFSUUAR75f+eX/jwpN8v/PH/wAeFS0UAJEzmUAx4HPO6rNQp98VNWkNiJbhRRRVEhRRRQAVxPjsaY2paMJvETaBrCrO+n3rMvlnGwSRuH+Vgcodp/u9eOe2ooA8p/4Sib7N4Rm1u0s9PuLi5vF/tdIcxxEZG+IEYUzA5BbIwScHNTeDdOsfEnhrxpoFy8zrc6veBzNGVdQ+0o5BAw2fmAwOR0r1CsTxLd6pb21rFo15pEF/NcKirqbMFkXB3KgUgl+mPxoA53wFdalrSfbNbgdLrR4W0t93/LSdW/fSD1DBYsH13VjeD76O01nQ7Lw3rUWt+G7tZGS0m2vcaUBGSDuHIXnZhuRkAE16RpGnf2XpsdsZfOly0k0pGPMkdiztjtliTjt0q9QBQ1TRNK1uOOPVdMs75IzuRbqBZAp9QGBxTra0trC3S1s7eK3t4htjiiQKqD0AHAqxcrO1u62sscU5HyPLGXUH3UMpP5iqkMV2sSi5uY5Jh99oodik57KWYj8zUTKiWKKi2S/89v8Ax0UbJf8Ant/46P8AP/6qgsloqPZLn/W/+Oik2S4/13/jooAloqPZLn/W/wDjopNkv/Pb/wAdH+f/ANdAEtFRbJf+e3/jopdkuf8AW/8AjooAkoqLZL/z2/8AHRS7Jf8Ant/46P8AP/6qAJKKj2S5/wBb/wCOik2S4/13/jooAloqPZLn/W/+Oik2S/8APb/x0f5//XQBLRUWyX/nt/46KXZLn/W/+OigCSiotkv/AD2/8dFLsl/57f8AjooAkoqPZL/z1/8AHRSbJcf67/x0UAS0VHslz/rf/HRSbJf+e3/jooAloqLZL/z2/wDHRS7Jc/63/wAdFAElFRbJf+e3/jopdkv/AD2/8dFAElFR7Jf+ev8A46KTZL/z2/8AHRQBLRUeyXP+t/8AHRSbJf8Ant/46KAJaKi2S/8APb/x0UuyXP8Arf8Ax0UASUVFsl/57f8Ajopdkv8Az1/8dFAElFR7Jf8Ant/46KTZL/z2/wDHRQBLRUeyXP8Arf8Ax0UmyX/nt/46KAJaKi2S/wDPb/x0UuyXP+t/8dFAElFRbJcf67/x0UuyX/nr/wCOigCSio9kv/Pb/wAdFJsl/wCe3/jooAloqPZLn/W/+Oik2S/89v8Ax0UAS0VFsl/57f8Ajo/z/wDqpdkuf9b/AOOigCSiotkuP9d/46KXZLn/AFv/AI6KAJKKj2S/89v/AB0f5/8A10myX/nt/wCOigCWio9kuf8AW/8AjopNkv8Az2/8dFAEtFRbJf8Ant/46P8AP/6qXZLn/W/+OigCSiotkuP9d/46KXZLn/W/+OigCSiotkv/AD2/8dH+f/10bJf+e3/jooAloqPZLn/W/wDjopNkv/Pb/wAdFAEtFR7Jf+e3/jo/z/8Aqo2S5/1v/jooAkoqLZLj/Xf+Oil2S5/1v/jooAkoqLZL/wA9v/HR/n/9dGyX/nt/46KAJaKj2S5/1v8A46KTZL/z2/8AHRQBLRUeyX/nt/46KNkv/PX/AMdFAElFRbJcf67/AMdFLslz/rf/AB0UASUVFsl/57f+OijZL/z2/wDHRQBLRUeyXP8Arf8Ax0UmyX/nt/46KAJaKj2S/wDPb/x0UbJf+ev/AI6KAJKKi2S/89v/AB0UuyXP+t/8dFAElFRbJf8Ant/46KNkv/Pb/wAdFAEtFR7Jc/63/wAdFJsl/wCe3/jooAloqPZL/wA9f/HRRsl/57f+OigCSiotkv8Az2/8dFLslz/rf/HRQBJRUWyX/nt/46KNkv8Az2/8dFAEtFR7Jc/63/x0UmyXH+u/8dFAEtFR7Jf+ev8A46KNkv8Az2/8dFAElFRbJf8Ant/46KXZLn/W/wDjooAkoqLZL/z2/wDHRRsl/wCe3/jo/wA//qoAloqPZLn/AFv/AI6KTZLj/Xf+OigCWio9kuf9b/46KNkv/Pb/AMdH+f8A9dAElFRbJf8Ant/46KXZLn/W/wDjooAkoqLZL/z2/wDHRRsl/wCe3/jo/wA//qoAloqPZLn/AFv/AI6KTZLj/Xf+OigCWio9kuf9b/46KTZL/wA9v/HR/n/9dAEtFRbJf+e3/jopdkuf9b/46KAJKKi2S/8APb/x0UuyX/nt/wCOj/P/AOqgCSio9kuf9b/46KTZLj/Xf+OigCWio9kuf9b/AOOik2S/89v/AB0f5/8A10AS0VFsl/57f+Oil2S5/wBb/wCOigCSiotkv/Pb/wAdFLsl/wCe3/jooAkoqPZL/wA9f/HRSbJcf67/AMdFAEtFR7Jc/wCt/wDHRSbJf+e3/jooAloqLZL/AM9v/HRS7Jc/63/x0UASUVFsl/57f+Oil2S/89v/AB0UASUVHsl/56/+Oik2S/8APb/x0UATp98VNVaJXEoJkyOeNtWa0hsRLcKKKKokKKKKACiiigArgfiGip4g8FXMduslwNYCKRgMR5b8ZPbPNd9XFeOLLVrzWvDE2naPcX0On6gLu4eKWFNq7WXADupJ+bPp70ASHx9BZz61aaraxWl3pk9vDtW5DRy+eMxkOyrt6HdkcbSeam0Dxvb6z4kutCdLT7VFbi6jlsrsXMMke7afn2rhgcZUjoQa5DWPC/ifUvFfiTUbHTXtJHnsLvTLi4miMcklsGBVwrlgGDnHH1xXc+HL7xPqTtNrujQaPGibBbrdLcNK5I+fKjCqADgZJO7nGOQDS1XWLbR4o5LmK8kWQ7QLWzluCPqI1Yj6mltbqO9tkuYllWOQblE0TROPqrAMPoRV6oG+8frUTKiJRRRUFhRRRQAUUUUAFFFFABRRRQAUUUUAFFFFABRRRQAUUUUAFFFFABRRRQAUUUUAFFFFABRRRQAUUUUAFFFFABRRRQAUUUUAFFFFABRRRQAUUUUAFFFFABRRRQAUUUUAFFFFABRRRQAUUUUAFFFFABRRRQAUUUUAFFFFABRRRQAUUUUAFFFFABRRRQAUUUUAFFFFABRRRQAUUUUAFFFFABRRRQAUUUUAFFFFABRRRQAUUUUAFFFFABRRRQAUUUUAFFFFABRRRQAUUUUAFFFFABRRRQAUUUUAFFFFABRRRQAUUUUAFFFFABRRRQAUUUUAFFFFABRRRQAUUUUAFFFFABRRRQAUUUUAFFFFADk++KmqFPvipq0hsRLcKK5SHU73xD4o1rS7PUJdPttI8qJngjjaSWV03knerAKAQMAZJzzXJ+GfFPiK+1TwU95qzSx6s+px3duIIljPkM4QqQu4dB/F2HvmiT1eivN18WarpEPi0XF3JqMljqlvZWPmxxqV84RgZ2hAcGQnkjOOo61p2tz4yt9auMWV3c6a1k7IdQa1WSO5XlVHktyjdORkHvigDtaz9U1aPTNIn1Fba6vlhODDYx+bKx3bSFUHkg5z6YPpXHeEtbm8R3T27+Jb6O8WyZL7S7m2iguLWclMPGPLB2j5xyWHK965vTdV1vQv2fbfXbDV5TdiNHH2iKOQLun2tt+UHJ3Zy27kUAeyjkUVyl5rF1qPjl/DNneSWKW1gLyeeJEaRmZ9qqu9WUAAEk4PUdOa5XUfGPiC18H+KIzeLHrOgX8VuLtIV2zxyOm1mQggMVY5A7/lQB6rRXH/ANp6pp/xIs9Gmvmu7O/06W42PEi+VLGyj5SoB2kN0YseOtZnhHxJeavrNtbX+tXFrq8Sv/aOhXdtHHjg4aEhNzKDjB3Nkcn3AO+ubdLq3eCRpFRxgmKVo2H0ZSCPwNVIbGC2iWGMSMqcAyyvIx5zyzEk/iaXVZtWhijOk2VndSE/Ot1dNAFHqCsb5/IUtq109sjXsMUNyR+8jhkMiKfQMVUn8hUTKiL9ni/u/qaPs8X939T/AJ71LRUFkfkRZzt/U0n2eLGNn6mpaKAI/Iiznb+ppPs8X939T/ntUtFAEX2eL+7+ppfIiznb79TUlFAEX2eL+7+ppfs8X939T/nvUlFAEfkRZ+7+p/z2pPs8WMbP1NS0UAR+RFnO39TSfZ4v7v6n/PapaKAIvs8X939T/nvS+RFnO39TUlFAEX2eL+7+ppfs8X939T/nvUlFAEfkRf3f1P8AntSfZ4sY2fqalooAj8iLOdv6mk+zxf3f1P8AntUtFAEX2eL+7+p/z3pfIiznb+pqSigCL7PF/d/U0v2eL+7+p/z3qSigCPyIv7v6n/Pak+zxf3P1NS0UAR+RFnO39TSfZ4v7v6n/AD2qWigCL7PF/d/U/wCe9L5EWc7f1NSUUARfZ4v7n6ml8iL+7+p/z3qSigCP7PF/d/U/57Un2eL+7+pqWigCPyIs52/qaT7PF/d/U/57VLRQBF9ni/u/qf8APel8iLOdv6mpKKAIvs8WMbP1NL5EX939T/nvUlFAEf2eL+7+p/z2pPs8X939TUtFAEfkRZzt/U0n2eL+7+p/z2qWigCL7PF/d/U/570vkRZzt/U1JRQBF9nixjZ+ppfIiz939T/nvUlFAEf2eL+7+p/z2pPs8X939TUtFAEfkRZzt9+ppPs8X939TUtFAEX2eL+7+p/z3pfIiznb+pqSigCL7PFjGz9TS+RFnO39TUlFAEX2eL+7+p/z2o+zxf3f1NS0UAR+RFnO336mk+zxf3f1NS0UAR/Z4v7v6n/PejyIs/d/U/57VJRQBF9nixjZ+ppfIiznb+pqSigCL7PF/d/U/wCe1H2eL+7+p/z3qWigCPyIs52/qaT7PF/d/U1LRQBH9ni/u/qf896PIi/u/qf89qkooAi+zxYxs/U0vkRZzt/U1JRQBF9ni/u/qf8APaj7PF/d/U/571LRQBH5EWc7f1NJ9ni/u/qalooAj+zxf3f1P+e9HkRf3f1P+e1SUUARfZ4v7n6ml8iLOdv6mpKKAIvs8X939T/ntR9ni/u/qf8APepaKAI/Iiznb+ppPs8X9z9TUtFAEfkRf3f1P+e9H2eL+7+p/wA9qkooAi+zxf3f1NL5EWc7f1NSUUARfZ4v7v6n/Paj7PF/d/U/571LRQBH5EWc7f1NJ9nixjZ+pqWigCPyIv7v6n/Pej7PF/d/U/57VJRQBF9ni/u/qaXyIs52/qakooAi+zxf3f1P+e1H2eL+7+p/z3qWigCPyIs52/qaT7PFjGz9TUtFAEfkRZ+7+p/z3o+zxf3f1P8AntUlFAEX2eL+7+ppfIiznb79TUlFAEX2eL+7+po+zxf3f1P+e9S0UAR+RFnO39TSfZ4sY2fqalooAj8iLOdv6mk+zxf3f1P+e1S0UARfZ4v7v6ml8iLOdvv1NSUUARfZ4v7v6ml+zxf3f1P+e9SUUAR+RFn7v6n/AD2pPs8WMbP1NS0UAR+RFnO39TSfZ4v7v6n/AD2qWigCL7PF/d/U/wCe9L5EWc7f1NSUUARfZ4v7v6ml+zxf3f1P+e9SUUAR+RF/d/U/57Un2eLGNn6mpaKAI/Iiznb+ppPs8X939T/ntUtFAEX2eL+7+p/z3pfIiznb+pqSigCL7PF/d/U0v2eL+7+p/wA96kooAj8iL+7+p/z2pPs8X9z9TUtFACRQosoYLg896s1Cn3xU1aQ2IlucZe+Bbo+MpvEOjeIrrSTeqiahbxQJItwEGFILZCNjjOD+prmvBHhqTWfBPhfU9P1IWV/pN5ftDK8XnoyyTyq6su4E5GOc16pPBDcwSQXESSwyKVeORQysD1BB4Iqtpuj6Xo0TxaXptnYxudzJawLEGPqQoGaok5Y/DqG6tfElrqWqT3cGuSJK+IljeGRVUBlI7goCOAPrVjSvCeuWtpcR6p4vu9SnFu8NnK1ssX2csuPMIU5dx/eJ9fUmrnjXxHd+E/DVzrVvp0V9HajdNG9yYW25AyvyNk89DiodZ8Sato/gmTxBJpFpJNBCbie1W/YBUAz8r+V8zY7bQPegB9l4Yuzr1jrWs6hbXl9ZWz28UltZ/Z94fG4vl23fd4AwBluOeMW5+HN5L8OT4Mh16KO1DKqTtY7mWNZPMAx5gy2cAt0wOgJzW/peoa/qtvot+bLTrWzuY2lvIjcPLIiMgMextijOT82RjHQmqOn+JtVvNa8Xac9rZh9G8n7Phmw/mRGT5z9MdAO9AE934VupdesvENtqUNvrUNsbS4k+yloLmIndgx7wRhuQQ/HfNUNZ8AS6l4Z1HSrfVY7e61S7W6vrx7XzC7BlICqHXaBsUDJPA7k5rZ8Ga3ceJPB2l6xdRxRz3cPmOkQIUHJ4GSTW7QByc/hbVrnxlpviGXWbMGztmtmgSwYeYHwXIYynacjjg496LLwlfvf6Le67q8Go3GkB/ImisjBJIzIUJkYyNngk4AGTg9q6yigCK5uYLO3e4up44IIxl5ZXCqo9STwKpRanY3UazW93DNE/KSRuGVhnqCODWlWPN/r5P94/zrGtLlSNaUeZln7Zb/8APVaX7Xb/APPVf8//AKqpUqffX61h7V9jb2Rd+0w5++KT7VDj/WD8qbRWnMRyj/tMI/jFJ9qh/wCeg/z/APrph6UlHOHKSfaoP+egpftMOceYKipDS5w5CX7VB/z0FH2qH/noP8//AKqioo5x8hL9rgzjzVzSfbLfH+tWqr/fNNqPavsV7Mu/a7fOPNWk+223/PZf8/8A66p1BSdZroNUU+pp/bbb/nstAvLcnAmXNZlPi/1gpKu29huiu5o/a4P+eoo+1wf89B/n/wDVVaitPaEezJ2vrVMbp0XPTJx/nrTf7Ssv+fqL/vqsjVv+WP8AwL+lZlctTGOEnGx008IpxUrnVf2lZf8AP1F/31UbazpqNta/t1PoZADXM1zuqf8AIRl/D+QrCpmMoK/KdNHLY1JW5j0f+29L/wCghbf9/BR/bel/9BC2/wC/oryyisf7Wl/KdH9jQ/mZ6x/aVl/z9Rf99Uf2lZf8/UX/AH1XK0V1fXpdji+ox7nVf2lZf8/UX/fVJ/adj/z9xf8AfVcq/wB01FSePl/KNYCP8x1/9p2P/P3D/wB9Cj+07H/n6i/76rkKcvWl9fl/KH1CP8x139pWX/P1F/31R/aVln/j6i/76rk6Kf1+X8ovqMe51LavpyHDXsAOM8uKP7Y03/n/ALf/AL+CuD1H/j4X/cH8zVOsZZpJO3KdMMqjJX5j0f8AtjTf+f8At/8Av4KcNVsCMi8hx1++K82rUi/1Kf7opxzOT+yKeVxj9o7b+1LDOPtcP/fYo/tSw/5+4f8AvoVxlKv3x9av+0ZfymX9nR/mOz/tKy/5+ov++qP7Ssv+fqL/AL6rlaKv69LsZ/UY9zqH1bT413PeQqPUuBTP7b0v/oIW3/f0VxOtf8eaf9dB/I1hVhPNJRduU6qWVRnG/Mep/wBt6X/0ELb/AL+imP4h0aM4fVLNTjODMo/rXl9Yes/8fif9cx/M1KzWT+yarJYN/Gz2r/hJND/6C9j/AN/1/wAaP+Ek0P8A6C9j/wB/1/xrwSiq/tSX8pf9hw/nf3Hvn/CR6J/0FrL/AL/r/jR/wkWi/wDQWsv+/wCv+NeEr90fSlqf7Vl/KP8AsOH87+491/4SPRf+gtZf9/1/xpP+El0P/oL2P/f9f8a8LqpVLNJP7JLySC+2/uPf/wDhJdD/AOgvY/8Af9f8aP8AhJdD/wCgvY/9/wBf8a8ApG+7T/tOX8ov7Fh/Oz3/AP4SXQv+gxY/+BC/40f8JNoX/QYsf+/6/wCNfPtFP+0pfyi/saH87PoaPX9Hlz5ep2j467ZlOP19qf8A2zpn/P8A2/8A38FeK+Gf+Xr/AIB/WugqHmkk/hJeTwT+JnpX9taZ/wA/9v8A9/BU8d5byoHjmV0PRl5B7dfwNeXV6B4b/wCQBa/8D/8AQzXThMa683Fq2hyYzARw9NTTvrY0/tEX9/8AQ/570faIv7/6GnUV6B5pH9tts485PzpPt1t/z2T86y6K5frL7HR7BdzSl1KygjMkt1FGg6szYA/Gq/8AwkOjf9BWz/7/AC/41znir/kWrv8A4B/6Gtea1y18xlSlyqJ6GEyuNeDk5W1Pbf8AhIdG/wCgpZ/9/l/xpG8R6Iv3tWsh9Z1/xrxOqWof8s/x/pWUc1k3blOl5JBL439x7v8A8JNoX/QYsf8AwIX/ABo/4SbQv+gxY/8AgQv+NfPdFX/aUv5SP7Gh/Mz6EPifQQcHWbAf9vC/40n/AAlGgf8AQasP/Ahf8a+dpvvj6VHVrMJP7JDymCfxH0b/AMJRoH/QasP/AAIX/Gl/4SfQf+gzYf8AgQv+NfONTL90fSh5hJfZGsog/tH0R/wk+g/9Bmw/8CF/xo/4SbQs/wDIZsP/AAIX/GvnilT76/Wl/aMv5Sv7Hh/Mz6H/AOEk0P8A6C9j/wB/1/xo/wCEk0P/AKC9j/3/AF/xrwKis/7Ul/KX/YkP539x9BW+t6XdSGO31C2mcDJWOUMcZxnj6irH2y3/AOey15H8Ov8AkYLj/r1b/wBDSvTa7KOKdSPM0ebisGqNTkTuX/tlv/z1X/P/AOqmtqFmhw1zGp9C2KpVkar/AMfS/wC4P5mnVxLhG9jKlhlOVrnRf2pY/wDP3F/31R/adjn/AI+4f++hXH0Vz/2hL+U6f7Pj/MdadZ00HBv7cH/roKP7Z0z/AJ/7f/v4K84n/wCPiT/fP86jrH+1ZfynSsog18R6X/bOmf8AP/bf9/BTf7c0r/oI2v8A39FeaP8Acb6GqlJ5tL+UpZNB/aZ6v/bmlf8AQRtf+/ooXWtLY4XULYk9hIK8oqez/wCPtPx/lSWbSb+EHk0Er8zPU/7W0/8A5/YP++xR/a2n5/4/YP8AvsVwVFa/2lL+Ux/suP8AMd0+t6VFjzNRtkz03SgZ/wA5pn/CQ6N/0FbP/v8AL/jXlviH/l2/4F/SsSs3msk7cp0QyWEo352e2/8ACQ6N/wBBWz/7/L/jTT4k0QHB1ayB/wCu6/414pVG4/17fh/KhZrJ/ZKeSQ/nf3HvP/CSaH/0F7H/AL/r/jR/wkmh/wDQXsf+/wCv+NeBUVX9qS/lF/YkP52fQ/8Aadj/AM/UX/fVH9pWWcfaov8AvquTorb6/L+U8/6jHudX/adiBn7VF/31R/alh/z9w/8AfYrkpPuGoKTzCS+yUsvi/tHaf2pYZ/4+4f8AvsUDU7E9LqI/Rq4urNr/AB/hRHMJN25Qll8Ur8x1v9o2f/PzH/31R/aNn/z8x/8AfX+fWuaorT66+xn9TXc6T+0rIf8AL1F/31R/aVlnH2qL/vquUk++abU/X5fylrAx7nWf2nY/8/UX/fVO/tCzxn7TH/31/n0rkatp9xfoKcca30Jlgkup0f8AaFp/z8R/99Uh1GzAybmMDGfvVz9Rz/8AHvJ/un+VU8Y+xKwib3Oi/tXT/wDn8g/77FH9raf/AM/kH/fYrhKK5/7Sl/KdP9mR/mO6Osacoy19AB7uKT+2tL/6CFt/38Fee3v+pH+9VGoeaST+E1jlEJK/Men/ANtaX/0ELb/v4Kmi1C0nQvDcRyKDglDkZ/CvKq7bwf8A8gmX/ruf/QVrfDY+VapyONjDF5dGhT51K50f2mH++KT7VD/z0H5U2ivQ5jy+Ud9qhBx5go+1Qf8APQf5/wD11EeppKXOVyE32uDGfMH+f/1Un2y3zjzVqFvuH6VWqZVbdClTuX/tlv8A89Vpftdv/wA9V/z/APqrPqSH75+lJVm3sDpJLcufaof+eg/z/wDro+1wYz5gqGir5yeQmN3ADgyqKT7Zb/8APVf8/wD66rS9qiqHVaexSpXRe+2W/wDz1X/P/wCqkN9ag4M6A/WqVVZv9a1RLENLYuNBN7mt9vtP+e6fnS/b7X/nun5/59KxKKj62+xf1Zdza/tC0/5+I/8Avqj+0bP/AJ+Y/wA652ip+uPsX9UXc6aC8tpZ1jjmRnOcAGrtczpP/ITh/wCBf+gmumrtw1X2kLs4sRT9nKyCiiiugwOL+LX/ACSvxB/17j/0Naz/ABnpd5H8LNXlfX9RlQaW5MTx24Vhs6HEQOPoc+9dhr3h3TPE2nmw1aGWa0Y5aJLiSJX7/NsYbhkDg5qvd+EtHvvD66Fcx3cunKNvlNfT5Zf7rNv3MvsSRQBxnlhfFvwtkVnBksLgMN52nFquOOnc/nV/RP8AkffiT/25/wDpKK24/AXh6O50y4WC983S1K2TNqVyfIU8ELmToRwR3AA6cVLF4K0OG81O7jhvFn1Ndt441C4zKOg/j4wOBjGBwMCgDgvD32K4+H3w/wBPufNuJ59zQacCBFdFEcnzSeNi5Dd+QMAms3UYWX4SfEG1lRY0sdXmS3hic7IFxC2xOnygu3GAOelekp8P/DMel2WnLYS/ZrGUzWoN3MWgYjB2Pv3KD/dBx7Uk/wAPPC1xZ3tm2llLa+lEtzFFcyxrIwAHIVhxwMgcEgEjIFAHP+O/h3pM3hy61HTNKhl1a0mTUU83Mn2h48FkbOc71XBHc4JzWp4dl0rxd4gTxZa28LxW1nHbWs5Qbwzr5kgz7BkX2JkHc1qalqX/AAi1lYWllo2r6oshMMYtszGPAyDI8jZAPTcScVZ8M6LH4f8AD1ppyRxI0alpREMJ5jEs+B6bice2KAJ9V0+51CKNLbV7zTWU5L2qxMX9j5iOPyxVCKCS2jEMt1LdSISGnmCh3Oep2gLn6AVs3NwlrbvPIsjIgyRFE0jH6KoJP4CsZblbr99HHOEckgSQtG3XurAEfiK58QrpG9B6sfSp99frTNx/uP8AlShyCDsfg+lcyTOi6LlFQ/aR/wA85P8Avmk+0j/nlL/3zWtzKxMelJUL3aqOY5Ov92mfbU/55y/980nJDSZZpDVb7cn/ADyl/wC+aetwH5EcnXH3aV0x2aJqKi87/pnJ/wB80vnf9M5P++aYhr/fNNpSSzZCPz7U35v7j/lWbi7lqSFqCp/mz9xvyrE/t62/55T/APfI/wAayqSULcxtSi535Vc1KfF/rBWR/b1t/wA8p/8Avkf41JBrdu86qIp8n/ZH+NZxqwvuaSo1LbG3RVH+1Iv+eU3/AHyP8aP7Ui/55Tf98j/Guj2ke5z+zl2I9W/5Y/8AAv6VmVeu5xebPLRxtzncPXFVfJk/un8q4a0XKbaO2jJRgkyOud1T/kIy/h/IV03kSf3T+VZV5ot1c3TyoUCtjAOc9B7Vy1qU5RskdmHrQjK7ZhUVrf8ACPXvrH+Z/wAKP+Eevc/ei/M/4Vz/AFer2O361R/mNiisb/hJbP8A55XH/fI/xo/4SWz/AOeVx/3yP8a6OePc4/Y1OxsP901FWcniC1ncRrHPub1Uf41N/aEX9yT8h/jQ5J9Q9nJbot05etUv7Qi/uSfkP8ain1q3tEEkkcxBOOFH+NLmQckn0NSisP8A4Sqx/wCeVx/3yv8AjR/wlVj/AM8rj/vlf8afNHuP2NTsWdR/4+F/3B/M1TqObV7e9cSRpKFA2/MB/j71H9rj/uv+Vc09ZM66aaikyxWpF/qU/wB0Vh/bI/7r/lTT4t0+A+U0VxuT5ThV6jj+9VU1qTVTa0OhpV++PrXOf8Jlp3/PK5/75X/4qnJ4x04yKPKueSP4V/8Aiq1sYckux1VFYX/CV2H/ADyuP++V/wAaP+ErsP8Anlcf98r/AI1fPHuZ+xqdi5rX/Hmn/XQfyNYVO1fxTYvaIBHcD94Oqr6H3rF/4SSy/uTfkP8AGuepCUpXidlD3IWlobFYes/8fif9cx/M1J/wkll/cm/If41ctdHufFERvbFo1ijPlESkg7gM9gfUUo0Zt7G3tqcNZM56iuo/4QPVs/621/76f/4mj/hA9W/562v/AH0//wATWnsKnYPrlD+ZHOr90fSlq3Np01tPJA7IXjYo2CcZBx6VH9kk9VrBqx0KcWrogqpWl9kk9VrK8xfWqhFsmU0PpG+7SeYvrSF1Ixmr5WRzxEopNw9aNw9RVcrFzI6Dwz/y9f8AAP610Fc54clVPtOcnOzp+Nbv2hf7rflWMk7kt3ZNXoHhv/kAWv8AwP8A9DNec/aF/ut+VdloeuW1to1vE8U5Zd2SqjH3j713ZdOMKrcnbT/I83M4SnRSiuv6M6misf8A4SO0/wCeNx/3yP8AGj/hI7T/AJ43H/fI/wAa9n6xS/mPC+r1f5RKK5H/AIWLo/8Az73v/fCf/FUf8LF0f/n3vf8AvhP/AIqvP9pHueh9Xq/ymr4q/wCRau/+Af8Aoa15rXTaz430zU9Jns4YbpZJNuC6qBwwPZvauS+1R+9cGL96aa7HsZfF06TUtNf8ieqWof8ALP8AH+lT/ao/eq9ywn2beMZ61zxi0ztlJNFOipPKb1WjyW9V/OtTMqzffH0qOum0nwXqWv2rXVpLbLGr+WfMZgc4B7KfUVe/4Vhrn/Pey/77f/4iumFGbimkcdTE0oyactTi6mX7o+ldf/wrDXP+e9l/32//AMRXP3Gkz2lzLbSPGXhcxttJxkHB7e1TUhKC95WNKNaFRtQdyjSp99frVj7DJ/eT8zR9jkX5iyYHPWsbo3SHUUfiKPxFZ2ZrzI674df8jBcf9erf+hpXpteTeDNSh0vWJp5ldla3KAIATncp7keldz/wmGn/APPG6/75X/4qvQw1WEIWkzxMfRqVK3NFXR0FZGq/8fS/7g/marf8Jhp//PG6/wC+V/8AiqUXaax/pFsjqi/IQ4wc9e2fWtKtSFSPLF3ZzU6U6cuaasiGipvssvp+hpfssvp/Oub2c+x0e1h3Oen/AOPiT/fP86jqrearBDfXETJJuSRlPA6gn3qD+2bb+5L+Q/xriadz1YrRF9/uN9DVSmDVoJSI1WTLfKMgd/xqTafSoaZadtxKns/+PtPx/lUO0+lOSZbVxNIGKr1A6+n9aEncUmmmjaorL/t21/55zfkP8aP7dtf+ec35D/Gt7nPyS7EHiH/l2/4F/SsSty4B1zb9lBXyc7vM469MYz6VB/wj95/ei/M/4VnKDbujop1IQjyyeplVRuP9e34fyro/+EfvP70X5n/Cs270e5S5dS0eRjufT6UKLW5p7WEtEzKoq9/ZM/8Aej/M/wCFH9kz/wB6P8z/AIUw5kem0VW+2x/3JPyo+2x/3JPyrqujxuVk8n3DUFRXGoxRQM7JJgY6Af41R/ty2/55zfkP8aiUlc1hCTWiNOrNr/H+FYf9uW3/ADzm/If41ZtNctjv/dzdv4R/jRCUb7hOnPl2Nuis3+27b/nnN/3yP8aP7btv+ec3/fI/xrbnj3MPZT7FuT75ptUm1eBmJEcv5D/Gm/2tB/zzl/If41DnHuaKnK2xfq2n3F+grF/taD/nnL+Q/wAa04rpWhRgkmCoPSrpyTM6sWlqizUc/wDx7yf7p/lTftK/3H/Kori6UW0pKSYCE9PatG9DKK1Rm0VT/tKH+5J+Q/xo/tKH+5J+Q/xrguj0uV9h97/qR/vVRq2JBqH7qFWDD5vmHb8PrTv7Mnz1X9f8KlwlLVI0jUjFWkylXbeD/wDkEy/9dz/6Ctcr/Zk/+z+v+FdHoN0ul2LwTpIzNKXBQZGMAd8eldeCThV5paI48wmqlHlhqzp6KzP7ct/+eU//AHyP8aP7ct/+eM//AHyP8a9n21PueF7Gp2NA9TSVSGpxNyIpsH/ZH+NL/aUf/PKb/vkf41PPHuVyS7FtvuH6VWqKTVIlidjFNgKSflHp9azv+Ehtf+eVx/3yP8azqVYJ6s1p0pyWiNapIfvn6Vi/8JDa/wDPG4/75H+NW9O1aG8uGjiim3BS3Kj1+tTCrBySTHOjUjFto1aKbuP9x/ypN5x/q3/75rrszluhJe1RU6ZyCPkf8qi3n+4/5VjJO5pF6D6qzf61qn3n+4/5Vi3+t29reyQyRTblxnCjHQe9YVmoxuzehFzlaJforH/4SO0/55XH/fI/xpf+EjtP+eVx/wB8j/Gub2sO51ewqdi/RUfmj+4/5UecP7j/AJUxGjpP/ITh/wCBf+gmumrltIk3arCNrD73JHsa6mvUwP8ADfr/AJHmY3+IvQKKKK7TjOX1DxNcS+K18MaJFDJfxwC5u7i4yYrWMnC5UEF3PZcjjnNTTzeJ7fUbK0Y6fNbXJkWS9igdDAwRioMZdsgkfe3e2OQa5fSv+Kd+NniD+0mEUWv28ElhPIcLI0S7WjB6bu+PQCvQ5LuGK4jgZx5rgsFHUKOrH0HbPqRQBxPhrXdT174WaTq13r1vpuoXTBnvJYY9pxMRsCnC8qNo79+tdhPrOl2s8kFxqVnDNFH5skck6qyJkDcQTwMkDPvXjEKQN+zp4cldYy0d5BscgZU/a+cHtxmu8dIn+OUJZUaRPDrMuQMr/pAGR+BP5mgDY1zxlouh6Ra6lNe28sF3KkVs0coKylmAyGHG0ZyT0AFaU+t6TbWUd7canZRWkv8Aq55LhFR/oxODXkELKPhw6KR5UPjAKoHRF+2A49hz+tdlbXh/4XReW98Rsk0lBppY/KQHPnBf9rO3I64UelAHXy6rp0FrFdTahax282BHK8yhHz0wScHNLa6pp99PNBaX1rcTQECWOKZXaPPTcAcj8a8b1C1+y+APFMAC/wBkf8JNGLFD9wJ9oi3hO2zdvGBxw1drLsh+OFkibU3eHpFKjjIE64H4c/rQB3VZkv8Arn/3jUmq6PbaxFHHcy3kaxncDa3ktuT9TGyk/Q1UhtY7KIW0TStHHlVM0rSuRnuzEsT7k1jW2RrS3ZJRRRXOdAlFFFSBHN9wfWoKnm+4PrUFZT3NYbBVm3/1Z+tVqs2/+rP1p09wnsS0UUVuYjh0paQdKWmSFee16FXntebmP2fn+h6uWfa+X6hViy/4+4/x/kar1Ysv+PuP8f5GvOh8SPSn8LNeiiiu084mg/iqWooP4qlrSOxlLcKcOlNpw6VRIUUUUCPKKKKK8E+sLNh/x+x/j/I1s1jWH/H7H+P8jWzVx2MKm4Vna1/x5p/10H8jWjWdrX/Hmn/XQfyNMmHxIwqKKKR0mhYf6hv97+gq1VWw/wBQ3+9/QVaqSHuFclef8ftx/wBdG/nXW1yV5/x+3H/XRv51rS3IkQ0+H/Xx/wC8P50ynw/6+P8A3h/OtnsJbmtRRRXMblHVf+PVf98fyNZFa+q/8eq/74/kayK66PwnLW+IK9Y+GP8AyLVz/wBfjf8AoCV5PXrHwx/5Fq5/6/G/9ASuqj8RwYz+EdpRRRXUeSeY6r/yF73/AK7yf+hGqlW9V/5C97/13k/9CNVK+fn8TPq6fwL0CuWrqa5ataPUVQKKKK3MwooooA3PDv8Ay8/8B/rW5WH4d/5ef+A/1rcrlqfEy1sFb2nf8eEX4/zNYNb2nf8AHhF+P8zVUfiMMT8BaoooroOM8hooopHojk++KmqFPvipqiW5pHYKUUlKKkoWiiikM9T+Gv8AyLlx/wBfbf8AoCV2Vcb8Nf8AkXLj/r7b/wBASuyr38N/BifJY7/eJ+oV4trn/If1L/r6l/8AQzXtNeLa5/yH9S/6+pf/AEM1yZl8ETuyb45ehQpr/wCrb6GnU1/9W30NeQfQFKiiitCC/pH/AB9v/uH+YrarF0j/AI+3/wBw/wAxW1WU9xBXXeFv+QZJ/wBdj/6CtcjXXeFv+QZJ/wBdj/6CtbYT+IceO/gm3RRRXqniHk2sf8hu/wD+vmT/ANCNUqu6x/yG7/8A6+ZP/QjVKvGl8TPqqfwL0Jbb/j6h/wB9f510Vc7bf8fUP++v866KpJqBUF7/AMej/h/Op6gvf+PR/wAP50ELcyKKKKRsb/hr/l6/4B/Wt6sHw1/y9f8AAP61vV0Q+E86v/EYVg6j/wAf8v4fyFb1YOo/8f8AL+H8hU1dh4f4irRRRWB2HQUUUV0nCVdR/wCPCX8P5isGt7Uf+PCX8P5isGsam51UPhCrdl/H+FVKt2X8f4VCNZbFqiiiqMhaKKKBBXRW3/HrD/uL/Kudrorb/j1h/wBxf5VvQ3Zy4rZEtQ3n/HlP/wBc2/lU1Q3n/HlP/wBc2/lXRLY5I/Ejk6KKK849k0tE/wCP1/8Armf5it6sHRP+P1/+uZ/mK3q7KPwnnYn+IFKOlJSjpWpzi0UUUxF6P/Vr9BTqbH/q1+gp1dC2OV7kVz/x6Tf7jfyrm66S5/49Jv8Acb+Vc3XJid0d2E+FhW14Y/5CUn/XE/zWsWtrwx/yEpP+uJ/mtLC/xol4v+DI6yiiivoT5win/hqGpp/4ahrGe5rHYK4XxD/yHLn/AID/AOgiu6rhfEP/ACHLn/gP/oIrz8w/hL1/zPSyz+M/T9UZlFFFeQe4djRRRXpniF7SP+QpD/wL/wBBNdRXL6R/yFIf+Bf+gmuor18B/Dfr/keVjv4i9AooortOMr3thZ6lbG3vrSC6gJyYp4w6n8DxUMWi6VDZS2UWmWUdpMNskCQKEcehXGDV6igDFPg/wwbMWZ8OaQbVXMgh+wx7AxGN23bjOO9Sf8It4e+1C6/sHS/tAQRiX7HHvChdoXOM428Y9OK1qKAMqDwx4ftbO4s7fQ9MhtbnHnwx2kapLjpuUDDY96sXWj6XfW8Vvd6bZ3EEOPKimgV1THA2gjA/CrtFAGfe6Do+pWkNrf6TY3VtD/qoZ7ZHSPjHygjA49KjTw1oMV9FfR6JpqXkQVY7hbSMSIFGAA2MjA4HtVLxTbalPJoTaddTwJDqkct2YmIDQBH3K3+yTt68UumeK4tVubFYdM1BLS/iaW1vXWPyZFAyOjllJHIDKO/pQBt3LTrbu1rFHLOB8iSyFFJ92CsR+RqhFFdyIHuUgimPLpFIXVTnsxUE/kKl1TW9K0SOOTVdTs7FJDtRrqdYwx9AWIzTra7tr+3S6s7iK4t5RujlicMrj1BHBqJpMuDsRfZ5PVP1/wA+tH2eT1X/AD/kVaorLlRpzMq/Z5M9Vo+zyY6p+tWqKOVdg5mU3tHcYJXGfWm/YG/vD8/8+9XqKThF9Bqcl1KP2Bv7w/P/AD7U9LV0GAVxnvVuihQitkDnJ9St5Evqn60eRJ6p+v8An0qzRVcqJuyuIpR3TH4/59aPKmx1T9asUUWQXZX8qXPVMfjWN/wisH/PWT/vof4fWuhorOdGnP4lc0p1qlP4HY57/hFYP+esn/fQ/wAPpT4vDMMModZZCR6sP8K3qKhYWivslvF1npzMyv7GH98/n/8AWo/sZf75/P8A+t9K1aKv2FPsR7ep3MxNKCZw/X3/APrfWnf2acfeH5//AFq0aKfsafYXtZ9zO/s3n73H1/8ArUv9mnH3h+f/ANb61oUUeyh2D2s+5n/2cf7w/P8A+t9KP7OOfvcfX/61aFFHsodg9rPucd/wr2w/5+Ln/vtf/iaP+Fe2H/Pxc/8Afa//ABP0rsaKx+pYf+RHR9fxP87OSh8BWMMqyLcXBI9XX/4n61Z/4RC3/wCe0v8A30P/AImukop/U6H8qE8diHvNnN/8IhbZ/wBdLj/eH/xNQXXgazu4hHJPOADn5XHX/vn611dFH1Oh/KhLG4hfbZxX/CttO/5+br/v4v8A8T9KP+Fbabn/AI+bvH/XRf8A4mu1oo+p0P5UV9fxP87OQi8AWMKFVuLg555dfT/dqT/hBbL/AJ73H/fY/wDifpXV0UvqdD+RC+v4n+dnKf8ACC2X/Pe4/wC+x/8AE/Ws2T4WaVLK8jXV5ucljiRcZP8AwCu9oprCUFtFB9exH87OB/4VRpOf+Pu9x/10T/4ihfhVpSsrC7vcg5/1i/8AxH1rvqKr6rR/lD69iP52cV/wrbTv+fm6/wC/i/8AxP0o/wCFbabn/j5u8f8AXRf/AImu1oqfqdD+VD/tDE/zs4S4+F+l3MYR7q8ABzxIvXH+5Vf/AIVFo3/P5f8A/f1P/iPpXodFUsNRWiiS8biHq5s88/4VFo3/AD+X/wD39T/4j610GheE7fw9YvaWk0ro8hlJlYE5IA7AccD9a6OiqVCmtUiJYmtJWlIo/YDn7wx9f/rUn2Bv7w/P/wCt9av0VXs4djP2ku5ydx4Esrm4lnee4DyOXIDjGSSf7v0qP/hX1hn/AI+LnH++v/xNdhRWLwdB/ZR0LHYlKymzj/8AhX1jj/j4uf8Avtf/AImqH/Cp9Iz/AMfd9/38T/4j6V39FNYSgtooHjsQ95s4D/hU+kf8/d7/AN/E/wDiPrSf8Kn0n/n7vf8Av4n/AMRXoFFP6tR/lF9dxH87OA/4VPpGf+Pu+x/10T/4ik/4VPpP/P3e/wDfxP8A4j616BRR9Wo/yh9dxH87OKs/hvp1j5nlXN0d+M7pF7Z/2ferf/CD2ef9fP8A99j/AOJrqqKl4Og9XFD+vYj+dnKf8IPZ4/18/wD32P8A4mrkPheCCJY0lkKrnGWGep9q36KFhKC2ihSxleWjkzE/4R2L/no//fQ/w+tJ/wAI7H/z0f8A76H+H0rcoqvq1H+Uj6zW/mOB/wCFUaTn/j7vcf8AXRP/AIik/wCFUaT/AM/d7/38T/4iu/oo+rUf5TT69iP52cCPhVpIORd3v/fxPf8A2PpT/wDhVulZ/wCPq8/7+L/8R9a7uil9Vo/yoPr2J/nZwf8Awq3S8f8AH1ef9/F/+Ipf+FXaUD/x9XmP+ui//EV3dFH1Sj/Kh/X8T/OzhP8AhV2l/wDP1ef9/F/+I+tH/CrtL/5+rz/v4v8A8R9K7uij6pQ/lQfX8T/OzD0Pw5FoFm9rayO8bymQmVgTkgDsB2FafkS+qfrVmitYwjFWSOadSU5OUnqVvIk9U/X/AD6VzF18PrC8vJrmS4uQ80jSMFdcAk5OPl+tdhRUzo06mklculiKtJ3hKxxP/CtdOx/x83X/AH8X/wCJpG+GmmEEfabvB/6aL/8AE129FZ/U6H8qNvr+J/nZwf8Awq3Sv+fq8/7+L/8AEfWj/hVul/8AP1ef9/F/+I+ld5RT+qUf5UL6/if52cTbfDbTbWUulzdkkY5kXpn/AHas/wDCCWX/AD3uP++x/wDE11tFJ4Og/soPr2J/nZyf/CCWX/Pe4/77X/4n6Vo6f4di06BoYpHZS24l2BPYentW3RTjhaMXdRRM8XXmrSk2Z39mn+8Pz/8ArUf2bz97j6//AFq0aK09lDsZe1n3ONufh3p91dS3D3NyHlcuwV1xknJx8v1qL/hWmm/8/N3/AN/F/wDifpXb0Vl9Uofyo6Fj8StFNnFR/DbTY5VcXN3lWBGZF9f92rn/AAhNp/z3m/77H/xNdTRR9TofyoTx+Jf22cv/AMITaf8APef/AL7H/wAT9KZJ4FspYyjT3AB64ce3+z9a6uij6nQ/lQfXsR/Ozi/+Fc6f/wA/N1/32v8A8TR/wrnTs/8AHzdY/wB9f/ia7Sij6nQ/lQ/r+J/nZy9j4KtLDf5U8zb8Z3OD0/4D7mrf/CNxf89X/wC+h/h9K3aKawtFfZRDxddu7kzC/wCEbhz/AK18f7w/wqpP4KtZ5WkaeYM3o4x0/wB2uoooeEoveKBYyvHVSZyf/CCWX/Pe4/77X/4n6Uf8IJZf897j/vtf/ifrXWUVP1PD/wAiK+vYn+dnP/8ACLQ/89ZP++h/hR/wi0Gf9bJj/eH+FdBRVfVaP8pP1uv/ADM5ubwjbTwmNppQGxnDD2/2aqf8IBY/8/Fz/wB9r/8AE/SuvopPB0HvFFLHYhbTZyH/AAgFhn/j4ucf76//ABNSReBrOIHbPOc+rj/4muropfU8P/Ig+v4n+dnMf8IZaZ/103/fQ/8AifpR/wAIZa/89pv++h/8T9a6ein9TofyoX13Efzs5j/hDLXH+um/76H/AMTS/wDCGWmf9dNj/eH/AMTXTUUfU6H8qD67iP52cx/whlr/AM9pv++h/wDE/WrqeH4441RZGwowMt/9b6VtUU1haK2iiZYutLeTMf8AsJM/6xvz/wDrUyTw9HLE8bSNhlKnDeo+lbdFV9Xpfyk/WKv8xyn/AAg1ln/Xz/8AfY/+Jo/4Qaz/AOe8/wD32P8A4n611dFZ/U8P/IjX69if52c3a+ELa0kMkc0pYrt+Zhj/ANB+lW/7Bjz/AKxsfX/61bNFWsNRSsokSxVaTu5GN/YKf89G/P8A+tS/2En/AD0b8/8A630rYop/V6X8pP1ir/MY/wDYSZ/1jfn/APW+tH9hLj/WH8//AK1bFFH1el/KH1ir/MZg0oKAA/A46/8A1qX+y/8Ab/X/AOt9a0qKfsafYn2s+5lyaQJI3QvwwI4Psfb6VS/4RS3z/rZcf7w/wroaKmWGpS3iXHE1Y/DI53/hFIP+esn/AH0P8Kt2Ohpp87SwyMzFSuHORjOew9h+ta9FEcNSi7qOo5YqtJWctCDy5f8AY/X/AD60eXNj/ln+tT0VtZGF2VngkcjJXApv2WT1X/P+TVuilyp9B8zKn2WT1X/P+RWTeeFbe+u3uZZZQz4yFYY4AHp6CuhoqJ0ac1aSuXTr1KbvB2OX/wCEKtP+e83/AH2P/iaP+EKtP+e8/wD32P8A4n6V1FFZ/U6H8qNvr2I/nZk/2Kv98/n/APW+tH9ij++fz/8ArVrUVfsKfYx9vU7lGz0xbe7SUMTtz39j7VrVCn3xU1dFKEYq0UY1Jyk7yYUVROr2A1waL9oH9om2+1CHaf8AVbtu7OMdeMZzV6tDMKKhurqCxtZbq6lWKCJSzux4UVHpupWmr6bb6hYTCa0uEDxSBSNynvg4NAFqiiigAooooAZKxWF2CbyFJ2/3vavNfCllPZeIdMl8OQazY6LdJI+paTqNtLHFaHblTEZFGDvOCqkgjJ4xXptFACEA9QD9ahIwxA9adcxPPbvFHcSW7sMCWIKWT3G4EfmDVSG1eGJY5Lu4uHXrLIVDNz1IUAfkBUTKiWKKi8n/AKaSf99UeT/00k/76/z61BZLRUfk8/6yT/vqk8nj/Wyf99UAS0VH5PP+sk/76pPJ/wCmkn/fX+fSgCWiovJ/6aSf99Uvk858yT/vqgCSiovJ/wCmsn/fVL5P/TST/vr/AD60ASUVH5PP+sk/76pPJ4/1sn/fVAEtFR+Tz/rJP++qTyf+mkn/AH1/n0oAloqLyf8AppJ/31S+TznzJP8AvqgCSiovJ/6ayf8AfVL5P/TST/vqgCSio/J/6aSf99Unk8f62T/vqgCWio/J5/1kn/fVJ5P/AE0k/wC+qAJaKi8n/ppJ/wB9Uvk8/wCsk/76oAkoqLyf+msn/fVL5P8A00k/76oAkoqPyf8AppJ/31SeT/01k/76oAloqPyef9ZJ/wB9Unk/9NJP++qAJaKi8n/ppJ/31S+Tz/rJP++qAJKKi8n/AKayf99Uvk/9NJP++qAJKKj8n/ppJ/31SeT/ANNZP++qAJaKj8nn/WSf99Unk/8ATST/AL6oAloqLyf+mkn/AH1S+Tz/AKyT/vqgCSiovJ4/1sn/AH1S+T/00k/76oAkoqPyf+mkn/fVJ5P/AE1k/wC+qAJaKj8nnPmSf99Unk/9NJP++qAJaKi8n/ppJ/31/n1pfJ5/1kn/AH1QBJRUXk8f62T/AL6pfJ5/1kn/AH1QBJRUfk/9NJP++v8APpSeT/01k/76oAloqPyec+ZJ/wB9Unk/9NJP++qAJaKi8n/ppJ/31/n1pfJ5/wBZJ/31QBJRUXk8f62T/vql8nn/AFkn/fVAElFReT/00k/76/z6UeT/ANNJP++qAJaKj8nnPmSf99Unk/8ATWT/AL6oAloqPyf+mkn/AH1/n1o8nn/WSf8AfVAElFReTx/rZP8Avql8nn/WSf8AfVAElFReT/00k/76/wA+lHk/9NJP++qAJaKj8nnPmSf99Unk/wDTWT/vqgCWio/J/wCmkn/fVHk/9NJP++qAJKKi8nj/AFsn/fVL5PP+sk/76oAkoqLyf+mkn/fVHk/9NJP++qAJaKj8nn/WSf8AfVJ5P/TWT/vqgCWio/J/6aSf99UeT/00k/76oAkoqLyf+msn/fVL5PP+sk/76oAkoqLyf+mkn/fVHk/9NJP++qAJaKj8nn/WSf8AfVJ5P/TWT/vqgCWio/J/6aSf99UeT/00k/76oAkoqLyf+msn/fVL5PP+sk/76oAkoqLyf+mkn/fVHk/9NJP++qAJaKj8nn/WSf8AfVJ5PH+tk/76oAloqPyf+mkn/fVHk/8ATST/AL6oAkoqLyf+msn/AH1S+TznzJP++qAJKKi8n/ppJ/31R5P/AE0k/wC+v8+tAEtFR+Tz/rJP++qTyeP9bJ/31QBLRUfk8/6yT/vqjyf+mkn/AH1/n0oAkoqLyf8AprJ/31S+TznzJP8AvqgCSiovJ/6aSf8AfVHk/wDTST/vr/PrQBLRUfk8/wCsk/76pPJ4/wBbJ/31QBLRUfk8/wCsk/76pPJ/6aSf99f59KAJaKi8n/ppJ/31S+TznzJP++qAJKKi8n/prJ/31S+T/wBNJP8Avr/PrQBJRUfk8/6yT/vqk8nj/Wyf99UAS0VH5PP+sk/76pPJ/wCmkn/fX+fSgCWiovJ/6aSf99Uvk858yT/vqgCSiovJ/wCmsn/fVL5P/TST/vqgCSio/J/6aSf99Unk8f62T/vqgCWio/J5/wBZJ/31SeT/ANNJP++qAJaKi8n/AKaSf99Uvk8/6yT/AL6oAkoqLyf+msn/AH1S+T/00k/76oAkoqPyf+mkn/fVJ5P/AE1k/wC+qAJ0++KmqtFHtlB3uevBPFWa0hsRLc4vWvEutWvivUNHtI9PjWHRX1KCaZHlLMsgXawDLgYz0PcHtg1B4y1pvD3gnVwtgF1u5tre8iML5XzVLFo238Y24wQ3XrxzPe2f234tzQtkRSeGXhdh23T4/ofyrNt/BXilfD/hrSZrnSAuhX8E6OhkJnjjDAE8fK2CBjkd88YNEmxPr2qa4/iGHRRZLa6UzWsjXKM5uJwgZ0UhhsA3AbiG5J445w/Cuv3GmeBfAWk2SQi71aHyknnUtHEqRl2JAILEgYAyOvXitqz8Mazoer6+2lvYz6drMjXTJcSPG9vOy4cjCsHU4BxlSMY965y68P63b+HfCng+3k0ibV7JWuWSZpRGY4htEgkTbIhDSLjbyT7AigDabxlraaX4u3Wmni78ORuzTBnKXBEfmriP+EFevzkg+tSTeKNftpPC0jx6bJDrhWJo1R1aCRoi4YNuO5eDxtB9+9ZkWleKjoGueFp9L0GK61OzmZLq1u5yhZx5btKzqzl8MCCc52kZGKvXnhzxRPB4QVLfRw+iSJLPm9lxIVjMeF/c9wc5Pfj3oAnXxvc6ZN4tg1eKCZ9BWCVJLWNoxOsykou0liG3DbnJ6g4qSx8S65J4ms9PlsXuLK7ikJu00u5t1tJFGQHMvDq3IBG3kdOaoXHgfVdW1rxidS+wxabr9vDDG9vcO80JhUhGKmMA5J3Y3cYxz1rT8P2HjmDauv6jpN0loh8j7IJI3un2kKZmIIUc5IVTzg9sEAxF8ea9H4DXxXcQ6b5MF8be4t0jfdJH9p8ncrF/lbkHBDA47ZwNGGfWJPjDeWh1CE2UWlxTJA1uTtVpWDAEOPmOwfMQewxxWLJ4H8Vy/DC48KlNGFzLeGcT/bJdgU3Hn9PJznPy/Tn2rq4tE1VPHI8QYs1juNNjtLmLzWYxOkjPlDtG8EMRzt6Zx2oA2dV1C50+KN7bSLzUmY4KWrRKU9z5joPyzS2s8lzbJNLay2sjjLQTFS6ex2kr+RNXqrNIm8jeuc+tRMqItFN8yP8Avr+dHmJ/fX86gsdRTfMT++v50ebH/fX86AHUU3zE/vr+dHmJ/fX86AHUU3zI/wC+v50eYn99fzoAdRTfMj/vr+dHmJ/fX86AHUU3zE/vr+dHmx/31/OgB1FN8xP76/nR5if31/OgB1FN8yP++v50eYn99fzoAdRTfMj/AL6/nR5if31/OgB1FN8xP76/nR5sf99fzoAdRTfMT++v50eYn99fzoAdRTfMT++v50eYn99fzoAdRTfMj/vr+dHmJ/fX86AHUU3zE/vr+dHmR/31/OgB1FN8xP76/nR5if31/OgB1FN8xP76/nR5if31/OgB1FN8yP8Avr+dHmJ/fX86AHUU3zE/vr+dHmR/31/OgB1FN8xP76/nR5if31/OgB1FN8xP76/nR5if31/OgB1FN82P++v50eYn99fzoAdRTfMT++v50eZH/fX86AHUU3zE/vr+dHmR/wB9fzoAdRTfMT++v50eYn99fzoAdRTfNj/vr+dHmJ/fX86AHUU3zE/vr+dHmR/31/OgB1FN8xP76/nR5kf99fzoAdRTfMT++v50eYn99fzoAdRTfNj/AL6/nR5if31/OgB1FN8xP76/nR5kf99fzoAdRTfMT++v50eZH/fX86AHUU3zE/vr+dHmJ/fX86AHUU3zY/76/nR5if31/OgB1FN8xP76/nR5kf8AfX86AHUU3zE/vr+dHmR/31/OgB1FN8xP76/nR5if31/OgB1FN82P++v50eYn99fzoAdRTfMT++v50eYn99fzoAdRTfMT++v50eZH/fX86AHUU3zE/vr+dHmJ/fX86AHUU3zI/wC+v50eYn99fzoAdRTfMT++v50eYn99fzoAdRTfMT++v50eZH/fX86AHUU3zE/vr+dHmJ/fX86AHUU3zI/76/nR5if31/OgB1FN8xP76/nR5if31/OgB1FN8xP76/nR5sf99fzoAdRTfMT++v50eYn99fzoAdRTfMj/AL6/nR5if31/OgB1FN8yP++v50eYn99fzoAdRTfMT++v50ebH/fX86AHUU3zE/vr+dHmJ/fX86AHUU3zI/76/nR5if31/OgB1FN8yP8Avr+dHmJ/fX86AHUU3zE/vr+dHmx/31/OgB1FN8xP76/nR5if31/OgB1FN8yP++v50eYn99fzoAdRTfMj/vr+dHmJ/fX86AHUU3zE/vr+dHmx/wB9fzoAdRTfMT++v50eYn99fzoAdRTfMj/vr+dHmJ/fX86AHUU3zI/76/nR5if31/OgB1FN8xP76/nR5sf99fzoAdRTfMT++v50eYn99fzoAdRTfMT++v50eYn99fzoAdRTfMj/AL6/nR5if31/OgB1FN8xP76/nR5kf99fzoAkT74qaq8bqZAAwJ9M1YrSGxEtzM0bw9pfh+DydNt2iTaEBeV5WCDJVQzkkKNxwucDJx1rTooqiQrN1TQdN1iWCa8gYz25PkzxSvDLHnqFdCGAPcZwa0qKAK9pZQWUZWEOSfvPJI0jt6ZZiSfxNWKKKACiikIyCM49xQBS027vro3gvdONkIrl4oCZlk8+IY2ycfdzz8p5GKvV43JqWrf8I5q7f21qPn2/jIWUc/nkMIfNjXZ6YwTxjHJ45NdfYz3Fh8WrjR47u6ksJ9FW9MU87yhZRMUyu4naCDyBxx0oA7C5toLy3e3uoI54JBh4pUDKw9CDwarQ2VraRLb21tDDDHwkccYVVHoAOBSarDq00UY0m9s7WQH52urVpww9AFkTH5mltVuktkW9mimuQP3kkMZjRj6hSzEfmaiZUSTy4/7i/lR5af3F/KnUVBY3y0/uL+VHlR/3F/KnUUAN8tP7i/lR5af3F/KnUUAN8uP+4v5UeWn9xfyp1FADfLj/ALi/lR5af3F/KnUUAN8tP7i/lR5Uf9xfyp1FADfLT+4v5UeWn9xfyp1FADfLj/uL+VHlp/cX8qdRQA3y4/7i/lR5af3F/KnUUAN8tP7i/lR5Uf8AcX8qdRQA3y0/uL+VHlp/cX8qdRQA3y0/uL+VHlp/cX8qdRQA3y4/7i/lR5af3F/KnUUAN8tP7i/lR5cf9xfyp1FADfLT+4v5UeWn9xfyp1FADfLT+4v5UeWn9xfyp1FADfLj/uL+VHlp/cX8qdRQA3y0/uL+VHlx/wBxfyp1FADfLT+4v5UeWn9xfyp1FADfLT+4v5UeWn9xfyp1FADfKj/uL+VHlp/cX8qdRQA3y0/uL+VHlx/3F/KnUUAN8tP7i/lR5cf9xfyp1FADfLT+4v5UeWn9xfyp1FADfKj/ALi/lR5af3F/KnUUAN8tP7i/lR5cf9xfyp1FADfLT+4v5UeXH/cX8qdRQA3y0/uL+VHlp/cX8qdRQA3yo/7i/lR5af3F/KnUUAN8tP7i/lR5cf8AcX8qdRQA3y0/uL+VHlx/3F/KnUUAN8tP7i/lR5af3F/KnUUAN8qP+4v5UeWn9xfyp1FADfLT+4v5UeXH/cX8qdRQA3y0/uL+VHlx/wBxfyp1FADfLT+4v5UeWn9xfyp1FADfKj/uL+VHlp/cX8qdRQA3y0/uL+VHlp/cX8qdRQA3y0/uL+VHlx/3F/KnUUAN8tP7i/lR5af3F/KnUUAN8uP+4v5UeWn9xfyp1FADfLT+4v5UeWn9xfyp1FADfLT+4v5UeXH/AHF/KnUUAN8tP7i/lR5af3F/KnUUAN8uP+4v5UeWn9xfyp1FADfLT+4v5UeWn9xfyp1FADfLT+4v5UeVH/cX8qdRQA3y0/uL+VHlp/cX8qdRQA3y4/7i/lR5af3F/KnUUAN8uP8AuL+VHlp/cX8qdRQA3y0/uL+VHlR/3F/KnUUAN8tP7i/lR5af3F/KnUUAN8uP+4v5UeWn9xfyp1FADfLj/uL+VHlp/cX8qdRQA3y0/uL+VHlR/wBxfyp1FADfLT+4v5UeWn9xfyp1FADfLj/uL+VHlp/cX8qdRQA3y4/7i/lR5af3F/KnUUAN8tP7i/lR5Uf9xfyp1FADfLT+4v5UeWn9xfyp1FADfLj/ALi/lR5af3F/KnUUAN8uP+4v5UeWn9xfyp1FADfLT+4v5UeVH/cX8qdRQA3y0/uL+VHlp/cX8qdRQA3y0/uL+VHlp/cX8qdRQA3y4/7i/lR5af3F/KnUUAN8tP7i/lR5cf8AcX8qdRQARookBCgH1xVioU++KmrSGxEtwoooqiQooooAKKpf2xpf9pvpn9pWf29E8x7Xz181VxncUzkDBHOKij8RaHNp76hFrOnvZJJ5TXC3SGNX/uls4B5HHvQBpUhGQQCQT3HasPU9Tg1DQFu9I8S2FnHJMgS/BjmibDjcgydpJwV65B960J9Z0u1nkguNSs4Zoo/NkjknVWRMgbiCeBkgZ96AORb4XWjW1xbnxHrvlXGo/wBpygNb83GQd+fJ45AOOnHStmLwikfi9PEraxqUl4tqLMxv5PlNFndggRg/e+bIIOfbitmPULKWwF/HeW72ZTzBcLKDGV9d2cY96LHUbHU4DPYXlvdwhipkglWRc+mQetAElzcJa27zyLIyIMkRRNIx+iqCT+AqpDepcxLNHFcBH5AkhaNuvdWAI/EVoVA33j9aiZUSHzv+mcn/AHzR53/TOT/vn/PpUtFQWR+dz/q5P++aTzuP9VJ/3zUtFAEfnc/6uT/vmk87/pnJ/wB8/wCfWpaKAIvO/wCmcn/fNL53OPLk/wC+akooAi87/plJ/wB80vnf9M5P++f8+lSUUAR+dz/q5P8Avmk87j/VSf8AfNS0UAR+dz/q5P8Avmk87/pnJ/3z/n1qWigCLzv+mcn/AHzS+dzjy5P++akooAi87/plJ/3zS+d/0zk/75qSigCPzv8ApnJ/3zSedx/qpP8AvmpaKAI/O5/1cn/fNJ53/TOT/vmpaKAIvO/6Zyf980vnc/6uT/vmpKKAIvO/6ZSf980vnf8ATOT/AL5qSigCPzv+mcn/AHzSed/0yk/75qWigCPzuf8AVyf980nnf9M5P++alooAi87/AKZyf980vnc/6uT/AL5qSigCLzv+mUn/AHzS+d/0zk/75qSigCPzv+mcn/fNJ53/AEyk/wC+alooAj87n/Vyf980nnf9M5P++alooAi87/pnJ/3zS+dz/q5P++akooAi87j/AFUn/fNL53/TOT/vmpKKAI/O/wCmcn/fNJ53/TKT/vmpaKAI/O5x5cn/AHzSed/0zk/75qWigCLzv+mcn/fP+fSl87n/AFcn/fNSUUARedx/qpP++aXzuf8AVyf981JRQBH53/TOT/vn/PrSed/0yk/75qWigCPzuceXJ/3zSed/0zk/75qWigCLzv8ApnJ/3z/n0pfO5/1cn/fNSUUARedx/qpP++aXzuf9XJ/3zUlFAEXnf9M5P++f8+tHnf8ATOT/AL5qWigCPzuceXJ/3zSed/0yk/75qWigCPzv+mcn/fP+fSjzuf8AVyf981JRQBF53H+qk/75pfO5/wBXJ/3zUlFAEXnf9M5P++f8+tHnf9M5P++alooAj87nHlyf980nnf8ATKT/AL5qWigCPzv+mcn/AHzR53/TOT/vmpKKAIvO4/1Un/fNL53P+rk/75qSigCLzv8ApnJ/3zR53/TOT/vmpaKAI/O5/wBXJ/3zSed/0yk/75qWigCPzv8ApnJ/3zR53/TOT/vmpKKAIvO/6ZSf980vnc/6uT/vmpKKAIvO/wCmcn/fNHnf9M5P++alooAj87n/AFcn/fNJ53/TKT/vmpaKAI/O/wCmcn/fNHnf9M5P++akooAi87/plJ/3zS+dz/q5P++akooAi87/AKZyf980ed/0zk/75qWigCPzuf8AVyf980nncf6qT/vmpaKAI/O/6Zyf980ed/0zk/75qSigCLzv+mUn/fNL53OPLk/75qSigCLzv+mcn/fNHnf9M5P++f8APpUtFAEfnc/6uT/vmk87j/VSf981LRQBH53P+rk/75o87/pnJ/3z/n1qSigCLzv+mUn/AHzS+dzjy5P++akooAi87/pnJ/3zR53/AEzk/wC+f8+lS0UAR+dz/q5P++aTzuP9VJ/3zUtFAEfnc/6uT/vmk87/AKZyf98/59alooAi87/pnJ/3zS+dzjy5P++akooAi87/AKZSf980vnf9M5P++f8APpUlFAEfnc/6uT/vmk87j/VSf981LRQBH53P+rk/75pPO/6Zyf8AfP8An1qWigCLzv8ApnJ/3zS+dzjy5P8AvmpKKAIvO/6ZSf8AfNL53/TOT/vmpKKAI/O/6Zyf980nncf6qT/vmpaKAI/O5/1cn/fNJ53/AEzk/wC+alooAi87/pnJ/wB80vnc/wCrk/75qSigCLzv+mUn/fNL53/TOT/vmpKKAI/O/wCmcn/fNJ53/TKT/vmpaKAEik3SgbHHXkjirNQp98VNWkNiJbhRRRVEhRRRQBwmtSxW3xj8OSzukSyaZdxq7kAMwZDjP05rmNFgOrT6tJoutWlpq8Hii9ubETL5kNxmJQysB2KscEc9SO9er3+ladqixrqFha3axNvjFxCsgRvUZBwfeq1x4a0G8z9p0TTZ8ymY+baRtmQ9X5H3vfrQB5j4jv01T4ZSzXelQaffWmvRwzpG2+PzhcL5jxt6MST+Y7V1TpE/xyhLKjSJ4dZlyBlf9IAyPwJ/M10t14d0O9sobK70bTri1g5igltUdI/91SMD8KZ/wi3h77ULr+wdL+0BBGJfsce8KF2hc4zjbxj04oA8pj8v/hVeon7XbwRWniaRkincJFKFugRCx6KpJ6ngdTgZNdZ4bjsNe+Id/wCJ4W08f6DHbpAlxDPNvBbdKTGzBflYIMHJHXHFX9d8KQW1jbRaD4e0w2Zu0l1Gwhhjh+1xqG2joFJDFWw2AcYyM8y6X4W0pNVs9Us/DFvoUtsXJKQwxyS7kK7T5RIK/Nnk9VFAG7quj22sRRx3Mt5GsZ3A2t5Lbk/UxspP0NLa2sdlbJbRNK0cY2qZpWlc/VmJY/UmrNy0627taxRyzgfIkshRSfdgrEfkaqQtetErXMdvHMfvpHIzqDnsxC5/IVEyoliiov3/AP0z/X/PrR+//wCmf6/59KgsloqP99n/AJZ/rSfv8f8ALP8AWgCWio/32f8Aln+tJ+//AOmf6/59aAJaKi/f/wDTP9f8+lL++z/yzx+NAElFRfv/APpn+tL+/wD+mf6/59KAJKKj/fZ/5Z/r/n1pP3+P+Wf60AS0VH++z/yzx+NJ+/8A+mf6/wCfWgCWiov3/wD0z/X/AD6Uv77P/LPH40ASUVF+/wD+mf60v7//AKZ/r/n0oAkoqP8Aff8ATP8AX/PrSfv8f8s/1oAloqP99n/lnj8aT9//ANM/1/z60AS0VF+//wCmf6/59KX99n/lnj8aAJKKi/f/APTP9aX9/wD9M/1/z6UASUVH+/8A+mf6/wCfWk/f/wDTP9aAJaKj/fZ/5Z4/Gk/f/wDTP9f8+tAEtFRfv/8Apn+v+fSl/fZ/5Z4/GgCSiov3/wD0z/Wl/f8A/TP9f8+lAElFR/v/APpn+v8An1pP3/8A0z/WgCWio/32f+WePxpP3/8A0z/X/PrQBLRUX7//AKZ/r/n0pf32f+WePxoAkoqL9/j/AJZ/rS/vv+mf6/59KAJKKj/f/wDTP9f8+tJ+/wD+mf60AS0VH++z/wAs8fjSfv8A/pn+v+fWgCWiov3/AP0z/X/PpS/vs/8ALPH40ASUVF+/x/yz/Wl/fZ/5Z/r/AJ9KAJKKj/f/APTP9f8APrSfv/8Apn+tAEtFR/vs/wDLPH40n7//AKZ/r/n1oAloqL9//wBM/wBf8+lL++z/AMs/1oAkoqL9/j/ln+tL++z/AMs/1oAkoqL9/wD9M/1/z60fv/8Apn+v+fSgCWio/wB9n/lnj8aT9/8A9M/1oAloqP8Af/8ATP8AX/PpR++z/wAs/wBf8+tAElFRfv8AH/LP9aX99n/lnj8aAJKKi/f/APTP9f8APrR+/wD+mf6/59KAJaKj/fZ/5Z4/Gk/f/wDTP9aAJaKj/f8A/TP9f8+lH77/AKZ/r/n1oAkoqL9/j/ln+tL++z/yzx+NAElFRfv/APpn+v8An1o/f/8ATP8AX/PpQBLRUf77P/LPH40n7/8A6Z/rQBLRUf7/AP6Z/r/n0o/f/wDTP9f8+tAElFRfv/8Apn+tL++z/wAs8fjQBJRUX7//AKZ/r/n1o/f/APTP9f8APpQBLRUf77P/ACzx+NJ+/wD+mf60AS0VH+//AOmf6/59KP3/AP0z/X/PrQBJRUX7/wD6Z/rS/vs/8s8fjQBJRUX7/wD6Z/r/AJ9aP3//AEz/AF/z6UAS0VH++z/yzx+NJ+/x/wAs/wBaAJaKj/ff9M/1/wA+lH7/AP6Z/r/n1oAkoqL9/wD9M/1pf32f+WePxoAkoqL9/wD9M/1/z60fv/8Apn+v+fSgCWio/wB9n/lnj8aT9/j/AJZ/rQBLRUf77P8Ayz/X/PpR+/8A+mf6/wCfWgCSiov3/wD0z/Wl/fZ/5Z4/GgCSiov3/wD0z/X/AD60fv8A/pn+v+fSgCWio/32f+Wf60n7/H/LP9aAJaKj/fZ/5Z/rSfv/APpn+v8An1oAloqL9/8A9M/1/wA+lL++z/yzx+NAElFRfv8A/pn+tL+//wCmf6/59KAJKKj/AH2f+Wf6/wCfWk/f4/5Z/rQBLRUf77P/ACzx+NJ+/wD+mf6/59aAJaKi/f8A/TP9f8+lL++z/wAs8fjQBJRUX7//AKZ/rS/v/wDpn+v+fSgCSio/33/TP9f8+tJ+/wAf8s/1oAloqP8AfZ/5Z4/Gk/f/APTP9f8APrQBLRUX7/8A6Z/r/n0pf32f+WePxoAkoqL9/wD9M/1pf3//AEz/AF/z6UASUVH+/wD+mf6/59aT9/8A9M/1oAnT74qaq0Xm+aN2zbz0zmrNaQ2IluFFFFUSFFFFABRRRQAUUUUARXVzDZWk11cSCOCCNpJHPRVUZJ/IVg6X4zstT1CwszZ3tq2o2xu7KS4RAtxGMEldrEg4ZThgDg1p67Jew+H9Rl022S5vktpDbwPysj7TtU+uTXnOnC+uPFngvVG0nXmMdtcxXs11bsgjldI8DYcCNQQ3QKp7ZOaAPR9U1vStEjjk1XU7OxSQ7Ua6nWMMfQFiM062u7a/t0urO4iuLeUbo5YnDK49QRwauEA9QD9ahIwxA9aiZURKKKKgsKKKKACiiigAooooAKKKKACiiigAooooAKKKKACiiigAooooAKKKKACiiigAooooAKKKKACiiigAooooAKKKKACiiigAooooAKKKKACiiigAooooAKKKKACiiigAooooAKKKKACiiigAooooAKKKKACiiigAooooAKKKKACiiigAooooAKKKKACiiigAooooAKKKKACiiigAooooAKKKKACiiigAooooAKKKKACiiigAooooAKKKKACiiigAooooAKKKKACiiigAooooAKKKKACiiigAooooAKKKKACiiigAooooAKKKKACiiigAooooAKKKKACiiigAooooAKKKKACiiigAooooAcn3xU1Qp98VNWkNiJbhRRRVEhRVLV7mey0a9urZY2mgheRFkztJAzzjntXAnx34jtPC2g+Kr2z0xtJvfIW7hiDiWESYAkVicYyR8uM9OfQA9Lqjper2GtW0lxp9wJ4o5ngZgpXDocMOQOhFcv4f17xTrt7qISHSI7fTtVmspt3mBpERQQVOSAckZyCCD0GOc1vGXii6+G2o+ItOtdMF/YXNwsts8Mjo8cTkNtIcHdgFs98dBQB6RRXOw6tf399oa6fd2M1pc2n2u7kNs+WTC7Sn7z5NxY4B3cA8nHOFH401i31XQodTgsIW1S7a3k05c/abMEOY2Zg5DZC8/KvXjpQB39FebaXr2o6TqfjvVNWv4rmz0ucZiW3KuVEKsqId+FGWxgg5JzkZrWsvE+tt4k06zm06S5sLxXEs0WmXNv8AYnAyNzSDDqeRkBeecc0AddcxPPbvFHcSW7sMCWIKWT3G4EfmDVSG1eGJY5Lu4uHXrLIVDNz1IUAfkBS6rqFzp8Ub22kXmpMxwUtWiUp7nzHQflmltZ5Lm2SaW1ltZHGWgmKl09jtJX8iaiZURfJ/6aSf99UeT/00k/76/wA+tS0VBZH5PP8ArJP++qTyeP8AWyf99VLRQBH5PP8ArJP++qTyf+mkn/fX+fSpaKAIvJ/6aSf99Uvk858yT/vqpKKAIvJ/6ayf99Uvk/8ATST/AL6/z61JRQBH5PP+sk/76pPJ4/1sn/fVS0UAR+Tz/rJP++qTyf8AppJ/31/n0qWigCLyf+mkn/fVL5POfMk/76qSigCLyf8AprJ/31S+T/00k/76qSigCPyf+mkn/fVJ5PH+tk/76qWigCPyef8AWSf99Unk/wDTST/vqpaKAIvJ/wCmkn/fVL5PP+sk/wC+qkooAi8n/prJ/wB9Uvk/9NJP++qkooAj8n/ppJ/31SeT/wBNZP8AvqpaKAI/J5/1kn/fVJ5P/TST/vqpaKAIvJ/6aSf99Uvk8/6yT/vqpKKAIvJ/6ayf99Uvk/8ATST/AL6qSigCPyf+mkn/AH1SeT/01k/76qWigCPyef8AWSf99Unk/wDTST/vqpaKAIvJ/wCmkn/fVL5PP+sk/wC+qkooAi8nj/Wyf99Uvk/9NJP++qkooAj8n/ppJ/31SeT/ANNZP++qlooAj8nnPmSf99Unk/8ATST/AL6qWigCLyf+mkn/AH1/n1pfJ5/1kn/fVSUUAReTx/rZP++qXyef9ZJ/31UlFAEfk/8ATST/AL6/z6Unk/8ATWT/AL6qWigCPyec+ZJ/31SeT/00k/76qWigCLyf+mkn/fX+fWl8nn/WSf8AfVSUUAReTx/rZP8Avql8nn/WSf8AfVSUUAReT/00k/76/wA+lHk/9NJP++qlooAj8nnPmSf99Unk/wDTWT/vqpaKAI/J/wCmkn/fX+fWjyef9ZJ/31UlFAEXk8f62T/vql8nn/WSf99VJRQBF5P/AE0k/wC+v8+lHk/9NJP++qlooAj8nnPmSf8AfVJ5P/TWT/vqpaKAI/J/6aSf99UeT/00k/76qSigCLyeP9bJ/wB9Uvk8/wCsk/76qSigCLyf+mkn/fVHk/8ATST/AL6qWigCPyef9ZJ/31SeT/01k/76qWigCPyf+mkn/fVHk/8ATST/AL6qSigCLyf+msn/AH1S+Tz/AKyT/vqpKKAIvJ/6aSf99UeT/wBNJP8AvqpaKAI/J5/1kn/fVJ5P/TWT/vqpaKAI/J/6aSf99UeT/wBNJP8AvqpKKAIvJ/6ayf8AfVL5PP8ArJP++qkooAi8n/ppJ/31R5P/AE0k/wC+qlooAj8nn/WSf99Unk8f62T/AL6qWigCPyf+mkn/AH1R5P8A00k/76qSigCLyf8AprJ/31S+TznzJP8AvqpKKAIvJ/6aSf8AfVHk/wDTST/vr/PrUtFAEfk8/wCsk/76pPJ4/wBbJ/31UtFAEfk8/wCsk/76o8n/AKaSf99f59KkooAi8n/prJ/31S+TznzJP++qkooAi8n/AKaSf99UeT/00k/76/z61LRQBH5PP+sk/wC+qTyeP9bJ/wB9VLRQBH5PP+sk/wC+qTyf+mkn/fX+fSpaKAIvJ/6aSf8AfVL5POfMk/76qSigCLyf+msn/fVL5P8A00k/76/z61JRQBH5PP8ArJP++qTyeP8AWyf99VLRQBH5PP8ArJP++qTyf+mkn/fX+fSpaKAIvJ/6aSf99Uvk858yT/vqpKKAIvJ/6ayf99Uvk/8ATST/AL6qSigCPyf+mkn/AH1SeTx/rZP++qlooAj8nn/WSf8AfVJ5P/TST/vqpaKAIvJ/6aSf99Uvk8/6yT/vqpKKAIvJ/wCmsn/fVL5P/TST/vqpKKAI/J/6aSf99Unk/wDTWT/vqpaKAEij2yg73PXgnirNQp98VNWkNiJbhRRRVEmfr3/Iu6n/ANekv/oBrz3wzoOq+Jvhn4X0y8FlHpKRW9xI6SsZZ0TDrGU24XkLltx4BwOePSNS0621bT5rG7Ept5l2yCKZ4iR3G5CCB+PNQ6Lolh4e0yPTdNjkitIv9XG87y7B6AuSQPbpQBgeD9G1/RG186jDpp+338t/ALe6kbBcAbGzGMAbR8wz16U7wH4f1XQdDvNP1qOwbzbqadTazNIrCRixVgyLjGcd8+1dbRQBy3g7wi/hbSLqxN60zNI6W0nUw24ZjFHz127ifqx7Vzdn4H8UwaV4etJLjRjJpGpfa2mzKWushwZHOPv/AD8jnJ/iFem0UAcVJ4KuLu58W2l1LAdL1/D+YjN50TeUIyNuMcFQwOfbHepfDOl+NraSC38RatplxZWgxHJaRuJ7nAwPNLcD1IXqQOcZz0Wo6mNOkskNneXH2q4W3Btot4iyCd7/AN1Bjk+4qrbeJLK78T3nh+OO4W8tIFnkZ49qFWJA2k8nkHtj3oA2KrNIm8jeuc+tSXNtBeW7291BHPBIMPFKgZWHoQeDVaGytbSJbe2toYYY+EjjjCqo9ABwKiZUSTzI/wC+v50eYn99fzo8uP8AuL+VHlp/cX8qgsPMT++v50ebH/fX86PLT+4v5UeVH/cX8qADzE/vr+dHmJ/fX86PLT+4v5UeWn9xfyoAPMj/AL6/nR5if31/Ojy4/wC4v5UeWn9xfyoAPMj/AL6/nR5if31/Ojy4/wC4v5UeWn9xfyoAPMT++v50ebH/AH1/Ojy0/uL+VHlR/wBxfyoAPMT++v50eYn99fzo8tP7i/lR5af3F/KgA8yP++v50eYn99fzo8uP+4v5UeWn9xfyoAPMj/vr+dHmJ/fX86PLj/uL+VHlp/cX8qADzE/vr+dHmx/31/Ojy0/uL+VHlR/3F/KgA8xP76/nR5if31/Ojy0/uL+VHlp/cX8qADzE/vr+dHmJ/fX86PLT+4v5UeWn9xfyoAPMj/vr+dHmJ/fX86PLj/uL+VHlp/cX8qADzE/vr+dHmR/31/Ojy0/uL+VHlx/3F/KgA8xP76/nR5if31/Ojy0/uL+VHlp/cX8qADzE/vr+dHmJ/fX86PLT+4v5UeWn9xfyoAPMj/vr+dHmJ/fX86PLj/uL+VHlp/cX8qADzE/vr+dHmR/31/Ojy0/uL+VHlx/3F/KgA8xP76/nR5if31/Ojy0/uL+VHlp/cX8qADzE/vr+dHmJ/fX86PLT+4v5UeWn9xfyoAPNj/vr+dHmJ/fX86PKj/uL+VHlp/cX8qADzE/vr+dHmR/31/Ojy0/uL+VHlx/3F/KgA8xP76/nR5kf99fzo8tP7i/lR5cf9xfyoAPMT++v50eYn99fzo8tP7i/lR5af3F/KgA82P8Avr+dHmJ/fX86PKj/ALi/lR5af3F/KgA8xP76/nR5kf8AfX86PLT+4v5UeXH/AHF/KgA8xP76/nR5kf8AfX86PLT+4v5UeXH/AHF/KgA8xP76/nR5if31/Ojy0/uL+VHlp/cX8qADzY/76/nR5if31/Ojyo/7i/lR5af3F/KgA8xP76/nR5kf99fzo8tP7i/lR5cf9xfyoAPMT++v50eZH/fX86PLT+4v5UeXH/cX8qADzE/vr+dHmJ/fX86PLT+4v5UeWn9xfyoAPNj/AL6/nR5if31/Ojyo/wC4v5UeWn9xfyoAPMT++v50eZH/AH1/Ojy0/uL+VHlx/wBxfyoAPMT++v50eZH/AH1/Ojy0/uL+VHlx/wBxfyoAPMT++v50eYn99fzo8tP7i/lR5af3F/KgA82P++v50eYn99fzo8qP+4v5UeWn9xfyoAPMT++v50eYn99fzo8tP7i/lR5af3F/KgA8xP76/nR5kf8AfX86PLT+4v5UeXH/AHF/KgA8xP76/nR5if31/Ojy0/uL+VHlp/cX8qADzI/76/nR5if31/Ojy4/7i/lR5af3F/KgA8xP76/nR5if31/Ojy0/uL+VHlp/cX8qADzE/vr+dHmR/wB9fzo8tP7i/lR5cf8AcX8qADzE/vr+dHmJ/fX86PLT+4v5UeWn9xfyoAPMj/vr+dHmJ/fX86PLj/uL+VHlp/cX8qADzE/vr+dHmJ/fX86PLT+4v5UeWn9xfyoAPMT++v50ebH/AH1/Ojy0/uL+VHlR/wBxfyoAPMT++v50eYn99fzo8tP7i/lR5af3F/KgA8yP++v50eYn99fzo8uP+4v5UeWn9xfyoAPMj/vr+dHmJ/fX86PLj/uL+VHlp/cX8qADzE/vr+dHmx/31/Ojy0/uL+VHlR/3F/KgA8xP76/nR5if31/Ojy0/uL+VHlp/cX8qADzI/wC+v50eYn99fzo8uP8AuL+VHlp/cX8qADzI/wC+v50eYn99fzo8uP8AuL+VHlp/cX8qADzE/vr+dHmx/wB9fzo8tP7i/lR5Uf8AcX8qADzE/vr+dHmJ/fX86PLT+4v5UeWn9xfyoAPMj/vr+dHmJ/fX86PLj/uL+VHlp/cX8qADzI/76/nR5if31/Ojy4/7i/lR5af3F/KgA8xP76/nR5sf99fzo8tP7i/lR5Uf9xfyoAPMT++v50eYn99fzo8tP7i/lR5af3F/KgA8yP8Avr+dHmJ/fX86PLj/ALi/lR5af3F/KgA8yP8Avr+dHmJ/fX86PLj/ALi/lR5af3F/KgA8xP76/nR5sf8AfX86PLT+4v5UeVH/AHF/KgA8xP76/nR5if31/Ojy0/uL+VHlp/cX8qADzE/vr+dHmJ/fX86PLT+4v5UeWn9xfyoAPMj/AL6/nR5if31/Ojy4/wC4v5UeWn9xfyoAPMT++v50eZH/AH1/Ojy0/uL+VHlx/wBxfyoAdG6mQAMCfTNWKrxookBCgH1xVitIbES3CiiiqJCiiigDhdS1vXNV1PXbHREv430xlgie1W1KvMY1k/eec2dvzKMKB0PPPEGkan4ov/GK6Pql42ns2hxXk8EKROYZzKyNschhj5c4O7rV7VfA9/L4nn13w/4luNFnvERL6NbZJ0n2jCsA/CsBxnn+eZLPwfqOn+LW1u31mBo/7PFgsE1mzvtDM4dpPNG5i7Ek4Gc4460AcvP4q8SW3wz1HxI+rb7zSb2SAotvGEukjn8s+YMEgkf3CuOK6LxXqerWmoXqQ6r9ihj04zWkVrEs08swLZMiMjYjGFGRgfMfm9M+X4b6pP4H1TwxJ4itfL1C6a4e4GmsGXfJ5jKB52PvYwewz16jTl8F6jLrV/qQ8QCNtTso7W+SOzHzFAwDRlmPl/ePB3dT+ABnXPirWZdI8AajFcRQjWri2jvYliB3eZEXbBOcDI+vPWrdj/yWvWP+wJb/APo16ik+H+qf2P4Y0+LxDABoM0c0byaeW80xqUUYEowu0nPJJJzkdK1rXwxqEHj668Svqtu8NxarataCzIIRSSpEnmHnJOfl5HGB1oA2NVm1aGKM6TZWd1IT863V00AUeoKxvn8hS2rXT2yNewxQ3JH7yOGQyIp9AxVSfyFWbm5gs7d7i6njggjGXllcKqj1JPAqpDqFpdxLPbXMc0MnKSRNuVhnGQRwaiZUSxRUX2iL+9+ho+0Rf3v0P+e1QWS0VH58Wcbv0NJ9oixnf+hoAloqPz4s43foaT7RF/e/Q/570AS0VF9oi/vfoaXz4s43e3Q0ASUVF9oi/vfoaX7RF/e/Q/57UASUVH58Wfvfof8APek+0RYzv/Q0AS0VH58Wcbv0NJ9oi/vfof8APegCWiovtEX979D/AJ7UvnxZxu/Q0ASUVF9oi/vfoaX7RF/e/Q/57UASUVH58X979D/nvSfaIsZ3/oaAJaKj8+LON36Gk+0Rf3v0P+e9AEtFRfaIv736H/Pal8+LON36GgCSiovtEX979DS/aIv736H/AD2oAkoqPz4v736H/Pek+0Rf3/0NAEtFR+fFnG79DSfaIv736H/PegCWiovtEX979D/ntS+fFnG79DQBJRUX2iL+/wDoaXz4v736H/PagCSio/tEX979D/nvSfaIv736GgCWio/Pizjd+hpPtEX979D/AJ70AS0VF9oi/vfof89qXz4s43foaAJKKi+0RYzv/Q0vnxf3v0P+e1AElFR/aIv736H/AD3pPtEX979DQBLRUfnxZxu/Q0n2iL+9+h/z3oAloqL7RF/e/Q/57UvnxZxu/Q0ASUVF9oixnf8AoaXz4s/e/Q/57UASUVH9oi/vfof896T7RF/e/Q0AS0VH58WcbvboaT7RF/e/Q0AS0VF9oi/vfof89qXz4s43foaAJKKi+0RYzv8A0NL58Wcbv0NAElFRfaIv736H/Pej7RF/e/Q0AS0VH58WcbvboaT7RF/e/Q0AS0VH9oi/vfof89qPPiz979D/AJ70ASUVF9oixnf+hpfPizjd+hoAkoqL7RF/e/Q/570faIv736H/AD2oAloqPz4s43foaT7RF/e/Q0AS0VH9oi/vfof89qPPi/vfof8APegCSiovtEWM7/0NL58Wcbv0NAElFRfaIv736H/Pej7RF/e/Q/57UAS0VH58Wcbv0NJ9oi/vfoaAJaKj+0Rf3v0P+e1Hnxf3v0P+e9AElFRfaIv7/wChpfPizjd+hoAkoqL7RF/e/Q/570faIv736H/PagCWio/Pizjd+hpPtEX9/wDQ0AS0VH58X979D/ntR9oi/vfof896AJKKi+0Rf3v0NL58Wcbv0NAElFRfaIv736H/AD3o+0Rf3v0P+e1AEtFR+fFnG79DSfaIsZ3/AKGgCWio/Pi/vfof89qPtEX979D/AJ70ASUVF9oi/vfoaXz4s43foaAJKKi+0Rf3v0P+e9H2iL+9+h/z2oAloqPz4s43foaT7RFjO/8AQ0AS0VH58Wfvfof89qPtEX979D/nvQBJRUX2iL+9+hpfPizjd7dDQBJRUX2iL+9+ho+0Rf3v0P8AntQBLRUfnxZxu/Q0n2iLGd/6GgCWio/Pizjd+hpPtEX979D/AJ70AS0VF9oi/vfoaXz4s43e3Q0ASUVF9oi/vfoaX7RF/e/Q/wCe1AElFR+fFn736H/Pek+0RYzv/Q0AS0VH58Wcbv0NJ9oi/vfof896AJaKi+0Rf3v0P+e1L58Wcbv0NAElFRfaIv736Gl+0Rf3v0P+e1AElFR+fF/e/Q/570n2iLGd/wChoAloqPz4s43foaT7RF/e/Q/570AS0VF9oi/vfof89qXz4s43foaAJKKi+0Rf3v0NL9oi/vfof89qAJKKj8+L+9+h/wA96T7RF/f/AENAE6ffFTVWimRpQobJ57VZrSGxEtwoooqiQoormvG+nX+paTax6abOS4ju0m+x3jYivVVWJib6/eHBGUGeKAOlorx+XXLK08PwWtlp48OJN4hS11e0uYw0NszRbsfIVBiYrHyCAQx7HFaWqeGF0bSPFz/2namO70iWcabZWpgiidEOJlHmNtJ/DJGecUAenUV5i/w50fxD8MI0js0/tS90q3Zbl2LMZUjzGeTgckjj+EkdOKt+Grux8YW2la3Hpdt5mjWJRYvJA8m7Iw0S8fLsCdPSRT2oA9DoryPw/ph8S+GNB8T/ANv6fbXsUsU095DYt9peXOHgkfzfmDMdu3bj7uABgVqeHvDul6j478Xm8tzMLPUrWe3DSNiKQQq24YPXJoA9IqBvvH61X1XT7nUIo0ttXvNNZTkvarExf2PmI4/LFLawSW1skMt1LdSIMNPMFDv7naAv5AVEyok1FFFQWFFFFABRRRQAUUUUAFFFFABRRRQAUUUUAFFFFABRRRQAUUUUAFFFFABRRRQAUUUUAFFFFABRRRQAUUUUAFFFFABRRRQAUUUUAFFFFABRRRQAUUUUAFFFFABRRRQAUUUUAFFFFABRRRQAUUUUAFFFFABRRRQAUUUUAFFFFABRRRQAUUUUAFFFFABRRRQAUUUUAFFFFABRRRQAUUUUAFFFFABRRRQAUUUUAFFFFABRRRQAUUUUAFFFFABRRRQAUUUUAFFFFABRRRQAUUUUAFFFFABRRRQAUUUUAFFFFABRRRQAUUUUAFFFFABRRRQAUUUUAFFFFABRRRQAUUUUAFFFFABRRRQAUUUUAOT74qaoU++KmrSGxEtwoooqiQrP1fRLDXIbeO/SVhbzC4haG4khZJACoYMjA9GYde9aFFAGQ/hfRZdIutKmsEns7ti9wk7NI0rHHzMzEsW4GCTkYGOgqjZ+APDGn6Fd6LZ6abewu+LhIriVWlGMYZw28jGRjOME+tdLRQBS0nSrTRNNh06wWRLWBdsaSTPKVXsAXJOB2GeKfY6bZ6ZHNHZW6QrNM88gX+KRzlmPuSatUUAc3beAfCtn4hbXrfRbePUmYv5oLYDHqwTO0NyeQM81b0vwrpGjareanYxXKXd6c3LyXk0gkPYlXcjI6A44HA4rZooAiuZXgt3ljt5Lh1GRFEVDP7DcQPzIqGBp7iFJZLZrdn5MUrqWT2O0kZ+hNW6KTVxp2IPLl/up/wB9H/Cjy5fRP++j/hU9FLlQ+ZkHly+if99H/Cjy5f7qf99H/Cp6KOVBzMg8uX0T/vo/4UeXL6J/30f8Knoo5UHMyDy5f7qf99H/AAo8uX0T/vo/4VPRRyoOZkHly/3U/wC+j/hR5cvon/fR/wAKnoo5UHMyDy5fRP8Avo/4UeXL/dT/AL6P+FT0UcqDmZB5cvon/fR/wo8uX+6n/fR/wqeijlQczIPLl/up/wB9H/Cjy5fRP++j/hU9FHKg5mQeXL/dT/vo/wCFHly+if8AfR/wqeijlQczIPLl9E/76P8AhR5cv91P++j/AIVPRRyoOZkHly+if99H/Cjy5f7qf99H/Cp6KOVBzMg8uX+6n/fR/wAKPLl9E/76P+FT0UcqDmZB5cv91P8Avo/4UeXL6J/30f8ACp6KOVBzMg8uX0T/AL6P+FHly/3U/wC+j/hU9FHKg5mQeXL6J/30f8KPLl/up/30f8Knoo5UHMyDy5f7qf8AfR/wo8uX0T/vo/4VPRRyoOZkHly/3U/76P8AhR5cvon/AH0f8Knoo5UHMyDy5fRP++j/AIUeXL/dT/vo/wCFT0UcqDmZB5cvon/fR/wo8uX+6n/fR/wqeijlQczIPLl/up/30f8ACjy5fRP++j/hU9FHKg5mQeXL/dT/AL6P+FHly+if99H/AAqeijlQczIPLl9E/wC+j/hR5cv91P8Avo/4VPRRyoOZkHly+if99H/Cjy5f7qf99H/Cp6KOVBzMg8uX+6n/AH0f8KPLl9E/76P+FT0UcqDmZB5cv91P++j/AIUeXL6J/wB9H/Cp6KOVBzMg8uX0T/vo/wCFHly/3U/76P8AhU9FHKg5mQeXL6J/30f8KPLl/up/30f8Knoo5UHMyDy5fRP++j/hR5cvon/fR/wqeijlQczIPLl/up/30f8ACjy5fRP++j/hU9FHKg5mQeXL6J/30f8ACjy5f7qf99H/AAqeijlQczIPLl9E/wC+j/hR5cv91P8Avo/4VPRRyoOZkHly+if99H/Cjy5fRP8Avo/4VPRRyoOZkHly/wB1P++j/hR5cvon/fR/wqeijlQczIPLl/up/wB9H/Cjy5f7qf8AfR/wqeijlQczIPLl9E/76P8AhR5cv91P++j/AIVPRRyoOZkHly+if99H/Cjy5fRP++j/AIVPRRyoOZkHly/3U/76P+FHly+if99H/Cp6KOVBzMg8uX+6n/fR/wAKPLl/up/30f8ACp6KOVBzMg8uX0T/AL6P+FHly/3U/wC+j/hU9FHKg5mQeXL6J/30f8KPLl9E/wC+j/hU9FHKg5mQeXL/AHU/76P+FHly+if99H/Cp6KOVBzMg8uX+6n/AH0f8KPLl/up/wB9H/Cp6KOVBzMg8uX0T/vo/wCFHly/3U/76P8AhU9FHKg5mQeXL6J/30f8KPLl9E/76P8AhU9FHKg5mQeXL/dT/vo/4UeXL6J/30f8Knoo5UHMyDy5f7qf99H/AAo8uX+6n/fR/wAKnoo5UHMyDy5fRP8Avo/4UeXL/dT/AL6P+FT0UcqDmZB5cvon/fR/wo8uX0T/AL6P+FT0UcqDmZB5cv8AdT/vo/4UeXL6J/30f8Knoo5UHMyDy5f7qf8AfR/wo8uX+6n/AH0f8Knoo5UHMyDy5fRP++j/AIUeXL/dT/vo/wCFT0UcqDmZB5cvon/fR/wo8uX0T/vo/wCFT0UcqDmZB5cv91P++j/hR5cvon/fR/wqeijlQczIPLl/up/30f8ACjy5fRP++j/hU9FHKg5mQeXL6J/30f8ACjy5f7qf99H/AAqeijlQczIPLl9E/wC+j/hR5cvon/fR/wAKnoo5UHMyDy5f7qf99H/Cjy5fRP8Avo/4VPRRyoOZkHly/wB1P++j/hR5cvon/fR/wqeijlQczIPLl9E/76P+FHly/wB1P++j/hU9FHKg5mQeXL6J/wB9H/Cjy5f7qf8AfR/wqeijlQczIPLl/up/30f8KPLl9E/76P8AhU9FHKg5mQeXL/dT/vo/4UeXL6J/30f8Knoo5UHMyDy5fRP++j/hR5cv91P++j/hU9FHKg5mQeXL6J/30f8ACjy5f7qf99H/AAqeijlQczIPLl/up/30f8KPLl9E/wC+j/hU9FHKg5mQeXL/AHU/76P+FHly+if99H/Cp6KOVBzMg8uX0T/vo/4UeXL/AHU/76P+FT0UcqDmZEiSBwSFx7H/AOtUtFFNKwm7hRRRTEFFFFABRRRQAUUUUAFFFFABRRRQAUUUUAFFFFABRRRQAUUUUAFFFFABRRRQAUUUUAFFFFABRRRQAUUUUAFFFFABRRRQAUUUUAFFFFABRRRQAUUUUAFFFFABRRRQAUUUUAFFFFABRRRQAUUUUAFFFFABRRRQAUUUUAFFFFABRRRQAUUUUAFFFFABRRRQAUUUUAFFee+OtVttF8feDL678wxot8qpEhd5GaNAqqo5LEkAD3rUtviLosmn6rdXkV9psmlsi3VreQbZgX/1eFUndu6DBoA66iub0PxnZ61qr6XJp+p6ZfiHz0t9RtxE0secFlwSCASMjORnpVFfiXo73Q22eqHTjc/ZBqv2b/RPM3bMb85xu+XdjGe9AHZUV59408b6noniXRrCz0fWHha9CTSQ28TJeIYmbZGWbO4HGfu/dPPrraj48tNKi0j7Xo+sLc6qZRBZrbq0wZBkqyhuCe2CR6kCgDq6K4zQviboniC/sLW1ttShF/HI0E9xb7ImaMZkTdn7yjrjjg80tj8SdIv7u0WOy1WOxvZxbWupS2u22mkJIUK2c8kYBIANAHZUVxmofEjTrLWtT0mLSNavrrTSv2kWVqJAisgYNncOMHGOuQcA4rp9J1Wy1vSrbU9PmE1pcoJIpAMZH07HtigC5RRRQAUUUUAFFFFABRRRQAUUUUAFFFFABRRRQAUUUUAFFFFABRRRQAUUUUAFFFFABRRRQAUUUUAFFFFABRRRQAUUUUAFFFFABRRRQAUUUUAFFFFABRRRQAUUUUAFFFFABRRRQAUUUUAFFFFABRRRQAUUUUAFFFFABRRRQAUUUUAFFFFABRRRQAUUUUAFFFFABRRRQAUUUUAFFFFABRRRQAUUUUAFFFFABRRRQAUUUUAFFFFABRRRQAUUUUAFFFFABRRRQAUUUUAFFFFABRRRQAUUUUAFFFFABRRRQAUUUUAFFFFABRRRQAUUUUAFFFFABRRRQAUUUUAFFFFABRRRQAUUUUAFFFFABRRRQAUUUUAFFFFAHH+ItOmu/iN4MultJZbe1F60kojLJEWiULuPQZOcZrkPGvhTU9c8R+JJoNOuLiKP+zLlIwWiF2IjJ5kaScfNhuxyDjpxXr9FAHmPhLSNObxZFf6P4Q1bT47e1kD3usT3CuHbAEaI7tkdSWxjjiuO1m38Q6v4ZK6po/i698QJcxyXIZWWygCzAkxRodsvy8DAY8k5GK9/ooA47x3b3fmeHtWtbK5vY9M1Jbi4htk3y+WY3QlV6tgsOBzVO6uLnX/GPgrVYNJ1O3toZL4S/arVo2iBh2qXH8IY9M4zXe0UAeOaDpGuWmn+AzDpdyl1Z/2szLNCyrE7iTy/MyPlDEjGcZzWTPb61qcGgTXuk+MLzV7bUrWfUJrxXW2g2yDeYol+Vh6FVOF5Jr3migDyqx8RXHh/4heOWXQdT1KKW4ttj6fB5pEgt1+RwOVByMN0611nw50S88PeA9M07UEWO7USSyxqciMvIz7fw3Y/CqnhH/kevHX/AF+23/pMldpQAUUUUAFFFFABRRRQAUUUUAFFFFABRRRQAUUUUAFFFFABRRRQAUUUUAFFFFABRRRQAUUUUAFFFFABRRRQAUUUUAFFFFABRRRQAUUUUAFFFFABRRRQAUUUUAFFFFABRRRQAUUUUAFFFFABRRRQAUUUUAFFFFABRRRQAUUUUAFFFFAH/9k=;" vertex="1" parent="1">
          <mxGeometry x="470" y="389.78" width="527.52" height="225" as="geometry" />
        </mxCell>
        <mxCell id="3Dfbh3uyOyyrv-4ScR3l-4" value="" style="shape=image;verticalLabelPosition=bottom;labelBackgroundColor=default;verticalAlign=top;aspect=fixed;imageAspect=0;image=data:image/jpeg,/9j/4AAQSkZJRgABAQEAZABkAAD/2wBDAAgGBgcGBQgHBwcJCQgKDBQNDAsLDBkSEw8UHRofHh0aHBwgJC4nICIsIxwcKDcpLDAxNDQ0Hyc5PTgyPC4zNDL/2wBDAQkJCQwLDBgNDRgyIRwhMjIyMjIyMjIyMjIyMjIyMjIyMjIyMjIyMjIyMjIyMjIyMjIyMjIyMjIyMjIyMjIyMjL/wAARCAFxAcMDASIAAhEBAxEB/8QAHwAAAQUBAQEBAQEAAAAAAAAAAAECAwQFBgcICQoL/8QAtRAAAgEDAwIEAwUFBAQAAAF9AQIDAAQRBRIhMUEGE1FhByJxFDKBkaEII0KxwRVS0fAkM2JyggkKFhcYGRolJicoKSo0NTY3ODk6Q0RFRkdISUpTVFVWV1hZWmNkZWZnaGlqc3R1dnd4eXqDhIWGh4iJipKTlJWWl5iZmqKjpKWmp6ipqrKztLW2t7i5usLDxMXGx8jJytLT1NXW19jZ2uHi4+Tl5ufo6erx8vP09fb3+Pn6/8QAHwEAAwEBAQEBAQEBAQAAAAAAAAECAwQFBgcICQoL/8QAtREAAgECBAQDBAcFBAQAAQJ3AAECAxEEBSExBhJBUQdhcRMiMoEIFEKRobHBCSMzUvAVYnLRChYkNOEl8RcYGRomJygpKjU2Nzg5OkNERUZHSElKU1RVVldYWVpjZGVmZ2hpanN0dXZ3eHl6goOEhYaHiImKkpOUlZaXmJmaoqOkpaanqKmqsrO0tba3uLm6wsPExcbHyMnK0tPU1dbX2Nna4uPk5ebn6Onq8vP09fb3+Pn6/9oADAMBAAIRAxEAPwDP24U1BN1xVxoyagkt2Y19epCm9DMW0JlLZ6mtKO23Op9KVbV89TV+3hKDnmlOehzSsQTplMVm3K4t8e9b0keR0qlNZGUFTWPOcNd9jItebha3rXKymq8GmhHDAdK1ra2IbJFZVKqseZN3ZKEPl1mS2kjTlgeK6AQ/L0qE2rF8iuKVQhwuNs4ysag9cVqIDgVFb25Uc1dSL2rgrVEbUqbGLHjJrL1JGZhj8q3imFxWddQM7cDivPlLU9WhT0KemKYwd1TX5/d0kNu6yDPApuoAtGQvWuaTvI+iwsbROTv4mediOlXrIbYwD1xTJ4JC2adCGjUs/QCqk9D06MXcLoFzgcn0qna6FLJL5k8mxc5Cjkmr0ZMj5PANX4ickZAA61l7RrRHb7JPVk0EKRgLGvI7mrkagfWoY5FA46fzqZN7DIIUH8SaybG4iyDOeSPwqrLjb865U9GHNWir45JPsWqu5KtjaV9qVxctzl9RsjHNvXLRse3Ws8Aq2CMGuveMEnA/CoptKg1CJggCXKj5W9fY1vCv0Zz1aDtdHPRVdiPFUtjwytHIpV1OCD1FW4jXSeVVRbWp7JN94g96rqRjNaGjR7rrdjpVc1keJXhqzX1E7bbFc/IK3NTbhVrGkWu/DPQ8istSjLmqknWtCRfWqkqV7FGRy7MpPVDUB/o5rRYVRvx/o5rtg9Tuoz0OfIpuKlIppFdSZ3RmMFPWk209RRcJSLVsPmFPuxiUUWy/MKfeD94Kub9w4ZzVyuKetIBTwK82u9TncyAD5zSmnhTlqCvFctyechYUNTmFKy8U0yozI+1WbCRY7n5+hUioMcUYxzTua84MPmP1py0mKeoptmM5EiDpVlKgQVYQVzVGZIlWtLR7dLrVYIZEDqxOVY4B4PU1nqK1NDAOrwAruByNucZyDxXJNlpHXHwzYk5awKn+6txwKKt2ts5t122TSDJw25jnk9zzRWdy7HK7eaTy654atcelOXV5/SvorM9aWJR0axiplQVza6tP6VKurzelZyuclXFI6PYKUQg9qwU1Wcn7tWY9TmP8Nc05NHBOvzG3Hbj0q5HBjHFYMepzD+GrKarN/drkqVGSrM31iqVYQO1YS6vL6U4azLnpXFObNoxTOgWMCpVUCudGtyA/dp/9uP6GuWbZ104I6B8AVlXlz5T4FUn1xyMYNZl1dyXDbumKws76np0YmnJqJUe9UptRJzk1lTSyf3qoTTSDPNLkR7FG+xqyX+TQzMwXdwewrK09HuLrL8qnP1NXWnCs8jHhRxWVXTRHs4aLtdljzhEwjQ/OeS390etSR3AOFXOP51kRzFt0jcb+T/QVbtSS4Pcn8qwZ3cpvROF5PLfyqcT8kFh796zlOSAOgNW4yoGN3PsKlsTgWCQy8k/lTSCenIp4IIHOaeFwKlsXKQFMduab/q5A69qnbnNM4PBqbhKN0UPENiJUS+iHPCyf0NYkTe9ddHGJraa1flWU4rkHjaC4eJ/vIcV3UZ3VjxcVSsy4G+XtW/oUX7syetc2h3EL68V19kot7ED/AGauT1seRWpXRW1B905X0qg61PI/mSMfU1GRxXfRlZHiV6RWZKrSpV/bUMiV6VKqedOFjIlQg1n34/cGtuWPrWXqMeIDXo06lyIycWc2y800rVgrTCtdikdUK5FtpyrT9tOVaOYqVbQsWo+YCn3i/vRS2y/OKlu0/ejirlP3DjnUuymq5qZY+akSKpljry8RU1EtSoI+TQ0dXPL5pDHmuL2pVig0dNeOrxi9qa8dUqorFDZSFat+VTTHWiqBqVgtSKlS+XT1Sm5kiItTqtNVamVa55yKSHKK1dAAOtW2TtG484zg4PQetZqitHR5YrfVbeWY4RSSTgnHBweK5pSNUjv9OaBLCIOqE4PLO4J5PrRWfb65pMcCJNcKzgYJIcn86KyuVY83WxLFgD0608WD43cY9amTelm7/wATmr0KMdLBOc4619I6hySrMy4bVpWIXrVn7G0ZAbrVnTomF6voRVm+Q+c3tXPOsZayZCmnvt3dvWrEVkxQEAc1fKkaWp7mq6zPvjVeBkVw1K5pCncFsZARxThbMH296u6g7xCIr+NVxKXu4mHfrXHOsdlOg2H2RweRTWhKHBzVnU5XjlXZUEk3mAE9R1rndS52QoEZSkWMsfl5pSxotpCLxR2NZykdcKAx4ivUEUjRuFzjNS6k580j0pwlzpu4jmobuzvpU7GXKc8d6qSxSHJ21oQIHDyt0FZUt64ueg256Ur2PRoxLFo3kW7k8MxprpuDBs4H60483Ma9uuBU3lFt2O3euSTu7nvUFaKRUAJP0q5bEqTgcnj6Uwx+WCMfNUsHygE1kztSNCFeBuPNXFABzVKJsmrkeT1qWKSLaEdakLcVFHUu3IqTN2GdjzTDkHOKkxx9KYc5pCZJCf3ynp2rG8RW4ju0uQOJBhvqK1oz8wzwag12MS6YzYB8tgR7VvRlZnn4mFzF0pPOu19BXTXcwjg2DvWNokOyIyMME1NdXHmS46gV0LWR5dSGgoNOJzUIan5rqhKx5FeiPApGUHtSqaf1rqhUPJq0SnJHmszUYv8ARzW261Q1CPMBrupVjhnCxybxVC0ZrUeL2qFovavRjWMbNGfsNPWOrfle1KsVX7YWo+0iIcVPeR/vBUlrH8w4qa7jw68U51fcFFalJI6lRMHpUipjtUqRM7BVGSa8jEVdTphC5W8vJ6VItpK/RDiuhstIjiUPMAznoK0PJUDhB+FebLEWOmNBnGtZyqeUP5UG0J6jFdfJGrDGBVOS2RsjAVqI4kJUDlHtypxiojCQCSK6U2StnK8iq01moHTBreNcxdMwPLpwSrktv5be1R7K3VW6MuUiC1Iq07bTgtRKZSiAFaegkJrVuxJAUsTgZx8prPArS0M7dYgbfsxuO8DO35TzWEpGsYnYiCKUb/sVvcbufNl2Bm+oIzRVqA6e0KtJMZnPJkAyGNFZ8xfKeb3EWyNI8dBWjAoj0xSw4qtMN8jH34rSEP8AxLQvevZdU8rlIbCSJ7lQq4NF8n79+KXTYSLwHoAOamvkJuDx1rlnUNoQ1LEif8S1KoKg81P94VpzLiwRe4qiilpkwOhrknM7KVItaiMhB7VSi4uY/rV7UByp9qoxAtcpgdDWEpHo0qWhevHiE6h8ZrPkI8xsdM1Y1GNnmUqM4FVnQogLdTWd9TuhTVhpaltT/piVETzT7UE3ikUmbqCRZvUR5Tuao5QE04gHiq2pZ+0E81Id39l45zikbRjoRQn/AIlz4rCkUGQZ/vCteylDQvCetZssZE+COAab2Z20VqWFcvdBl44z/n8q0IyvkJgdTjrWXECrH0yKv2y8EdgehrjZ7lMJlC5NNUjNPumxn64qFB3rOR2R2NC3bP0rRgA/Osu3O3g1qxcj2qCJssIcGps1EAM5qVeucUGDYuAM1GRnp1qWkIxSuK5Xf5XFSzIJrd0b7rLimSjAp8WWXgjjsaqDOesrooFhbW20cYrPDktk96lv5T5vljjFVVNd9NaXPLmi2j1IG5qqpqUNVo5KkLllTUoIxVZWqdTWikebWojjVS+UeQat5qte/wCorop1DzatEwilRmOrRFNK12RqnHKkVfLpVjqxtpQtaKsR7MktY/mFS3q/vFpbdfmFPvR8681c6v7scKWpUVCTgVu6dZCJQ+3L1U060Mr7mHAraaZYkwmAB1PrXh4vEXdkenQw2l2Do543BahIkXkS5NUbjUW3fJ09ai+2My7ic1w8zO1UDUWUNw/DdjUc2GGO4rPF2MYz+NJ9qbPPWqUiJUC6RjbIPoaqSjzM45NIbogEdqbayqXO7pW0ZnLOkU5oyOCOKptHtPSt2a2WT5kaqUkBU/N0rohVOWdIzsUoFSSJscim1q5GaiJitPQQTrVsFIU5OCe3ynms6tHQUD63aqQcbicL16GobNIxO0SdoUCNdlD127d2M89QMd6Kv2CO9lGzlgxySFgIGcn3orO5fKecFTj3p6SyYxninbaUKK9Ns8xIFd42LKcU5nd8En5hS7R3p2AOK55M6IJAJ5CME8U0uyNuXrTgtBUHvWDO6nYQ3EknDVEZHjbK1JtHamlM1m0d1NoY13KTzSNI0hBal8sUbcdKmx1KSGYqMSNE+5anIpjR5pGkZIimlaUZbOaia6k8vYQdtTMnHSq7oM5osbRaKUjNHJvU81G12zuAR1OKnmXOaoyLg5ptXO6i9S+jYiBxk56+tXYG4J/E1mxuTEMjgGrMcuM4PWuNqzPbp6ofPJk802Bx0JqGR+9EJw1ZyOqOxrw8Y71p25yBmsiE8A1oxPtIPas2ZyNNP1qTNV0lFP8AMHrSMmTg8UhI9arNPjjNZ815JJN5cSkjpTSIZpSSqVOMn3pIGG0kZxVMJLHHlwantThx6GmtDGeqM3UINk3mbsmQ5x6VVWruqAmXJ7NgflVIV3UneNzzq6SlYkFPBqOnitDlkTIRU6Gqy1Oh4oRzVIpkwNV7z/U1KDVe8P7o1pF6nBVpmbQRSZpRXQpHHKkJinCkpQafOyVRLMGNwp10N0yio4D8wqdsG5U+nNVVqWpNm9HD3kaVuuxFjXr3qG5bzHMYOFXqakik2I8h6gVTlO1QpPJ5NeA5Ns9unhrIFSPHGT7mkNmWOVBGfSrFvHu5PT0rQTaB0FRKpY7YYRWMGSxkU8A4pRayeldEFR+oFSJbx44ApKqTPCI5/wCxkLlqVLUeWSDkjtXQTWysnA7Vl7NkmBwRWsalzzMRh7FVQQM849aQsrEqw5/nV6SHZ8yj5TzVSaH5cj16+ldEJHl1IWM27h2HOOKqVrOPNiKnqOKy2BViD1rqhK5ySVhtaOhY/tm3zuAyc7PvdD096z6vaLGsur2yOTt3Z4OOgJ6/hVMSO9h8tIgolYAdAoKD8FxxRT7QXktqjrcOARxtVSMZ9aKixdzhfLYHGKUL271PbMHmYt34FMXC3YVuma9FnmIChUZPrSlGUAkdaW5WSPfn7pORU04ZrWLaOcVjI3iyEoyjJGM0hQjkjip7wnyI+MHGaLj/AI9Y+OSKyZ1QkVyhC7scetJsO3djirlqVktfLbG7tUMasq+Uwz82Khm8ZkHlsRkDik8s8jbzVq9bY4SMDioPNOQcDJNI2jUGGNh/DTNjHkDirtwxEyJjhhTLtvJkRVHA61LNo1CiyEnGOaryIelazqI7mOTHysOar3kQSdZEHynrUnZSncxZlIyDVCUcVq3Qy7VmzLTR6NJjIm/dYzg5pyy7Tg/Sq6EKzU6Q/vMevNc9RWZ7lCV4lgncM1JGcVEuAM0E5OBWDO1bGvFKiRbjUq6iijp0rKgBkcIenvWvFYW7JluSRU2MZ9yaDUY3HWrKXAfBU1h3FuEciJG9qtacdrKG+oqbELU0LsN1BwO9Ps3jQ7UAOOpNSTRhhgjII7VmXOmSyxMizbT6DgUIiSNSe6Awg2Nzzg81PGnCsKzdO0hbeJQ3zHqWNbSRgR4oehk9jK1cDCMD95s/pWataWpr/o8R9HIrPSu2g/cPNxPxDgKeBQBzTwK1OGUhVFTqKjUVMo4p2OeUwqpeH93VztVS7/1eaqK1OacjNpc0lFamNri5pM0lJSuaRgWYTzVkcze5qnCeealhctcGs8XO1Kx34akua5o79ylD61Wz5lyx7A0pfkkUsQwpPc15Ddj2qVO5cjYAVYRs81RU9qnRsVmztVMuo1WI2z3qlGauRc0rGVSJbX5his6+h2MHArRjwKjuow8JwOauG55eJimioi+ZFjr7e1VGAR2jfp0NWrV8Yz2OD9Kr6vH5cqyDuMH8K64Hz1fRmdKvlS9azbsbZsjoa0pD5kfuKz7shkBHUV201qedUZVzV/Rp1g1a3kfcVBOQoJPQjtWdurR0Bsa3bHOBk85xjg1u4mPOdbBrNrHCq+XdPj+JISQfxPNFa1m07WqFy7sc5ZNwB57c0VPIPnOFjk8jys9SafcqWm4OCRkVRLEgZPTpT97sQxPNeg4nAnqXmkL2WH+8OlPnkZLeLHpVHezLgmnb2dQpPTpWUomkZF66O6CP6U64H+jRfSqW92UAnpTvMZl2seB0rJxN4yHktDHHIO3WrMkiERSjueapbmZdrdBRzs2E8VDiaKZcuFDXKsOVaorqMJKFX1FQLI4wM9KdI7Od2ealxLVQnuvlniY9Bii8TzJAy8g1XZ2lHzULK64B5pOJpGoWJ8FkQdlqC3cSK0UnVTkU3e3mbs9aYykPvBwaylE76NUp3MeHb61mzJWzKu7JNZ80ftUo9ejUKK2IlXmQK3YVA1rLE48zt39avTWZZY5FJz0yPWonkcfJLnKnk+tccpty1PpaPKoaEajEYB61LFDuZSOmOaa6KkgA+6elXreMEDjvUyOqLuipKxgfMa8+1J5+oMyxQqyBv4sZJ/HtWp5KCcgrwauRRQpggH6Z4pJkSVxsVusMe8lt+3k5zk1Djy5429DzVx8MOvA9KoTnD4NSwjE2DIDGrA5qRR0ZDVG0cNHg1PHMY22np61KHKBfRsjnrT9+FzUK4IyDTHOFNBhKNirqB3Wv0kz+dUIxxmr96P8ARcf7Sn/P51TjHTNdlD4DxsX8RIBxTgKQDipAK6Ujyas7Ao5qZRUaipRVJHFOqNPSql1/qquP0qndf6urUTB1DOxRil70Yq+UamNIptPIpuKix1U5DlPFPtzgs34Uz+E06IERk+9cOKleVj18NsWFfj61ZQ5GKoofmHpUouSM7EJ964mj2KJdUHdUwrOTUED7ZQVNaEUiOMqQRUNM601YsR8Yq5GarxqMCrsS9KRhUZYiPFSsuVIxSImBkVIOnNOJ5GKloZAXy53X15pNSxLZg+neprz5LgH2qtK4MTKeld9KJ83iZamIr4+U9QcGqVycZFWrkFbpl9az7lztPrXo0oHlTkVi+DWjoLbtbtl278kjZnG7g8VjNJVvSLmOHVbeSWQJGrclunQ8H612+yObmPTNMEQ06IHKdfl8uTjk+9FYVvrlhHbohvoIyBjapyB+JopeyY+cwM04EVAGp4f8q7OQ5blgEGnDAqAN6VIGrOUClImFOFRBqcDWLgaKZIBilpgPFLniocS1MU4zRSZ4ozU8pXOOwB0oxTc0u7mk4FKoO2igqCKTdS1jKB0061iNlqrLHnpV0jNRuvtXPKNj18PiCpEu6EoeqsCKpamu0Y25IPNaIGx8j8alvbZJAsgH3ua4KseWR9TgsRz07djnlDbsM3T1q/buAB6VHJGPOz2qQR8frWbPSp1NC+rBjmpVwe/GazQzKPSrkLgjPrUnRGzLSgc56VkTI08spU8DpWhNL5cR5rCN79mMpfrnOB3pou1jY06XKjcehq3JMisecg965ez1HdMThlz/AAmtWJHumRyxEYOfrTsJs17W5JOw9quP8wFZ6xYcOOverinK4qGc9TYi1DCwAepFVIxxVzURmJfrVVBgCu3Dr3T5/GS94kAp1IAKWuuKPBrzHL1p/ao804GtlE8+dQRzVW6P7up5GFVbk/u60UDF1CnS03NLVOJUagUh60tFYyR10qgBSRUiD/Rzjrmnqv7r606Bcx4P5V5WI+Jnu4SegkcRK9OtWHWONQCQo96tR237sEDtWRqdu80hBPAHArmWrPYhOyuS3NkJYw8cgb05plh5sMhjkJ6U3TraWNGccIowV9a0fJLXEZx1705K2hvGpdXNFX2xgnrio/7Ukjk4UVYeLbEPeohDbxgNNioiZVpl+3vpnUHyuKvLKsigr17iqVobWRf3EnI7A1NIvlsG7+o71ooniYqoUtRfEimqUj5Lc9easaofkDehrM8zOK9CjDQ+dxE9StqByySDuP1rHu3wrGta5k3RMP7rbhWDfSYjbHTNetQhc8+bKTSVGZahZ+aYWr0VTMFFsseaaKrbqKr2ZXs5HUBqeHqtmnq2KtxOO5ZV+etSq3NVFaplbNZSiNMtK1PzVZWqVW4rCUS0yYHml3elRA4xShqycS+YkyaM1HnmkLU1AOYfupd1QlhSb+KfILmLAanhsmqgapFfHfmolTLjNlgNSlc1Esg7VNGry8ICa46kbHdRqNETAAVLGN9sy7dw6EenvV+30eSTBk4HpVyXTEht2MY+cc/UV5teN0fRYDFcrOUuYBHMQOQeRSIuSBWheRgsj+oqmybXGOlcZ9JSq66EdxCVXcvakgOOKuON0PviqkafNjtSR6NOVx0vzEDt3qnNbpJLyoParzDI45qrLIqsMVSOnmuIumQnDsg46e1aMKBIxgDGKhiuECAO2KY+o2sZKeaA31ptkSRqpjGKmjWsu2nSVhskDE9ADWxEvygms5HLN2K+o/6tPrVVOlWtRP8Aqh36mqy13Yde4fO46XvMeKU0lBNd0EfO156gTijdimMcGkLV0xiedOQjtVa4b93T2bmq9yf3ea2jAycivmnA8VCGpwaqcBqRMDTulRg08GuacTppzLij92mRUirhumOaVR+5jOO1A4ZB3JrxqyvJnt4araxuWse6MfSoJrCO4b5hyOlWbNtqAVbMIb5gcGuG9mfQU53RlpYRwqKb5ebhOOlaEsflqSecVWtxvnDYobubqRY2l+CKqXlqJGO8HbjitJRibmp2iRmCsMg804Oxz15aHOQW0yATD5THwMd624pfPt1JGD6VL/Z8QBwOM9KelsACy8CulNM8Gu7GPqq/6KT6GsIOflz9K6PVMG2ce1cxN8ig+9elh0eJXepFM4DYPQ8Vg3bZicE8ita4bK8detYd820P7mvYoRObl5jPZqYWpGamFq9JROmnSH7qKh3UVXKa+yOrKyKcFTSq1dGYIZR0BqF9MifpxXNzWPF5THVgalUitD+xx2NH9jv1BqJSFyIpqalVqn/sqUdDTv7MnFYymPkIQR60uanGmz0p02es3MrkK+4c5phcVcGmTng0o0iQ9TQphyGcz0wyGtddHH8RqVNMgQ8gVoncXKjFQu33VJq5BYzy4yMVrLFDF2FON5DGOoocWxpDbXSUGC5zWvDDDEMAAVjHVV6KKVbmWXviuedBs1jOxuvdxoMZ5qrJcPKeOlVI17nmrK4rinQSO+hXaZmX9syJ5in5QeR6VnyKCua3bxPMtJABk4yKxCMrXl4iCjLQ+mwOI5lZiKBtqMKPMINSIcZ/lSNw/TrXKfRUJ6EUgwMg1h3VxtchUZm9ccV0TqFj56GqbBTgEAj3qkzui7mQLP7RgyTSMf7o4A4rQg0lTEVSFQCMEtVmI4B2KBVuPeedxptjklYfp+nRWcOxACe7YrVXhapwnt14qwzFQMVnuzjraFPUG3TqM9BUS02aTfcM2cgHFKDXqUY2ij5jGzu2P96QkCjdUTt+FdtNHzteWojtimF+KYzc1EXwDXZCJwSYrNUFw37unFsd6gnb5K6FEybIAaeGqANzTwc03HQaZYU1MpyaqqeanQ81zTibQkb3lj7LGQO1Vj/x8RgetWoJA9ovPTioAv8ApS/WvCrK0mexQnsbFsOK1Ih8vNZlt1rTVsLXnT3PocPPQq3xxGfeo7JODzzmm6i5EW4djWVaahJFIwcEZPHvSSudnPY6CT5HWryqHQCufg1D7TOyEHjpXQQH5B9Kexz1XdEiocYPNNmYJGac7YHHWqF1KSuK6Ke54uIMrUpf3D5PWsG4Xfb59RmtPVH+Tbntms2JhJBg88EV6+HWh4dZ6mK8hGAR1rJ1LtWxcphFI9SKxtQ5FezQWqJpIzGPNRk05qjNejFHo046Bmim5oqrG3Kdqsl5AeGJHvViPVrhOHQ1YKUnlA9RXM0j5oli1tONy4q4msQMOtZ32ZD/AAikFnGf4aycEBtJqduf4h+dTLf25/iFYIs09KeLRfesZU0O50AvoMfeFDX8A/iFYQtF9TThaL71n7IdzY/tGAfxCoX1SEHrms8WqUfZ09KuNFCbLEmrL/CtVJNSmb7qkCnmJR0UUwr7V1QppEkBkuJOrkClWNv4iTU22lxW3KiuVjogoHQVdiaqQOKnjbFZVIC2NGNqsq1UI3q2hrzK0DenLUW6nWC1klf7oFYY+dfryKk1y63FLVT0+Zv6VLcW/keUR0KD+VeJildnv4CetigWKvzTZZSoBOaluI+NwquSHTa/HvXBY+rw8ywH8xBhsccVX2HlSOQahjk8tihb6Gpll/eDPSlY9anIfHhQBxV6GMlcms8MBKDnmr63GOBjmg0kW4gMZqC9vEt4yxPQfrQs4RevPpUOpWBbw+94wzJ5of6L0pxV2edipWRUR8jOc5qVWqhZPlNh6jpV0V6dN3R8vix5NMY06mPXbTPArbkLmoGOOKlkNV2rugcMgJqGc/JT/wClRzfcroiZlbNPU0zFPUU2CJlNTJ1qBetTJ1rmmaxNfTpCx8s9DV4qEl5xkg4rM087ZlPpWndHbPG3bNeLjElPQ9TCvQvQ/KwPtVzzgOKgtQHx9KL0GD5gOK8qa1PoKEtCYASqQaY2nQlASg65qgNU2nCxktVhdTdRiWI4PIqbWO+KclcuJZRLMJAuGFXVba2KpQahDPxuAf0qTzdpB96DCppoy3I3FZtwepq20mVzVKc5IFb0tzycSc/qr4k/DFZ9q+2Ur61p6tGDCXH3s1jI2CG7g817NDY8KruRX67Yz7PXP3hJU/Wui1EfunPuK5u7+6R717FAmkzOaojUzComFeij1KT0GUUtFUb3PTvLo2VNtFG2uS58uRbKUJUm2lxSYDQuelOA4pRSioaAUClAoHFLmlygJikNOzTSaqKE2RsKZipDTDzW6Q0M6UlONMNWai1IhqLvUicGolsZS3LkZqaa5W1tmlfkAcD1PpVQ3ENuMyyKnpk8msW91B72UAfLEv3V9fc15mIaSNKa1EaRppHkc5Zjk12bWv2rTk/vBQVP4VxMfpXoujbZ9Kt365QA/hxXg1lc9nCSszl3QjKsMEdQazpk2nIHHeu01LSfNzLFgP6etczcQlWKSAqw6jFcDVmfWYSXMkY0gB6Hmo97JkE5FWpY8ZqjK5VtvamrHrU7ol+0Y681MLj5hg4/nWfwWzk1btostkjNGhs22adlFJdXCJnO44rspbRJ7B7THytGUA/DA/XFYmg223dOR7LXSR8bT6GqijzsS7nl8O5HIPDA4P1q/HODw3BqpMnl3cyf3ZGH605a2hNxZ4WKjdGhnI4PHtTHqujEdCRTzKccivQpVkz56vEa/eq7VOzBuhqJq9GnI8+SZEKZKPk71JiklHyV0pmdimKeKULTwtDkCQqip0qNRUqiuecjaCNCxHJPpWhfjMYYdsGqVoNsRY9DVyVg9qrDkYrxMXK8z1cNHQvafNuCnPar9yRIqqRXPadMFJTP3TWys4ZutedUWp7eH2KcsbFzhcj2609LlQAjxnI7kVoRopbI61L5Cv1UflUXPRhdLQyTbJLIGR9rDoRV6CGVm2u2QO9SiACQlQMDrUoYIaLmNW71YkgCgbapyuqtlzgZwT6VYkl4JrB1a+2BUXksefpXRRWp4+KdkaPiiK0js0McnzkhQoXG8f3q5WOPMbcVZu7+bUGQy9I1wOadAm5G49q9ak7HhzV2UdQH7l/wrmr0YJHvXU34/dyY/vYrmdQXD49RmvWw8jFSszLZaiYVZZaiZa9KLPQpVNCHFFP20VVzfnPUu9FLSEVzHz4hpKU0hoEGaUGmZpc07DHg0uajzRmiwiTPNNJpM0maaQBTaWkxWhSGmmd6iub62tQfNkGR/CvJzWJda3NKSsA8pPXqT/hSc0irm3Ncw2y5mkVAfz/Ksu41uST5bZfLX+83J/8ArVjkvI5Z2LMe5OTUqKa5qlW5NicMzvuclmPcnNWYxUCLVpBXmVnc1giZOtd14RuPM094SeYm/Q81wyV0nhG48vVTCekyED6jn/GvLqnq4bc7Yjisu/sIbkHenP8AeHWtdulVJhXGz6bDPQ4nUdMltQWAMkXdh1X6isOeBfvA5r0KZcg1yesaebdjPEv7kn51H8J9fpUuPVHuUJ30Zz5i+bArX0+2M0iRr1PJ+lZyfPMqgE59K6vSrQ28Jd/9Y/X2HYUkrnTN2Whq2yLGqoowFGBV+PpVKM1biNa2PNqo84vhjVbsekzfzoWkvmzq12fWZj+tC0Lc8fELQlFKelIOlL1rpgzwa8SJhTCT68VMRTCtdcJNHnTiRhhnkYpXwydaCtJtxXXCu1uYuBEFp4FO20oWtfapoFBgBU0a5YCmqKt2kY8wEjntXNVqcqOmnC7LUqiKJF9qLV90Lx+/FS3a5TNZizmORcfSvHnLm1PVpRsSWxKM59Gq5HdFWFRIFdn2jqaaylTg1hLU9WjGx0NtdI2CD2q8swNclFM0R61ej1AjqTWXKd0XobrSbVJ6ZqEzBh1rNe+Mi4UGmxyuPvZoUTKoW5pCx2L1Nc3fHddyA84OK6W3Tgyt1xXLyPvuZG9WNdNJ6nkYqIRLnAHFatrDi3yR1OaqwQb2UAcsa1bgCOAKPTFdkJnkThYw7tN0TH1bNczqUe2Ycfw110wywX/ZJrnNViPnD6Yr1cNU1Rw1FYwWFRlatyR4qErXqRmOnVsQbaKlxRV8xt7Y9J60hp2KMcVlc4Bpppp5GKaRVJgMNGaCKDVAFFJRTGLR7VBc3UNpF5kzYB6AdW+lc/eaxcXRKRkxRegPJ+ppOSQjYu9WtrQlQfMk/up2+prDu9WurrIDCOM/wp/jVPH50oWsnUbGkMwSeep604L7VIFp4SsnIYxVqdFxQqVKq1hOZSQ5F4qwgpiiplFcVRm0EPUVd0+c2uoW8/8AckBOfTvVRacOCP51wVD08PuesnDLkdMVUm4p2mzC50u2lB+9GPzxROK43ufR4bYoS4NYeu6lDpdg80oDE/KiH+I/4VuSflXk/irV/wC0tWdV/wCPaH5E9/U/iaqKPYpMtWXiDT4ZxO2nSRNzgh8gn0ArtrC9t7+1S4tnDRuPyPoa8jDA4PBGfuZxxXQ+E9VlsrwwyHNrJjec/dOcA1fKkdF7npKHircfSqcfarifdNQc1VHmt7/yFLn/AK6mnIabff8AIUuf+uhp0Z4oPJrrQmFOFNFOzxW0WeJXiBpCKdRiuiMjzpwI8Um2pMUYrTmM+Qj20u2n4FGPapc7bFxgNAxyKt2eWlX0FVh1PFTQSlXCjgZqXUck0dNOnZl68kxCQOprH+64Nadx80QbtWVIeTjpXEk2elCJrWgDpu9asyW+5eKbp8JFog71eC5XBHNc0nqerSh7pnfZSTSpbsrYYde9Xo0y+MdKn8jcpz1FTzG/KU44vLJDdqmVd7gAVZ8oOoPfpT4YQh560Jmcoiyjy7N8dQprkreB5JOQetdTeTKIinqOazEKpymAPWtqcrHnYmF2WbWBYRvb7xFRXDlyc/dHWkkugqZzk1TeV26/dYdq6IPW55dWA/iV9w6EfpTdS0eGTT1lZ9sqjOM1LahYog8hwv8A9eqfiOUnUCiOfL2jAFd9Gep5tWByskXJqs0XtWm6VA0depCqcTRR8r2oq35ftRWvtRWO5xSYqTbRiq5hWIiPWkIqUrTSKpSAhIppHFTFaYRVqQiPFZmqao1k6RwhWkPJ3cgCtbbXHX0v2i9lk6gtgfQcUpzsgSIri4lupTLK24n8h7CmBaeq5FPC+1YuRRGEqQLT1SpAntUOY7EYWnqlSKlPC+1ZSmUkNVKkC805Vp33TntWE5lpCqtSqKRQDUiiuacjaEQFKOtLSdDXJNno0Ed94TuPO0QITkxOy49B1Fakwrl/BVwRLdW5JwQrgfTg/wBK6mauV7n0GG2MbUwXtJY1Yq0ilcjqM968h1bTJrG4aNwcE4U+texzrvJPcdK5zWtKS8tZVZQT1Bpo9ikeWxvhyc4YHIrf8M2YuZr9XHzLGOo6HJrDuIGtrko4wV4rpPBpZdbmiJ4ktyee+CMfzNadDoTO30iV/s6wyHLoOD6itlfuH6VmwQ/IGXh1PH+FaUZ3R5HpWbMKp5tfn/ia3PH/AC0NEdGof8hW5z/z0NJHSPLrFlaUct7CmKaeDWkWeTWiPoozRWqkcMqYYooparmM/ZiUUUhNS5GsKY0Hk0m7DA0A9frTGNTCWp1Qplu6kCIqowIYZ+lVYQrToHBKk84phOakt/8AXRn3FaOFkzrgtUdPbR4jxjpVpIwabbphMnvUxG1ga8pvU9aKsiEp5c4OODVjGORjFOZBIg45qNUIGNxpFEmFxkYoC/nTUjJ/iqYAKMc0GcjNvLWRwWRvmrnbmaaOYxsMEV2oTK1yuvQiO6jcdXU5GPfFdFBJyscOJWhQjmJbDk/jVsurRKAfunr7VnY4qSN9qketd0qNtjyp6rUnvLregjThRVOZ3uJQWOW6U4gnNMIKkEda1hFxOCqiO5i8qUp6VWZatSZZssck1CwrqhNnFKJBsoqbFFa85FjsSPajbUmOKMV0c5nYi200rUxWmkVSmJohIphFTEelN21opCaKt2/kWksn91Tj61xgSuq1x/LsQn/PRsflzXNhazqTHFCItPCU9Vwal2cg1i5lWIwlPCVIFp4Ws3MpRIwlPC0/b7U4LWTmWojAtPC07bSgVlKZrGBGFKnI6VMOlIBzSisZSN4QA00049KYTzXPJnfRibPhe48nXIhkgSApXeycivLrOc217DMDjy5Fb9a9UbGMjoehrB7ntYfYzrhccis6aPINa0wyCKouvWmj1aUjzPxhZpDeQsuA0gOR9Mf41U8NXEdpr9uzr95jHnPTPFXPGEnn62yDpEgQe56n+dYse9ZQ6j/VnI9qvobOZ7DAmF/GptxSYKR8jL196raVcLe6bb3K/wDLRAT7Hv8ArmtDYCCCO1QzGpI8x1H/AJC11/10NIlS6qB/bN3j/noaiQUjz6hMtPFRr0p4PPWqRwVI3HU7NMzS1dzmlAdmjNNpc0XJ9mLmmk0ZppOBSbNYwGqeDTCTnpTl+6Kaam9mdEICGnxth1J7GoyRmhWBOK7U4vQ0Ssd/GEaMMmTGQCpPcU5l+WqGkTO+noVwy9Cp7GrzN++UBXCEc5HQ15E42k0d8ZOxJFyMU5owRkdafDHuQHcM4yRT3TapJPFTZidRFQKVepwp20+NFct8wG3v61P+6VBty7HrnoKLMynU7FYYLFScADJ+lc/4lTcsb4wAcAe1dH5XO48nGKwvEq/6Oh9Greg/fSRy1dYts5jtRTXBxxTRuznFetKbTtY8uWxJRTMt6Ubm9K0jPyOOoBFRMlPLMe1MJatlZ9DikM2minZNFP2fkRodpikxin4pCKfMKwwimnpUmKafarUiXEiIpMVIRRirUhcpg+IAc247YY1iqldHr4T7NEWPz7+PcY5rCC1hUnqVGIwJzUqrxTglSbflrFzLURoWnBaUDingVm5miiN20Yp2KUVDkaKAmKKWkbjkVm5GsYC4xRQORQelZtnRCA00w08momNZtnZSiFen6VcG60i0mJyxiAJ9xwf5V5dmu+8IT+bohjOcxSFefz/rWTPTo6GvIKqSLg57VfcVn37m3s7ibrsjZvyBNCO+ErHkeqObnUrmTGS8pI9+ajEakr8h4HNPKc5zgjv3NWFXaBtY5I+bt3/ya0WxTmdl4Jug9lPaZP7py6D/AGT/APX/AJ11u3GfpXnXhm4Fpr8K7/3Uv7vpjk9P1r0llwD9KiW5lKZ5bqQ/4nF5x/y1b+dQrVrVF/4nN7j/AJ7t/Oq4FI5ZscKd0pO1LVHNJi9qBSGlpmTFopKWgVgzTGOFNONMf7ppMtCKfkFNNO28CkIpGqZCytu4NLGpXqalAzQRxXVRhdcwSn0Om8M3CtHJbn7wO4V0AHNcHp9y1pdpKDjB59xXewuksSyJyrDINcuLpWnzLqbUqyasPXbjoKXjPSmEGlCH3rkKc0OG0dqcGFIENL5YosYymOzntXOeJn/dInq1dD90ZJAA71x2t3q3d3tjOVj4z6114Wm5TTOSvVSiZYpNtKKWvdULnkzqDcAU004mmMRW0aZyTqDWNRk0M1RFq6YwOaUyTNFRbqKv2ZHMd5SUvSgV5VzpsJTD1qSmNTTE0MH60O4jjZyM7QTTqo6tcrBZNGD88gwPp3puVkJRMC6uZbyTfI2QOg7AUxVxTQ3zVMBXM5XNFEQCngcU3GKctQ2aKIAcU6minVDZaQUCigdalmiQtIRxilpKhmsUNU9vSlNNPyuD60vaoZ0QQ00xqeaY1QzrpoYDXVeCLjbc3dsTw6CQfUHH9a5Q9a1/DU/ka9bHPD5jP4ioZ3QPRiOKxfE7mLQbvacM6bB+J/wzW4BkVznjVtujrHjJeUfpzQjoTPOVUlw4GdvJz0q0EZRuIU7sgiowoLA9c8kDirQRQxbYdnOM1aIlIjUNBPGyj5kYOCPbmvWdwlt0kHAeMMPxrypo8LjByf5V6Po8om0CyYf889v5HH9KUjNzOA1L5tWvCOhmY/rVYCprlt95O3rIx/WmAc0kjmnMQCnYoxS4qrGEpje9LilA70uKdiHMTFGKdikxTsL2gmKjccGpsVE9Kw1UDHAoI4qTbSEUco/akYXmnYpwHNGK7MNHRmM6wwDBrqfD2oIIDbzOAV5Uk9vSuYI5p6mtZ0FUTizNYlxdz0RWixnzEx9aa13axjLzxgD3rz7c3Tc350Z9awWXLuEscztJPEFhEcBy/wDuiqcvimPGIrcn0LGuXzR9a6IYCmjCWNkzSvNau7xShYIn91e9ZY6UMeDSZwK6o0VHRI5p1m9WLmmk0hao2cV0RpnNOoOZqhdwKa8lQPLXVCkc0p3HvIM9elQmSoGlqIy11QpGbZa8yiqfmUVfswuz1KkxS4o5r5a56fKJTTin000cwcoxiEQsxwByTXLX1ybu5aT+EcKPQVraxcsqrbrxu5Y/0rExzWdSfQpQGhOKcGxS4yKQLisuYvlHhgacBzTQoHNOHNFwsIeDS5obrSZp2FcdRSZ4ozRYakOpDRmioaNYyGsMikByKfimdG9jWbR0wkBqM1KaYRWbOynIiNSW0hguIph1Rg35GmEUq+9QzshI9ehKyRI6nKuAwx7iuS8cuRFapnjcxI/AVveG5zdaBaMSSyr5bH3Xiua8buTfW6BsARnPryaFua82hyqIyjIwAwIwKsgDO3zMoD17VHGFDE7Cw5AJ4qwFbAQqo3EHn/H0rRLQylOxGckZ3fMuMV2nhiT/AIkSIWyUnYY9AcECuPwTzgHYPzrovDMoSyu16fvFk/TH9Kckc8qhy7/62T/fP86QCnHl2PqxpQKEjlnUACjHFLig1aic8qonalxSUVSgZOqLxRjmkzRniq5Cfai1G33h9aeTURPzUuQXtiakNJmmk0+QTrDulGaj3UpauzCx3RjOqOJpAcGm7qazV3ezMHVJie9Ju96iV8jFG/FaKmQ6hNn1pC1Rb+KTeKtUyXUHu3GKYXAqNn+ao2erjT1IlMkaT3qJ5KieSoHlrqhSMnIe8tVpJe1MeTPeoS/v1rqhSsEYuTHF803dUZam7q2jA6Y0CTfRVfdRRyGvsEew9qUUlHPavhrnbyC000uaaaXMUqZh60MXaEd0/rWbjitXW1y8DDryDWZWE5amqp6DRTzSY9KUdMUkyXATrRjB60dKAa0iYT0EbtTc0rHFR7ua3UTnlIkzSg1FupQ1Vykc5LmlBqINTwahwNIzH01hmgHinZrGUTohMTqM000o4Yj1pSKxaOynUISKAOakIpuKho7IVDuvA8++wuID1jcN+BH/ANasXxczNrR4GBEFBP51N4LufJ1d4DkCeIgfUc/yzVXxMQ2vXGVJwoA59qSWps6mhkqBuCNISoOflqRAu05U5OMGhEcEIQqksDk/Snqdw5fG1fl/z+dapGEqg0rwBtO5etaeiyiP7YAeDFlc+3/66zyfl3bjuOc+/wCNSW0vkvKAflMTAH8KprQ5Z1CmvK5o70L90UmaqMTlnUFpCeaQtTC3NbRgcsqhJmmlqjLUxnrVUzJ1CXfzRuqvvoMlWqZPtCxvqMv84qIvxUfmfvKPZC5y5vppeoPMpvmVSpC5ycvyKQvVYyc0hkxW1KHLJMiUros+ZTWeq5kpDJXrKlcw5icSYNKXqoZKPM4qlSDmLW+kMlVfMprS4HXitFTFcnMnJNRtJx1qDzPl69ajL1pTpCZI8v41XZzQzVEzYHvXTGBpTpNvUHfnFRlqazVGzVqoHo0qA4tTS1MLU3dWiidkaI7d70VFvopcpr7I9pzS5x3puaTNfnVylAdmqV7qEdqNo+aX09PrTdRvvskW1f8AWN93296512aRiSSSepNZynY1jTJZ7uS4ffIcnsOwqLzD6UgFOxWVzTkASVIGBqMoDSAEcVSMKisTcEdaTFMzTST68V0QR51ViyNUJODSu2BULNXXCJxSkP3Uoeq5egPW3IRzFoNUgaqoepFaolApSLAang9qgVqkDVhKBtGY9ugNOByM00GhflJFc8oHTCoKRTcc0+kxWTidUapb0y4+yalbXGcBJAT9O9XdfZW124BcheoAGf4ayRVuac3M4clQSqgk+oXH9KSia+20IVUEY2EscYp6qW+UIoKgk+tIDkEtJyAMUp2EZ+YsSSeOK1UTKVW44s2fN2r1xjHt6VBITEMY5I6+xFTMULbgpCDG4ZqrMeB15ORWnJoc06gA8UwtQW4qJnrSEDlnMczVEXpjycVEZOK6oUzByJWeo2kqFpOOtM83IrdUyGybf70eZ71WMlMMtX7MVyyZcUwSfOaiVwRzUW/DkU/ZiuXPMzQ0nFVfMpDIapUwuTeZ8xpDJxVUPknml3e9WqaHZk/m84PWjzMVWYg/hQrnO0//AK69SivdVyHTZOXNAk5qInmm7q35BezZMZDmmu524phNMZskCm46DjSbJc8UwtSFqjJq4xN4URxbvULNnmh35wPxqMnmtVE7qVIGaoy1DGo2NaqJ306YFjTS1NJpCadjqjAN1FMoqLF8h7aDmkdwiF2OFAyTRzWZq9wVjWBTy/LfSvzRuyMkjKuZzc3DynueB6Co8GjgdTS7hWDNUAHNLSbvY0B6SCTH0u0EUisDTxitYo46siIqRUbGpzxUL4Oa66cTy6siBziq7tUkrYqq7V304nHJji9IGqEtSB66OUgthqlVqqK1Sq1RKA0y2GqRWqqGqVWrnlAtMshqcTxnuKgVqeGrGUDWMyYNmlqFWwcU/dWLgbKoSA1ImCdoUlieOagDU5WwRzjmp5NS/aFkZYcKo2jn35pS7BjIHUEkjA4qI4KgANnBzmlLYfeseVB6HpmtVEh1BzMFAUPwQCfaqlw5LAFsheB9KmZiq8gfOODnkc1SuGwwQjBWteQxlO4rPxULvSM9QO9dEKZi5CyPUDSU135qItzXVCmRuOaQkGmK5J4prHimIgLkE9u1a8pag2SM3emFjTT8hK5pCarlK9mSK1I5+b60xBlwCeDRL8kmKOUapjw1BfAqLdSM3y1aiaRpio3Wn7qhQ/LS5qlE2jSH7uTQTkVFuGTS7q9Ggk4JCdKxIr9m60pNQtyPekWTnaetbWtoHsbk26mE5ekJxTSec1XLccaRITio2bAzSE5qNmyauxvCmBY0wtSk1GTzVxR1wgBNMY0pNMJqzqhEKaTSmmE+lGhvFBmimHrRWRdj2qe4jt4vMc8dvUmufuJmuJ2lbjPQegp080lxJvkb6D0qLFfmEnc5ENwKBSlsU3fUF3HgU6oiSRQr44NNESY8hT2xSFWH3WzTuGFMZT1FawRwVmMaRh1qF5vUYqVm7MOagkAIOK7qSPNqMryvmqrtUshxkVWc16NNHKxC1G6mHk0V0WETq1TK1VowWOB1ratNFnnAYqQD61nOyKimympqQGtpPDzAfMakGge9c0pRNFTkYoapFatpdA96lXQB61k5RKVORgFsEGpQeK3hoCnvUqeH0A61k5RLUGc4Gp4b9K6T/hH0zS/8I+vY1nzRK5GYBkOC2/5jnIFNLLuA3MV4JxXRDQQpBGKadE2qQCMHH6VqpoTgzm2dQDnPI4qlMwLjnmusbRQVAPQdPaq8ugq7FiefWtozTM3TZyjt71A711Enh9fUVXbw9nuK6YSRPs2zmCaaTXTHw6PWmN4fA710KSNoUGc2TSRnEqkV0Y0BT1NJ/YCjoavmRuqLOduOJDmoc11DaCG5LUz/AIR9B3o50P2LObRsOKkuh8ytnORXQ/8ACPJ1BofQlYDJ6Uc6GqLOXzSMflxXTHQ4/WmnQ4/WrU0bRos5voBTWfArozoiZ60f2DEepquZG0aLOZ3808ODXRHQIRSjQIeua0hW5Xc0+rto57NMfnnpXTDRIqX+w4q7Hi6clZkrDSRy6yfwt+dOJrozoMBpP7DiHGamGLitGP6szmmPGKZmumbQoaadCi9a0WLgbRw0jmSeaYea6R9Djz1qI6JGO9WsXA6I4eRzxptb50ZPWk/sZCPvVf1uBtHDyOfY0w10J0RMfeqNtEUfxUnioM1VGSMCits6Iufv0VH1mBXspHXCjuaKK/NTzRjUzvRRQMcOlNfrRRTRnMclSGiitoHBVK81Vj3oorupHm1CpJ1NVm60UV6VM52R96BRRW6AuWH+uX616JB/qI/oKKKwq7GtMkaheooorhkdCJF6U8dKKKyZQ8VKlFFZsaH9zS0UVmUBqNuhooq4iZE3SoH+8aKK3gQys9QtRRXVAlbjW6VG3Q0UVujqgRmlHQUUVaN0N9aQ0UUgFHSmUUU0URv3qM9aKKtGsSI9ad2ooqzeI09KTt+NFFM1AUHrRRVIEA6Gmn71FFBSEPSmCiiqRpEib71RvRRVo6YkJpKKKtm0QamH7tFFCKGUUUUxn//Z;" vertex="1" parent="1">
          <mxGeometry x="180" y="140.01" width="250" height="204.55" as="geometry" />
        </mxCell>
        <mxCell id="3Dfbh3uyOyyrv-4ScR3l-5" value="" style="shape=image;verticalLabelPosition=bottom;labelBackgroundColor=default;verticalAlign=top;aspect=fixed;imageAspect=0;image=data:image/jpeg,/9j/4AAQSkZJRgABAQEAZABkAAD/2wBDAAgGBgcGBQgHBwcJCQgKDBQNDAsLDBkSEw8UHRofHh0aHBwgJC4nICIsIxwcKDcpLDAxNDQ0Hyc5PTgyPC4zNDL/2wBDAQkJCQwLDBgNDRgyIRwhMjIyMjIyMjIyMjIyMjIyMjIyMjIyMjIyMjIyMjIyMjIyMjIyMjIyMjIyMjIyMjIyMjL/wAARCAFxAcMDASIAAhEBAxEB/8QAHwAAAQUBAQEBAQEAAAAAAAAAAAECAwQFBgcICQoL/8QAtRAAAgEDAwIEAwUFBAQAAAF9AQIDAAQRBRIhMUEGE1FhByJxFDKBkaEII0KxwRVS0fAkM2JyggkKFhcYGRolJicoKSo0NTY3ODk6Q0RFRkdISUpTVFVWV1hZWmNkZWZnaGlqc3R1dnd4eXqDhIWGh4iJipKTlJWWl5iZmqKjpKWmp6ipqrKztLW2t7i5usLDxMXGx8jJytLT1NXW19jZ2uHi4+Tl5ufo6erx8vP09fb3+Pn6/8QAHwEAAwEBAQEBAQEBAQAAAAAAAAECAwQFBgcICQoL/8QAtREAAgECBAQDBAcFBAQAAQJ3AAECAxEEBSExBhJBUQdhcRMiMoEIFEKRobHBCSMzUvAVYnLRChYkNOEl8RcYGRomJygpKjU2Nzg5OkNERUZHSElKU1RVVldYWVpjZGVmZ2hpanN0dXZ3eHl6goOEhYaHiImKkpOUlZaXmJmaoqOkpaanqKmqsrO0tba3uLm6wsPExcbHyMnK0tPU1dbX2Nna4uPk5ebn6Onq8vP09fb3+Pn6/9oADAMBAAIRAxEAPwCLbhTUEw5q+0JqvJbMTX1CmjyZ1NDJFmfNLZ6mtBLXcyn0qVbR89auwQlBzzSlU0MOZFO4TKYrJu1xb4966SWLI6VmT2RlBU0o1CZTV9DDtxm4Wtm3ysppsWmhHDAdKvw25DEmqlVQ4y1EdT5VYVzaSPOWB4rp3j+XFUJbZi+RUxnYuc00VbeMrGoPXFXNp4p0VuwHIqcQk9qbqIlSKvlEZNZepRszDH5V0TR/Lis65tmdsgURnqEpaFXSEKA7h1NalyMx1WtbWRZBngdau3MZaPA60pSXMVGdkc3dQs85IrY09dsSg9cVA1rKWzV22jaNSz9AKqU9AhL3hl0pY4UZPpVG20GWSXzJ5Ni5yFAyTWtEpkfJGKuxqSSM4A61j7ZrRHVFJ6sjigSMBY1OR3NTqmPc1IpUA46U4I7DIIUH8SanmOqM0VpQTnqPwxVKYDb8y5Xsw5rTeJ8HOT9WqpIpVvulfaqUjohJM47U7Exzb1y0bHgjrWSylWII5rupIQScD8Kp3OkQahEwQBLlR8revsa6aeIWzHKn1Rx+MUmOKnlheGVo3Uh1OCD2qMrXYncyUiKn2ab7xB70EYGat6PFuu92OBUzloa05amtffLbYrJArT1I8KtZuMUU9jo5hRS0D3p2Ku41IYaq32fs5q3iq16P9HNNMbZiYpcUuKXFaE8w2nrQFpwXmpuZykWbcfMKfdD96KLZfmFPu1/eitZP3DlnNXIUqdBUarUyDmvMxDOGrNCIPnNTqKjReTVlE4FeZOR5dR3Y5RxU2OKRUqfZwK5JTJSI8cVYsnWO5+fgFSKYE4oKVnzDsV3X5j9aZirJSmbK2jPQlohxSgVIVxSYp8wWGgc1oaRbpdarBDIgdWJyrHAPB6mqWK0dDAOsW4K7gcjbnGcg8VLYHWHwzYk5awKn+6txwKKt2tq5t122bSDJw25jnk+vNFTcZm7BmjyvasQalcelSLqU/cV2ubF7Zs2Vh9qlWGsddSm/u1INTm9KylVYuZs1GgqNrb2qh/ak392kOpzH+GpVViuXvs+O1OEWO1Zp1Kb+7Tf7Tm/u1oqjDnNUp7Uzyvasz+1Jf7tJ/asufu0+dh7RmoI/alEeO1ZX9rSZ+7Tv7Xf+6afMw9oaTLxWbdTeW4Apj6s5/hNULiWS4bd0xVwlrqKVR20LwvSvpmnG+Y9ayNsnrR+8Hetboj2szWF5k9KtAMyruGD2FZml2z3F1l+VQZ+p7Vr7gheRjwo4rGrUV7I3ozluxd4iYRIfnPJb+6PWnJIDhVzj+dU4yzbpG4L8n6dhVq2Qls9yfyrDnOtVGaCBV5PLfypxfkgsPfvUe3JAA4FTKqjjdz7Cq5zeFUidQy8k/lUTR56cirpUH3oMYAp851wqmY0OO1QNH5cgde3WtR0BBqu6A5BpqZ0qqrHP+JdOEsa30Q54WT+hrlyteii3E9tPauMqynFcJcWzwXDxMPmRsV6NCrdWOOrUUWUmXC1r6Jb/ALtpPWs9o9zBfwrpbWEW1iBjHFXOfQunWRk353TkelU9tWpvnkY+pqMpxW0XZGyrEQWnYxTwtKVquY1VUhINVr0fuDV7bVa9X/RzQpajdUwsUu2pdtLsrTmIdYjC09Vp4SpFTNRzGE6xNaj5gKfdr+9FPtU+YU+8T96OK0lP3DiqV9Soq1Oi80IlWYoua8vET1OKdXm2I4o+TVpY6ckXPSrCx15FWqZpXGLHU2zinKntUpWuGdQ3jTuRBOKClShaXbWftTT2TKxjppSrRWmlK1jVM5U7FQpTCtWmWoytbKZk42IMVo6CAdatsnaNx5xkg4PQetUSKt6TNFb6rBNMcIpJJwTjg4PFaXJPQNOeBLCJWVCcHku4J5PrRWbb67pUcCJLcKzgYJIcn86KQGEmnliwB6dakGnOBu4x61YRmSzd8nc5q5HuOlgnrjrSddkqkZcVoZGIHWpHtTEQG61YsQRer6EUaiT5zc9Kxddm8aFyI2LbN3amCzZkBGOa0ZGI0tT3Iqj9ocvGq4AyKSrsf1dkZsZAelRNaMH2961NRd4xEV/GqvmGS7jYd+taxrGLotFU2Lg8io3tShwc1p6mzxyrsqCRvMAJHIrVVjJ0ygbehbYseBmrZWltsi8UdQar2ouQpNalSMjFL9mcLnbkVf1EfvSPSpUOdN3kDNWqpDiZHlZPvTvsr9dtX7SAMGlYcCqxuXFyOBtzjFX7WwuUtWCeRbsSMM1TeRuVg3QfrT0TNzGvbrgVeWAtnHbvXHKrd3O2EbKxniIn6CrECFScDk8fSrDQeWuMc06JNoyan2huoipBx83WpDEFOQKevJqQL61SqF8pGF70N0qdV68UGLIq1UHexSZcg1C645xV7yuKiaI56VXtC/aSKyL+9U/hXOeJrIR3aXIH+sGG/wB4V1Kx/MMg1S8Q2gm0tm258tgR7V00a1mc9acjjLC2867HHArav2EcGwd6dpNlsiMhGCahv8yS46gV0qpzSMY1mjKKUxlq00ZHamMntXUpmscSVwtP25qQLTttVzm0cSVytV71f9HNXylV71P3BpqZTxJghKdsqbZTglU6hjLEkISnqlTLFntUyQVm6phPEN7C2sZ3ipryImUVZtIcuOKnu4MSLxROtamc95SZmxw+1WY4sHpU6RY7VPHAXYKoyTXj4qvqawg2V1jz2qzHayv0Q4resdIjiUPMAznoK0REqjhB+FeLVxJ30sO2cr9llXqp/KnfZz34rpZFVhjAqnJEhyOFauOVc9GnhDCZCppuMA5rVMCHORyKglgUD0NT7U6fqmhQoxSumw+1IDmuiFQ46uHsMIqJhVgiomFddOR5tSFiu1XNCcJrVuxJAUsTgZ/hNVHqzorbdZgbfsxu+cDO35TzXZE5WdmIopRv+x21xu582XYGb6gjNFSwvp7RK0kxmc8mQDIY0VVhGJcjZEkfoKuxMI9MUt0rPmbe7H34q+U/4loXvXnOR6MaVxlpcxPcAKOaraif370lgpF4D0AFJqGTcNx1rNs7qdFFyU/8S1KzlA81P96r02fsCCqcalpkwM4PNJMcqNkXtQG4IPaqkI/0mP61cvh9047VWgUtcpgdDWqkcFSnYuXhiE6h8Z96oOB5jY6Zq3qMTPMpUZwKgeIogLdTWsZHK4kJFOtR/piUnepLVSbxSB9a15jNxJryGN5juNDxqmnEDkVX1EH7STzVlVP9l45ziqUjNx0GWq405sd6zRGC65H8QrS09w0LwnrVcwkT4I4BqnLRiUdS7Fl7oMvHGf8AP5Vrw7RbpgdTisq3QqT6ZFatpH8pHYHoa5XI7Ehk8YUE1Bxmrd3wD9cVUC96XMbRRNEc/SrKKPwNVYjt4NXU5FNSKYAYNOwM0uBuzjmngc5xVqZNiPYBmozGG6dat7aNlS6g0ihJHhhS3EAmt3RuVZcVZlTAojTcvBHHY0RrWM6kLowJYxbWxUY4rEeMsST3rb1Jv3vljt2rOZK76VTS5xuBQaKoGh56VpNHUTR10xrEOJn+Til8rirZj5pfLrZVibMpeWar3kX7g1q+XVe8j/cdOKPbD1OfWGpFh9qtCKpVipSrAolZYfap0h9qnWOpVSueVc0VMfaxYYVNex/OtPtl+YU++xvWpnW9w1hQbZSWPJAFb2nWQiUPty9U9OtPNfcw4FbbzrEmEwB3PrXhYvE3dkepQwml2Do5yNwSoGMi9JcmqNzqTbjs6etVzesy7ic157bZ6VPDmp54bh+G9ar3EgIx3FZz3ox1/Gqkl82eTzUWZ6VKikabS4IkB9jVV5vMzg5NZ7XxAI7UlncqZDu6UWOn2ZaY9iKixg1ZMSyYZHoMRGN3Q1pCdjgxVHQrmmMKmdNjEVC/SvRpO581iY2ZWk71Y0Qk61bhWCtk4Pp8p5qtKetS6KA+uWqnP3ifl69DXqUloeZLc7RLloUCNdlD127d2M89QMd6Kt2HmPZRs5YMckhYCBnJ96K15STnGzjrzQJ5cYzxTsUm0V5DiexTkiLzHjYspxTJHeT5ifmFTsgNMKdqyaO+nNDVmlPBPFODMjbl60ojxTwg70JBUqIcJ5JOGNJ5jxtlaUKBQVFbRiedVqIU3cpPNBkaQgtTdgFHStoxOOckL+FNWVon3LS5pCuauxncWSZpRlutKLqTy9hHy00DijYM5pDsmRgtHIHU81YW5Z2AI6nFMK5pAmDmhsajqa8JxEpxk56+tadueCfxrLgYtEuRwDxWhC+BwetcjlZnVyaDbht2SarxnsTUkx4qFRhqOY0jHQsoNvvVuHpyKqKOAferKHaw9KpMLFoDn3p1MWQU/eKGxpD16U44Heq5lA4ziqU13LJN5cSkjpWbZVi/I6FSACfemRY2sRnFQCOWOPLg1LbcOPQ1nz2ZXJdGNqVvsl8wtnzDnHpWcVrX1YEyjPY4FZhFd1Go3G5zVaSUtCArUTLzVlvpUZFdMZnNKBBsFOCU/HNOArVTM3Ei2VXvE/c1exVW8H7o0c4uUyQnNSBKUCngVEqhrGAgWnqKTFLmueU2dtOjcswEbhS3XzTKKihPzA1M+DcKfTmpq1LUmzvoYa8jTgGxFjXr3qG5bzJDGDhV6mnRS7Edz1AqrIcKFJ5PJrwbts9qGHSQqpHjufc1G9mW5UEZ9Ku28O7Bbp6VfVFA6CplUsdVPDo5S4sZVPAOKrPbSeldk0KP1Aqu1pH2UUlUOmNFHJNaELuaiO2+QkHJFdJc2gZOBWUIdkuAMEGnzXKlBIZb5ABGcetX42VvlYc0Lb7CGUfKeakaD5QR+fpVI87EuyKl1Fs5xxVF+lbDDzYSpHI4rHmBUkHrXp4bU+Txj1KUx61JozD+2rfJbGWzs+90PT3qCc0aUqy6xbo5O3dng46Anr+Fe3RjoeRLc7uFo0iCiYgDOAoMY/BccUUWn22a1R1uHCnptVSMZ9aK6OUDP2EHGOaAueO9TWrh5mLd+BUakLdhW6ZryHA6o1bCNGQMn1oMZXBI60+5Dx78/dPIqWfLWsW0c4rFxOmNfQrmMqMkdaXYVAJHFT3hPkR8YOM0lwQLWPjkimoCnXISpC7scetJg7dw6VPbuslr5bY3dqrKxVfKbn5sV0QpnFOrcMMRkDim85IxzS303luEjxxVb7UdwOOSa3UDByuWcN3FChjyBxSzTETIg6MKW5l8mRFUcDrSlGw1IQAk4xzS4J471PwlzG/8LDmnToEnSRPunrWEjeGpXxg4NFOkOXNMrByOyFO5dtX/AHWM4OatpJtOD9Ky7dwrHmrhkHmY9ea46krSO+FG8S23zDNNApVIC570x+eBUKY3Ssi0HRItx7Uw3yKMY6VBGhlfYeg9avLp1uyZfkkVtGZzyg9yKK/jfvViOYPgqe9ZdzaBHIijb2qxpw2soYe4puQ4ouXSN2OB3qSzMaHagBx1JqxNCGwCOCO1ZtzpUssTIs20+g4FZORool+4uVGEGxuecHmnKnCsKq6fo628KhvmPUsa1PLAjIrKTN4x0MLWQMIw7tn9KyK19WH+jxH0cisgnmu2hL3Dnrw94Y3WmGnnrTTzXVFnFNDKkApop4AxWqZg0IRzVW7/ANXVuql1/q6LgkZ2KdSUtZzZ004hmmk0pphNYNnpUYE0R5qcHM2PWqsbc81JCxa4NZYqdqVj1sPT1NJTuUofUVGq+bcsewNAbkkVYt48Ln1rx27HqwgW4QAKtKuearxL2q2grNmw3b60wrVkLmneXmgfMUjHnjFZd7bbHDgVv+WBVe6gDxHiqTInK6KUEYeHHX29qQKEZo36dDU1m23APY4P0pNUj8uVJB3GD+FawWp42LqaGfKvlS1kagNsuR0NbEp8yP3FZF/80YI6ivVwq1Pl8U7sxpm60aVOsGrwSPuKqTkKCT0I7U2c9ak0M41y2OcDJ5zjHBr6CktDzOp1EGs2scKrsunx/EkJIP4nmitmz89rVGcu7HOWTcAee3NFal2MWOfyPKz1J5p9z803BwSMisczEgZPSn/aHYhiea5nQOdSdzaacvZYf7w6U64mKW8WPSsgTllwTTjOzqAT06Vk6BaqGrdyboI/XFJcvi2j57VltcMygE9KY1yzJtZunSqjQE6jZaeVoY45F7U+e6QiOUHqeaynuCV2seBVdpiU2Z4rohQM22zXupA1yrDlWqK5IWUKuOorKFxIMDPSnPOzncTzW3sRWZs3Eu2eJieBip7j95IGXkGsMXDSgbjVuC5cYBOaxqUxpm1IwZo0HULUlpKJA0UnVTkVmRTN5m/PWrCkhw4ODXm1Y2OuiyZxhz9aiJqQnOc1C1cUmezho3LMNsJV5kCsegqQRSROvmHp0PrVN4iyRyKTnpketP8AtjjCS5yp5PrXmTm3LU+lhhY8miNRH/dgE81NHHuZSOmOazvNVZAAflPStW1wwHfmpcrGc8NoQzsYXzGuT7VC02oOyxQqyBv4sZJ/wrW8uMTkFeDVyKOFcFQfpnitYVDzauHK0dokMe8ltwXBO7OTUGwRzxtjoea0pAGHXgelZ84w/NU6hnGjY1CwMasD0p4ToyGq1oQ0eDUiymNtpHHrUcxsqJY3ZHPWmO+FNOOCMg1UnbCms2zeNKxl6m2bX6SZ/OsjtmtbUf8Aj0I/2lP+fzrIrvwz904cTC0hDTDTjTTXZFnm1IiDrTxTR1pwrZM5mhDVW5/1Rq0/Sqtz/q6GxxRQoo70Gs5M7KURpqMmnMajJrBnrUYjg1S2p+Zm/Cq+7ANS25xGT71xYqV3Y9WhHQ0YmBA9zWjByMVkQN8w9K0IrkjIRCfeuFnfE1I1wwq0q1lw6ggbbKCprUilRxlSCKhpjuSAdKdinqBgZp+0UiGyLGaRowVIxUxT0pvamZTkZCp5dw6+tS6gBLZg+nei6+W5BHpTXbdEVPSuimeNitTFDY+U9QcGs29XAIrUuEK3TL61nXYJU/SvUw7sz53EIwJxyal0Rd2t267N+SRsJxu4PGaJlzml0tkh1W3klcJGrck9Oh4P1r3aUtDzmd1pkcY0+Icp1+Xy5OOT70VQt9UsI7dEN9BGQMFVOQPxNFa8w+Y5jf704SY71VD04PXf7MTw7LglpRNgdaqb6PMqfZIh0ZItGWmNIT3qDfTS/NNUkgVCTJSaYWFRF800vWigdEMOSFhmlDVDu4pQ9VyGroaFlTjpVmJuaoq1To+DmsKkNDjq0nHU14SOKuxkEDmsqCTOOa0ImrysRTFSlZlrtUL1IDTXFeRUjY93CVEEUhMJQ9VYEVW1CUqANuSDQWMbZz9alvERwsg/i5ry60bSPscHPnp27FeGdg21m6etbdndAAc8Vzhf99ntV+Fz/UVk0dPJodbFOHIPGatxsD34zXMQXBAHOK2LWcMM5qbnNUoJmquOc9KyJ0aeWUqenSrkk+yI81i/bvsxlL9c5wO9WpHHKhY2NOlBQbj0qxNMisTnIPeuatNS3TE/MuedprQVWumRyxEYOcetA4UjSguySUJ5FLOwIFVmTDhx170PJlcZqLnSqWhU1RgsGPUisgGtHVWBjX61lBq78N8J5eKpe8SUhpuaWuyMjyatMUdafTKeK1UjkdMY9V7n/V1YcjNVbk/u6OYcaZRppNKTUbGs3I9CjSEY1C780SPVdnrLdnq06dkTdRU8LfuDjrmqqnMX1qW2P7vB/KuGv8TPQpR0NK3TKjitMGONQCQo96rW0X7sEelVL+N5pMFsADgVzrVnS1ZXNWa1EsYeOQN6c0tg8sLmNyelUdLiljRnBwgGCvrWntLTxn170SVtDNO+psecFjBqhJq8kb4AFWZhth+oqjIlvGN02BURQpF2PUJpBu8rI+tWRMsgBXr3FZ9tJayL+4k5HYGpJD5bBu/t3ptENXIr58SIaiD7iw9eaZqD5QNnoagikzirizzsRSuLerlo5AOo/Wsy7X5Ca13bfCw/utuFZl4P3TY6ZruoT1PBxNKxhSJmqrx1ouoqu6V7NKroePOJR8s+lFWtlFb+1I5SkHpfMqvml3Yr6TlPadEsCT3pd/pVbfS780uQh0CxvpC9Qb+KN9PkGqKJS/NIXqEtik3U+U1VJEu404NUAPNPBpuISplhWqdGqmrVOjcVjOJwV6ZoQyYNaUD5xWNGSDmtC3ccc8152IhoeS04ysayNmnkZFVopB2q1GkkvCgmvCxCsenhZNMrSgYoQlrdlI3L0I9PetaHRpJMGTgVJc6WkNuzRj5hz9favKran12X1uVnLzoI5iAcg8irFu+So9KLtPnR89RUK/K4x0rl6HuxkmarAqoYdutXrObAAzVBH3Q++KktThsdqgpxNlpd5UZ471DLEkkmSAe1MV8rjrTHuFUgChGM4XLI0+A/Oyjjp7VbQhIxgDGKqx3ibAHYAVWm1W1jJTzQG+tVchUzTaRQMZquW61nx3aSt8kgYnoAat5+UZqWaRjYqarJ+7X3NZqvkVY1aQ/uh36mqCPXfQ+A87ExvIthqdnNQBqkBroTPLq0yTNPBqLNOzVcxxukI7VWuT+7qVm5qtdH93S5jWnRKLNULyYHWh3wKqySUHo0qVhZJKrtJimvJUDPQd0KZoq/7tKnibDDtzVVSfJjOO1PR8MnqTXnz1kzrjG1jrLD5ox9Kla1juG+bqOlU7CXaiitVFDfMDg1zXszocNBIrSOFRz+tL1uE9qVzsUknNRW77591D1M+Q0HYvway9QhEjsH6Y+WtDfiXmlkVGbawyDzRF2M5QOdihmQCYYUx8DHetiK48+BSeD6Ur2USg46ZpEhABYcCqlK4oU7IragcWxPoapW8udufpVm/f8A0dxWWj7QDnvQjKrSNhWAYA9DxVGc5hcdxUqPuX361Vun2h/9o1rSlqeNjKGhSYZqJlqbrTSK9WnM+cq07Mg20VLiitucw5DmWWRDgqRSB66UwQyjoD9KryaZE/TivsOax9S6RhhgaXctah0cdjUTaO/UGq5yHRRQ3Ck3VcbSZh0NMOmTimpi9iitketGasf2bPQdNnp+0K9kiAEd6UMKsrpc561OmjyHqaTqGcqSKStUyMa0odGH8RrQg0qBCMgVhOdzirU0ZEQdvuqTWrZ2E8hGRjmtSG3hi7AVaW6ii7j8K4qt2jxq8EnclstIQYLnNbkEEMQ4ArFTU16IKmW4ll74FeRXotipSszXluY0GM81nTzvKeOBSqmeTzTioFebKkke5hK9jA1K0aNPMU/KDyPSs4jjJ7V0l9F5lpIuMnGRXPlfl964a0bPQ+mwtbmRYgb5aswkeYQTVKA4z/KrSHDjjrXOz04u6LpbAyDzWVc3e1iFRmb1xxWoPljGehqPg4BAI7ZoTBxuZ4tvtIBkmkY/3RwBxVuPS1MRVIVAIILNVqI4B2KB+FTr5h53HFFxcqI7Owis4tiAE92xU7khf5Uq+nXio5yVAxS3YnZGPqj7rhVz0FVVp902+5ZuoBxTBXpU1aKPKrSvJkympAcVEDil3fhVnHMl3Ypd/FQbqUNgUzDlHM1Vbpv3ZqYnHeqt0f3ZFI3pxRmyNVWRqnkNVJOaux200RM3NRE5NOfrUZ600dcUbOwfZYyB2quGP2iMD1qzC++0XnpxVdV/0pfrXnT0kzpS0R0NmeK27dsLzWDaHDCtiJ8LXNLc6EtB95IRGfeix6HnnNU7+VhFuXsazrPUpInYMCMnj3oSuiGrHSStsdatYDxgVgQaj9pnZCDx0rciPyD6UPQiwpBxg81DNIEjNPlYgZHWs26lJGM0hqJSvp/3LZPWqa/PBn1GaTUHwoUH3pbFhJDjr1FapaGVRIltpiAue9F4enpSKuI0PuRSXXKg1VP4jysXFcrIBQaFpTXoQZ8zXjqNooorW5y2OaWS8gPDEirCavcJw6GrBSmGIHqK+8smfUWHprifxLirC6vAw61RNuh/hFM+xxn+GlyoLGqupW5/iFPF/Af4hWMbJPSj7EvvS5EI2vtsGPvCkN9AP4hWP9iX1NKLJfejkQma41CAfxCl/tKEHrms1LNKnS1T+7S9mjGbLg1Rf4VNKL+ZvuqRUccCjooqykeO1Q4o4KzGq1xJ1cj2qxHCeNxJp6JU6jpWE0jxsQWbdFUdBWlDWfDV2JsV51aJzRZdU041CrVLmvKqwO6hUsyveSrBbSSv90CsDaHXjvyKta9c7mS1U9Pmb+lOuLbyfKI6FB/KvKxCuz6LBV+hnLlH5qdpCoB5pZoc/MKFAdNrce9cbR71KqXon8xFwccUiIeVI5BqtAfLbYT9DV6Jv3gz0qTqU0PiG0AcVcjhJTJFV1A80HPNXxLjgY5oJlIYsYIzWdqVwlvGzHsOnvWoXCL71navppbw+94wzJ5of6L0qoK7OWvX5Uc+RnnrmlAxTLfldh6jpU23mvTjqjyp1htLS4oNVYwlUuIaafSnGmkUWIUgPSq9yP3ZqxUU4ylI6KczJkWqzir7pVZ46aO2Eii61CV5q4681CU5qkdUZFrT3Jbyz0NXCoSXnHI4qlYjEwPoav3fyzxt0Ga4sQrT0OqlLQv2/wArKa0FnA4qpaAPj6VLdgwfMBxXG9zrT0LagSqQaX+z4SgJQE5zWYmqbSAsZLe9XU1N1A82I4PIp2sS4uWpdSxiEwkC4YVbB2tiqtvfwzjAYB/7tSmTBB96lmTdtGPlPFZdx3NaTtuXNUZxlgBSW4OVjntROJR9MU7TDtm2+tT6lADFvH3s1XsxhlbuDzW3Q55y1NKRNsXHZ6rzfd/Gr8yfuWPuKz5vu496dPc8zFy91kIpTQKDXoQR83XlqJRRRWtjluUtlIUqbFG2vvD6og2H0o2YqfbRtoE2QbM9KXZxU22jbSuS2RbKcI/apQtKFoIbGKntUqrSheakUUrmE5ContU6LimqO9SrWcmefWY9RipVFMFPFc8jyK7LEZq0hqpH1qwp9a46iOZFtWpLi5W1t2lfkAcD1PpVd7qG3XMsip6Ank1gX+oteygD5Yl+6P6mvNrWSOim7DHkaaR5HOWY5Ndk1p9q09P7wUEGuIQ9q9G0TbPpdu/XKAH8OK8mrC56eHq2ZzflkEqRgjqDULRYOQOO9dXf6R5uZYsB/wCdYzQEMUkBVh2xXDONj6DD4i6MzywenWpow6cHkVP5WAeKjJKnaRxUHb7WxIsmOvNTedyMYHH41VCgnOT9KuW8AJyRmjlRnOuye2gkup0j67jiumurFJ9PktMfK0ZQD8MD9cVV0W027p2HstbBGMH0NbwgebXxDbPHArRuQeGBwfrUyzKeG4NOvI/KvJ0/uyMP1quetbxvE4nVuWuvQ8e1BqsrFehNSCU45FbKaZPtB/FNpdwbgGg9KuwKoIKZMPk61IKbKPkpcptCqUGFQulWitMZeKTO+nVuZ7pUDJWg6VXdKEzshMLROSfSreoL+7DDtg0y3TbEWPQ1NOQ9srDkVwYh3md9J+6WdOl3BTntWlcESKqmue06UKSmfumtpJgW61zyWp2QldFd42LnC7h7dasRXKgBHjOemSKtQqpbI61ZEKPyVH5Url6rYz/syTOGR9rDoQKvwQSs212yB3pywhZCVA461YVwhpNmEm27sbIoUDFU5CqtlzgZwT6VZklGCawtVvdgVF5LHJ+lEUYTlZGr4kgtI7SMxyfOSFChcbh/erFs4sxnio57+XUGjMnSNcDmtGxTcp4rV6HK5FmZf3LDvxWZcDBI961Zz+7fH94Csy8GHHuM1dJanl4uehWxTSadTGr0oI+fqy1DNFNzRWtjnuMxzRiilxX259a2GKMClpQKCGxuKdilAp2Km5m5jQKUDmnbaUCi5m5iAVIopAKeBSbMJyHKKlWo1qVazkzhqseKeOoqncX1taAmWQZH8K8nNZNxrc0pKwDyk9epP+Fc05pHl1dTo5LqG2XM0ioP1/Ksy5115Pltl8tf7zcmsIu0jlnYsx7k5qRa4ak7mKRYMjO252LMepJzUimoBUimuGauaJllG5rvPB9z5mntCTzE3H0PNcAh5rqfB9z5eqmE9JUIH1HP+NcdSJ1UpWZ36iobnT4bkfOnP94dasLUuM1xTienRqNHL3mly2oLAGSLuw6r9RWdJbrjdnNdwVyK5/VdONuxniX9yT86j+E+v0rmlDqj1Kda6szE8nB4Fa1hamaRI16nk/SqMY3zKoBJPYV1el2Zt4S7j94/X2HYUQV2RWqWWhciiWNFRRhQMCnMOKdTT3rrijy6k2eTaoMareD0mf8AnVOrmqtnVrw+szH9aok1qonM5i0uabmgGnyC9oOpdx9eKZmlzS5WhqoSCQd6c5DJ1qHrS1Sk1uXGoMIphGalNNIqtGddOqQMuaiMRLAetWSualt4gZBkc9qxm+VXPUoVLkNxGIokX2qC3O6F48d8itO/iymaxDIY5FxXnt82p6kJ2IbfKNIfRqsx3RRx6Uu0Oz7R1NV5EKnB/Cjc7qZ0drdocEHtWglyOOmK4yO4aI8GrsepkdSankOpanUGcKpPrUf2kMOtYR1IyLtXNLFcuPvVHKZyiassu87F6mufvG3XcgPODitq25Bkb0zXONNvuZG9WNXFanFWgy5bDOAOldHp8e2AE9zmsK0i3ugHVjXRMRHCEHpiiTORqxG43RE+rZrLvRiVR/s1qbuQv+zms2/BEw/Kt6O542MZTJqNjUjVE1elTR4NV6iZopuaK2sYXF60vSkpwHFfZn1jYoFPApAKeoqWzKUxAtOApQKkAqGzmlUGbaXFP20YqeYxdUbgUoHaorm6hs4vMmbAPQDq30rnrzWLi6JSMmKL0B5P1NJzSJc7m1datbWh2g+ZJ/dTt9TWRc6vc3WQGEcZ/hT/ABrNA709RWEptnNUZIOevJPWpBTFFSKOa5pHn1SVOtTLUSjmpRXNMyJBUi1GtSLXPJFImStHTLg2uoW8/HySAnPp3rOSrMfUVy1EbQZ7HGcqCOmKlHAqhpMwudLtpQfvRjP1xV/HFcFQ9KiPGDWfrOpQ6Xp7zSgMT8qIf4j/AIVoL09K8z8Tav8A2lqzKP8Aj2h+RPf1P4msT0I7GlY+INPhnE7adJE3OGD5BPoK7axvLe/tEuLZw0bj8vY15GrDAJwRu4TpxXQ+FNVlsrwwyHNrIBvOfunOAaaSRM7noZ6Uxuhp9Nf7hrWJw1FY8j1Qf8TS6/66mqRNXdVH/E1uv+uh/nVAmumKOObAmm7sGkZsVEz4rZQuYuRPupQ9Vt9KHqvZi5yyHpwaqwepFaolTKjMmoxTQc04c1zyjbY6qdQQjvU9qC0o9BUQ6nipoJCrhRwKzleSaPRoVbMlvj+4I7mufkTa4OK6G5UPEG7VjTrnOOlcSiz2adVMfBGHTd60T225elaFpbEWajHNEkXy4I5rFs9qg7owXtiTUawsj4Yde9anlkvjHSmNBuU56inc9CEbleMeWSD2qwjb3AFIUDAHv0p8CBG55NFzR0y+7+XZuR1CmuYtEeSTnOc1tXNyBEU9RzVKGRUPybQPWnF2OLEUtTasY1hG9vvEVZabe3J+UdayPtoVM7smnJcO3X7rDtStrc86rGxtwuJX3DoR+lW73SoZNOWVpNsqjOM1n6eVjhDyHC//AF6XX52OobEc+XtGAK2pbnh42OhjsOTUTVKajavTpnztVakeKKWitjAKcKaKeK+yZ9PJj196lUVGoqVazkzkqTHAU8DihRThWTZw1KgmKzNU1RrJljhCtIeTu5AFa2K46/l+0XssnUFiB9BxWU52MfaakNzcS3UxllbcT+Q+lRYqQDikxWfNcpVBAKeKAKcKTZMpDxT160xRUi1lI46jJlqQdaYvWn5wc9q5pmZIBUijmmrgipFrGRSJFqePqKiWpo+tclQ2gekeD7jzdEVCcmJ2XHoOtdDXFeB7jEtzbknBCuB9OD/MV23auCoenQRWvctaSRqxVnUqCOoz3ry7UtNmsJ2jcHaThT616qw3k+o6Vj6tpiXlrIrKCeoNc7Z6sIXR5xDJhic4YHIrofDVoLma/Vh8yxg8jocmuemia2uSjjBXg103g1mXW5omPEluT9cEY/mapPQU4na6ZK5t1hkOWQcH1FXJPuH6VBHF8gZeGU8f4VMxDRE9OK0gedXR5Lq3/IVuv+uhrNY1o6t/yFbrP/PQ1mOa7aaPMqMYxqBm+b2FPc1Xdua7YROdseXpvmVCz03fW6gTctq9To9UFerEbVnOA0y6rVIpqsjVOprjqRNoSJFPJpQcMDTUPX60tcyWp2QnYtXTBI1VGBDDP0qnFGrToHGVJ5xTjzUsA/fp9RSlR5Uz0qFfVGzHb4iIx0qJ7fPateKHCcjrUM8O1sgV473PqcPV0Ocnh8ucHHB71DImORjFblzbiRPu1lvbkAjcaEz1qU0ykyjqAKaFI6dam+ztn71OEe0Y5qjrTRmXVtI+XRvmrEmuJo5jGwwRXXrFlelc1rkAjuo3HV1JIx74rWilKVjkxO1yK3uCXAcmteKVWiQA/dPX2rAjHStC2k2Aj1rpqULbHk1HobUt3vjEaHCilaV7iUFjluBVGLJqymVII61EYOJ4uLV0Tzx+VKU9KgapXJY5JyTUbV2U2fPVo6jMUU6itrnNYj4py0wU9a+zZ9DJky1KtRLUorKTOCsyUU4UwGpFrFs82rIju5PJtJZM/dU4+tcZium1yXy7EJn/AFjY/LmubrnqPUwUwAoxThwaUjkGkmaRmMxTgKXFKKLjchQKetNxT1FZyZzyepKtSgVGoqQCsJCFAIOR0qdaiXrUimsZFImU1MlQKeKmQ8iuWojaB0fhSfydciGSBIClekryK8jsJzbXsEwP3JFb9a9eTG3I6Hoa8+oenh2McY5FQOuQatNyMVBjrXMz2KT0PP8AxbapDeRMvDSA5H0x/jVfw1dR2mvW7Ov3mMec9M8VJ4um8/W2QdIkCD3PU/zrHjZ1kDr/AMszke1UhVWexxjC/jUUrlJQpHyMvX3pmmXS32m29yv/AC0QE+x7/rmppQCCCO1awPLrs8m1c/8AE2uv+uhrLkNaut4/tm8x/wA9DWTJXfSR5dQruarSGp36GqznnrXo00czImNNB5obvTa6UhEytVhDVVasJzWU0CLiGp1NVo6nU4FcVRGsWSxn5acDz0qOP7op4rka1N4sfUsZw6k9jUIYA9acjAnFdDUXobQqNaneoiNGGTJjIBUnuKjmhyvSodJmZ9PQqAy4wVPY1akP71QFcIRzkdDXz9WnaTR9HhcS0kUDDkYxVKe0ByQOa3lgDoDkZxkioJ7bClu1YtNHt0cSjl2tmV+lL9nOM4rcForluQNvf1oa3iVRtG9j69BRqdqxSMIRAsVJwAMn6VgeI4MrG+3AzgD2rsjZ87jycYrB8S2+LdDjo1bUZe+kialS8W2ceiYxVmIc01oj2FPjVgc4r1JzadrHmykmi7D2q6lUYt3pVtGYdqhVNdjzcQtCcCmlKAWPaj5sVvGz6Hg1o6jNpop/NFVy+RzWKtPXimAU8V9mz2ZPQlU1Kp4qJakB9KxkcFZkq1KuaiFSqaxkeVVZja/km3HbDGsULXQa9s+zRFj8+/j345rD25rkqPUxRHjFL2p+2gjg0kxp2G4pQKMcU4CquVzABUgFNAqRRWcmQPWnjrTFpTxzWTGSDipAaiBzTwazaGiZamQ1XU1MhrmqI0iy3H0r1rRrg3WkWkxOSYgCfccH+VeRxmvSPBk/m6JsOcxSFeffn+tcFRHoUJHQmom4Oe1TGql9IbezuJuuyNm/IE1yNHr0p6HlmpTG51K5kxkvKSPfmmBVOPkPA5qLnOc4I79zVgfKBtc5I+bt3/yauKCpLQ7fwXeh7Ge0yf3Tl0B/un/6/wDOukkPX6V534buxaa/Eu/91L+79OT0/WvQpjgH6VqlqebVkeTawf8AicXn/XVv51lyHmtTWf8AkM33/Xdv51lP1rupHm1CvJ6VVkq1JVaSvQpmDK7UgpzdRTa6UJD161ZSqy1YTrWcwRajqYHCmoEqXPymuKoXEmjPyDmnZqMdBTq5mjVMGDbuDT48r1NNB9adnitqVK65iufodX4ZuVaOS3J+YHcK38c15/p921pdxyqcYPPuK76GVJYlkQ5DDINedjqFp8y6npYWvpYkwuOgqNlBPSlJP4Ubc15coHr0q9iEovoPyppRTVjyzSeUKzcTthiiqYgegrmfE6YjRPVq68rtBJwAO9cXrl0t3dlYzlY+M+tdGFptzTKqYtcu5zvlc9KUQ+1W9ntQEr2bHL7a5EiAdqnUUAe1PAFCic1apoKKWiit4I8erISiiitOU57lMU9aaBinqK+mbPVlMetSDrTVFPFZSZ59aQ9akZxHGznnaCcUxarapcCCyZAfnkGB9O9c85WR5lR3Zi3NzLeSb5GzjoOwpirgU1DzU4FcLlqIjxRtp5UigChSAi207FOxS4quYQ0CngUYpR1qWxjgKD0xRRUgIh7elSCojw+fWpB0qWBKtTKagWpVNYTRcWWojzXa+Bbnbc3duTw6Bx9Qcf1rh0PIrofC1x5GvWxzw+Yz+Irhqo66Uj0/tWR4mlMWg3e04Z02D8T/AIZrWQ5ArnfGkm3Rlj6l5R+nNcjWp6VOpoefLneHAzt5OelWRuUbjtO7IIquMFgeueSBxirHyhi2w7eQM1UUOc9BNzQTxsv3kYOCD6c16i8olt0kHAeMMPxryuRcLjByf5V6DpU4m0CyYf8APPb+Rx/StlE4qkjzzVW3atensZm/nWY5q5eSb7ydvWRj+tUXNdlNHDNkLnmq71M5qu5rugjFkTdaSjrzRXQgQ9anQ1XBqZDWc0BaQ08ng1CppxauSaKRaB4FPJ4qJTxSk1g4miY8HnmlzUYPNKDXVh46MmTHhsGur8PakggNvM4BXlST29K5LvUiNSq0FUi4s0hVcXc9KWSLGfMTH1pGvbWMZeeMAe9ech2zjc3507d61w/2an1OtYxrodvJ4hsIjgOX/wB0VTl8Ux4xFbk+hY1yuaXPrVrL6aH9dmzSvNau7xShYIh/hXvWWBxTieDQOBV+xjHRI0jXb1bGbaTbUmKTFTynTGsxmKcBiloppEVKjYH09KSkpCa2gjgqSCikzRWljLmIQKeq0oFOANe62d0qgqinAClApwWsZSOCtUFGFUs3AHJNc7eTm7uWk/hHCj0FaeqzlVW3Xjdyx/pWWqVxVp9DlQix8VIDgU/bkYoCAVyORVhvBo280/aAKOtUmBERg0tOYc02qTELiijtRmmAUGgn1pKAEYZFOQ5FJQvDY7GkwJlqVaiWpFrGZSJ0NXrOYwXEUw6owb8jWepqxGfWuScTeDPaIHWSJHU5VwGGPcVynjmXEVqmeNzEj8BWv4aujc6BaOSSyr5bH3Xiuc8byk31ugbAEZz68muZx1OuM9DmVDKCQcBgRgVMSM7fMynr2qFNoYnYWHIBNS/NgIVUbiDz/j6VUYhKpoMdjjdu+Zeldb4bm/4kSoWyUnYY9AcECuQck84BCD863PDlxssbtemJFk/Qj+lbqBzykcrM372T/fP86qO1SSPlnPqxNVXbmuunA5pMa7VXZqc7c1ExrshEhK4maKTNFa2NVEcDUqHmoc09TUSRm1YtK1O3ZYVArUu75h9a55xBMvBqUtUCtTt1ZOI7koNPBqAHpUorXDu10KRJmlXg0LzTsVtIaH+9LkmkUZ4p3SobRSQopc0g6UtSWgPpS0n8VOxWMtzaIUUvSkrJnVC4lB9KWkpIUxpptONNNbwOSY3NFNxRVmZJinqKMU4CvWbKnUHAVIqU1RmrCrWE5HJJ3Ziawm27jI7p/WqYTitTWUy8DAc8j+VUAvFefVepaGqMU4ilIpO2DWKGNPNMIwetOY4qMtWsUIRj0pu6kdsEVHv5rVRES7qTNRb6N/FXygS7qXdUG+l3UcoE4NBqINTw1S4gTo2QDUqnmqqNhiPWp1NYyiNE6mpkbkVVBqRWxXPKJaZ6N4Gut+n3EB6xuG/Aj/61ZHi6Vm1o8DAiCgn86j8FXnk6u8BOBPEQPqOf5Zqv4mkDa9cZUnCgDn2rHk1NlLQoKRuCNISo5+WlDLtOQcnGDTF3AhDtUlgcn6UgfcDl8bV+X/P51UYA5iSHgDByuc1b0m4Ef2wA8GLK59v/ANdUJJPl3bjuOc//AK6jiuPJeUA8GJgCPpW8YaGLkZ7Plc1WduetPZvlquxzXXTgRuIT1phOTQTTc810pG0IDqM0lBpmlhc804GmCnVLRjJEgalDfOKj7Uin95WckZF1XpwNVwalU1lKIE46ip1qunWrKcVipckrlWuSqKk20iCpQK3nIqERqjBp+2jGKUdK53M6o0wAoxigUE8e1J1DRURAOSacBTV+79aXNZcxvGiGaTNITSE8e5qXI6I0hxPOKKaKcDQmRUpiEU0in4pMVvGR59SJFj3op1FVzGXKSU8cd6YPenA16zOeRMlRXd/HajaPml7D0+tV76++yRBVx5jfd9vesTeXYkkknqTXJUkQi1NdSTvvkbJ7DsKYJD6UxcCnZrkauy7jvNpDID3qJ8VAzlTVRgFyyzg96hLc9agaTJqMsc9a3jAEmyZ3qPPNMLYpu6tVE1jSbJd1G6od/vS7xVcpoqJLmnZqHdShqOUTokoanh+1QBqeGqXEylTaJ93ANTK4IBqmDTkfacVnKBnZovB6eH5qor09XrCVMdzZ0q8+yalbXGfuSAn6d60delVtcuAXIXqAOf4a5xJOKvy3Rupw5KglVBY+oXH9KydPUpSHqQRjaSxIxS5LfKEUFQSfWog+4EtJyAMUhZCM/MWJJPHFNQC4+SRsmXavXGMe3pWfO5iGMckdfYirUjIW3BWCDG7ms65bjvycit4x0IZCzcYqImnsaiJroijSnG4hNNFKTxSDpWiR1pC0tJ2p6nI6UMmQgFOoxSE1DMJMCcUin5809cEcimAYcipMmTKc1OpqstTqaiSEWIuWq5GOKpQdTV+IVw1TSJMmM4PWphwKiABHuKkU/wAJ/wD10lUfKrnXThdgaQHmhqjJrOUtT0qVG6HluaRm+WmFqYWyQKiUtDqjhyYHik3UwtTcmlc0VFEme9NznmmM2TgfjQDzSuaezSJQacDUYp4qkzmqwH5oNIM0vatYs8ypHUYetFFFFzLlFDZNKzhELscKBkmowaztWuSsawKeW5b6V7stEcTgUJ7g3Nw8p7ngegpVJxVcEDqaeJBXLKN2ZuLRYDUpeq3m/WkMvrUezFZk7SVCxz1pnmKe9IWBrWMDSNJsa2RTN1KTUZINaqJ2U6IpamlqjZsU3dVqJ1xoku6jdUO6l3VXKaexJ91KGqANTg1LlJdEn3U4NUAanBqlxMZUSwGpSeM9xUIanhqhxOadEmDZ5p4eq6tg4p4as3E5pUrFtXqzEwYhQpLE8c1nK3NWI3wRzjmsZQMtjRViw4VRtHPvzTjIwYyB1BJIwOKqhgVAAbODnNSbvn3iIFQe/TNDiCYrsAoUPkEAn2qhdOSwBbIXgfSrbkqvIHzjg5561QuCd4UrgrV2sLcYTxUZNOJphrWJ1UojW5ozQetKK0Omwc46U5CT0pMUsUYLkE9u1RIxmPOOtNpduzIpKzOZiqaG+9mhFzIOeDRINkmKBDgamVsCq6mpQeKUthMt25rQirNtulaEVcFZFw3LaU4jIpiEZqSsYtONjvo6Mj3dj1qNjT5FyPeoSx6HrWUnbQ9uhG6uIWqPdl6Vsim980PU60h+aUnAzTRzSjk0NgAzTwKUCnAc0GcpJCgU4UgFOFUkcdWaHAUGlxTSfStFoefN3Yh60U09aKgzKs9ylvF5jnjt6k1gzztcTtK3Geg9BTJppLiTfI30HpTRX0E3czcBwxTgaj3YpN9ZtGTgTZoLcVCzEimeZjg0JBGA9yp6ioW3fwtmnkhhULg9RWiR1U6YhlcHmm+f6jFIX7MOaaQCK0SOyEBWfNN3UwnBxSZq0jojAk3UbqZRmnYvlJA1PDVEgLHA5Na1totxOAxUgH1qXoHs7lAGnA1uL4dYD5mp40D3qHKJMqDMMGnqa3BoHvUi6APWoc4nPOgzny2CDUynit4aAp71Mnh9AMVm5I5KlA50GpVbGDnkV0Y8Ppmnjw8vQGsnNHDUoMxBISN+/wCY5yBTty7gNzFeCcVvJoIUgjFO/sTapAIwcfpUuojD2TOdZlwc556VTkILjnmusOigqAeg6e1RPoCuxJPPrT9oio0nc5Y/WmE107eHlPcUw+Hh6itIzR206TOYpwrpP+EdHrR/wj4HcVXOjZ0mc7T4uJVIroV0BT1NPHh9R0NRKaOedNnOzjEhzUVdQ2gBuS1J/wAI+g71nzo5nSdzmkOHFSXI+ZWznIrof+EeQcg0r6ErY56Uc6GqTOXFSDpXRf2HH604aHHnrQ5qwpUmY8PAFXY2wK04tETPWtCHQYiMk1xV5IUabMVHqcEGt9NAhAFTjw/DjOa8qVbklc9KhSbOYYVXlXPPSuuOhxdajbQ4qJ4unLRnt4ejI48N/C350uK6dtAgPWkGhRA4zWcMZFaM7fYyOaA7VIFrpP7Bhp40GLHWq+uQM5UZI5sDmnAV0R0KMd6P7EjHerWLgclSnI58ClAre/sZPWlGjIR15rRYuBw1KczBPAphroToaY+9UTaIo/iq/rUGckqcjBPWits6Gufv0UvrECfZyPNhSiiivpWJiGmmiipMmKOlRSUUUIcRq0poorRHTAry0xe9FFaI7IDe5oFFFWjoQUveiimUWrH/AFy/Wu/i/wBRH9KKKyqGsBXpB1oormZTHL0p46UUVDOeY8damSiioZx1CUdakWiispHBUH0p6GiioOZjD0FMPU0UUIuG4w01u1FFao7aYN0pp6UUUzZh61Kv3aKKlnNUD1oNFFZnOA6U31oooGhjUD7woopkyJ4utaMXQUUVx1xRLafdqX+GiivHqno4caepqJutFFcrPew+xF603+KiioO5Eg+7TloopmMw70pooq0ccyMdKcKKK1RxTFamHoKKK0ickiOiiirIP//Z;" vertex="1" parent="1">
          <mxGeometry x="180" y="400.01" width="250" height="204.55" as="geometry" />
        </mxCell>
      </root>
    </mxGraphModel>
  </diagram>
</mxfile>
